# Tiled2Unity generated file. Do not modify by hand.
# Wavefront file for 'World_mesh_0014.obj'

# Vertices (Count = 408)
v -4 -1 0
v -5 -1 0
v -5 0 0
v -4 0 0
v -5 -1 0
v -6 -1 0
v -6 0 0
v -5 0 0
v -4 -2 0
v -5 -2 0
v -5 -1 0
v -4 -1 0
v -5 -2 0
v -6 -2 0
v -6 -1 0
v -5 -1 0
v -4 -3 0
v -5 -3 0
v -5 -2 0
v -4 -2 0
v -5 -3 0
v -6 -3 0
v -6 -2 0
v -5 -2 0
v -4 -4 0
v -5 -4 0
v -5 -3 0
v -4 -3 0
v -5 -4 0
v -6 -4 0
v -6 -3 0
v -5 -3 0
v -4 -5 0
v -5 -5 0
v -5 -4 0
v -4 -4 0
v -5 -5 0
v -6 -5 0
v -6 -4 0
v -5 -4 0
v -4 -6 0
v -5 -6 0
v -5 -5 0
v -4 -5 0
v -5 -6 0
v -6 -6 0
v -6 -5 0
v -5 -5 0
v -4 -7 0
v -5 -7 0
v -5 -6 0
v -4 -6 0
v -5 -7 0
v -6 -7 0
v -6 -6 0
v -5 -6 0
v 0 -8 0
v -1 -8 0
v -1 -7 0
v 0 -7 0
v -1 -8 0
v -2 -8 0
v -2 -7 0
v -1 -7 0
v -2 -8 0
v -3 -8 0
v -3 -7 0
v -2 -7 0
v -3 -8 0
v -4 -8 0
v -4 -7 0
v -3 -7 0
v -4 -8 0
v -5 -8 0
v -5 -7 0
v -4 -7 0
v -5 -8 0
v -6 -8 0
v -6 -7 0
v -5 -7 0
v -6 -8 0
v -7 -8 0
v -7 -7 0
v -6 -7 0
v -7 -8 0
v -8 -8 0
v -8 -7 0
v -7 -7 0
v -8 -8 0
v -9 -8 0
v -9 -7 0
v -8 -7 0
v -9 -8 0
v -10 -8 0
v -10 -7 0
v -9 -7 0
v -10 -8 0
v -11 -8 0
v -11 -7 0
v -10 -7 0
v 0 -9 0
v -1 -9 0
v -1 -8 0
v 0 -8 0
v -1 -9 0
v -2 -9 0
v -2 -8 0
v -1 -8 0
v -2 -9 0
v -3 -9 0
v -3 -8 0
v -2 -8 0
v -3 -9 0
v -4 -9 0
v -4 -8 0
v -3 -8 0
v -4 -9 0
v -5 -9 0
v -5 -8 0
v -4 -8 0
v -5 -9 0
v -6 -9 0
v -6 -8 0
v -5 -8 0
v -6 -9 0
v -7 -9 0
v -7 -8 0
v -6 -8 0
v -7 -9 0
v -8 -9 0
v -8 -8 0
v -7 -8 0
v -8 -9 0
v -9 -9 0
v -9 -8 0
v -8 -8 0
v -9 -9 0
v -10 -9 0
v -10 -8 0
v -9 -8 0
v -10 -9 0
v -11 -9 0
v -11 -8 0
v -10 -8 0
v 0 -10 0
v -1 -10 0
v -1 -9 0
v 0 -9 0
v -1 -10 0
v -2 -10 0
v -2 -9 0
v -1 -9 0
v -2 -10 0
v -3 -10 0
v -3 -9 0
v -2 -9 0
v -3 -10 0
v -4 -10 0
v -4 -9 0
v -3 -9 0
v -4 -10 0
v -5 -10 0
v -5 -9 0
v -4 -9 0
v -5 -10 0
v -6 -10 0
v -6 -9 0
v -5 -9 0
v -6 -10 0
v -7 -10 0
v -7 -9 0
v -6 -9 0
v -7 -10 0
v -8 -10 0
v -8 -9 0
v -7 -9 0
v -8 -10 0
v -9 -10 0
v -9 -9 0
v -8 -9 0
v -9 -10 0
v -10 -10 0
v -10 -9 0
v -9 -9 0
v -10 -10 0
v -11 -10 0
v -11 -9 0
v -10 -9 0
v -15 -10 0
v -16 -10 0
v -16 -9 0
v -15 -9 0
v 0 -11 0
v -1 -11 0
v -1 -10 0
v 0 -10 0
v -1 -11 0
v -2 -11 0
v -2 -10 0
v -1 -10 0
v -2 -11 0
v -3 -11 0
v -3 -10 0
v -2 -10 0
v -3 -11 0
v -4 -11 0
v -4 -10 0
v -3 -10 0
v -4 -11 0
v -5 -11 0
v -5 -10 0
v -4 -10 0
v -5 -11 0
v -6 -11 0
v -6 -10 0
v -5 -10 0
v -6 -11 0
v -7 -11 0
v -7 -10 0
v -6 -10 0
v -7 -11 0
v -8 -11 0
v -8 -10 0
v -7 -10 0
v -8 -11 0
v -9 -11 0
v -9 -10 0
v -8 -10 0
v -9 -11 0
v -10 -11 0
v -10 -10 0
v -9 -10 0
v -10 -11 0
v -11 -11 0
v -11 -10 0
v -10 -10 0
v -15 -11 0
v -16 -11 0
v -16 -10 0
v -15 -10 0
v 0 -12 0
v -1 -12 0
v -1 -11 0
v 0 -11 0
v -1 -12 0
v -2 -12 0
v -2 -11 0
v -1 -11 0
v -2 -12 0
v -3 -12 0
v -3 -11 0
v -2 -11 0
v -3 -12 0
v -4 -12 0
v -4 -11 0
v -3 -11 0
v -4 -12 0
v -5 -12 0
v -5 -11 0
v -4 -11 0
v -5 -12 0
v -6 -12 0
v -6 -11 0
v -5 -11 0
v -6 -12 0
v -7 -12 0
v -7 -11 0
v -6 -11 0
v -7 -12 0
v -8 -12 0
v -8 -11 0
v -7 -11 0
v -8 -12 0
v -9 -12 0
v -9 -11 0
v -8 -11 0
v -9 -12 0
v -10 -12 0
v -10 -11 0
v -9 -11 0
v -10 -12 0
v -11 -12 0
v -11 -11 0
v -10 -11 0
v -15 -12 0
v -16 -12 0
v -16 -11 0
v -15 -11 0
v 0 -13 0
v -1 -13 0
v -1 -12 0
v 0 -12 0
v -1 -13 0
v -2 -13 0
v -2 -12 0
v -1 -12 0
v -2 -13 0
v -3 -13 0
v -3 -12 0
v -2 -12 0
v -3 -13 0
v -4 -13 0
v -4 -12 0
v -3 -12 0
v -4 -13 0
v -5 -13 0
v -5 -12 0
v -4 -12 0
v -5 -13 0
v -6 -13 0
v -6 -12 0
v -5 -12 0
v -6 -13 0
v -7 -13 0
v -7 -12 0
v -6 -12 0
v -7 -13 0
v -8 -13 0
v -8 -12 0
v -7 -12 0
v -8 -13 0
v -9 -13 0
v -9 -12 0
v -8 -12 0
v -9 -13 0
v -10 -13 0
v -10 -12 0
v -9 -12 0
v -10 -13 0
v -11 -13 0
v -11 -12 0
v -10 -12 0
v -15 -13 0
v -16 -13 0
v -16 -12 0
v -15 -12 0
v 0 -14 0
v -1 -14 0
v -1 -13 0
v 0 -13 0
v -1 -14 0
v -2 -14 0
v -2 -13 0
v -1 -13 0
v -2 -14 0
v -3 -14 0
v -3 -13 0
v -2 -13 0
v -3 -14 0
v -4 -14 0
v -4 -13 0
v -3 -13 0
v -4 -14 0
v -5 -14 0
v -5 -13 0
v -4 -13 0
v -5 -14 0
v -6 -14 0
v -6 -13 0
v -5 -13 0
v -6 -14 0
v -7 -14 0
v -7 -13 0
v -6 -13 0
v -7 -14 0
v -8 -14 0
v -8 -13 0
v -7 -13 0
v -8 -14 0
v -9 -14 0
v -9 -13 0
v -8 -13 0
v -9 -14 0
v -10 -14 0
v -10 -13 0
v -9 -13 0
v -10 -14 0
v -11 -14 0
v -11 -13 0
v -10 -13 0
v -15 -14 0
v -16 -14 0
v -16 -13 0
v -15 -13 0
v -4 -15 0
v -5 -15 0
v -5 -14 0
v -4 -14 0
v -5 -15 0
v -6 -15 0
v -6 -14 0
v -5 -14 0
v -15 -15 0
v -16 -15 0
v -16 -14 0
v -15 -14 0
v -4 -16 0
v -5 -16 0
v -5 -15 0
v -4 -15 0
v -5 -16 0
v -6 -16 0
v -6 -15 0
v -5 -15 0
v -15 -16 0
v -16 -16 0
v -16 -15 0
v -15 -15 0

# Texture cooridinates (Count = 41)
vt 0.3125 0.9375
vt 0.375 0.9375
vt 0.375 1
vt 0.3125 1
vt 0.4375 0.9375
vt 0.4375 1
vt 0.3125 0.875
vt 0.375 0.875
vt 0.4375 0.875
vt 0.3125 0.8125
vt 0.375 0.8125
vt 0.4375 0.8125
vt 0.0625 0.8125
vt 0.125 0.8125
vt 0.125 0.875
vt 0.0625 0.875
vt 0 0.8125
vt 0 0.875
vt 0.125 0.75
vt 0.1875 0.75
vt 0.1875 0.8125
vt 0 0.5625
vt 0.0625 0.5625
vt 0.0625 0.625
vt 0 0.625
vt 0.125 0.5625
vt 0.125 0.625
vt 0.1875 0.5625
vt 0.1875 0.625
vt 0.25 0.5625
vt 0.25 0.625
vt 0 0.5
vt 0.0625 0.5
vt 0.125 0.5
vt 0.1875 0.5
vt 0.25 0.5
vt 0 0.4375
vt 0.0625 0.4375
vt 0.125 0.4375
vt 0.1875 0.4375
vt 0.25 0.4375

# Normal
vn 0 0 -1

# Mesh description
g World_mesh_0014

# Faces
f 1/1/1 2/2/1 3/3/1 4/4/1
f 5/2/1 6/5/1 7/6/1 8/3/1
f 9/7/1 10/8/1 11/2/1 12/1/1
f 13/8/1 14/9/1 15/5/1 16/2/1
f 17/7/1 18/8/1 19/2/1 20/1/1
f 21/8/1 22/9/1 23/5/1 24/2/1
f 25/7/1 26/8/1 27/2/1 28/1/1
f 29/8/1 30/9/1 31/5/1 32/2/1
f 33/7/1 34/8/1 35/2/1 36/1/1
f 37/8/1 38/9/1 39/5/1 40/2/1
f 41/7/1 42/8/1 43/2/1 44/1/1
f 45/8/1 46/9/1 47/5/1 48/2/1
f 49/10/1 50/11/1 51/8/1 52/7/1
f 53/11/1 54/12/1 55/9/1 56/8/1
f 57/13/1 58/14/1 59/15/1 60/16/1
f 61/13/1 62/14/1 63/15/1 64/16/1
f 65/13/1 66/14/1 67/15/1 68/16/1
f 69/17/1 70/13/1 71/16/1 72/18/1
f 73/19/1 74/20/1 75/21/1 76/14/1
f 77/19/1 78/20/1 79/21/1 80/14/1
f 81/17/1 82/13/1 83/16/1 84/18/1
f 85/17/1 86/13/1 87/16/1 88/18/1
f 89/13/1 90/14/1 91/15/1 92/16/1
f 93/13/1 94/14/1 95/15/1 96/16/1
f 97/17/1 98/13/1 99/16/1 100/18/1
f 101/19/1 102/20/1 103/21/1 104/14/1
f 105/19/1 106/20/1 107/21/1 108/14/1
f 109/19/1 110/20/1 111/21/1 112/14/1
f 113/19/1 114/20/1 115/21/1 116/14/1
f 117/19/1 118/20/1 119/21/1 120/14/1
f 121/19/1 122/20/1 123/21/1 124/14/1
f 125/19/1 126/20/1 127/21/1 128/14/1
f 129/19/1 130/20/1 131/21/1 132/14/1
f 133/19/1 134/20/1 135/21/1 136/14/1
f 137/19/1 138/20/1 139/21/1 140/14/1
f 141/19/1 142/20/1 143/21/1 144/14/1
f 145/19/1 146/20/1 147/21/1 148/14/1
f 149/19/1 150/20/1 151/21/1 152/14/1
f 153/19/1 154/20/1 155/21/1 156/14/1
f 157/19/1 158/20/1 159/21/1 160/14/1
f 161/19/1 162/20/1 163/21/1 164/14/1
f 165/19/1 166/20/1 167/21/1 168/14/1
f 169/19/1 170/20/1 171/21/1 172/14/1
f 173/19/1 174/20/1 175/21/1 176/14/1
f 177/19/1 178/20/1 179/21/1 180/14/1
f 181/19/1 182/20/1 183/21/1 184/14/1
f 185/19/1 186/20/1 187/21/1 188/14/1
f 189/17/1 190/13/1 191/16/1 192/18/1
f 193/19/1 194/20/1 195/21/1 196/14/1
f 197/19/1 198/20/1 199/21/1 200/14/1
f 201/19/1 202/20/1 203/21/1 204/14/1
f 205/22/1 206/23/1 207/24/1 208/25/1
f 209/23/1 210/26/1 211/27/1 212/24/1
f 213/26/1 214/28/1 215/29/1 216/27/1
f 217/28/1 218/30/1 219/31/1 220/29/1
f 221/19/1 222/20/1 223/21/1 224/14/1
f 225/19/1 226/20/1 227/21/1 228/14/1
f 229/19/1 230/20/1 231/21/1 232/14/1
f 233/19/1 234/20/1 235/21/1 236/14/1
f 237/19/1 238/20/1 239/21/1 240/14/1
f 241/19/1 242/20/1 243/21/1 244/14/1
f 245/19/1 246/20/1 247/21/1 248/14/1
f 249/19/1 250/20/1 251/21/1 252/14/1
f 253/32/1 254/33/1 255/23/1 256/22/1
f 257/33/1 258/34/1 259/26/1 260/23/1
f 261/34/1 262/35/1 263/28/1 264/26/1
f 265/35/1 266/36/1 267/30/1 268/28/1
f 269/19/1 270/20/1 271/21/1 272/14/1
f 273/19/1 274/20/1 275/21/1 276/14/1
f 277/19/1 278/20/1 279/21/1 280/14/1
f 281/19/1 282/20/1 283/21/1 284/14/1
f 285/19/1 286/20/1 287/21/1 288/14/1
f 289/19/1 290/20/1 291/21/1 292/14/1
f 293/19/1 294/20/1 295/21/1 296/14/1
f 297/19/1 298/20/1 299/21/1 300/14/1
f 301/37/1 302/38/1 303/33/1 304/32/1
f 305/38/1 306/39/1 307/34/1 308/33/1
f 309/39/1 310/40/1 311/35/1 312/34/1
f 313/40/1 314/41/1 315/36/1 316/35/1
f 317/19/1 318/20/1 319/21/1 320/14/1
f 321/19/1 322/20/1 323/21/1 324/14/1
f 325/19/1 326/20/1 327/21/1 328/14/1
f 329/19/1 330/20/1 331/21/1 332/14/1
f 333/19/1 334/20/1 335/21/1 336/14/1
f 337/19/1 338/20/1 339/21/1 340/14/1
f 341/19/1 342/20/1 343/21/1 344/14/1
f 345/19/1 346/20/1 347/21/1 348/14/1
f 349/19/1 350/20/1 351/21/1 352/14/1
f 353/19/1 354/20/1 355/21/1 356/14/1
f 357/19/1 358/20/1 359/21/1 360/14/1
f 361/19/1 362/20/1 363/21/1 364/14/1
f 365/19/1 366/20/1 367/21/1 368/14/1
f 369/19/1 370/20/1 371/21/1 372/14/1
f 373/19/1 374/20/1 375/21/1 376/14/1
f 377/19/1 378/20/1 379/21/1 380/14/1
f 381/19/1 382/20/1 383/21/1 384/14/1
f 385/1/1 386/2/1 387/3/1 388/4/1
f 389/2/1 390/5/1 391/6/1 392/3/1
f 393/19/1 394/20/1 395/21/1 396/14/1
f 397/7/1 398/8/1 399/2/1 400/1/1
f 401/8/1 402/9/1 403/5/1 404/2/1
f 405/19/1 406/20/1 407/21/1 408/14/1

