# Tiled2Unity generated file. Do not modify by hand.
# Wavefront file for 'World_mesh_0019.obj'

# Vertices (Count = 596)
v 0 -1 0
v -1 -1 0
v -1 0 0
v 0 0 0
v -9 -1 0
v -10 -1 0
v -10 0 0
v -9 0 0
v -10 -1 0
v -11 -1 0
v -11 0 0
v -10 0 0
v -11 -1 0
v -12 -1 0
v -12 0 0
v -11 0 0
v -12 -1 0
v -13 -1 0
v -13 0 0
v -12 0 0
v -13 -1 0
v -14 -1 0
v -14 0 0
v -13 0 0
v -14 -1 0
v -15 -1 0
v -15 0 0
v -14 0 0
v 0 -2 0
v -1 -2 0
v -1 -1 0
v 0 -1 0
v -9 -2 0
v -10 -2 0
v -10 -1 0
v -9 -1 0
v -10 -2 0
v -11 -2 0
v -11 -1 0
v -10 -1 0
v -11 -2 0
v -12 -2 0
v -12 -1 0
v -11 -1 0
v -12 -2 0
v -13 -2 0
v -13 -1 0
v -12 -1 0
v -13 -2 0
v -14 -2 0
v -14 -1 0
v -13 -1 0
v -14 -2 0
v -15 -2 0
v -15 -1 0
v -14 -1 0
v 0 -3 0
v -1 -3 0
v -1 -2 0
v 0 -2 0
v -1 -3 0
v -2 -3 0
v -2 -2 0
v -1 -2 0
v -2 -3 0
v -3 -3 0
v -3 -2 0
v -2 -2 0
v -3 -3 0
v -4 -3 0
v -4 -2 0
v -3 -2 0
v -9 -3 0
v -10 -3 0
v -10 -2 0
v -9 -2 0
v -10 -3 0
v -11 -3 0
v -11 -2 0
v -10 -2 0
v -11 -3 0
v -12 -3 0
v -12 -2 0
v -11 -2 0
v -12 -3 0
v -13 -3 0
v -13 -2 0
v -12 -2 0
v -13 -3 0
v -14 -3 0
v -14 -2 0
v -13 -2 0
v -14 -3 0
v -15 -3 0
v -15 -2 0
v -14 -2 0
v 0 -4 0
v -1 -4 0
v -1 -3 0
v 0 -3 0
v -1 -4 0
v -2 -4 0
v -2 -3 0
v -1 -3 0
v -2 -4 0
v -3 -4 0
v -3 -3 0
v -2 -3 0
v -3 -4 0
v -4 -4 0
v -4 -3 0
v -3 -3 0
v -9 -4 0
v -10 -4 0
v -10 -3 0
v -9 -3 0
v -10 -4 0
v -11 -4 0
v -11 -3 0
v -10 -3 0
v -11 -4 0
v -12 -4 0
v -12 -3 0
v -11 -3 0
v -12 -4 0
v -13 -4 0
v -13 -3 0
v -12 -3 0
v -13 -4 0
v -14 -4 0
v -14 -3 0
v -13 -3 0
v -14 -4 0
v -15 -4 0
v -15 -3 0
v -14 -3 0
v 0 -5 0
v -1 -5 0
v -1 -4 0
v 0 -4 0
v -1 -5 0
v -2 -5 0
v -2 -4 0
v -1 -4 0
v -2 -5 0
v -3 -5 0
v -3 -4 0
v -2 -4 0
v -3 -5 0
v -4 -5 0
v -4 -4 0
v -3 -4 0
v -9 -5 0
v -10 -5 0
v -10 -4 0
v -9 -4 0
v -10 -5 0
v -11 -5 0
v -11 -4 0
v -10 -4 0
v -11 -5 0
v -12 -5 0
v -12 -4 0
v -11 -4 0
v -12 -5 0
v -13 -5 0
v -13 -4 0
v -12 -4 0
v -13 -5 0
v -14 -5 0
v -14 -4 0
v -13 -4 0
v -14 -5 0
v -15 -5 0
v -15 -4 0
v -14 -4 0
v 0 -6 0
v -1 -6 0
v -1 -5 0
v 0 -5 0
v -1 -6 0
v -2 -6 0
v -2 -5 0
v -1 -5 0
v -2 -6 0
v -3 -6 0
v -3 -5 0
v -2 -5 0
v -3 -6 0
v -4 -6 0
v -4 -5 0
v -3 -5 0
v -9 -6 0
v -10 -6 0
v -10 -5 0
v -9 -5 0
v -10 -6 0
v -11 -6 0
v -11 -5 0
v -10 -5 0
v -11 -6 0
v -12 -6 0
v -12 -5 0
v -11 -5 0
v -12 -6 0
v -13 -6 0
v -13 -5 0
v -12 -5 0
v -13 -6 0
v -14 -6 0
v -14 -5 0
v -13 -5 0
v -14 -6 0
v -15 -6 0
v -15 -5 0
v -14 -5 0
v 0 -7 0
v -1 -7 0
v -1 -6 0
v 0 -6 0
v -1 -7 0
v -2 -7 0
v -2 -6 0
v -1 -6 0
v -2 -7 0
v -3 -7 0
v -3 -6 0
v -2 -6 0
v -3 -7 0
v -4 -7 0
v -4 -6 0
v -3 -6 0
v -4 -7 0
v -5 -7 0
v -5 -6 0
v -4 -6 0
v -5 -7 0
v -6 -7 0
v -6 -6 0
v -5 -6 0
v -6 -7 0
v -7 -7 0
v -7 -6 0
v -6 -6 0
v -7 -7 0
v -8 -7 0
v -8 -6 0
v -7 -6 0
v -8 -7 0
v -9 -7 0
v -9 -6 0
v -8 -6 0
v -9 -7 0
v -10 -7 0
v -10 -6 0
v -9 -6 0
v -10 -7 0
v -11 -7 0
v -11 -6 0
v -10 -6 0
v -11 -7 0
v -12 -7 0
v -12 -6 0
v -11 -6 0
v -12 -7 0
v -13 -7 0
v -13 -6 0
v -12 -6 0
v -13 -7 0
v -14 -7 0
v -14 -6 0
v -13 -6 0
v -14 -7 0
v -15 -7 0
v -15 -6 0
v -14 -6 0
v 0 -8 0
v -1 -8 0
v -1 -7 0
v 0 -7 0
v -1 -8 0
v -2 -8 0
v -2 -7 0
v -1 -7 0
v -2 -8 0
v -3 -8 0
v -3 -7 0
v -2 -7 0
v -3 -8 0
v -4 -8 0
v -4 -7 0
v -3 -7 0
v -4 -8 0
v -5 -8 0
v -5 -7 0
v -4 -7 0
v -5 -8 0
v -6 -8 0
v -6 -7 0
v -5 -7 0
v -6 -8 0
v -7 -8 0
v -7 -7 0
v -6 -7 0
v -7 -8 0
v -8 -8 0
v -8 -7 0
v -7 -7 0
v -8 -8 0
v -9 -8 0
v -9 -7 0
v -8 -7 0
v -9 -8 0
v -10 -8 0
v -10 -7 0
v -9 -7 0
v -10 -8 0
v -11 -8 0
v -11 -7 0
v -10 -7 0
v -11 -8 0
v -12 -8 0
v -12 -7 0
v -11 -7 0
v -12 -8 0
v -13 -8 0
v -13 -7 0
v -12 -7 0
v -13 -8 0
v -14 -8 0
v -14 -7 0
v -13 -7 0
v -14 -8 0
v -15 -8 0
v -15 -7 0
v -14 -7 0
v 0 -9 0
v -1 -9 0
v -1 -8 0
v 0 -8 0
v -1 -9 0
v -2 -9 0
v -2 -8 0
v -1 -8 0
v -2 -9 0
v -3 -9 0
v -3 -8 0
v -2 -8 0
v -3 -9 0
v -4 -9 0
v -4 -8 0
v -3 -8 0
v -9 -9 0
v -10 -9 0
v -10 -8 0
v -9 -8 0
v -10 -9 0
v -11 -9 0
v -11 -8 0
v -10 -8 0
v -11 -9 0
v -12 -9 0
v -12 -8 0
v -11 -8 0
v -12 -9 0
v -13 -9 0
v -13 -8 0
v -12 -8 0
v -13 -9 0
v -14 -9 0
v -14 -8 0
v -13 -8 0
v -14 -9 0
v -15 -9 0
v -15 -8 0
v -14 -8 0
v 0 -10 0
v -1 -10 0
v -1 -9 0
v 0 -9 0
v -1 -10 0
v -2 -10 0
v -2 -9 0
v -1 -9 0
v -2 -10 0
v -3 -10 0
v -3 -9 0
v -2 -9 0
v -3 -10 0
v -4 -10 0
v -4 -9 0
v -3 -9 0
v -9 -10 0
v -10 -10 0
v -10 -9 0
v -9 -9 0
v -10 -10 0
v -11 -10 0
v -11 -9 0
v -10 -9 0
v -11 -10 0
v -12 -10 0
v -12 -9 0
v -11 -9 0
v -12 -10 0
v -13 -10 0
v -13 -9 0
v -12 -9 0
v -13 -10 0
v -14 -10 0
v -14 -9 0
v -13 -9 0
v -14 -10 0
v -15 -10 0
v -15 -9 0
v -14 -9 0
v 0 -11 0
v -1 -11 0
v -1 -10 0
v 0 -10 0
v -1 -11 0
v -2 -11 0
v -2 -10 0
v -1 -10 0
v -2 -11 0
v -3 -11 0
v -3 -10 0
v -2 -10 0
v -3 -11 0
v -4 -11 0
v -4 -10 0
v -3 -10 0
v -9 -11 0
v -10 -11 0
v -10 -10 0
v -9 -10 0
v -10 -11 0
v -11 -11 0
v -11 -10 0
v -10 -10 0
v -11 -11 0
v -12 -11 0
v -12 -10 0
v -11 -10 0
v -12 -11 0
v -13 -11 0
v -13 -10 0
v -12 -10 0
v -13 -11 0
v -14 -11 0
v -14 -10 0
v -13 -10 0
v -14 -11 0
v -15 -11 0
v -15 -10 0
v -14 -10 0
v 0 -12 0
v -1 -12 0
v -1 -11 0
v 0 -11 0
v -1 -12 0
v -2 -12 0
v -2 -11 0
v -1 -11 0
v -2 -12 0
v -3 -12 0
v -3 -11 0
v -2 -11 0
v -3 -12 0
v -4 -12 0
v -4 -11 0
v -3 -11 0
v -9 -12 0
v -10 -12 0
v -10 -11 0
v -9 -11 0
v -10 -12 0
v -11 -12 0
v -11 -11 0
v -10 -11 0
v -11 -12 0
v -12 -12 0
v -12 -11 0
v -11 -11 0
v -12 -12 0
v -13 -12 0
v -13 -11 0
v -12 -11 0
v -13 -12 0
v -14 -12 0
v -14 -11 0
v -13 -11 0
v -14 -12 0
v -15 -12 0
v -15 -11 0
v -14 -11 0
v 0 -13 0
v -1 -13 0
v -1 -12 0
v 0 -12 0
v -1 -13 0
v -2 -13 0
v -2 -12 0
v -1 -12 0
v -2 -13 0
v -3 -13 0
v -3 -12 0
v -2 -12 0
v -3 -13 0
v -4 -13 0
v -4 -12 0
v -3 -12 0
v -11 -13 0
v -12 -13 0
v -12 -12 0
v -11 -12 0
v -12 -13 0
v -13 -13 0
v -13 -12 0
v -12 -12 0
v 0 -14 0
v -1 -14 0
v -1 -13 0
v 0 -13 0
v -1 -14 0
v -2 -14 0
v -2 -13 0
v -1 -13 0
v -2 -14 0
v -3 -14 0
v -3 -13 0
v -2 -13 0
v -3 -14 0
v -4 -14 0
v -4 -13 0
v -3 -13 0
v -11 -14 0
v -12 -14 0
v -12 -13 0
v -11 -13 0
v -12 -14 0
v -13 -14 0
v -13 -13 0
v -12 -13 0
v 0 -15 0
v -1 -15 0
v -1 -14 0
v 0 -14 0
v -1 -15 0
v -2 -15 0
v -2 -14 0
v -1 -14 0
v -2 -15 0
v -3 -15 0
v -3 -14 0
v -2 -14 0
v -3 -15 0
v -4 -15 0
v -4 -14 0
v -3 -14 0
v -11 -15 0
v -12 -15 0
v -12 -14 0
v -11 -14 0
v -12 -15 0
v -13 -15 0
v -13 -14 0
v -12 -14 0
v -9 -16 0
v -10 -16 0
v -10 -15 0
v -9 -15 0
v -10 -16 0
v -11 -16 0
v -11 -15 0
v -10 -15 0
v -11 -16 0
v -12 -16 0
v -12 -15 0
v -11 -15 0
v -12 -16 0
v -13 -16 0
v -13 -15 0
v -12 -15 0
v -13 -16 0
v -14 -16 0
v -14 -15 0
v -13 -15 0
v -14 -16 0
v -15 -16 0
v -15 -15 0
v -14 -15 0
v -15 -16 0
v -16 -16 0
v -16 -15 0
v -15 -15 0

# Texture cooridinates (Count = 35)
vt 0.375 0.875
vt 0.4375 0.875
vt 0.4375 0.9375
vt 0.375 0.9375
vt 0 0.8125
vt 0.0625 0.8125
vt 0.0625 0.875
vt 0 0.875
vt 0.125 0.8125
vt 0.125 0.875
vt 0.125 0.75
vt 0.1875 0.75
vt 0.1875 0.8125
vt 0.375 0.8125
vt 0.4375 0.8125
vt 0 0.5625
vt 0.0625 0.5625
vt 0.0625 0.625
vt 0 0.625
vt 0.125 0.5625
vt 0.125 0.625
vt 0.1875 0.5625
vt 0.1875 0.625
vt 0.25 0.5625
vt 0.25 0.625
vt 0 0.5
vt 0.0625 0.5
vt 0.125 0.5
vt 0.1875 0.5
vt 0.25 0.5
vt 0 0.4375
vt 0.0625 0.4375
vt 0.125 0.4375
vt 0.1875 0.4375
vt 0.25 0.4375

# Normal
vn 0 0 -1

# Mesh description
g World_mesh_0019

# Faces
f 1/1/1 2/2/1 3/3/1 4/4/1
f 5/5/1 6/6/1 7/7/1 8/8/1
f 9/6/1 10/9/1 11/10/1 12/7/1
f 13/11/1 14/12/1 15/13/1 16/9/1
f 17/11/1 18/12/1 19/13/1 20/9/1
f 21/5/1 22/6/1 23/7/1 24/8/1
f 25/6/1 26/9/1 27/10/1 28/7/1
f 29/14/1 30/15/1 31/2/1 32/1/1
f 33/11/1 34/12/1 35/13/1 36/9/1
f 37/16/1 38/17/1 39/18/1 40/19/1
f 41/17/1 42/20/1 43/21/1 44/18/1
f 45/20/1 46/22/1 47/23/1 48/21/1
f 49/22/1 50/24/1 51/25/1 52/23/1
f 53/11/1 54/12/1 55/13/1 56/9/1
f 57/12/1 58/13/1 59/9/1 60/11/1
f 61/5/1 62/6/1 63/7/1 64/8/1
f 65/5/1 66/6/1 67/7/1 68/8/1
f 69/5/1 70/6/1 71/7/1 72/8/1
f 73/11/1 74/12/1 75/13/1 76/9/1
f 77/26/1 78/27/1 79/17/1 80/16/1
f 81/27/1 82/28/1 83/20/1 84/17/1
f 85/28/1 86/29/1 87/22/1 88/20/1
f 89/29/1 90/30/1 91/24/1 92/22/1
f 93/11/1 94/12/1 95/13/1 96/9/1
f 97/12/1 98/13/1 99/9/1 100/11/1
f 101/12/1 102/13/1 103/9/1 104/11/1
f 105/12/1 106/13/1 107/9/1 108/11/1
f 109/12/1 110/13/1 111/9/1 112/11/1
f 113/11/1 114/12/1 115/13/1 116/9/1
f 117/31/1 118/32/1 119/27/1 120/26/1
f 121/32/1 122/33/1 123/28/1 124/27/1
f 125/33/1 126/34/1 127/29/1 128/28/1
f 129/34/1 130/35/1 131/30/1 132/29/1
f 133/11/1 134/12/1 135/13/1 136/9/1
f 137/12/1 138/13/1 139/9/1 140/11/1
f 141/12/1 142/13/1 143/9/1 144/11/1
f 145/12/1 146/13/1 147/9/1 148/11/1
f 149/12/1 150/13/1 151/9/1 152/11/1
f 153/11/1 154/12/1 155/13/1 156/9/1
f 157/11/1 158/12/1 159/13/1 160/9/1
f 161/11/1 162/12/1 163/13/1 164/9/1
f 165/11/1 166/12/1 167/13/1 168/9/1
f 169/11/1 170/12/1 171/13/1 172/9/1
f 173/11/1 174/12/1 175/13/1 176/9/1
f 177/12/1 178/13/1 179/9/1 180/11/1
f 181/12/1 182/13/1 183/9/1 184/11/1
f 185/12/1 186/13/1 187/9/1 188/11/1
f 189/12/1 190/13/1 191/9/1 192/11/1
f 193/11/1 194/12/1 195/13/1 196/9/1
f 197/11/1 198/12/1 199/13/1 200/9/1
f 201/11/1 202/12/1 203/13/1 204/9/1
f 205/11/1 206/12/1 207/13/1 208/9/1
f 209/11/1 210/12/1 211/13/1 212/9/1
f 213/11/1 214/12/1 215/13/1 216/9/1
f 217/20/1 218/22/1 219/23/1 220/21/1
f 221/22/1 222/24/1 223/25/1 224/23/1
f 225/12/1 226/13/1 227/9/1 228/11/1
f 229/12/1 230/13/1 231/9/1 232/11/1
f 233/5/1 234/6/1 235/7/1 236/8/1
f 237/6/1 238/9/1 239/10/1 240/7/1
f 241/6/1 242/9/1 243/10/1 244/7/1
f 245/6/1 246/9/1 247/10/1 248/7/1
f 249/5/1 250/6/1 251/7/1 252/8/1
f 253/11/1 254/12/1 255/13/1 256/9/1
f 257/11/1 258/12/1 259/13/1 260/9/1
f 261/11/1 262/12/1 263/13/1 264/9/1
f 265/11/1 266/12/1 267/13/1 268/9/1
f 269/11/1 270/12/1 271/13/1 272/9/1
f 273/11/1 274/12/1 275/13/1 276/9/1
f 277/28/1 278/29/1 279/22/1 280/20/1
f 281/29/1 282/30/1 283/24/1 284/22/1
f 285/12/1 286/13/1 287/9/1 288/11/1
f 289/12/1 290/13/1 291/9/1 292/11/1
f 293/12/1 294/13/1 295/9/1 296/11/1
f 297/12/1 298/13/1 299/9/1 300/11/1
f 301/12/1 302/13/1 303/9/1 304/11/1
f 305/12/1 306/13/1 307/9/1 308/11/1
f 309/12/1 310/13/1 311/9/1 312/11/1
f 313/11/1 314/12/1 315/13/1 316/9/1
f 317/11/1 318/12/1 319/13/1 320/9/1
f 321/11/1 322/12/1 323/13/1 324/9/1
f 325/11/1 326/12/1 327/13/1 328/9/1
f 329/11/1 330/12/1 331/13/1 332/9/1
f 333/11/1 334/12/1 335/13/1 336/9/1
f 337/33/1 338/34/1 339/29/1 340/28/1
f 341/34/1 342/35/1 343/30/1 344/29/1
f 345/12/1 346/13/1 347/9/1 348/11/1
f 349/12/1 350/13/1 351/9/1 352/11/1
f 353/11/1 354/12/1 355/13/1 356/9/1
f 357/11/1 358/12/1 359/13/1 360/9/1
f 361/11/1 362/12/1 363/13/1 364/9/1
f 365/11/1 366/12/1 367/13/1 368/9/1
f 369/11/1 370/12/1 371/13/1 372/9/1
f 373/11/1 374/12/1 375/13/1 376/9/1
f 377/12/1 378/13/1 379/9/1 380/11/1
f 381/12/1 382/13/1 383/9/1 384/11/1
f 385/12/1 386/13/1 387/9/1 388/11/1
f 389/12/1 390/13/1 391/9/1 392/11/1
f 393/11/1 394/12/1 395/13/1 396/9/1
f 397/16/1 398/17/1 399/18/1 400/19/1
f 401/17/1 402/20/1 403/21/1 404/18/1
f 405/20/1 406/22/1 407/23/1 408/21/1
f 409/22/1 410/24/1 411/25/1 412/23/1
f 413/11/1 414/12/1 415/13/1 416/9/1
f 417/12/1 418/13/1 419/9/1 420/11/1
f 421/12/1 422/13/1 423/9/1 424/11/1
f 425/12/1 426/13/1 427/9/1 428/11/1
f 429/12/1 430/13/1 431/9/1 432/11/1
f 433/11/1 434/12/1 435/13/1 436/9/1
f 437/26/1 438/27/1 439/17/1 440/16/1
f 441/27/1 442/28/1 443/20/1 444/17/1
f 445/28/1 446/29/1 447/22/1 448/20/1
f 449/29/1 450/30/1 451/24/1 452/22/1
f 453/11/1 454/12/1 455/13/1 456/9/1
f 457/12/1 458/13/1 459/9/1 460/11/1
f 461/12/1 462/13/1 463/9/1 464/11/1
f 465/12/1 466/13/1 467/9/1 468/11/1
f 469/12/1 470/13/1 471/9/1 472/11/1
f 473/11/1 474/12/1 475/13/1 476/9/1
f 477/31/1 478/32/1 479/27/1 480/26/1
f 481/32/1 482/33/1 483/28/1 484/27/1
f 485/33/1 486/34/1 487/29/1 488/28/1
f 489/34/1 490/35/1 491/30/1 492/29/1
f 493/11/1 494/12/1 495/13/1 496/9/1
f 497/12/1 498/13/1 499/9/1 500/11/1
f 501/12/1 502/13/1 503/9/1 504/11/1
f 505/12/1 506/13/1 507/9/1 508/11/1
f 509/12/1 510/13/1 511/9/1 512/11/1
f 513/11/1 514/12/1 515/13/1 516/9/1
f 517/11/1 518/12/1 519/13/1 520/9/1
f 521/12/1 522/13/1 523/9/1 524/11/1
f 525/12/1 526/13/1 527/9/1 528/11/1
f 529/12/1 530/13/1 531/9/1 532/11/1
f 533/12/1 534/13/1 535/9/1 536/11/1
f 537/11/1 538/12/1 539/13/1 540/9/1
f 541/11/1 542/12/1 543/13/1 544/9/1
f 545/12/1 546/13/1 547/9/1 548/11/1
f 549/12/1 550/13/1 551/9/1 552/11/1
f 553/12/1 554/13/1 555/9/1 556/11/1
f 557/12/1 558/13/1 559/9/1 560/11/1
f 561/11/1 562/12/1 563/13/1 564/9/1
f 565/11/1 566/12/1 567/13/1 568/9/1
f 569/5/1 570/6/1 571/7/1 572/8/1
f 573/6/1 574/9/1 575/10/1 576/7/1
f 577/11/1 578/12/1 579/13/1 580/9/1
f 581/11/1 582/12/1 583/13/1 584/9/1
f 585/5/1 586/6/1 587/7/1 588/8/1
f 589/5/1 590/6/1 591/7/1 592/8/1
f 593/6/1 594/9/1 595/10/1 596/7/1

