# Tiled2Unity generated file. Do not modify by hand.
# Wavefront file for 'World_mesh_0092.obj'

# Vertices (Count = 136)
v -8 -1 0
v -9 -1 0
v -9 0 0
v -8 0 0
v -15 -1 0
v -16 -1 0
v -16 0 0
v -15 0 0
v -8 -2 0
v -9 -2 0
v -9 -1 0
v -8 -1 0
v -15 -2 0
v -16 -2 0
v -16 -1 0
v -15 -1 0
v -8 -3 0
v -9 -3 0
v -9 -2 0
v -8 -2 0
v -15 -3 0
v -16 -3 0
v -16 -2 0
v -15 -2 0
v -8 -4 0
v -9 -4 0
v -9 -3 0
v -8 -3 0
v -8 -5 0
v -9 -5 0
v -9 -4 0
v -8 -4 0
v -8 -6 0
v -9 -6 0
v -9 -5 0
v -8 -5 0
v -8 -7 0
v -9 -7 0
v -9 -6 0
v -8 -6 0
v -8 -8 0
v -9 -8 0
v -9 -7 0
v -8 -7 0
v -15 -8 0
v -16 -8 0
v -16 -7 0
v -15 -7 0
v -8 -9 0
v -9 -9 0
v -9 -8 0
v -8 -8 0
v -15 -9 0
v -16 -9 0
v -16 -8 0
v -15 -8 0
v -8 -10 0
v -9 -10 0
v -9 -9 0
v -8 -9 0
v -15 -10 0
v -16 -10 0
v -16 -9 0
v -15 -9 0
v -8 -11 0
v -9 -11 0
v -9 -10 0
v -8 -10 0
v -8 -12 0
v -9 -12 0
v -9 -11 0
v -8 -11 0
v -8 -13 0
v -9 -13 0
v -9 -12 0
v -8 -12 0
v -10 -13 0
v -11 -13 0
v -11 -12 0
v -10 -12 0
v -11 -13 0
v -12 -13 0
v -12 -12 0
v -11 -12 0
v -12 -13 0
v -13 -13 0
v -13 -12 0
v -12 -12 0
v -13 -13 0
v -14 -13 0
v -14 -12 0
v -13 -12 0
v -8 -14 0
v -9 -14 0
v -9 -13 0
v -8 -13 0
v -10 -14 0
v -11 -14 0
v -11 -13 0
v -10 -13 0
v -11 -14 0
v -12 -14 0
v -12 -13 0
v -11 -13 0
v -12 -14 0
v -13 -14 0
v -13 -13 0
v -12 -13 0
v -13 -14 0
v -14 -14 0
v -14 -13 0
v -13 -13 0
v -8 -15 0
v -9 -15 0
v -9 -14 0
v -8 -14 0
v -10 -15 0
v -11 -15 0
v -11 -14 0
v -10 -14 0
v -11 -15 0
v -12 -15 0
v -12 -14 0
v -11 -14 0
v -12 -15 0
v -13 -15 0
v -13 -14 0
v -12 -14 0
v -13 -15 0
v -14 -15 0
v -14 -14 0
v -13 -14 0
v -8 -16 0
v -9 -16 0
v -9 -15 0
v -8 -15 0

# Texture cooridinates (Count = 16)
vt 0 0.875
vt 0.0625 0.875
vt 0.0625 0.9375
vt 0 0.9375
vt 0.0625 1
vt 0 1
vt 0 0.8125
vt 0.0625 0.8125
vt 0.125 0.9375
vt 0.125 1
vt 0.1875 0.9375
vt 0.1875 1
vt 0.125 0.875
vt 0.1875 0.875
vt 0.125 0.8125
vt 0.1875 0.8125

# Normal
vn 0 0 -1

# Mesh description
g World_mesh_0092

# Faces
f 1/1/1 2/2/1 3/3/1 4/4/1
f 5/4/1 6/3/1 7/5/1 8/6/1
f 9/1/1 10/2/1 11/3/1 12/4/1
f 13/1/1 14/2/1 15/3/1 16/4/1
f 17/1/1 18/2/1 19/3/1 20/4/1
f 21/7/1 22/8/1 23/2/1 24/1/1
f 25/1/1 26/2/1 27/3/1 28/4/1
f 29/1/1 30/2/1 31/3/1 32/4/1
f 33/1/1 34/2/1 35/3/1 36/4/1
f 37/1/1 38/2/1 39/3/1 40/4/1
f 41/1/1 42/2/1 43/3/1 44/4/1
f 45/4/1 46/3/1 47/5/1 48/6/1
f 49/1/1 50/2/1 51/3/1 52/4/1
f 53/1/1 54/2/1 55/3/1 56/4/1
f 57/1/1 58/2/1 59/3/1 60/4/1
f 61/7/1 62/8/1 63/2/1 64/1/1
f 65/1/1 66/2/1 67/3/1 68/4/1
f 69/1/1 70/2/1 71/3/1 72/4/1
f 73/1/1 74/2/1 75/3/1 76/4/1
f 77/4/1 78/3/1 79/5/1 80/6/1
f 81/3/1 82/9/1 83/10/1 84/5/1
f 85/3/1 86/9/1 87/10/1 88/5/1
f 89/9/1 90/11/1 91/12/1 92/10/1
f 93/1/1 94/2/1 95/3/1 96/4/1
f 97/1/1 98/2/1 99/3/1 100/4/1
f 101/2/1 102/13/1 103/9/1 104/3/1
f 105/2/1 106/13/1 107/9/1 108/3/1
f 109/13/1 110/14/1 111/11/1 112/9/1
f 113/1/1 114/2/1 115/3/1 116/4/1
f 117/7/1 118/8/1 119/2/1 120/1/1
f 121/3/1 122/9/1 123/10/1 124/5/1
f 125/3/1 126/9/1 127/10/1 128/5/1
f 129/15/1 130/16/1 131/14/1 132/13/1
f 133/1/1 134/2/1 135/3/1 136/4/1

