# Tiled2Unity generated file. Do not modify by hand.
# Wavefront file for 'World_mesh_0067.obj'

# Vertices (Count = 224)
v -6 -1 0
v -7 -1 0
v -7 0 0
v -6 0 0
v -7 -1 0
v -8 -1 0
v -8 0 0
v -7 0 0
v -8 -1 0
v -9 -1 0
v -9 0 0
v -8 0 0
v -9 -1 0
v -10 -1 0
v -10 0 0
v -9 0 0
v -6 -2 0
v -7 -2 0
v -7 -1 0
v -6 -1 0
v -7 -2 0
v -8 -2 0
v -8 -1 0
v -7 -1 0
v -8 -2 0
v -9 -2 0
v -9 -1 0
v -8 -1 0
v -9 -2 0
v -10 -2 0
v -10 -1 0
v -9 -1 0
v -6 -3 0
v -7 -3 0
v -7 -2 0
v -6 -2 0
v -9 -3 0
v -10 -3 0
v -10 -2 0
v -9 -2 0
v -6 -4 0
v -7 -4 0
v -7 -3 0
v -6 -3 0
v -9 -4 0
v -10 -4 0
v -10 -3 0
v -9 -3 0
v -6 -5 0
v -7 -5 0
v -7 -4 0
v -6 -4 0
v -9 -5 0
v -10 -5 0
v -10 -4 0
v -9 -4 0
v -10 -5 0
v -11 -5 0
v -11 -4 0
v -10 -4 0
v -11 -5 0
v -12 -5 0
v -12 -4 0
v -11 -4 0
v -12 -5 0
v -13 -5 0
v -13 -4 0
v -12 -4 0
v -13 -5 0
v -14 -5 0
v -14 -4 0
v -13 -4 0
v -14 -5 0
v -15 -5 0
v -15 -4 0
v -14 -4 0
v -15 -5 0
v -16 -5 0
v -16 -4 0
v -15 -4 0
v -2 -6 0
v -3 -6 0
v -3 -5 0
v -2 -5 0
v -3 -6 0
v -4 -6 0
v -4 -5 0
v -3 -5 0
v -4 -6 0
v -5 -6 0
v -5 -5 0
v -4 -5 0
v -5 -6 0
v -6 -6 0
v -6 -5 0
v -5 -5 0
v -6 -6 0
v -7 -6 0
v -7 -5 0
v -6 -5 0
v -9 -6 0
v -10 -6 0
v -10 -5 0
v -9 -5 0
v -10 -6 0
v -11 -6 0
v -11 -5 0
v -10 -5 0
v -11 -6 0
v -12 -6 0
v -12 -5 0
v -11 -5 0
v -12 -6 0
v -13 -6 0
v -13 -5 0
v -12 -5 0
v -13 -6 0
v -14 -6 0
v -14 -5 0
v -13 -5 0
v -14 -6 0
v -15 -6 0
v -15 -5 0
v -14 -5 0
v -15 -6 0
v -16 -6 0
v -16 -5 0
v -15 -5 0
v -2 -7 0
v -3 -7 0
v -3 -6 0
v -2 -6 0
v -3 -7 0
v -4 -7 0
v -4 -6 0
v -3 -6 0
v -4 -7 0
v -5 -7 0
v -5 -6 0
v -4 -6 0
v -5 -7 0
v -6 -7 0
v -6 -6 0
v -5 -6 0
v -6 -7 0
v -7 -7 0
v -7 -6 0
v -6 -6 0
v -2 -8 0
v -3 -8 0
v -3 -7 0
v -2 -7 0
v -3 -8 0
v -4 -8 0
v -4 -7 0
v -3 -7 0
v -2 -9 0
v -3 -9 0
v -3 -8 0
v -2 -8 0
v -3 -9 0
v -4 -9 0
v -4 -8 0
v -3 -8 0
v -3 -10 0
v -4 -10 0
v -4 -9 0
v -3 -9 0
v 0 -11 0
v -1 -11 0
v -1 -10 0
v 0 -10 0
v -1 -11 0
v -2 -11 0
v -2 -10 0
v -1 -10 0
v -3 -11 0
v -4 -11 0
v -4 -10 0
v -3 -10 0
v 0 -12 0
v -1 -12 0
v -1 -11 0
v 0 -11 0
v -1 -12 0
v -2 -12 0
v -2 -11 0
v -1 -11 0
v -3 -12 0
v -4 -12 0
v -4 -11 0
v -3 -11 0
v 0 -13 0
v -1 -13 0
v -1 -12 0
v 0 -12 0
v -1 -13 0
v -2 -13 0
v -2 -12 0
v -1 -12 0
v -3 -13 0
v -4 -13 0
v -4 -12 0
v -3 -12 0
v -3 -14 0
v -4 -14 0
v -4 -13 0
v -3 -13 0
v -3 -15 0
v -4 -15 0
v -4 -14 0
v -3 -14 0
v 0 -16 0
v -1 -16 0
v -1 -15 0
v 0 -15 0
v -1 -16 0
v -2 -16 0
v -2 -15 0
v -1 -15 0
v -3 -16 0
v -4 -16 0
v -4 -15 0
v -3 -15 0

# Texture cooridinates (Count = 26)
vt 0.1875 0.9375
vt 0.25 0.9375
vt 0.25 1
vt 0.1875 1
vt 0.0625 0.8125
vt 0.125 0.8125
vt 0.125 0.875
vt 0.0625 0.875
vt 0.3125 0.9375
vt 0.3125 1
vt 0.1875 0.875
vt 0.25 0.875
vt 0.0625 0.75
vt 0.125 0.75
vt 0.3125 0.875
vt 0.1875 0.8125
vt 0 0.8125
vt 0 0.875
vt 0 0.75
vt 0.1875 0.75
vt 0.25 0.8125
vt 0.125 0.9375
vt 0.125 1
vt 0.25 0.75
vt 0.0625 0.9375
vt 0.0625 1

# Normal
vn 0 0 -1

# Mesh description
g World_mesh_0067

# Faces
f 1/1/1 2/2/1 3/3/1 4/4/1
f 5/5/1 6/6/1 7/7/1 8/8/1
f 9/5/1 10/6/1 11/7/1 12/8/1
f 13/2/1 14/9/1 15/10/1 16/3/1
f 17/11/1 18/12/1 19/2/1 20/1/1
f 21/13/1 22/14/1 23/6/1 24/5/1
f 25/13/1 26/14/1 27/6/1 28/5/1
f 29/12/1 30/15/1 31/9/1 32/2/1
f 33/6/1 34/16/1 35/11/1 36/7/1
f 37/17/1 38/5/1 39/8/1 40/18/1
f 41/6/1 42/16/1 43/11/1 44/7/1
f 45/17/1 46/5/1 47/8/1 48/18/1
f 49/6/1 50/16/1 51/11/1 52/7/1
f 53/17/1 54/5/1 55/8/1 56/18/1
f 57/5/1 58/6/1 59/7/1 60/8/1
f 61/5/1 62/6/1 63/7/1 64/8/1
f 65/5/1 66/6/1 67/7/1 68/8/1
f 69/5/1 70/6/1 71/7/1 72/8/1
f 73/5/1 74/6/1 75/7/1 76/8/1
f 77/5/1 78/6/1 79/7/1 80/8/1
f 81/1/1 82/2/1 83/3/1 84/4/1
f 85/5/1 86/6/1 87/7/1 88/8/1
f 89/5/1 90/6/1 91/7/1 92/8/1
f 93/5/1 94/6/1 95/7/1 96/8/1
f 97/6/1 98/16/1 99/11/1 100/7/1
f 101/19/1 102/13/1 103/5/1 104/17/1
f 105/13/1 106/14/1 107/6/1 108/5/1
f 109/13/1 110/14/1 111/6/1 112/5/1
f 113/13/1 114/14/1 115/6/1 116/5/1
f 117/13/1 118/14/1 119/6/1 120/5/1
f 121/13/1 122/14/1 123/6/1 124/5/1
f 125/13/1 126/14/1 127/6/1 128/5/1
f 129/11/1 130/12/1 131/2/1 132/1/1
f 133/13/1 134/14/1 135/6/1 136/5/1
f 137/13/1 138/14/1 139/6/1 140/5/1
f 141/13/1 142/14/1 143/6/1 144/5/1
f 145/14/1 146/20/1 147/16/1 148/6/1
f 149/16/1 150/21/1 151/12/1 152/11/1
f 153/22/1 154/1/1 155/4/1 156/23/1
f 157/20/1 158/24/1 159/21/1 160/16/1
f 161/7/1 162/11/1 163/1/1 164/22/1
f 165/7/1 166/11/1 167/1/1 168/22/1
f 169/25/1 170/22/1 171/23/1 172/26/1
f 173/22/1 174/1/1 175/4/1 176/23/1
f 177/7/1 178/11/1 179/1/1 180/22/1
f 181/8/1 182/7/1 183/22/1 184/25/1
f 185/7/1 186/11/1 187/1/1 188/22/1
f 189/7/1 190/11/1 191/1/1 192/22/1
f 193/25/1 194/22/1 195/23/1 196/26/1
f 197/6/1 198/16/1 199/11/1 200/7/1
f 201/7/1 202/11/1 203/1/1 204/22/1
f 205/7/1 206/11/1 207/1/1 208/22/1
f 209/7/1 210/11/1 211/1/1 212/22/1
f 213/25/1 214/22/1 215/23/1 216/26/1
f 217/22/1 218/1/1 219/4/1 220/23/1
f 221/7/1 222/11/1 223/1/1 224/22/1

