# Tiled2Unity generated file. Do not modify by hand.
# Wavefront file for 'World_mesh_0059.obj'

# Vertices (Count = 356)
v -1 -1 0
v -2 -1 0
v -2 0 0
v -1 0 0
v -2 -1 0
v -3 -1 0
v -3 0 0
v -2 0 0
v -3 -1 0
v -4 -1 0
v -4 0 0
v -3 0 0
v -4 -1 0
v -5 -1 0
v -5 0 0
v -4 0 0
v -5 -1 0
v -6 -1 0
v -6 0 0
v -5 0 0
v -6 -1 0
v -7 -1 0
v -7 0 0
v -6 0 0
v -7 -1 0
v -8 -1 0
v -8 0 0
v -7 0 0
v -8 -1 0
v -9 -1 0
v -9 0 0
v -8 0 0
v -9 -1 0
v -10 -1 0
v -10 0 0
v -9 0 0
v -10 -1 0
v -11 -1 0
v -11 0 0
v -10 0 0
v -11 -1 0
v -12 -1 0
v -12 0 0
v -11 0 0
v -12 -1 0
v -13 -1 0
v -13 0 0
v -12 0 0
v -13 -1 0
v -14 -1 0
v -14 0 0
v -13 0 0
v -1 -2 0
v -2 -2 0
v -2 -1 0
v -1 -1 0
v -2 -2 0
v -3 -2 0
v -3 -1 0
v -2 -1 0
v -3 -2 0
v -4 -2 0
v -4 -1 0
v -3 -1 0
v -4 -2 0
v -5 -2 0
v -5 -1 0
v -4 -1 0
v -5 -2 0
v -6 -2 0
v -6 -1 0
v -5 -1 0
v -6 -2 0
v -7 -2 0
v -7 -1 0
v -6 -1 0
v -7 -2 0
v -8 -2 0
v -8 -1 0
v -7 -1 0
v -8 -2 0
v -9 -2 0
v -9 -1 0
v -8 -1 0
v -9 -2 0
v -10 -2 0
v -10 -1 0
v -9 -1 0
v -10 -2 0
v -11 -2 0
v -11 -1 0
v -10 -1 0
v -11 -2 0
v -12 -2 0
v -12 -1 0
v -11 -1 0
v -12 -2 0
v -13 -2 0
v -13 -1 0
v -12 -1 0
v -13 -2 0
v -14 -2 0
v -14 -1 0
v -13 -1 0
v -1 -3 0
v -2 -3 0
v -2 -2 0
v -1 -2 0
v -8 -3 0
v -9 -3 0
v -9 -2 0
v -8 -2 0
v -9 -3 0
v -10 -3 0
v -10 -2 0
v -9 -2 0
v -10 -3 0
v -11 -3 0
v -11 -2 0
v -10 -2 0
v -11 -3 0
v -12 -3 0
v -12 -2 0
v -11 -2 0
v -12 -3 0
v -13 -3 0
v -13 -2 0
v -12 -2 0
v -13 -3 0
v -14 -3 0
v -14 -2 0
v -13 -2 0
v -14 -3 0
v -15 -3 0
v -15 -2 0
v -14 -2 0
v -15 -3 0
v -16 -3 0
v -16 -2 0
v -15 -2 0
v -1 -4 0
v -2 -4 0
v -2 -3 0
v -1 -3 0
v -2 -4 0
v -3 -4 0
v -3 -3 0
v -2 -3 0
v -3 -4 0
v -4 -4 0
v -4 -3 0
v -3 -3 0
v -4 -4 0
v -5 -4 0
v -5 -3 0
v -4 -3 0
v -8 -4 0
v -9 -4 0
v -9 -3 0
v -8 -3 0
v -1 -5 0
v -2 -5 0
v -2 -4 0
v -1 -4 0
v -2 -5 0
v -3 -5 0
v -3 -4 0
v -2 -4 0
v -3 -5 0
v -4 -5 0
v -4 -4 0
v -3 -4 0
v -4 -5 0
v -5 -5 0
v -5 -4 0
v -4 -4 0
v -8 -5 0
v -9 -5 0
v -9 -4 0
v -8 -4 0
v -4 -6 0
v -5 -6 0
v -5 -5 0
v -4 -5 0
v -8 -6 0
v -9 -6 0
v -9 -5 0
v -8 -5 0
v -4 -7 0
v -5 -7 0
v -5 -6 0
v -4 -6 0
v -8 -7 0
v -9 -7 0
v -9 -6 0
v -8 -6 0
v -4 -8 0
v -5 -8 0
v -5 -7 0
v -4 -7 0
v -8 -8 0
v -9 -8 0
v -9 -7 0
v -8 -7 0
v -4 -9 0
v -5 -9 0
v -5 -8 0
v -4 -8 0
v -8 -9 0
v -9 -9 0
v -9 -8 0
v -8 -8 0
v -4 -10 0
v -5 -10 0
v -5 -9 0
v -4 -9 0
v -8 -10 0
v -9 -10 0
v -9 -9 0
v -8 -9 0
v -4 -11 0
v -5 -11 0
v -5 -10 0
v -4 -10 0
v -8 -11 0
v -9 -11 0
v -9 -10 0
v -8 -10 0
v -4 -12 0
v -5 -12 0
v -5 -11 0
v -4 -11 0
v -8 -12 0
v -9 -12 0
v -9 -11 0
v -8 -11 0
v -4 -13 0
v -5 -13 0
v -5 -12 0
v -4 -12 0
v -8 -13 0
v -9 -13 0
v -9 -12 0
v -8 -12 0
v -9 -13 0
v -10 -13 0
v -10 -12 0
v -9 -12 0
v -10 -13 0
v -11 -13 0
v -11 -12 0
v -10 -12 0
v -13 -13 0
v -14 -13 0
v -14 -12 0
v -13 -12 0
v -14 -13 0
v -15 -13 0
v -15 -12 0
v -14 -12 0
v -15 -13 0
v -16 -13 0
v -16 -12 0
v -15 -12 0
v -4 -14 0
v -5 -14 0
v -5 -13 0
v -4 -13 0
v -8 -14 0
v -9 -14 0
v -9 -13 0
v -8 -13 0
v -9 -14 0
v -10 -14 0
v -10 -13 0
v -9 -13 0
v -10 -14 0
v -11 -14 0
v -11 -13 0
v -10 -13 0
v -13 -14 0
v -14 -14 0
v -14 -13 0
v -13 -13 0
v -14 -14 0
v -15 -14 0
v -15 -13 0
v -14 -13 0
v -15 -14 0
v -16 -14 0
v -16 -13 0
v -15 -13 0
v -1 -15 0
v -2 -15 0
v -2 -14 0
v -1 -14 0
v -2 -15 0
v -3 -15 0
v -3 -14 0
v -2 -14 0
v -3 -15 0
v -4 -15 0
v -4 -14 0
v -3 -14 0
v -4 -15 0
v -5 -15 0
v -5 -14 0
v -4 -14 0
v -8 -15 0
v -9 -15 0
v -9 -14 0
v -8 -14 0
v -9 -15 0
v -10 -15 0
v -10 -14 0
v -9 -14 0
v -10 -15 0
v -11 -15 0
v -11 -14 0
v -10 -14 0
v -13 -15 0
v -14 -15 0
v -14 -14 0
v -13 -14 0
v -14 -15 0
v -15 -15 0
v -15 -14 0
v -14 -14 0
v -15 -15 0
v -16 -15 0
v -16 -14 0
v -15 -14 0
v -1 -16 0
v -2 -16 0
v -2 -15 0
v -1 -15 0
v -2 -16 0
v -3 -16 0
v -3 -15 0
v -2 -15 0
v -3 -16 0
v -4 -16 0
v -4 -15 0
v -3 -15 0
v -4 -16 0
v -5 -16 0
v -5 -15 0
v -4 -15 0
v -8 -16 0
v -9 -16 0
v -9 -15 0
v -8 -15 0
v -15 -16 0
v -16 -16 0
v -16 -15 0
v -15 -15 0

# Texture cooridinates (Count = 28)
vt 0.1875 0.9375
vt 0.25 0.9375
vt 0.25 1
vt 0.1875 1
vt 0.0625 0.8125
vt 0.125 0.8125
vt 0.125 0.875
vt 0.0625 0.875
vt 0.1875 0.875
vt 0.125 0.9375
vt 0.25 0.875
vt 0.0625 0.75
vt 0.125 0.75
vt 0.1875 0.75
vt 0.1875 0.8125
vt 0 0.9375
vt 0.0625 0.9375
vt 0.0625 1
vt 0 1
vt 0.125 1
vt 0.25 0.8125
vt 0 0.875
vt 0.3125 0.9375
vt 0.3125 1
vt 0 0.75
vt 0 0.8125
vt 0.3125 0.875
vt 0.3125 0.8125

# Normal
vn 0 0 -1

# Mesh description
g World_mesh_0059

# Faces
f 1/1/1 2/2/1 3/3/1 4/4/1
f 5/5/1 6/6/1 7/7/1 8/8/1
f 9/5/1 10/6/1 11/7/1 12/8/1
f 13/5/1 14/6/1 15/7/1 16/8/1
f 17/5/1 18/6/1 19/7/1 20/8/1
f 21/5/1 22/6/1 23/7/1 24/8/1
f 25/5/1 26/6/1 27/7/1 28/8/1
f 29/5/1 30/6/1 31/7/1 32/8/1
f 33/5/1 34/6/1 35/7/1 36/8/1
f 37/5/1 38/6/1 39/7/1 40/8/1
f 41/5/1 42/6/1 43/7/1 44/8/1
f 45/5/1 46/6/1 47/7/1 48/8/1
f 49/7/1 50/9/1 51/1/1 52/10/1
f 53/9/1 54/11/1 55/2/1 56/1/1
f 57/12/1 58/13/1 59/6/1 60/5/1
f 61/12/1 62/13/1 63/6/1 64/5/1
f 65/12/1 66/13/1 67/6/1 68/5/1
f 69/12/1 70/13/1 71/6/1 72/5/1
f 73/12/1 74/13/1 75/6/1 76/5/1
f 77/12/1 78/13/1 79/6/1 80/5/1
f 81/12/1 82/13/1 83/6/1 84/5/1
f 85/12/1 86/13/1 87/6/1 88/5/1
f 89/12/1 90/13/1 91/6/1 92/5/1
f 93/12/1 94/13/1 95/6/1 96/5/1
f 97/12/1 98/13/1 99/6/1 100/5/1
f 101/13/1 102/14/1 103/15/1 104/6/1
f 105/6/1 106/15/1 107/9/1 108/7/1
f 109/16/1 110/17/1 111/18/1 112/19/1
f 113/17/1 114/10/1 115/20/1 116/18/1
f 117/17/1 118/10/1 119/20/1 120/18/1
f 121/17/1 122/10/1 123/20/1 124/18/1
f 125/17/1 126/10/1 127/20/1 128/18/1
f 129/17/1 130/10/1 131/20/1 132/18/1
f 133/17/1 134/10/1 135/20/1 136/18/1
f 137/17/1 138/10/1 139/20/1 140/18/1
f 141/15/1 142/21/1 143/11/1 144/9/1
f 145/17/1 146/10/1 147/20/1 148/18/1
f 149/17/1 150/10/1 151/20/1 152/18/1
f 153/10/1 154/1/1 155/4/1 156/20/1
f 157/22/1 158/8/1 159/17/1 160/16/1
f 161/12/1 162/13/1 163/6/1 164/5/1
f 165/12/1 166/13/1 167/6/1 168/5/1
f 169/12/1 170/13/1 171/6/1 172/5/1
f 173/6/1 174/15/1 175/9/1 176/7/1
f 177/22/1 178/8/1 179/17/1 180/16/1
f 181/6/1 182/15/1 183/9/1 184/7/1
f 185/22/1 186/8/1 187/17/1 188/16/1
f 189/6/1 190/15/1 191/9/1 192/7/1
f 193/22/1 194/8/1 195/17/1 196/16/1
f 197/6/1 198/15/1 199/9/1 200/7/1
f 201/22/1 202/8/1 203/17/1 204/16/1
f 205/6/1 206/15/1 207/9/1 208/7/1
f 209/22/1 210/8/1 211/17/1 212/16/1
f 213/6/1 214/15/1 215/9/1 216/7/1
f 217/22/1 218/8/1 219/17/1 220/16/1
f 221/6/1 222/15/1 223/9/1 224/7/1
f 225/22/1 226/8/1 227/17/1 228/16/1
f 229/6/1 230/15/1 231/9/1 232/7/1
f 233/22/1 234/8/1 235/17/1 236/16/1
f 237/6/1 238/15/1 239/9/1 240/7/1
f 241/22/1 242/8/1 243/17/1 244/16/1
f 245/5/1 246/6/1 247/7/1 248/8/1
f 249/2/1 250/23/1 251/24/1 252/3/1
f 253/1/1 254/2/1 255/3/1 256/4/1
f 257/5/1 258/6/1 259/7/1 260/8/1
f 261/5/1 262/6/1 263/7/1 264/8/1
f 265/6/1 266/15/1 267/9/1 268/7/1
f 269/25/1 270/12/1 271/5/1 272/26/1
f 273/12/1 274/13/1 275/6/1 276/5/1
f 277/11/1 278/27/1 279/23/1 280/2/1
f 281/9/1 282/11/1 283/2/1 284/1/1
f 285/12/1 286/13/1 287/6/1 288/5/1
f 289/12/1 290/13/1 291/6/1 292/5/1
f 293/1/1 294/2/1 295/3/1 296/4/1
f 297/5/1 298/6/1 299/7/1 300/8/1
f 301/5/1 302/6/1 303/7/1 304/8/1
f 305/6/1 306/15/1 307/9/1 308/7/1
f 309/16/1 310/17/1 311/18/1 312/19/1
f 313/17/1 314/10/1 315/20/1 316/18/1
f 317/21/1 318/28/1 319/27/1 320/11/1
f 321/15/1 322/21/1 323/11/1 324/9/1
f 325/17/1 326/10/1 327/20/1 328/18/1
f 329/10/1 330/1/1 331/4/1 332/20/1
f 333/9/1 334/11/1 335/2/1 336/1/1
f 337/12/1 338/13/1 339/6/1 340/5/1
f 341/12/1 342/13/1 343/6/1 344/5/1
f 345/13/1 346/14/1 347/15/1 348/6/1
f 349/22/1 350/8/1 351/17/1 352/16/1
f 353/7/1 354/9/1 355/1/1 356/10/1

