# Tiled2Unity generated file. Do not modify by hand.
# Wavefront file for 'World_mesh_0012.obj'

# Vertices (Count = 508)
v 0 -1 0
v -1 -1 0
v -1 0 0
v 0 0 0
v -1 -1 0
v -2 -1 0
v -2 0 0
v -1 0 0
v -2 -1 0
v -3 -1 0
v -3 0 0
v -2 0 0
v -3 -1 0
v -4 -1 0
v -4 0 0
v -3 0 0
v -4 -1 0
v -5 -1 0
v -5 0 0
v -4 0 0
v -5 -1 0
v -6 -1 0
v -6 0 0
v -5 0 0
v -6 -1 0
v -7 -1 0
v -7 0 0
v -6 0 0
v -7 -1 0
v -8 -1 0
v -8 0 0
v -7 0 0
v -8 -1 0
v -9 -1 0
v -9 0 0
v -8 0 0
v -9 -1 0
v -10 -1 0
v -10 0 0
v -9 0 0
v -10 -1 0
v -11 -1 0
v -11 0 0
v -10 0 0
v -11 -1 0
v -12 -1 0
v -12 0 0
v -11 0 0
v -12 -1 0
v -13 -1 0
v -13 0 0
v -12 0 0
v 0 -2 0
v -1 -2 0
v -1 -1 0
v 0 -1 0
v 0 -3 0
v -1 -3 0
v -1 -2 0
v 0 -2 0
v 0 -4 0
v -1 -4 0
v -1 -3 0
v 0 -3 0
v 0 -5 0
v -1 -5 0
v -1 -4 0
v 0 -4 0
v -9 -5 0
v -10 -5 0
v -10 -4 0
v -9 -4 0
v -10 -5 0
v -11 -5 0
v -11 -4 0
v -10 -4 0
v -11 -5 0
v -12 -5 0
v -12 -4 0
v -11 -4 0
v -12 -5 0
v -13 -5 0
v -13 -4 0
v -12 -4 0
v -13 -5 0
v -14 -5 0
v -14 -4 0
v -13 -4 0
v -14 -5 0
v -15 -5 0
v -15 -4 0
v -14 -4 0
v -15 -5 0
v -16 -5 0
v -16 -4 0
v -15 -4 0
v 0 -6 0
v -1 -6 0
v -1 -5 0
v 0 -5 0
v -1 -6 0
v -2 -6 0
v -2 -5 0
v -1 -5 0
v -2 -6 0
v -3 -6 0
v -3 -5 0
v -2 -5 0
v -3 -6 0
v -4 -6 0
v -4 -5 0
v -3 -5 0
v -9 -6 0
v -10 -6 0
v -10 -5 0
v -9 -5 0
v -10 -6 0
v -11 -6 0
v -11 -5 0
v -10 -5 0
v -11 -6 0
v -12 -6 0
v -12 -5 0
v -11 -5 0
v -12 -6 0
v -13 -6 0
v -13 -5 0
v -12 -5 0
v -13 -6 0
v -14 -6 0
v -14 -5 0
v -13 -5 0
v -14 -6 0
v -15 -6 0
v -15 -5 0
v -14 -5 0
v -15 -6 0
v -16 -6 0
v -16 -5 0
v -15 -5 0
v 0 -7 0
v -1 -7 0
v -1 -6 0
v 0 -6 0
v -1 -7 0
v -2 -7 0
v -2 -6 0
v -1 -6 0
v -2 -7 0
v -3 -7 0
v -3 -6 0
v -2 -6 0
v -3 -7 0
v -4 -7 0
v -4 -6 0
v -3 -6 0
v -9 -7 0
v -10 -7 0
v -10 -6 0
v -9 -6 0
v -10 -7 0
v -11 -7 0
v -11 -6 0
v -10 -6 0
v -11 -7 0
v -12 -7 0
v -12 -6 0
v -11 -6 0
v -12 -7 0
v -13 -7 0
v -13 -6 0
v -12 -6 0
v -13 -7 0
v -14 -7 0
v -14 -6 0
v -13 -6 0
v -14 -7 0
v -15 -7 0
v -15 -6 0
v -14 -6 0
v -15 -7 0
v -16 -7 0
v -16 -6 0
v -15 -6 0
v 0 -8 0
v -1 -8 0
v -1 -7 0
v 0 -7 0
v -1 -8 0
v -2 -8 0
v -2 -7 0
v -1 -7 0
v -2 -8 0
v -3 -8 0
v -3 -7 0
v -2 -7 0
v -3 -8 0
v -4 -8 0
v -4 -7 0
v -3 -7 0
v -9 -8 0
v -10 -8 0
v -10 -7 0
v -9 -7 0
v -10 -8 0
v -11 -8 0
v -11 -7 0
v -10 -7 0
v -11 -8 0
v -12 -8 0
v -12 -7 0
v -11 -7 0
v -12 -8 0
v -13 -8 0
v -13 -7 0
v -12 -7 0
v -13 -8 0
v -14 -8 0
v -14 -7 0
v -13 -7 0
v -14 -8 0
v -15 -8 0
v -15 -7 0
v -14 -7 0
v -15 -8 0
v -16 -8 0
v -16 -7 0
v -15 -7 0
v 0 -9 0
v -1 -9 0
v -1 -8 0
v 0 -8 0
v -1 -9 0
v -2 -9 0
v -2 -8 0
v -1 -8 0
v -2 -9 0
v -3 -9 0
v -3 -8 0
v -2 -8 0
v -3 -9 0
v -4 -9 0
v -4 -8 0
v -3 -8 0
v -9 -9 0
v -10 -9 0
v -10 -8 0
v -9 -8 0
v -10 -9 0
v -11 -9 0
v -11 -8 0
v -10 -8 0
v -11 -9 0
v -12 -9 0
v -12 -8 0
v -11 -8 0
v -12 -9 0
v -13 -9 0
v -13 -8 0
v -12 -8 0
v -13 -9 0
v -14 -9 0
v -14 -8 0
v -13 -8 0
v -14 -9 0
v -15 -9 0
v -15 -8 0
v -14 -8 0
v -15 -9 0
v -16 -9 0
v -16 -8 0
v -15 -8 0
v 0 -10 0
v -1 -10 0
v -1 -9 0
v 0 -9 0
v -1 -10 0
v -2 -10 0
v -2 -9 0
v -1 -9 0
v -2 -10 0
v -3 -10 0
v -3 -9 0
v -2 -9 0
v -3 -10 0
v -4 -10 0
v -4 -9 0
v -3 -9 0
v -9 -10 0
v -10 -10 0
v -10 -9 0
v -9 -9 0
v -10 -10 0
v -11 -10 0
v -11 -9 0
v -10 -9 0
v -11 -10 0
v -12 -10 0
v -12 -9 0
v -11 -9 0
v -12 -10 0
v -13 -10 0
v -13 -9 0
v -12 -9 0
v -13 -10 0
v -14 -10 0
v -14 -9 0
v -13 -9 0
v -14 -10 0
v -15 -10 0
v -15 -9 0
v -14 -9 0
v -15 -10 0
v -16 -10 0
v -16 -9 0
v -15 -9 0
v 0 -11 0
v -1 -11 0
v -1 -10 0
v 0 -10 0
v -1 -11 0
v -2 -11 0
v -2 -10 0
v -1 -10 0
v -2 -11 0
v -3 -11 0
v -3 -10 0
v -2 -10 0
v -3 -11 0
v -4 -11 0
v -4 -10 0
v -3 -10 0
v -9 -11 0
v -10 -11 0
v -10 -10 0
v -9 -10 0
v -10 -11 0
v -11 -11 0
v -11 -10 0
v -10 -10 0
v -11 -11 0
v -12 -11 0
v -12 -10 0
v -11 -10 0
v -12 -11 0
v -13 -11 0
v -13 -10 0
v -12 -10 0
v -13 -11 0
v -14 -11 0
v -14 -10 0
v -13 -10 0
v -14 -11 0
v -15 -11 0
v -15 -10 0
v -14 -10 0
v -15 -11 0
v -16 -11 0
v -16 -10 0
v -15 -10 0
v 0 -12 0
v -1 -12 0
v -1 -11 0
v 0 -11 0
v -1 -12 0
v -2 -12 0
v -2 -11 0
v -1 -11 0
v -2 -12 0
v -3 -12 0
v -3 -11 0
v -2 -11 0
v -3 -12 0
v -4 -12 0
v -4 -11 0
v -3 -11 0
v -9 -12 0
v -10 -12 0
v -10 -11 0
v -9 -11 0
v -10 -12 0
v -11 -12 0
v -11 -11 0
v -10 -11 0
v -11 -12 0
v -12 -12 0
v -12 -11 0
v -11 -11 0
v -12 -12 0
v -13 -12 0
v -13 -11 0
v -12 -11 0
v -13 -12 0
v -14 -12 0
v -14 -11 0
v -13 -11 0
v -14 -12 0
v -15 -12 0
v -15 -11 0
v -14 -11 0
v -15 -12 0
v -16 -12 0
v -16 -11 0
v -15 -11 0
v 0 -13 0
v -1 -13 0
v -1 -12 0
v 0 -12 0
v -1 -13 0
v -2 -13 0
v -2 -12 0
v -1 -12 0
v -2 -13 0
v -3 -13 0
v -3 -12 0
v -2 -12 0
v -3 -13 0
v -4 -13 0
v -4 -12 0
v -3 -12 0
v -9 -13 0
v -10 -13 0
v -10 -12 0
v -9 -12 0
v -10 -13 0
v -11 -13 0
v -11 -12 0
v -10 -12 0
v -11 -13 0
v -12 -13 0
v -12 -12 0
v -11 -12 0
v -12 -13 0
v -13 -13 0
v -13 -12 0
v -12 -12 0
v -13 -13 0
v -14 -13 0
v -14 -12 0
v -13 -12 0
v -14 -13 0
v -15 -13 0
v -15 -12 0
v -14 -12 0
v -15 -13 0
v -16 -13 0
v -16 -12 0
v -15 -12 0
v 0 -14 0
v -1 -14 0
v -1 -13 0
v 0 -13 0
v -1 -14 0
v -2 -14 0
v -2 -13 0
v -1 -13 0
v -2 -14 0
v -3 -14 0
v -3 -13 0
v -2 -13 0
v -3 -14 0
v -4 -14 0
v -4 -13 0
v -3 -13 0
v -11 -14 0
v -12 -14 0
v -12 -13 0
v -11 -13 0
v -12 -14 0
v -13 -14 0
v -13 -13 0
v -12 -13 0
v 0 -15 0
v -1 -15 0
v -1 -14 0
v 0 -14 0
v -1 -15 0
v -2 -15 0
v -2 -14 0
v -1 -14 0
v -2 -15 0
v -3 -15 0
v -3 -14 0
v -2 -14 0
v -3 -15 0
v -4 -15 0
v -4 -14 0
v -3 -14 0
v -11 -15 0
v -12 -15 0
v -12 -14 0
v -11 -14 0
v -12 -15 0
v -13 -15 0
v -13 -14 0
v -12 -14 0
v 0 -16 0
v -1 -16 0
v -1 -15 0
v 0 -15 0
v -11 -16 0
v -12 -16 0
v -12 -15 0
v -11 -15 0
v -12 -16 0
v -13 -16 0
v -13 -15 0
v -12 -15 0

# Texture cooridinates (Count = 33)
vt 0.1875 0.75
vt 0.1875 0.8125
vt 0.125 0.8125
vt 0.125 0.75
vt 0.0625 0.8125
vt 0.125 0.875
vt 0.0625 0.875
vt 0 0.8125
vt 0 0.875
vt 0.125 0.5625
vt 0.1875 0.5625
vt 0.1875 0.625
vt 0.125 0.625
vt 0.25 0.5625
vt 0.25 0.625
vt 0.125 0.5
vt 0.1875 0.5
vt 0.25 0.5
vt 0.125 0.4375
vt 0.1875 0.4375
vt 0.25 0.4375
vt 0 0.5625
vt 0.0625 0.5625
vt 0.0625 0.625
vt 0 0.625
vt 0 0.5
vt 0.0625 0.5
vt 0 0.4375
vt 0.0625 0.4375
vt 0.375 0.9375
vt 0.4375 0.9375
vt 0.4375 1
vt 0.375 1

# Normal
vn 0 0 -1

# Mesh description
g World_mesh_0012

# Faces
f 1/1/1 2/2/1 3/3/1 4/4/1
f 5/1/1 6/2/1 7/3/1 8/4/1
f 9/1/1 10/2/1 11/3/1 12/4/1
f 13/1/1 14/2/1 15/3/1 16/4/1
f 17/1/1 18/2/1 19/3/1 20/4/1
f 21/1/1 22/2/1 23/3/1 24/4/1
f 25/1/1 26/2/1 27/3/1 28/4/1
f 29/1/1 30/2/1 31/3/1 32/4/1
f 33/1/1 34/2/1 35/3/1 36/4/1
f 37/1/1 38/2/1 39/3/1 40/4/1
f 41/1/1 42/2/1 43/3/1 44/4/1
f 45/1/1 46/2/1 47/3/1 48/4/1
f 49/1/1 50/2/1 51/3/1 52/4/1
f 53/1/1 54/2/1 55/3/1 56/4/1
f 57/1/1 58/2/1 59/3/1 60/4/1
f 61/1/1 62/2/1 63/3/1 64/4/1
f 65/1/1 66/2/1 67/3/1 68/4/1
f 69/5/1 70/3/1 71/6/1 72/7/1
f 73/5/1 74/3/1 75/6/1 76/7/1
f 77/8/1 78/5/1 79/7/1 80/9/1
f 81/5/1 82/3/1 83/6/1 84/7/1
f 85/5/1 86/3/1 87/6/1 88/7/1
f 89/5/1 90/3/1 91/6/1 92/7/1
f 93/5/1 94/3/1 95/6/1 96/7/1
f 97/1/1 98/2/1 99/3/1 100/4/1
f 101/8/1 102/5/1 103/7/1 104/9/1
f 105/8/1 106/5/1 107/7/1 108/9/1
f 109/8/1 110/5/1 111/7/1 112/9/1
f 113/4/1 114/1/1 115/2/1 116/3/1
f 117/4/1 118/1/1 119/2/1 120/3/1
f 121/4/1 122/1/1 123/2/1 124/3/1
f 125/4/1 126/1/1 127/2/1 128/3/1
f 129/4/1 130/1/1 131/2/1 132/3/1
f 133/4/1 134/1/1 135/2/1 136/3/1
f 137/4/1 138/1/1 139/2/1 140/3/1
f 141/10/1 142/11/1 143/12/1 144/13/1
f 145/11/1 146/14/1 147/15/1 148/12/1
f 149/1/1 150/2/1 151/3/1 152/4/1
f 153/1/1 154/2/1 155/3/1 156/4/1
f 157/4/1 158/1/1 159/2/1 160/3/1
f 161/4/1 162/1/1 163/2/1 164/3/1
f 165/4/1 166/1/1 167/2/1 168/3/1
f 169/4/1 170/1/1 171/2/1 172/3/1
f 173/4/1 174/1/1 175/2/1 176/3/1
f 177/4/1 178/1/1 179/2/1 180/3/1
f 181/4/1 182/1/1 183/2/1 184/3/1
f 185/16/1 186/17/1 187/11/1 188/10/1
f 189/17/1 190/18/1 191/14/1 192/11/1
f 193/1/1 194/2/1 195/3/1 196/4/1
f 197/1/1 198/2/1 199/3/1 200/4/1
f 201/4/1 202/1/1 203/2/1 204/3/1
f 205/4/1 206/1/1 207/2/1 208/3/1
f 209/4/1 210/1/1 211/2/1 212/3/1
f 213/4/1 214/1/1 215/2/1 216/3/1
f 217/4/1 218/1/1 219/2/1 220/3/1
f 221/4/1 222/1/1 223/2/1 224/3/1
f 225/4/1 226/1/1 227/2/1 228/3/1
f 229/19/1 230/20/1 231/17/1 232/16/1
f 233/20/1 234/21/1 235/18/1 236/17/1
f 237/1/1 238/2/1 239/3/1 240/4/1
f 241/1/1 242/2/1 243/3/1 244/4/1
f 245/4/1 246/1/1 247/2/1 248/3/1
f 249/4/1 250/1/1 251/2/1 252/3/1
f 253/4/1 254/1/1 255/2/1 256/3/1
f 257/4/1 258/1/1 259/2/1 260/3/1
f 261/4/1 262/1/1 263/2/1 264/3/1
f 265/4/1 266/1/1 267/2/1 268/3/1
f 269/4/1 270/1/1 271/2/1 272/3/1
f 273/1/1 274/2/1 275/3/1 276/4/1
f 277/1/1 278/2/1 279/3/1 280/4/1
f 281/1/1 282/2/1 283/3/1 284/4/1
f 285/1/1 286/2/1 287/3/1 288/4/1
f 289/4/1 290/1/1 291/2/1 292/3/1
f 293/4/1 294/1/1 295/2/1 296/3/1
f 297/4/1 298/1/1 299/2/1 300/3/1
f 301/4/1 302/1/1 303/2/1 304/3/1
f 305/4/1 306/1/1 307/2/1 308/3/1
f 309/4/1 310/1/1 311/2/1 312/3/1
f 313/4/1 314/1/1 315/2/1 316/3/1
f 317/1/1 318/2/1 319/3/1 320/4/1
f 321/1/1 322/2/1 323/3/1 324/4/1
f 325/1/1 326/2/1 327/3/1 328/4/1
f 329/1/1 330/2/1 331/3/1 332/4/1
f 333/4/1 334/1/1 335/2/1 336/3/1
f 337/22/1 338/23/1 339/24/1 340/25/1
f 341/23/1 342/10/1 343/13/1 344/24/1
f 345/10/1 346/11/1 347/12/1 348/13/1
f 349/11/1 350/14/1 351/15/1 352/12/1
f 353/4/1 354/1/1 355/2/1 356/3/1
f 357/4/1 358/1/1 359/2/1 360/3/1
f 361/1/1 362/2/1 363/3/1 364/4/1
f 365/1/1 366/2/1 367/3/1 368/4/1
f 369/1/1 370/2/1 371/3/1 372/4/1
f 373/1/1 374/2/1 375/3/1 376/4/1
f 377/4/1 378/1/1 379/2/1 380/3/1
f 381/26/1 382/27/1 383/23/1 384/22/1
f 385/27/1 386/16/1 387/10/1 388/23/1
f 389/16/1 390/17/1 391/11/1 392/10/1
f 393/17/1 394/18/1 395/14/1 396/11/1
f 397/4/1 398/1/1 399/2/1 400/3/1
f 401/4/1 402/1/1 403/2/1 404/3/1
f 405/10/1 406/11/1 407/12/1 408/13/1
f 409/11/1 410/14/1 411/15/1 412/12/1
f 413/1/1 414/2/1 415/3/1 416/4/1
f 417/1/1 418/2/1 419/3/1 420/4/1
f 421/4/1 422/1/1 423/2/1 424/3/1
f 425/28/1 426/29/1 427/27/1 428/26/1
f 429/29/1 430/19/1 431/16/1 432/27/1
f 433/19/1 434/20/1 435/17/1 436/16/1
f 437/20/1 438/21/1 439/18/1 440/17/1
f 441/4/1 442/1/1 443/2/1 444/3/1
f 445/4/1 446/1/1 447/2/1 448/3/1
f 449/16/1 450/17/1 451/11/1 452/10/1
f 453/17/1 454/18/1 455/14/1 456/11/1
f 457/1/1 458/2/1 459/3/1 460/4/1
f 461/1/1 462/2/1 463/3/1 464/4/1
f 465/4/1 466/1/1 467/2/1 468/3/1
f 469/4/1 470/1/1 471/2/1 472/3/1
f 473/19/1 474/20/1 475/17/1 476/16/1
f 477/20/1 478/21/1 479/18/1 480/17/1
f 481/1/1 482/2/1 483/3/1 484/4/1
f 485/1/1 486/2/1 487/3/1 488/4/1
f 489/4/1 490/1/1 491/2/1 492/3/1
f 493/4/1 494/1/1 495/2/1 496/3/1
f 497/30/1 498/31/1 499/32/1 500/33/1
f 501/4/1 502/1/1 503/2/1 504/3/1
f 505/4/1 506/1/1 507/2/1 508/3/1

