# Tiled2Unity generated file. Do not modify by hand.
# Wavefront file for 'World_mesh_0126.obj'

# Vertices (Count = 76)
v -3 -1 0
v -4 -1 0
v -4 0 0
v -3 0 0
v -8 -1 0
v -9 -1 0
v -9 0 0
v -8 0 0
v -3 -9 0
v -4 -9 0
v -4 -8 0
v -3 -8 0
v -8 -9 0
v -9 -9 0
v -9 -8 0
v -8 -8 0
v -12 -9 0
v -13 -9 0
v -13 -8 0
v -12 -8 0
v -1 -10 0
v -2 -10 0
v -2 -9 0
v -1 -9 0
v -3 -10 0
v -4 -10 0
v -4 -9 0
v -3 -9 0
v -8 -10 0
v -9 -10 0
v -9 -9 0
v -8 -9 0
v -10 -10 0
v -11 -10 0
v -11 -9 0
v -10 -9 0
v -12 -10 0
v -13 -10 0
v -13 -9 0
v -12 -9 0
v -14 -10 0
v -15 -10 0
v -15 -9 0
v -14 -9 0
v -1 -11 0
v -2 -11 0
v -2 -10 0
v -1 -10 0
v -3 -11 0
v -4 -11 0
v -4 -10 0
v -3 -10 0
v -8 -11 0
v -9 -11 0
v -9 -10 0
v -8 -10 0
v -10 -11 0
v -11 -11 0
v -11 -10 0
v -10 -10 0
v -12 -11 0
v -13 -11 0
v -13 -10 0
v -12 -10 0
v -14 -11 0
v -15 -11 0
v -15 -10 0
v -14 -10 0
v -4 -13 0
v -5 -13 0
v -5 -12 0
v -4 -12 0
v -10 -15 0
v -11 -15 0
v -11 -14 0
v -10 -14 0

# Texture cooridinates (Count = 22)
vt 0 0.625
vt 0.0625 0.625
vt 0.0625 0.6875
vt 0 0.6875
vt 0.375 0.75
vt 0.4375 0.75
vt 0.4375 0.8125
vt 0.375 0.8125
vt 0.1875 0.6875
vt 0.25 0.6875
vt 0.25 0.75
vt 0.1875 0.75
vt 0.375 0.6875
vt 0.4375 0.6875
vt 0.1875 0.625
vt 0.25 0.625
vt 0.375 0.625
vt 0.4375 0.625
vt 0.0625 0.75
vt 0.125 0.75
vt 0.125 0.8125
vt 0.0625 0.8125

# Normal
vn 0 0 -1

# Mesh description
g World_mesh_0126

# Faces
f 1/1/1 2/2/1 3/3/1 4/4/1
f 5/1/1 6/2/1 7/3/1 8/4/1
f 9/5/1 10/6/1 11/7/1 12/8/1
f 13/5/1 14/6/1 15/7/1 16/8/1
f 17/5/1 18/6/1 19/7/1 20/8/1
f 21/9/1 22/10/1 23/11/1 24/12/1
f 25/13/1 26/14/1 27/6/1 28/5/1
f 29/13/1 30/14/1 31/6/1 32/5/1
f 33/9/1 34/10/1 35/11/1 36/12/1
f 37/13/1 38/14/1 39/6/1 40/5/1
f 41/9/1 42/10/1 43/11/1 44/12/1
f 45/15/1 46/16/1 47/10/1 48/9/1
f 49/17/1 50/18/1 51/14/1 52/13/1
f 53/17/1 54/18/1 55/14/1 56/13/1
f 57/15/1 58/16/1 59/10/1 60/9/1
f 61/17/1 62/18/1 63/14/1 64/13/1
f 65/15/1 66/16/1 67/10/1 68/9/1
f 69/19/1 70/20/1 71/21/1 72/22/1
f 73/19/1 74/20/1 75/21/1 76/22/1

