# Tiled2Unity generated file. Do not modify by hand.
# Wavefront file for 'World_mesh_0018.obj'

# Vertices (Count = 216)
v -15 -1 0
v -16 -1 0
v -16 0 0
v -15 0 0
v -15 -2 0
v -16 -2 0
v -16 -1 0
v -15 -1 0
v -12 -3 0
v -13 -3 0
v -13 -2 0
v -12 -2 0
v -13 -3 0
v -14 -3 0
v -14 -2 0
v -13 -2 0
v -14 -3 0
v -15 -3 0
v -15 -2 0
v -14 -2 0
v -15 -3 0
v -16 -3 0
v -16 -2 0
v -15 -2 0
v -12 -4 0
v -13 -4 0
v -13 -3 0
v -12 -3 0
v -13 -4 0
v -14 -4 0
v -14 -3 0
v -13 -3 0
v -14 -4 0
v -15 -4 0
v -15 -3 0
v -14 -3 0
v -15 -4 0
v -16 -4 0
v -16 -3 0
v -15 -3 0
v -12 -5 0
v -13 -5 0
v -13 -4 0
v -12 -4 0
v -13 -5 0
v -14 -5 0
v -14 -4 0
v -13 -4 0
v -14 -5 0
v -15 -5 0
v -15 -4 0
v -14 -4 0
v -15 -5 0
v -16 -5 0
v -16 -4 0
v -15 -4 0
v -12 -6 0
v -13 -6 0
v -13 -5 0
v -12 -5 0
v -13 -6 0
v -14 -6 0
v -14 -5 0
v -13 -5 0
v -14 -6 0
v -15 -6 0
v -15 -5 0
v -14 -5 0
v -15 -6 0
v -16 -6 0
v -16 -5 0
v -15 -5 0
v -12 -7 0
v -13 -7 0
v -13 -6 0
v -12 -6 0
v -13 -7 0
v -14 -7 0
v -14 -6 0
v -13 -6 0
v -14 -7 0
v -15 -7 0
v -15 -6 0
v -14 -6 0
v -15 -7 0
v -16 -7 0
v -16 -6 0
v -15 -6 0
v -12 -8 0
v -13 -8 0
v -13 -7 0
v -12 -7 0
v -13 -8 0
v -14 -8 0
v -14 -7 0
v -13 -7 0
v -14 -8 0
v -15 -8 0
v -15 -7 0
v -14 -7 0
v -15 -8 0
v -16 -8 0
v -16 -7 0
v -15 -7 0
v -12 -9 0
v -13 -9 0
v -13 -8 0
v -12 -8 0
v -13 -9 0
v -14 -9 0
v -14 -8 0
v -13 -8 0
v -14 -9 0
v -15 -9 0
v -15 -8 0
v -14 -8 0
v -15 -9 0
v -16 -9 0
v -16 -8 0
v -15 -8 0
v -12 -10 0
v -13 -10 0
v -13 -9 0
v -12 -9 0
v -13 -10 0
v -14 -10 0
v -14 -9 0
v -13 -9 0
v -14 -10 0
v -15 -10 0
v -15 -9 0
v -14 -9 0
v -15 -10 0
v -16 -10 0
v -16 -9 0
v -15 -9 0
v -12 -11 0
v -13 -11 0
v -13 -10 0
v -12 -10 0
v -13 -11 0
v -14 -11 0
v -14 -10 0
v -13 -10 0
v -14 -11 0
v -15 -11 0
v -15 -10 0
v -14 -10 0
v -15 -11 0
v -16 -11 0
v -16 -10 0
v -15 -10 0
v -12 -12 0
v -13 -12 0
v -13 -11 0
v -12 -11 0
v -13 -12 0
v -14 -12 0
v -14 -11 0
v -13 -11 0
v -14 -12 0
v -15 -12 0
v -15 -11 0
v -14 -11 0
v -15 -12 0
v -16 -12 0
v -16 -11 0
v -15 -11 0
v -12 -13 0
v -13 -13 0
v -13 -12 0
v -12 -12 0
v -13 -13 0
v -14 -13 0
v -14 -12 0
v -13 -12 0
v -14 -13 0
v -15 -13 0
v -15 -12 0
v -14 -12 0
v -15 -13 0
v -16 -13 0
v -16 -12 0
v -15 -12 0
v -12 -14 0
v -13 -14 0
v -13 -13 0
v -12 -13 0
v -13 -14 0
v -14 -14 0
v -14 -13 0
v -13 -13 0
v -14 -14 0
v -15 -14 0
v -15 -13 0
v -14 -13 0
v -15 -14 0
v -16 -14 0
v -16 -13 0
v -15 -13 0
v -12 -15 0
v -13 -15 0
v -13 -14 0
v -12 -14 0
v -13 -15 0
v -14 -15 0
v -14 -14 0
v -13 -14 0
v -14 -15 0
v -15 -15 0
v -15 -14 0
v -14 -14 0
v -15 -15 0
v -16 -15 0
v -16 -14 0
v -15 -14 0

# Texture cooridinates (Count = 27)
vt 0.3125 0.875
vt 0.375 0.875
vt 0.375 0.9375
vt 0.3125 0.9375
vt 0.3125 0.8125
vt 0.375 0.8125
vt 0 0.8125
vt 0.0625 0.8125
vt 0.0625 0.875
vt 0 0.875
vt 0.125 0.8125
vt 0.125 0.875
vt 0.1875 0.75
vt 0.1875 0.8125
vt 0.125 0.75
vt 0 0.5625
vt 0.0625 0.5625
vt 0.0625 0.625
vt 0 0.625
vt 0.125 0.5625
vt 0.125 0.625
vt 0 0.5
vt 0.0625 0.5
vt 0.125 0.5
vt 0 0.4375
vt 0.0625 0.4375
vt 0.125 0.4375

# Normal
vn 0 0 -1

# Mesh description
g World_mesh_0018

# Faces
f 1/1/1 2/2/1 3/3/1 4/4/1
f 5/5/1 6/6/1 7/2/1 8/1/1
f 9/7/1 10/8/1 11/9/1 12/10/1
f 13/8/1 14/11/1 15/12/1 16/9/1
f 17/8/1 18/11/1 19/12/1 20/9/1
f 21/13/1 22/14/1 23/11/1 24/15/1
f 25/13/1 26/14/1 27/11/1 28/15/1
f 29/13/1 30/14/1 31/11/1 32/15/1
f 33/13/1 34/14/1 35/11/1 36/15/1
f 37/13/1 38/14/1 39/11/1 40/15/1
f 41/13/1 42/14/1 43/11/1 44/15/1
f 45/13/1 46/14/1 47/11/1 48/15/1
f 49/13/1 50/14/1 51/11/1 52/15/1
f 53/13/1 54/14/1 55/11/1 56/15/1
f 57/13/1 58/14/1 59/11/1 60/15/1
f 61/13/1 62/14/1 63/11/1 64/15/1
f 65/13/1 66/14/1 67/11/1 68/15/1
f 69/13/1 70/14/1 71/11/1 72/15/1
f 73/13/1 74/14/1 75/11/1 76/15/1
f 77/13/1 78/14/1 79/11/1 80/15/1
f 81/16/1 82/17/1 83/18/1 84/19/1
f 85/17/1 86/20/1 87/21/1 88/18/1
f 89/13/1 90/14/1 91/11/1 92/15/1
f 93/13/1 94/14/1 95/11/1 96/15/1
f 97/22/1 98/23/1 99/17/1 100/16/1
f 101/23/1 102/24/1 103/20/1 104/17/1
f 105/13/1 106/14/1 107/11/1 108/15/1
f 109/13/1 110/14/1 111/11/1 112/15/1
f 113/25/1 114/26/1 115/23/1 116/22/1
f 117/26/1 118/27/1 119/24/1 120/23/1
f 121/13/1 122/14/1 123/11/1 124/15/1
f 125/13/1 126/14/1 127/11/1 128/15/1
f 129/13/1 130/14/1 131/11/1 132/15/1
f 133/13/1 134/14/1 135/11/1 136/15/1
f 137/13/1 138/14/1 139/11/1 140/15/1
f 141/13/1 142/14/1 143/11/1 144/15/1
f 145/13/1 146/14/1 147/11/1 148/15/1
f 149/13/1 150/14/1 151/11/1 152/15/1
f 153/13/1 154/14/1 155/11/1 156/15/1
f 157/13/1 158/14/1 159/11/1 160/15/1
f 161/13/1 162/14/1 163/11/1 164/15/1
f 165/13/1 166/14/1 167/11/1 168/15/1
f 169/13/1 170/14/1 171/11/1 172/15/1
f 173/13/1 174/14/1 175/11/1 176/15/1
f 177/13/1 178/14/1 179/11/1 180/15/1
f 181/13/1 182/14/1 183/11/1 184/15/1
f 185/13/1 186/14/1 187/11/1 188/15/1
f 189/13/1 190/14/1 191/11/1 192/15/1
f 193/13/1 194/14/1 195/11/1 196/15/1
f 197/13/1 198/14/1 199/11/1 200/15/1
f 201/13/1 202/14/1 203/11/1 204/15/1
f 205/13/1 206/14/1 207/11/1 208/15/1
f 209/13/1 210/14/1 211/11/1 212/15/1
f 213/13/1 214/14/1 215/11/1 216/15/1

