# Tiled2Unity generated file. Do not modify by hand.
# Wavefront file for 'World_mesh_0085.obj'

# Vertices (Count = 304)
v 0 -1 0
v -1 -1 0
v -1 0 0
v 0 0 0
v -1 -1 0
v -2 -1 0
v -2 0 0
v -1 0 0
v -2 -1 0
v -3 -1 0
v -3 0 0
v -2 0 0
v -3 -1 0
v -4 -1 0
v -4 0 0
v -3 0 0
v -4 -1 0
v -5 -1 0
v -5 0 0
v -4 0 0
v -5 -1 0
v -6 -1 0
v -6 0 0
v -5 0 0
v -8 -1 0
v -9 -1 0
v -9 0 0
v -8 0 0
v -9 -1 0
v -10 -1 0
v -10 0 0
v -9 0 0
v -10 -1 0
v -11 -1 0
v -11 0 0
v -10 0 0
v -11 -1 0
v -12 -1 0
v -12 0 0
v -11 0 0
v -12 -1 0
v -13 -1 0
v -13 0 0
v -12 0 0
v -13 -1 0
v -14 -1 0
v -14 0 0
v -13 0 0
v -14 -1 0
v -15 -1 0
v -15 0 0
v -14 0 0
v -15 -1 0
v -16 -1 0
v -16 0 0
v -15 0 0
v 0 -2 0
v -1 -2 0
v -1 -1 0
v 0 -1 0
v -1 -2 0
v -2 -2 0
v -2 -1 0
v -1 -1 0
v -2 -2 0
v -3 -2 0
v -3 -1 0
v -2 -1 0
v -3 -2 0
v -4 -2 0
v -4 -1 0
v -3 -1 0
v -4 -2 0
v -5 -2 0
v -5 -1 0
v -4 -1 0
v -5 -2 0
v -6 -2 0
v -6 -1 0
v -5 -1 0
v -8 -2 0
v -9 -2 0
v -9 -1 0
v -8 -1 0
v -9 -2 0
v -10 -2 0
v -10 -1 0
v -9 -1 0
v -10 -2 0
v -11 -2 0
v -11 -1 0
v -10 -1 0
v -11 -2 0
v -12 -2 0
v -12 -1 0
v -11 -1 0
v -12 -2 0
v -13 -2 0
v -13 -1 0
v -12 -1 0
v -13 -2 0
v -14 -2 0
v -14 -1 0
v -13 -1 0
v -14 -2 0
v -15 -2 0
v -15 -1 0
v -14 -1 0
v -15 -2 0
v -16 -2 0
v -16 -1 0
v -15 -1 0
v -3 -3 0
v -4 -3 0
v -4 -2 0
v -3 -2 0
v -4 -3 0
v -5 -3 0
v -5 -2 0
v -4 -2 0
v -5 -3 0
v -6 -3 0
v -6 -2 0
v -5 -2 0
v -8 -3 0
v -9 -3 0
v -9 -2 0
v -8 -2 0
v -9 -3 0
v -10 -3 0
v -10 -2 0
v -9 -2 0
v -10 -3 0
v -11 -3 0
v -11 -2 0
v -10 -2 0
v -11 -3 0
v -12 -3 0
v -12 -2 0
v -11 -2 0
v -12 -3 0
v -13 -3 0
v -13 -2 0
v -12 -2 0
v -13 -3 0
v -14 -3 0
v -14 -2 0
v -13 -2 0
v -14 -3 0
v -15 -3 0
v -15 -2 0
v -14 -2 0
v -15 -3 0
v -16 -3 0
v -16 -2 0
v -15 -2 0
v -3 -4 0
v -4 -4 0
v -4 -3 0
v -3 -3 0
v -8 -4 0
v -9 -4 0
v -9 -3 0
v -8 -3 0
v -3 -5 0
v -4 -5 0
v -4 -4 0
v -3 -4 0
v -3 -6 0
v -4 -6 0
v -4 -5 0
v -3 -5 0
v -3 -7 0
v -4 -7 0
v -4 -6 0
v -3 -6 0
v -3 -8 0
v -4 -8 0
v -4 -7 0
v -3 -7 0
v -3 -9 0
v -4 -9 0
v -4 -8 0
v -3 -8 0
v -3 -10 0
v -4 -10 0
v -4 -9 0
v -3 -9 0
v -3 -11 0
v -4 -11 0
v -4 -10 0
v -3 -10 0
v -3 -12 0
v -4 -12 0
v -4 -11 0
v -3 -11 0
v -3 -13 0
v -4 -13 0
v -4 -12 0
v -3 -12 0
v -3 -14 0
v -4 -14 0
v -4 -13 0
v -3 -13 0
v -4 -14 0
v -5 -14 0
v -5 -13 0
v -4 -13 0
v -5 -14 0
v -6 -14 0
v -6 -13 0
v -5 -13 0
v -6 -14 0
v -7 -14 0
v -7 -13 0
v -6 -13 0
v -7 -14 0
v -8 -14 0
v -8 -13 0
v -7 -13 0
v -8 -14 0
v -9 -14 0
v -9 -13 0
v -8 -13 0
v -9 -14 0
v -10 -14 0
v -10 -13 0
v -9 -13 0
v -10 -14 0
v -11 -14 0
v -11 -13 0
v -10 -13 0
v -11 -14 0
v -12 -14 0
v -12 -13 0
v -11 -13 0
v -12 -14 0
v -13 -14 0
v -13 -13 0
v -12 -13 0
v -13 -14 0
v -14 -14 0
v -14 -13 0
v -13 -13 0
v -14 -14 0
v -15 -14 0
v -15 -13 0
v -14 -13 0
v -15 -14 0
v -16 -14 0
v -16 -13 0
v -15 -13 0
v -3 -15 0
v -4 -15 0
v -4 -14 0
v -3 -14 0
v -4 -15 0
v -5 -15 0
v -5 -14 0
v -4 -14 0
v -5 -15 0
v -6 -15 0
v -6 -14 0
v -5 -14 0
v -6 -15 0
v -7 -15 0
v -7 -14 0
v -6 -14 0
v -7 -15 0
v -8 -15 0
v -8 -14 0
v -7 -14 0
v -8 -15 0
v -9 -15 0
v -9 -14 0
v -8 -14 0
v -9 -15 0
v -10 -15 0
v -10 -14 0
v -9 -14 0
v -10 -15 0
v -11 -15 0
v -11 -14 0
v -10 -14 0
v -11 -15 0
v -12 -15 0
v -12 -14 0
v -11 -14 0
v -12 -15 0
v -13 -15 0
v -13 -14 0
v -12 -14 0
v -13 -15 0
v -14 -15 0
v -14 -14 0
v -13 -14 0
v -14 -15 0
v -15 -15 0
v -15 -14 0
v -14 -14 0
v -15 -15 0
v -16 -15 0
v -16 -14 0
v -15 -14 0

# Texture cooridinates (Count = 29)
vt 0.0625 0.8125
vt 0.125 0.8125
vt 0.125 0.875
vt 0.0625 0.875
vt 0.25 0.9375
vt 0.3125 0.9375
vt 0.3125 1
vt 0.25 1
vt 0.1875 0.9375
vt 0.1875 1
vt 0.1875 0.875
vt 0.125 0.9375
vt 0.0625 0.75
vt 0.125 0.75
vt 0.25 0.875
vt 0.3125 0.875
vt 0.1875 0.75
vt 0.1875 0.8125
vt 0 0.9375
vt 0.0625 0.9375
vt 0.0625 1
vt 0 1
vt 0.125 1
vt 0.25 0.8125
vt 0.3125 0.8125
vt 0 0.8125
vt 0 0.875
vt 0.25 0.75
vt 0 0.75

# Normal
vn 0 0 -1

# Mesh description
g World_mesh_0085

# Faces
f 1/1/1 2/2/1 3/3/1 4/4/1
f 5/1/1 6/2/1 7/3/1 8/4/1
f 9/1/1 10/2/1 11/3/1 12/4/1
f 13/1/1 14/2/1 15/3/1 16/4/1
f 17/1/1 18/2/1 19/3/1 20/4/1
f 21/5/1 22/6/1 23/7/1 24/8/1
f 25/9/1 26/5/1 27/8/1 28/10/1
f 29/1/1 30/2/1 31/3/1 32/4/1
f 33/1/1 34/2/1 35/3/1 36/4/1
f 37/1/1 38/2/1 39/3/1 40/4/1
f 41/1/1 42/2/1 43/3/1 44/4/1
f 45/1/1 46/2/1 47/3/1 48/4/1
f 49/1/1 50/2/1 51/3/1 52/4/1
f 53/3/1 54/11/1 55/9/1 56/12/1
f 57/13/1 58/14/1 59/2/1 60/1/1
f 61/13/1 62/14/1 63/2/1 64/1/1
f 65/13/1 66/14/1 67/2/1 68/1/1
f 69/13/1 70/14/1 71/2/1 72/1/1
f 73/13/1 74/14/1 75/2/1 76/1/1
f 77/15/1 78/16/1 79/6/1 80/5/1
f 81/11/1 82/15/1 83/5/1 84/9/1
f 85/13/1 86/14/1 87/2/1 88/1/1
f 89/13/1 90/14/1 91/2/1 92/1/1
f 93/13/1 94/14/1 95/2/1 96/1/1
f 97/13/1 98/14/1 99/2/1 100/1/1
f 101/13/1 102/14/1 103/2/1 104/1/1
f 105/13/1 106/14/1 107/2/1 108/1/1
f 109/14/1 110/17/1 111/18/1 112/2/1
f 113/19/1 114/20/1 115/21/1 116/22/1
f 117/20/1 118/12/1 119/23/1 120/21/1
f 121/24/1 122/25/1 123/16/1 124/15/1
f 125/18/1 126/24/1 127/15/1 128/11/1
f 129/20/1 130/12/1 131/23/1 132/21/1
f 133/20/1 134/12/1 135/23/1 136/21/1
f 137/20/1 138/12/1 139/23/1 140/21/1
f 141/20/1 142/12/1 143/23/1 144/21/1
f 145/20/1 146/12/1 147/23/1 148/21/1
f 149/20/1 150/12/1 151/23/1 152/21/1
f 153/20/1 154/12/1 155/23/1 156/21/1
f 157/26/1 158/1/1 159/4/1 160/27/1
f 161/17/1 162/28/1 163/24/1 164/18/1
f 165/26/1 166/1/1 167/4/1 168/27/1
f 169/26/1 170/1/1 171/4/1 172/27/1
f 173/26/1 174/1/1 175/4/1 176/27/1
f 177/26/1 178/1/1 179/4/1 180/27/1
f 181/26/1 182/1/1 183/4/1 184/27/1
f 185/26/1 186/1/1 187/4/1 188/27/1
f 189/26/1 190/1/1 191/4/1 192/27/1
f 193/26/1 194/1/1 195/4/1 196/27/1
f 197/26/1 198/1/1 199/4/1 200/27/1
f 201/26/1 202/1/1 203/4/1 204/27/1
f 205/1/1 206/2/1 207/3/1 208/4/1
f 209/1/1 210/2/1 211/3/1 212/4/1
f 213/1/1 214/2/1 215/3/1 216/4/1
f 217/1/1 218/2/1 219/3/1 220/4/1
f 221/1/1 222/2/1 223/3/1 224/4/1
f 225/1/1 226/2/1 227/3/1 228/4/1
f 229/1/1 230/2/1 231/3/1 232/4/1
f 233/1/1 234/2/1 235/3/1 236/4/1
f 237/1/1 238/2/1 239/3/1 240/4/1
f 241/1/1 242/2/1 243/3/1 244/4/1
f 245/1/1 246/2/1 247/3/1 248/4/1
f 249/1/1 250/2/1 251/3/1 252/4/1
f 253/29/1 254/13/1 255/1/1 256/26/1
f 257/13/1 258/14/1 259/2/1 260/1/1
f 261/13/1 262/14/1 263/2/1 264/1/1
f 265/13/1 266/14/1 267/2/1 268/1/1
f 269/13/1 270/14/1 271/2/1 272/1/1
f 273/13/1 274/14/1 275/2/1 276/1/1
f 277/13/1 278/14/1 279/2/1 280/1/1
f 281/13/1 282/14/1 283/2/1 284/1/1
f 285/13/1 286/14/1 287/2/1 288/1/1
f 289/13/1 290/14/1 291/2/1 292/1/1
f 293/13/1 294/14/1 295/2/1 296/1/1
f 297/13/1 298/14/1 299/2/1 300/1/1
f 301/13/1 302/14/1 303/2/1 304/1/1

