# Tiled2Unity generated file. Do not modify by hand.
# Wavefront file for 'World_mesh_0003.obj'

# Vertices (Count = 160)
v -1 -13 0
v -2 -13 0
v -2 -12 0
v -1 -12 0
v -2 -13 0
v -3 -13 0
v -3 -12 0
v -2 -12 0
v -3 -13 0
v -4 -13 0
v -4 -12 0
v -3 -12 0
v -4 -13 0
v -5 -13 0
v -5 -12 0
v -4 -12 0
v -5 -13 0
v -6 -13 0
v -6 -12 0
v -5 -12 0
v -6 -13 0
v -7 -13 0
v -7 -12 0
v -6 -12 0
v -7 -13 0
v -8 -13 0
v -8 -12 0
v -7 -12 0
v -8 -13 0
v -9 -13 0
v -9 -12 0
v -8 -12 0
v -9 -13 0
v -10 -13 0
v -10 -12 0
v -9 -12 0
v -10 -13 0
v -11 -13 0
v -11 -12 0
v -10 -12 0
v -1 -14 0
v -2 -14 0
v -2 -13 0
v -1 -13 0
v -2 -14 0
v -3 -14 0
v -3 -13 0
v -2 -13 0
v -3 -14 0
v -4 -14 0
v -4 -13 0
v -3 -13 0
v -4 -14 0
v -5 -14 0
v -5 -13 0
v -4 -13 0
v -5 -14 0
v -6 -14 0
v -6 -13 0
v -5 -13 0
v -6 -14 0
v -7 -14 0
v -7 -13 0
v -6 -13 0
v -7 -14 0
v -8 -14 0
v -8 -13 0
v -7 -13 0
v -8 -14 0
v -9 -14 0
v -9 -13 0
v -8 -13 0
v -9 -14 0
v -10 -14 0
v -10 -13 0
v -9 -13 0
v -10 -14 0
v -11 -14 0
v -11 -13 0
v -10 -13 0
v -1 -15 0
v -2 -15 0
v -2 -14 0
v -1 -14 0
v -2 -15 0
v -3 -15 0
v -3 -14 0
v -2 -14 0
v -3 -15 0
v -4 -15 0
v -4 -14 0
v -3 -14 0
v -4 -15 0
v -5 -15 0
v -5 -14 0
v -4 -14 0
v -5 -15 0
v -6 -15 0
v -6 -14 0
v -5 -14 0
v -6 -15 0
v -7 -15 0
v -7 -14 0
v -6 -14 0
v -7 -15 0
v -8 -15 0
v -8 -14 0
v -7 -14 0
v -8 -15 0
v -9 -15 0
v -9 -14 0
v -8 -14 0
v -9 -15 0
v -10 -15 0
v -10 -14 0
v -9 -14 0
v -10 -15 0
v -11 -15 0
v -11 -14 0
v -10 -14 0
v -1 -16 0
v -2 -16 0
v -2 -15 0
v -1 -15 0
v -2 -16 0
v -3 -16 0
v -3 -15 0
v -2 -15 0
v -3 -16 0
v -4 -16 0
v -4 -15 0
v -3 -15 0
v -4 -16 0
v -5 -16 0
v -5 -15 0
v -4 -15 0
v -5 -16 0
v -6 -16 0
v -6 -15 0
v -5 -15 0
v -6 -16 0
v -7 -16 0
v -7 -15 0
v -6 -15 0
v -7 -16 0
v -8 -16 0
v -8 -15 0
v -7 -15 0
v -8 -16 0
v -9 -16 0
v -9 -15 0
v -8 -15 0
v -9 -16 0
v -10 -16 0
v -10 -15 0
v -9 -15 0
v -10 -16 0
v -11 -16 0
v -11 -15 0
v -10 -15 0

# Texture cooridinates (Count = 19)
vt 0.0625 0.8125
vt 0.125 0.8125
vt 0.125 0.875
vt 0.0625 0.875
vt 0 0.8125
vt 0 0.875
vt 0.125 0.75
vt 0.1875 0.75
vt 0.1875 0.8125
vt 0 0.5625
vt 0.0625 0.5625
vt 0.0625 0.625
vt 0 0.625
vt 0.125 0.5625
vt 0.125 0.625
vt 0.1875 0.5625
vt 0.1875 0.625
vt 0.25 0.5625
vt 0.25 0.625

# Normal
vn 0 0 -1

# Mesh description
g World_mesh_0003

# Faces
f 1/1/1 2/2/1 3/3/1 4/4/1
f 5/5/1 6/1/1 7/4/1 8/6/1
f 9/1/1 10/2/1 11/3/1 12/4/1
f 13/5/1 14/1/1 15/4/1 16/6/1
f 17/1/1 18/2/1 19/3/1 20/4/1
f 21/5/1 22/1/1 23/4/1 24/6/1
f 25/1/1 26/2/1 27/3/1 28/4/1
f 29/5/1 30/1/1 31/4/1 32/6/1
f 33/1/1 34/2/1 35/3/1 36/4/1
f 37/5/1 38/1/1 39/4/1 40/6/1
f 41/7/1 42/8/1 43/9/1 44/2/1
f 45/7/1 46/8/1 47/9/1 48/2/1
f 49/7/1 50/8/1 51/9/1 52/2/1
f 53/7/1 54/8/1 55/9/1 56/2/1
f 57/7/1 58/8/1 59/9/1 60/2/1
f 61/7/1 62/8/1 63/9/1 64/2/1
f 65/7/1 66/8/1 67/9/1 68/2/1
f 69/7/1 70/8/1 71/9/1 72/2/1
f 73/7/1 74/8/1 75/9/1 76/2/1
f 77/7/1 78/8/1 79/9/1 80/2/1
f 81/7/1 82/8/1 83/9/1 84/2/1
f 85/7/1 86/8/1 87/9/1 88/2/1
f 89/7/1 90/8/1 91/9/1 92/2/1
f 93/7/1 94/8/1 95/9/1 96/2/1
f 97/7/1 98/8/1 99/9/1 100/2/1
f 101/7/1 102/8/1 103/9/1 104/2/1
f 105/7/1 106/8/1 107/9/1 108/2/1
f 109/7/1 110/8/1 111/9/1 112/2/1
f 113/7/1 114/8/1 115/9/1 116/2/1
f 117/7/1 118/8/1 119/9/1 120/2/1
f 121/7/1 122/8/1 123/9/1 124/2/1
f 125/10/1 126/11/1 127/12/1 128/13/1
f 129/11/1 130/14/1 131/15/1 132/12/1
f 133/14/1 134/16/1 135/17/1 136/15/1
f 137/16/1 138/18/1 139/19/1 140/17/1
f 141/7/1 142/8/1 143/9/1 144/2/1
f 145/7/1 146/8/1 147/9/1 148/2/1
f 149/7/1 150/8/1 151/9/1 152/2/1
f 153/7/1 154/8/1 155/9/1 156/2/1
f 157/7/1 158/8/1 159/9/1 160/2/1

