# Tiled2Unity generated file. Do not modify by hand.
# Wavefront file for 'World_mesh_0020.obj'

# Vertices (Count = 568)
v -1 -1 0
v -2 -1 0
v -2 0 0
v -1 0 0
v -2 -1 0
v -3 -1 0
v -3 0 0
v -2 0 0
v -3 -1 0
v -4 -1 0
v -4 0 0
v -3 0 0
v -4 -1 0
v -5 -1 0
v -5 0 0
v -4 0 0
v -5 -1 0
v -6 -1 0
v -6 0 0
v -5 0 0
v -6 -1 0
v -7 -1 0
v -7 0 0
v -6 0 0
v -7 -1 0
v -8 -1 0
v -8 0 0
v -7 0 0
v -8 -1 0
v -9 -1 0
v -9 0 0
v -8 0 0
v -9 -1 0
v -10 -1 0
v -10 0 0
v -9 0 0
v -1 -2 0
v -2 -2 0
v -2 -1 0
v -1 -1 0
v -2 -2 0
v -3 -2 0
v -3 -1 0
v -2 -1 0
v -3 -2 0
v -4 -2 0
v -4 -1 0
v -3 -1 0
v -4 -2 0
v -5 -2 0
v -5 -1 0
v -4 -1 0
v -5 -2 0
v -6 -2 0
v -6 -1 0
v -5 -1 0
v -6 -2 0
v -7 -2 0
v -7 -1 0
v -6 -1 0
v -7 -2 0
v -8 -2 0
v -8 -1 0
v -7 -1 0
v -8 -2 0
v -9 -2 0
v -9 -1 0
v -8 -1 0
v -9 -2 0
v -10 -2 0
v -10 -1 0
v -9 -1 0
v -1 -3 0
v -2 -3 0
v -2 -2 0
v -1 -2 0
v -2 -3 0
v -3 -3 0
v -3 -2 0
v -2 -2 0
v -3 -3 0
v -4 -3 0
v -4 -2 0
v -3 -2 0
v -4 -3 0
v -5 -3 0
v -5 -2 0
v -4 -2 0
v -5 -3 0
v -6 -3 0
v -6 -2 0
v -5 -2 0
v -6 -3 0
v -7 -3 0
v -7 -2 0
v -6 -2 0
v -7 -3 0
v -8 -3 0
v -8 -2 0
v -7 -2 0
v -8 -3 0
v -9 -3 0
v -9 -2 0
v -8 -2 0
v -9 -3 0
v -10 -3 0
v -10 -2 0
v -9 -2 0
v -13 -3 0
v -14 -3 0
v -14 -2 0
v -13 -2 0
v -14 -3 0
v -15 -3 0
v -15 -2 0
v -14 -2 0
v -15 -3 0
v -16 -3 0
v -16 -2 0
v -15 -2 0
v -1 -4 0
v -2 -4 0
v -2 -3 0
v -1 -3 0
v -2 -4 0
v -3 -4 0
v -3 -3 0
v -2 -3 0
v -3 -4 0
v -4 -4 0
v -4 -3 0
v -3 -3 0
v -4 -4 0
v -5 -4 0
v -5 -3 0
v -4 -3 0
v -5 -4 0
v -6 -4 0
v -6 -3 0
v -5 -3 0
v -6 -4 0
v -7 -4 0
v -7 -3 0
v -6 -3 0
v -7 -4 0
v -8 -4 0
v -8 -3 0
v -7 -3 0
v -8 -4 0
v -9 -4 0
v -9 -3 0
v -8 -3 0
v -9 -4 0
v -10 -4 0
v -10 -3 0
v -9 -3 0
v -13 -4 0
v -14 -4 0
v -14 -3 0
v -13 -3 0
v -14 -4 0
v -15 -4 0
v -15 -3 0
v -14 -3 0
v -15 -4 0
v -16 -4 0
v -16 -3 0
v -15 -3 0
v -1 -5 0
v -2 -5 0
v -2 -4 0
v -1 -4 0
v -2 -5 0
v -3 -5 0
v -3 -4 0
v -2 -4 0
v -3 -5 0
v -4 -5 0
v -4 -4 0
v -3 -4 0
v -4 -5 0
v -5 -5 0
v -5 -4 0
v -4 -4 0
v -5 -5 0
v -6 -5 0
v -6 -4 0
v -5 -4 0
v -6 -5 0
v -7 -5 0
v -7 -4 0
v -6 -4 0
v -7 -5 0
v -8 -5 0
v -8 -4 0
v -7 -4 0
v -8 -5 0
v -9 -5 0
v -9 -4 0
v -8 -4 0
v -9 -5 0
v -10 -5 0
v -10 -4 0
v -9 -4 0
v -13 -5 0
v -14 -5 0
v -14 -4 0
v -13 -4 0
v -14 -5 0
v -15 -5 0
v -15 -4 0
v -14 -4 0
v -15 -5 0
v -16 -5 0
v -16 -4 0
v -15 -4 0
v -1 -6 0
v -2 -6 0
v -2 -5 0
v -1 -5 0
v -2 -6 0
v -3 -6 0
v -3 -5 0
v -2 -5 0
v -3 -6 0
v -4 -6 0
v -4 -5 0
v -3 -5 0
v -4 -6 0
v -5 -6 0
v -5 -5 0
v -4 -5 0
v -5 -6 0
v -6 -6 0
v -6 -5 0
v -5 -5 0
v -6 -6 0
v -7 -6 0
v -7 -5 0
v -6 -5 0
v -7 -6 0
v -8 -6 0
v -8 -5 0
v -7 -5 0
v -8 -6 0
v -9 -6 0
v -9 -5 0
v -8 -5 0
v -9 -6 0
v -10 -6 0
v -10 -5 0
v -9 -5 0
v -1 -7 0
v -2 -7 0
v -2 -6 0
v -1 -6 0
v -2 -7 0
v -3 -7 0
v -3 -6 0
v -2 -6 0
v -3 -7 0
v -4 -7 0
v -4 -6 0
v -3 -6 0
v -4 -7 0
v -5 -7 0
v -5 -6 0
v -4 -6 0
v -5 -7 0
v -6 -7 0
v -6 -6 0
v -5 -6 0
v -6 -7 0
v -7 -7 0
v -7 -6 0
v -6 -6 0
v -7 -7 0
v -8 -7 0
v -8 -6 0
v -7 -6 0
v -8 -7 0
v -9 -7 0
v -9 -6 0
v -8 -6 0
v -9 -7 0
v -10 -7 0
v -10 -6 0
v -9 -6 0
v -1 -8 0
v -2 -8 0
v -2 -7 0
v -1 -7 0
v -2 -8 0
v -3 -8 0
v -3 -7 0
v -2 -7 0
v -3 -8 0
v -4 -8 0
v -4 -7 0
v -3 -7 0
v -4 -8 0
v -5 -8 0
v -5 -7 0
v -4 -7 0
v -5 -8 0
v -6 -8 0
v -6 -7 0
v -5 -7 0
v -6 -8 0
v -7 -8 0
v -7 -7 0
v -6 -7 0
v -7 -8 0
v -8 -8 0
v -8 -7 0
v -7 -7 0
v -8 -8 0
v -9 -8 0
v -9 -7 0
v -8 -7 0
v -9 -8 0
v -10 -8 0
v -10 -7 0
v -9 -7 0
v -1 -9 0
v -2 -9 0
v -2 -8 0
v -1 -8 0
v -2 -9 0
v -3 -9 0
v -3 -8 0
v -2 -8 0
v -3 -9 0
v -4 -9 0
v -4 -8 0
v -3 -8 0
v -4 -9 0
v -5 -9 0
v -5 -8 0
v -4 -8 0
v -5 -9 0
v -6 -9 0
v -6 -8 0
v -5 -8 0
v -6 -9 0
v -7 -9 0
v -7 -8 0
v -6 -8 0
v -7 -9 0
v -8 -9 0
v -8 -8 0
v -7 -8 0
v -8 -9 0
v -9 -9 0
v -9 -8 0
v -8 -8 0
v -9 -9 0
v -10 -9 0
v -10 -8 0
v -9 -8 0
v -1 -10 0
v -2 -10 0
v -2 -9 0
v -1 -9 0
v -2 -10 0
v -3 -10 0
v -3 -9 0
v -2 -9 0
v -3 -10 0
v -4 -10 0
v -4 -9 0
v -3 -9 0
v -4 -10 0
v -5 -10 0
v -5 -9 0
v -4 -9 0
v -5 -10 0
v -6 -10 0
v -6 -9 0
v -5 -9 0
v -6 -10 0
v -7 -10 0
v -7 -9 0
v -6 -9 0
v -7 -10 0
v -8 -10 0
v -8 -9 0
v -7 -9 0
v -8 -10 0
v -9 -10 0
v -9 -9 0
v -8 -9 0
v -9 -10 0
v -10 -10 0
v -10 -9 0
v -9 -9 0
v -1 -11 0
v -2 -11 0
v -2 -10 0
v -1 -10 0
v -2 -11 0
v -3 -11 0
v -3 -10 0
v -2 -10 0
v -3 -11 0
v -4 -11 0
v -4 -10 0
v -3 -10 0
v -4 -11 0
v -5 -11 0
v -5 -10 0
v -4 -10 0
v -5 -11 0
v -6 -11 0
v -6 -10 0
v -5 -10 0
v -6 -11 0
v -7 -11 0
v -7 -10 0
v -6 -10 0
v -7 -11 0
v -8 -11 0
v -8 -10 0
v -7 -10 0
v -8 -11 0
v -9 -11 0
v -9 -10 0
v -8 -10 0
v -9 -11 0
v -10 -11 0
v -10 -10 0
v -9 -10 0
v -1 -12 0
v -2 -12 0
v -2 -11 0
v -1 -11 0
v -2 -12 0
v -3 -12 0
v -3 -11 0
v -2 -11 0
v -3 -12 0
v -4 -12 0
v -4 -11 0
v -3 -11 0
v -4 -12 0
v -5 -12 0
v -5 -11 0
v -4 -11 0
v -5 -12 0
v -6 -12 0
v -6 -11 0
v -5 -11 0
v -6 -12 0
v -7 -12 0
v -7 -11 0
v -6 -11 0
v -7 -12 0
v -8 -12 0
v -8 -11 0
v -7 -11 0
v -8 -12 0
v -9 -12 0
v -9 -11 0
v -8 -11 0
v -9 -12 0
v -10 -12 0
v -10 -11 0
v -9 -11 0
v -1 -13 0
v -2 -13 0
v -2 -12 0
v -1 -12 0
v -2 -13 0
v -3 -13 0
v -3 -12 0
v -2 -12 0
v -14 -13 0
v -15 -13 0
v -15 -12 0
v -14 -12 0
v -15 -13 0
v -16 -13 0
v -16 -12 0
v -15 -12 0
v -1 -14 0
v -2 -14 0
v -2 -13 0
v -1 -13 0
v -2 -14 0
v -3 -14 0
v -3 -13 0
v -2 -13 0
v -14 -14 0
v -15 -14 0
v -15 -13 0
v -14 -13 0
v -15 -14 0
v -16 -14 0
v -16 -13 0
v -15 -13 0
v -1 -15 0
v -2 -15 0
v -2 -14 0
v -1 -14 0
v -2 -15 0
v -3 -15 0
v -3 -14 0
v -2 -14 0
v -14 -15 0
v -15 -15 0
v -15 -14 0
v -14 -14 0
v -15 -15 0
v -16 -15 0
v -16 -14 0
v -15 -14 0
v 0 -16 0
v -1 -16 0
v -1 -15 0
v 0 -15 0
v -1 -16 0
v -2 -16 0
v -2 -15 0
v -1 -15 0
v -2 -16 0
v -3 -16 0
v -3 -15 0
v -2 -15 0
v -3 -16 0
v -4 -16 0
v -4 -15 0
v -3 -15 0
v -4 -16 0
v -5 -16 0
v -5 -15 0
v -4 -15 0
v -5 -16 0
v -6 -16 0
v -6 -15 0
v -5 -15 0
v -6 -16 0
v -7 -16 0
v -7 -15 0
v -6 -15 0
v -7 -16 0
v -8 -16 0
v -8 -15 0
v -7 -15 0
v -8 -16 0
v -9 -16 0
v -9 -15 0
v -8 -15 0
v -9 -16 0
v -10 -16 0
v -10 -15 0
v -9 -15 0
v -10 -16 0
v -11 -16 0
v -11 -15 0
v -10 -15 0
v -14 -16 0
v -15 -16 0
v -15 -15 0
v -14 -15 0
v -15 -16 0
v -16 -16 0
v -16 -15 0
v -15 -15 0

# Texture cooridinates (Count = 41)
vt 0 0.8125
vt 0.0625 0.8125
vt 0.0625 0.875
vt 0 0.875
vt 0.125 0.8125
vt 0.125 0.875
vt 0.125 0.75
vt 0.1875 0.75
vt 0.1875 0.8125
vt 0 0.5625
vt 0.0625 0.5625
vt 0.0625 0.625
vt 0 0.625
vt 0.125 0.5625
vt 0.125 0.625
vt 0.1875 0.5625
vt 0.1875 0.625
vt 0.25 0.5625
vt 0.25 0.625
vt 0 0.5
vt 0.0625 0.5
vt 0.125 0.5
vt 0.1875 0.5
vt 0.25 0.5
vt 0 0.4375
vt 0.0625 0.4375
vt 0.125 0.4375
vt 0.1875 0.4375
vt 0.25 0.4375
vt 0.3125 0.9375
vt 0.375 0.9375
vt 0.375 1
vt 0.3125 1
vt 0.4375 0.9375
vt 0.4375 1
vt 0.3125 0.875
vt 0.375 0.875
vt 0.4375 0.875
vt 0.3125 0.8125
vt 0.375 0.8125
vt 0.4375 0.8125

# Normal
vn 0 0 -1

# Mesh description
g World_mesh_0020

# Faces
f 1/1/1 2/2/1 3/3/1 4/4/1
f 5/1/1 6/2/1 7/3/1 8/4/1
f 9/2/1 10/5/1 11/6/1 12/3/1
f 13/2/1 14/5/1 15/6/1 16/3/1
f 17/2/1 18/5/1 19/6/1 20/3/1
f 21/1/1 22/2/1 23/3/1 24/4/1
f 25/1/1 26/2/1 27/3/1 28/4/1
f 29/1/1 30/2/1 31/3/1 32/4/1
f 33/2/1 34/5/1 35/6/1 36/3/1
f 37/7/1 38/8/1 39/9/1 40/5/1
f 41/7/1 42/8/1 43/9/1 44/5/1
f 45/7/1 46/8/1 47/9/1 48/5/1
f 49/7/1 50/8/1 51/9/1 52/5/1
f 53/10/1 54/11/1 55/12/1 56/13/1
f 57/11/1 58/14/1 59/15/1 60/12/1
f 61/14/1 62/16/1 63/17/1 64/15/1
f 65/16/1 66/18/1 67/19/1 68/17/1
f 69/7/1 70/8/1 71/9/1 72/5/1
f 73/7/1 74/8/1 75/9/1 76/5/1
f 77/7/1 78/8/1 79/9/1 80/5/1
f 81/7/1 82/8/1 83/9/1 84/5/1
f 85/7/1 86/8/1 87/9/1 88/5/1
f 89/20/1 90/21/1 91/11/1 92/10/1
f 93/21/1 94/22/1 95/14/1 96/11/1
f 97/22/1 98/23/1 99/16/1 100/14/1
f 101/23/1 102/24/1 103/18/1 104/16/1
f 105/7/1 106/8/1 107/9/1 108/5/1
f 109/1/1 110/2/1 111/3/1 112/4/1
f 113/2/1 114/5/1 115/6/1 116/3/1
f 117/1/1 118/2/1 119/3/1 120/4/1
f 121/7/1 122/8/1 123/9/1 124/5/1
f 125/7/1 126/8/1 127/9/1 128/5/1
f 129/7/1 130/8/1 131/9/1 132/5/1
f 133/7/1 134/8/1 135/9/1 136/5/1
f 137/25/1 138/26/1 139/21/1 140/20/1
f 141/26/1 142/27/1 143/22/1 144/21/1
f 145/27/1 146/28/1 147/23/1 148/22/1
f 149/28/1 150/29/1 151/24/1 152/23/1
f 153/7/1 154/8/1 155/9/1 156/5/1
f 157/7/1 158/8/1 159/9/1 160/5/1
f 161/7/1 162/8/1 163/9/1 164/5/1
f 165/7/1 166/8/1 167/9/1 168/5/1
f 169/7/1 170/8/1 171/9/1 172/5/1
f 173/7/1 174/8/1 175/9/1 176/5/1
f 177/7/1 178/8/1 179/9/1 180/5/1
f 181/7/1 182/8/1 183/9/1 184/5/1
f 185/7/1 186/8/1 187/9/1 188/5/1
f 189/7/1 190/8/1 191/9/1 192/5/1
f 193/7/1 194/8/1 195/9/1 196/5/1
f 197/7/1 198/8/1 199/9/1 200/5/1
f 201/7/1 202/8/1 203/9/1 204/5/1
f 205/7/1 206/8/1 207/9/1 208/5/1
f 209/7/1 210/8/1 211/9/1 212/5/1
f 213/7/1 214/8/1 215/9/1 216/5/1
f 217/7/1 218/8/1 219/9/1 220/5/1
f 221/7/1 222/8/1 223/9/1 224/5/1
f 225/7/1 226/8/1 227/9/1 228/5/1
f 229/7/1 230/8/1 231/9/1 232/5/1
f 233/7/1 234/8/1 235/9/1 236/5/1
f 237/7/1 238/8/1 239/9/1 240/5/1
f 241/7/1 242/8/1 243/9/1 244/5/1
f 245/7/1 246/8/1 247/9/1 248/5/1
f 249/7/1 250/8/1 251/9/1 252/5/1
f 253/7/1 254/8/1 255/9/1 256/5/1
f 257/7/1 258/8/1 259/9/1 260/5/1
f 261/7/1 262/8/1 263/9/1 264/5/1
f 265/7/1 266/8/1 267/9/1 268/5/1
f 269/7/1 270/8/1 271/9/1 272/5/1
f 273/7/1 274/8/1 275/9/1 276/5/1
f 277/7/1 278/8/1 279/9/1 280/5/1
f 281/7/1 282/8/1 283/9/1 284/5/1
f 285/7/1 286/8/1 287/9/1 288/5/1
f 289/7/1 290/8/1 291/9/1 292/5/1
f 293/7/1 294/8/1 295/9/1 296/5/1
f 297/7/1 298/8/1 299/9/1 300/5/1
f 301/7/1 302/8/1 303/9/1 304/5/1
f 305/7/1 306/8/1 307/9/1 308/5/1
f 309/7/1 310/8/1 311/9/1 312/5/1
f 313/7/1 314/8/1 315/9/1 316/5/1
f 317/7/1 318/8/1 319/9/1 320/5/1
f 321/7/1 322/8/1 323/9/1 324/5/1
f 325/7/1 326/8/1 327/9/1 328/5/1
f 329/10/1 330/11/1 331/12/1 332/13/1
f 333/11/1 334/14/1 335/15/1 336/12/1
f 337/14/1 338/16/1 339/17/1 340/15/1
f 341/16/1 342/18/1 343/19/1 344/17/1
f 345/7/1 346/8/1 347/9/1 348/5/1
f 349/7/1 350/8/1 351/9/1 352/5/1
f 353/7/1 354/8/1 355/9/1 356/5/1
f 357/7/1 358/8/1 359/9/1 360/5/1
f 361/7/1 362/8/1 363/9/1 364/5/1
f 365/20/1 366/21/1 367/11/1 368/10/1
f 369/21/1 370/22/1 371/14/1 372/11/1
f 373/22/1 374/23/1 375/16/1 376/14/1
f 377/23/1 378/24/1 379/18/1 380/16/1
f 381/7/1 382/8/1 383/9/1 384/5/1
f 385/7/1 386/8/1 387/9/1 388/5/1
f 389/7/1 390/8/1 391/9/1 392/5/1
f 393/7/1 394/8/1 395/9/1 396/5/1
f 397/7/1 398/8/1 399/9/1 400/5/1
f 401/25/1 402/26/1 403/21/1 404/20/1
f 405/26/1 406/27/1 407/22/1 408/21/1
f 409/27/1 410/28/1 411/23/1 412/22/1
f 413/28/1 414/29/1 415/24/1 416/23/1
f 417/7/1 418/8/1 419/9/1 420/5/1
f 421/7/1 422/8/1 423/9/1 424/5/1
f 425/7/1 426/8/1 427/9/1 428/5/1
f 429/7/1 430/8/1 431/9/1 432/5/1
f 433/7/1 434/8/1 435/9/1 436/5/1
f 437/7/1 438/8/1 439/9/1 440/5/1
f 441/7/1 442/8/1 443/9/1 444/5/1
f 445/7/1 446/8/1 447/9/1 448/5/1
f 449/7/1 450/8/1 451/9/1 452/5/1
f 453/7/1 454/8/1 455/9/1 456/5/1
f 457/7/1 458/8/1 459/9/1 460/5/1
f 461/7/1 462/8/1 463/9/1 464/5/1
f 465/7/1 466/8/1 467/9/1 468/5/1
f 469/30/1 470/31/1 471/32/1 472/33/1
f 473/31/1 474/34/1 475/35/1 476/32/1
f 477/1/1 478/2/1 479/3/1 480/4/1
f 481/1/1 482/2/1 483/3/1 484/4/1
f 485/36/1 486/37/1 487/31/1 488/30/1
f 489/37/1 490/38/1 491/34/1 492/31/1
f 493/7/1 494/8/1 495/9/1 496/5/1
f 497/7/1 498/8/1 499/9/1 500/5/1
f 501/39/1 502/40/1 503/37/1 504/36/1
f 505/40/1 506/41/1 507/38/1 508/37/1
f 509/7/1 510/8/1 511/9/1 512/5/1
f 513/7/1 514/8/1 515/9/1 516/5/1
f 517/2/1 518/5/1 519/6/1 520/3/1
f 521/7/1 522/8/1 523/9/1 524/5/1
f 525/7/1 526/8/1 527/9/1 528/5/1
f 529/1/1 530/2/1 531/3/1 532/4/1
f 533/1/1 534/2/1 535/3/1 536/4/1
f 537/2/1 538/5/1 539/6/1 540/3/1
f 541/2/1 542/5/1 543/6/1 544/3/1
f 545/2/1 546/5/1 547/6/1 548/3/1
f 549/1/1 550/2/1 551/3/1 552/4/1
f 553/2/1 554/5/1 555/6/1 556/3/1
f 557/1/1 558/2/1 559/3/1 560/4/1
f 561/7/1 562/8/1 563/9/1 564/5/1
f 565/7/1 566/8/1 567/9/1 568/5/1

