# Tiled2Unity generated file. Do not modify by hand.
# Wavefront file for 'World_mesh_0115.obj'

# Vertices (Count = 20)
v -2 -1 0
v -3 -1 0
v -3 0 0
v -2 0 0
v -2 -2 0
v -3 -2 0
v -3 -1 0
v -2 -1 0
v -5 -6 0
v -6 -6 0
v -6 -5 0
v -5 -5 0
v -6 -6 0
v -7 -6 0
v -7 -5 0
v -6 -5 0
v -5 -7 0
v -6 -7 0
v -6 -6 0
v -5 -6 0

# Texture cooridinates (Count = 17)
vt 0 0.75
vt 0.0625 0.75
vt 0.0625 0.8125
vt 0 0.8125
vt 0.125 0.6875
vt 0.1875 0.6875
vt 0.1875 0.75
vt 0.125 0.75
vt 0.1875 0.875
vt 0.25 0.875
vt 0.25 0.9375
vt 0.1875 0.9375
vt 0.3125 0.9375
vt 0.3125 1
vt 0.25 1
vt 0.1875 0.8125
vt 0.25 0.8125

# Normal
vn 0 0 -1

# Mesh description
g World_mesh_0115

# Faces
f 1/1/1 2/2/1 3/3/1 4/4/1
f 5/5/1 6/6/1 7/7/1 8/8/1
f 9/9/1 10/10/1 11/11/1 12/12/1
f 13/11/1 14/13/1 15/14/1 16/15/1
f 17/16/1 18/17/1 19/10/1 20/9/1

