# Tiled2Unity generated file. Do not modify by hand.
# Wavefront file for 'World_mesh_0091.obj'

# Vertices (Count = 80)
v 0 -9 0
v -1 -9 0
v -1 -8 0
v 0 -8 0
v -1 -9 0
v -2 -9 0
v -2 -8 0
v -1 -8 0
v -2 -9 0
v -3 -9 0
v -3 -8 0
v -2 -8 0
v -3 -9 0
v -4 -9 0
v -4 -8 0
v -3 -8 0
v 0 -10 0
v -1 -10 0
v -1 -9 0
v 0 -9 0
v -1 -10 0
v -2 -10 0
v -2 -9 0
v -1 -9 0
v -2 -10 0
v -3 -10 0
v -3 -9 0
v -2 -9 0
v -3 -10 0
v -4 -10 0
v -4 -9 0
v -3 -9 0
v -3 -11 0
v -4 -11 0
v -4 -10 0
v -3 -10 0
v 0 -12 0
v -1 -12 0
v -1 -11 0
v 0 -11 0
v -1 -12 0
v -2 -12 0
v -2 -11 0
v -1 -11 0
v -3 -12 0
v -4 -12 0
v -4 -11 0
v -3 -11 0
v 0 -13 0
v -1 -13 0
v -1 -12 0
v 0 -12 0
v -1 -13 0
v -2 -13 0
v -2 -12 0
v -1 -12 0
v -3 -13 0
v -4 -13 0
v -4 -12 0
v -3 -12 0
v 0 -14 0
v -1 -14 0
v -1 -13 0
v 0 -13 0
v -1 -14 0
v -2 -14 0
v -2 -13 0
v -1 -13 0
v -3 -14 0
v -4 -14 0
v -4 -13 0
v -3 -13 0
v -3 -15 0
v -4 -15 0
v -4 -14 0
v -3 -14 0
v -3 -16 0
v -4 -16 0
v -4 -15 0
v -3 -15 0

# Texture cooridinates (Count = 11)
vt 0.0625 0.9375
vt 0.125 0.9375
vt 0.125 1
vt 0.0625 1
vt 0.1875 0.9375
vt 0.1875 1
vt 0.0625 0.875
vt 0.125 0.875
vt 0.1875 0.875
vt 0.125 0.8125
vt 0.1875 0.8125

# Normal
vn 0 0 -1

# Mesh description
g World_mesh_0091

# Faces
f 1/1/1 2/2/1 3/3/1 4/4/1
f 5/1/1 6/2/1 7/3/1 8/4/1
f 9/1/1 10/2/1 11/3/1 12/4/1
f 13/2/1 14/5/1 15/6/1 16/3/1
f 17/7/1 18/8/1 19/2/1 20/1/1
f 21/7/1 22/8/1 23/2/1 24/1/1
f 25/7/1 26/8/1 27/2/1 28/1/1
f 29/8/1 30/9/1 31/5/1 32/2/1
f 33/8/1 34/9/1 35/5/1 36/2/1
f 37/1/1 38/2/1 39/3/1 40/4/1
f 41/2/1 42/5/1 43/6/1 44/3/1
f 45/8/1 46/9/1 47/5/1 48/2/1
f 49/7/1 50/8/1 51/2/1 52/1/1
f 53/8/1 54/9/1 55/5/1 56/2/1
f 57/8/1 58/9/1 59/5/1 60/2/1
f 61/1/1 62/2/1 63/3/1 64/4/1
f 65/10/1 66/11/1 67/9/1 68/8/1
f 69/8/1 70/9/1 71/5/1 72/2/1
f 73/8/1 74/9/1 75/5/1 76/2/1
f 77/8/1 78/9/1 79/5/1 80/2/1

