# Tiled2Unity generated file. Do not modify by hand.
# Wavefront file for 'World_mesh_0116.obj'

# Vertices (Count = 44)
v -1 -1 0
v -2 -1 0
v -2 0 0
v -1 0 0
v -2 -1 0
v -3 -1 0
v -3 0 0
v -2 0 0
v -14 -1 0
v -15 -1 0
v -15 0 0
v -14 0 0
v -14 -2 0
v -15 -2 0
v -15 -1 0
v -14 -1 0
v -14 -3 0
v -15 -3 0
v -15 -2 0
v -14 -2 0
v -5 -15 0
v -6 -15 0
v -6 -14 0
v -5 -14 0
v -6 -15 0
v -7 -15 0
v -7 -14 0
v -6 -14 0
v -9 -15 0
v -10 -15 0
v -10 -14 0
v -9 -14 0
v -10 -15 0
v -11 -15 0
v -11 -14 0
v -10 -14 0
v -9 -16 0
v -10 -16 0
v -10 -15 0
v -9 -15 0
v -10 -16 0
v -11 -16 0
v -11 -15 0
v -10 -15 0

# Texture cooridinates (Count = 25)
vt 0.375 0.5
vt 0.4375 0.5
vt 0.4375 0.5625
vt 0.375 0.5625
vt 0.3125 0.5
vt 0.3125 0.5625
vt 0 0.75
vt 0.0625 0.75
vt 0.0625 0.8125
vt 0 0.8125
vt 0.125 0.6875
vt 0.1875 0.6875
vt 0.1875 0.75
vt 0.125 0.75
vt 0.125 0.625
vt 0.1875 0.625
vt 0.25 0.9375
vt 0.3125 0.9375
vt 0.3125 1
vt 0.25 1
vt 0.1875 0.9375
vt 0.1875 1
vt 0.375 0.625
vt 0.3125 0.625
vt 0.4375 0.625

# Normal
vn 0 0 -1

# Mesh description
g World_mesh_0116

# Faces
f 1/1/1 2/2/1 3/3/1 4/4/1
f 5/5/1 6/1/1 7/4/1 8/6/1
f 9/7/1 10/8/1 11/9/1 12/10/1
f 13/11/1 14/12/1 15/13/1 16/14/1
f 17/15/1 18/16/1 19/12/1 20/11/1
f 21/17/1 22/18/1 23/19/1 24/20/1
f 25/21/1 26/17/1 27/20/1 28/22/1
f 29/6/1 30/4/1 31/23/1 32/24/1
f 33/4/1 34/3/1 35/25/1 36/23/1
f 37/5/1 38/1/1 39/4/1 40/6/1
f 41/1/1 42/2/1 43/3/1 44/4/1

