# Tiled2Unity generated file. Do not modify by hand.
# Wavefront file for 'World_mesh_0044.obj'

# Vertices (Count = 44)
v -14 -7 0
v -15 -7 0
v -15 -6 0
v -14 -6 0
v -15 -7 0
v -16 -7 0
v -16 -6 0
v -15 -6 0
v -14 -8 0
v -15 -8 0
v -15 -7 0
v -14 -7 0
v -14 -9 0
v -15 -9 0
v -15 -8 0
v -14 -8 0
v -14 -10 0
v -15 -10 0
v -15 -9 0
v -14 -9 0
v -14 -11 0
v -15 -11 0
v -15 -10 0
v -14 -10 0
v -14 -12 0
v -15 -12 0
v -15 -11 0
v -14 -11 0
v -14 -13 0
v -15 -13 0
v -15 -12 0
v -14 -12 0
v -14 -14 0
v -15 -14 0
v -15 -13 0
v -14 -13 0
v -14 -15 0
v -15 -15 0
v -15 -14 0
v -14 -14 0
v -14 -16 0
v -15 -16 0
v -15 -15 0
v -14 -15 0

# Texture cooridinates (Count = 8)
vt 0 0.9375
vt 0.0625 0.9375
vt 0.0625 1
vt 0 1
vt 0.125 0.9375
vt 0.125 1
vt 0 0.875
vt 0.0625 0.875

# Normal
vn 0 0 -1

# Mesh description
g World_mesh_0044

# Faces
f 1/1/1 2/2/1 3/3/1 4/4/1
f 5/2/1 6/5/1 7/6/1 8/3/1
f 9/7/1 10/8/1 11/2/1 12/1/1
f 13/7/1 14/8/1 15/2/1 16/1/1
f 17/7/1 18/8/1 19/2/1 20/1/1
f 21/7/1 22/8/1 23/2/1 24/1/1
f 25/7/1 26/8/1 27/2/1 28/1/1
f 29/7/1 30/8/1 31/2/1 32/1/1
f 33/7/1 34/8/1 35/2/1 36/1/1
f 37/7/1 38/8/1 39/2/1 40/1/1
f 41/7/1 42/8/1 43/2/1 44/1/1

