# Tiled2Unity generated file. Do not modify by hand.
# Wavefront file for 'World_mesh_0065.obj'

# Vertices (Count = 420)
v -9 -1 0
v -10 -1 0
v -10 0 0
v -9 0 0
v -10 -1 0
v -11 -1 0
v -11 0 0
v -10 0 0
v -11 -1 0
v -12 -1 0
v -12 0 0
v -11 0 0
v -9 -2 0
v -10 -2 0
v -10 -1 0
v -9 -1 0
v -11 -2 0
v -12 -2 0
v -12 -1 0
v -11 -1 0
v 0 -3 0
v -1 -3 0
v -1 -2 0
v 0 -2 0
v -1 -3 0
v -2 -3 0
v -2 -2 0
v -1 -2 0
v -2 -3 0
v -3 -3 0
v -3 -2 0
v -2 -2 0
v -3 -3 0
v -4 -3 0
v -4 -2 0
v -3 -2 0
v -4 -3 0
v -5 -3 0
v -5 -2 0
v -4 -2 0
v -5 -3 0
v -6 -3 0
v -6 -2 0
v -5 -2 0
v -6 -3 0
v -7 -3 0
v -7 -2 0
v -6 -2 0
v -7 -3 0
v -8 -3 0
v -8 -2 0
v -7 -2 0
v -8 -3 0
v -9 -3 0
v -9 -2 0
v -8 -2 0
v -9 -3 0
v -10 -3 0
v -10 -2 0
v -9 -2 0
v -11 -3 0
v -12 -3 0
v -12 -2 0
v -11 -2 0
v 0 -4 0
v -1 -4 0
v -1 -3 0
v 0 -3 0
v -1 -4 0
v -2 -4 0
v -2 -3 0
v -1 -3 0
v -2 -4 0
v -3 -4 0
v -3 -3 0
v -2 -3 0
v -3 -4 0
v -4 -4 0
v -4 -3 0
v -3 -3 0
v -4 -4 0
v -5 -4 0
v -5 -3 0
v -4 -3 0
v -5 -4 0
v -6 -4 0
v -6 -3 0
v -5 -3 0
v -6 -4 0
v -7 -4 0
v -7 -3 0
v -6 -3 0
v -7 -4 0
v -8 -4 0
v -8 -3 0
v -7 -3 0
v -8 -4 0
v -9 -4 0
v -9 -3 0
v -8 -3 0
v -9 -4 0
v -10 -4 0
v -10 -3 0
v -9 -3 0
v -11 -4 0
v -12 -4 0
v -12 -3 0
v -11 -3 0
v -11 -5 0
v -12 -5 0
v -12 -4 0
v -11 -4 0
v -11 -6 0
v -12 -6 0
v -12 -5 0
v -11 -5 0
v -12 -6 0
v -13 -6 0
v -13 -5 0
v -12 -5 0
v -13 -6 0
v -14 -6 0
v -14 -5 0
v -13 -5 0
v -14 -6 0
v -15 -6 0
v -15 -5 0
v -14 -5 0
v -15 -6 0
v -16 -6 0
v -16 -5 0
v -15 -5 0
v -11 -7 0
v -12 -7 0
v -12 -6 0
v -11 -6 0
v -12 -7 0
v -13 -7 0
v -13 -6 0
v -12 -6 0
v -13 -7 0
v -14 -7 0
v -14 -6 0
v -13 -6 0
v -14 -7 0
v -15 -7 0
v -15 -6 0
v -14 -6 0
v -15 -7 0
v -16 -7 0
v -16 -6 0
v -15 -6 0
v 0 -8 0
v -1 -8 0
v -1 -7 0
v 0 -7 0
v -1 -8 0
v -2 -8 0
v -2 -7 0
v -1 -7 0
v -2 -8 0
v -3 -8 0
v -3 -7 0
v -2 -7 0
v -3 -8 0
v -4 -8 0
v -4 -7 0
v -3 -7 0
v -4 -8 0
v -5 -8 0
v -5 -7 0
v -4 -7 0
v -5 -8 0
v -6 -8 0
v -6 -7 0
v -5 -7 0
v -6 -8 0
v -7 -8 0
v -7 -7 0
v -6 -7 0
v -7 -8 0
v -8 -8 0
v -8 -7 0
v -7 -7 0
v -8 -8 0
v -9 -8 0
v -9 -7 0
v -8 -7 0
v -9 -8 0
v -10 -8 0
v -10 -7 0
v -9 -7 0
v -10 -8 0
v -11 -8 0
v -11 -7 0
v -10 -7 0
v -11 -8 0
v -12 -8 0
v -12 -7 0
v -11 -7 0
v -12 -8 0
v -13 -8 0
v -13 -7 0
v -12 -7 0
v -13 -8 0
v -14 -8 0
v -14 -7 0
v -13 -7 0
v -14 -8 0
v -15 -8 0
v -15 -7 0
v -14 -7 0
v -15 -8 0
v -16 -8 0
v -16 -7 0
v -15 -7 0
v -15 -9 0
v -16 -9 0
v -16 -8 0
v -15 -8 0
v 0 -11 0
v -1 -11 0
v -1 -10 0
v 0 -10 0
v -1 -11 0
v -2 -11 0
v -2 -10 0
v -1 -10 0
v -2 -11 0
v -3 -11 0
v -3 -10 0
v -2 -10 0
v -3 -11 0
v -4 -11 0
v -4 -10 0
v -3 -10 0
v -14 -11 0
v -15 -11 0
v -15 -10 0
v -14 -10 0
v -15 -11 0
v -16 -11 0
v -16 -10 0
v -15 -10 0
v 0 -12 0
v -1 -12 0
v -1 -11 0
v 0 -11 0
v -1 -12 0
v -2 -12 0
v -2 -11 0
v -1 -11 0
v -2 -12 0
v -3 -12 0
v -3 -11 0
v -2 -11 0
v -3 -12 0
v -4 -12 0
v -4 -11 0
v -3 -11 0
v -14 -12 0
v -15 -12 0
v -15 -11 0
v -14 -11 0
v -15 -12 0
v -16 -12 0
v -16 -11 0
v -15 -11 0
v 0 -13 0
v -1 -13 0
v -1 -12 0
v 0 -12 0
v -1 -13 0
v -2 -13 0
v -2 -12 0
v -1 -12 0
v -2 -13 0
v -3 -13 0
v -3 -12 0
v -2 -12 0
v -3 -13 0
v -4 -13 0
v -4 -12 0
v -3 -12 0
v -5 -13 0
v -6 -13 0
v -6 -12 0
v -5 -12 0
v -6 -13 0
v -7 -13 0
v -7 -12 0
v -6 -12 0
v -7 -13 0
v -8 -13 0
v -8 -12 0
v -7 -12 0
v -8 -13 0
v -9 -13 0
v -9 -12 0
v -8 -12 0
v -9 -13 0
v -10 -13 0
v -10 -12 0
v -9 -12 0
v -10 -13 0
v -11 -13 0
v -11 -12 0
v -10 -12 0
v -11 -13 0
v -12 -13 0
v -12 -12 0
v -11 -12 0
v -12 -13 0
v -13 -13 0
v -13 -12 0
v -12 -12 0
v -14 -13 0
v -15 -13 0
v -15 -12 0
v -14 -12 0
v -15 -13 0
v -16 -13 0
v -16 -12 0
v -15 -12 0
v -5 -14 0
v -6 -14 0
v -6 -13 0
v -5 -13 0
v -6 -14 0
v -7 -14 0
v -7 -13 0
v -6 -13 0
v -7 -14 0
v -8 -14 0
v -8 -13 0
v -7 -13 0
v -8 -14 0
v -9 -14 0
v -9 -13 0
v -8 -13 0
v -9 -14 0
v -10 -14 0
v -10 -13 0
v -9 -13 0
v -10 -14 0
v -11 -14 0
v -11 -13 0
v -10 -13 0
v -11 -14 0
v -12 -14 0
v -12 -13 0
v -11 -13 0
v -12 -14 0
v -13 -14 0
v -13 -13 0
v -12 -13 0
v -5 -15 0
v -6 -15 0
v -6 -14 0
v -5 -14 0
v -12 -15 0
v -13 -15 0
v -13 -14 0
v -12 -14 0
v 0 -16 0
v -1 -16 0
v -1 -15 0
v 0 -15 0
v -1 -16 0
v -2 -16 0
v -2 -15 0
v -1 -15 0
v -2 -16 0
v -3 -16 0
v -3 -15 0
v -2 -15 0
v -3 -16 0
v -4 -16 0
v -4 -15 0
v -3 -15 0
v -5 -16 0
v -6 -16 0
v -6 -15 0
v -5 -15 0
v -6 -16 0
v -7 -16 0
v -7 -15 0
v -6 -15 0
v -7 -16 0
v -8 -16 0
v -8 -15 0
v -7 -15 0
v -8 -16 0
v -9 -16 0
v -9 -15 0
v -8 -15 0
v -9 -16 0
v -10 -16 0
v -10 -15 0
v -9 -15 0
v -10 -16 0
v -11 -16 0
v -11 -15 0
v -10 -15 0
v -11 -16 0
v -12 -16 0
v -12 -15 0
v -11 -15 0
v -12 -16 0
v -13 -16 0
v -13 -15 0
v -12 -15 0
v -14 -16 0
v -15 -16 0
v -15 -15 0
v -14 -15 0
v -15 -16 0
v -16 -16 0
v -16 -15 0
v -15 -15 0

# Texture cooridinates (Count = 30)
vt 0.1875 0.875
vt 0.25 0.875
vt 0.25 0.9375
vt 0.1875 0.9375
vt 0.0625 0.75
vt 0.125 0.75
vt 0.125 0.8125
vt 0.0625 0.8125
vt 0.3125 0.875
vt 0.3125 0.9375
vt 0.1875 0.8125
vt 0.125 0.875
vt 0 0.8125
vt 0.0625 0.875
vt 0 0.875
vt 0.1875 0.75
vt 0.3125 1
vt 0.25 1
vt 0 0.75
vt 0.0625 0.9375
vt 0.125 0.9375
vt 0.125 1
vt 0.0625 1
vt 0.25 0.8125
vt 0.3125 0.8125
vt 0.25 0.75
vt 0.3125 0.75
vt 0 0.9375
vt 0 1
vt 0.1875 1

# Normal
vn 0 0 -1

# Mesh description
g World_mesh_0065

# Faces
f 1/1/1 2/2/1 3/3/1 4/4/1
f 5/5/1 6/6/1 7/7/1 8/8/1
f 9/2/1 10/9/1 11/10/1 12/3/1
f 13/7/1 14/11/1 15/1/1 16/12/1
f 17/13/1 18/8/1 19/14/1 20/15/1
f 21/8/1 22/7/1 23/12/1 24/14/1
f 25/8/1 26/7/1 27/12/1 28/14/1
f 29/8/1 30/7/1 31/12/1 32/14/1
f 33/8/1 34/7/1 35/12/1 36/14/1
f 37/8/1 38/7/1 39/12/1 40/14/1
f 41/8/1 42/7/1 43/12/1 44/14/1
f 45/8/1 46/7/1 47/12/1 48/14/1
f 49/8/1 50/7/1 51/12/1 52/14/1
f 53/8/1 54/7/1 55/12/1 56/14/1
f 57/7/1 58/11/1 59/1/1 60/12/1
f 61/13/1 62/8/1 63/14/1 64/15/1
f 65/5/1 66/6/1 67/7/1 68/8/1
f 69/5/1 70/6/1 71/7/1 72/8/1
f 73/5/1 74/6/1 75/7/1 76/8/1
f 77/5/1 78/6/1 79/7/1 80/8/1
f 81/5/1 82/6/1 83/7/1 84/8/1
f 85/5/1 86/6/1 87/7/1 88/8/1
f 89/5/1 90/6/1 91/7/1 92/8/1
f 93/5/1 94/6/1 95/7/1 96/8/1
f 97/5/1 98/6/1 99/7/1 100/8/1
f 101/6/1 102/16/1 103/11/1 104/7/1
f 105/13/1 106/8/1 107/14/1 108/15/1
f 109/13/1 110/8/1 111/14/1 112/15/1
f 113/13/1 114/8/1 115/14/1 116/15/1
f 117/8/1 118/7/1 119/12/1 120/14/1
f 121/8/1 122/7/1 123/12/1 124/14/1
f 125/8/1 126/7/1 127/12/1 128/14/1
f 129/3/1 130/10/1 131/17/1 132/18/1
f 133/19/1 134/5/1 135/8/1 136/13/1
f 137/5/1 138/6/1 139/7/1 140/8/1
f 141/5/1 142/6/1 143/7/1 144/8/1
f 145/5/1 146/6/1 147/7/1 148/8/1
f 149/2/1 150/9/1 151/10/1 152/3/1
f 153/20/1 154/21/1 155/22/1 156/23/1
f 157/20/1 158/21/1 159/22/1 160/23/1
f 161/20/1 162/21/1 163/22/1 164/23/1
f 165/20/1 166/21/1 167/22/1 168/23/1
f 169/20/1 170/21/1 171/22/1 172/23/1
f 173/20/1 174/21/1 175/22/1 176/23/1
f 177/20/1 178/21/1 179/22/1 180/23/1
f 181/20/1 182/21/1 183/22/1 184/23/1
f 185/20/1 186/21/1 187/22/1 188/23/1
f 189/20/1 190/21/1 191/22/1 192/23/1
f 193/20/1 194/21/1 195/22/1 196/23/1
f 197/20/1 198/21/1 199/22/1 200/23/1
f 201/20/1 202/21/1 203/22/1 204/23/1
f 205/20/1 206/21/1 207/22/1 208/23/1
f 209/20/1 210/21/1 211/22/1 212/23/1
f 213/24/1 214/25/1 215/9/1 216/2/1
f 217/26/1 218/27/1 219/25/1 220/24/1
f 221/28/1 222/20/1 223/23/1 224/29/1
f 225/20/1 226/21/1 227/22/1 228/23/1
f 229/20/1 230/21/1 231/22/1 232/23/1
f 233/21/1 234/4/1 235/30/1 236/22/1
f 237/28/1 238/20/1 239/23/1 240/29/1
f 241/20/1 242/21/1 243/22/1 244/23/1
f 245/15/1 246/14/1 247/20/1 248/28/1
f 249/14/1 250/12/1 251/21/1 252/20/1
f 253/14/1 254/12/1 255/21/1 256/20/1
f 257/12/1 258/1/1 259/4/1 260/21/1
f 261/15/1 262/14/1 263/20/1 264/28/1
f 265/14/1 266/12/1 267/21/1 268/20/1
f 269/13/1 270/8/1 271/14/1 272/15/1
f 273/20/1 274/21/1 275/22/1 276/23/1
f 277/20/1 278/21/1 279/22/1 280/23/1
f 281/7/1 282/11/1 283/1/1 284/12/1
f 285/28/1 286/20/1 287/23/1 288/29/1
f 289/20/1 290/21/1 291/22/1 292/23/1
f 293/20/1 294/21/1 295/22/1 296/23/1
f 297/20/1 298/21/1 299/22/1 300/23/1
f 301/20/1 302/21/1 303/22/1 304/23/1
f 305/20/1 306/21/1 307/22/1 308/23/1
f 309/20/1 310/21/1 311/22/1 312/23/1
f 313/21/1 314/4/1 315/30/1 316/22/1
f 317/13/1 318/8/1 319/14/1 320/15/1
f 321/20/1 322/21/1 323/22/1 324/23/1
f 325/15/1 326/14/1 327/20/1 328/28/1
f 329/14/1 330/12/1 331/21/1 332/20/1
f 333/5/1 334/6/1 335/7/1 336/8/1
f 337/5/1 338/6/1 339/7/1 340/8/1
f 341/5/1 342/6/1 343/7/1 344/8/1
f 345/5/1 346/6/1 347/7/1 348/8/1
f 349/5/1 350/6/1 351/7/1 352/8/1
f 353/12/1 354/1/1 355/4/1 356/21/1
f 357/13/1 358/8/1 359/14/1 360/15/1
f 361/7/1 362/11/1 363/1/1 364/12/1
f 365/28/1 366/20/1 367/23/1 368/29/1
f 369/20/1 370/21/1 371/22/1 372/23/1
f 373/20/1 374/21/1 375/22/1 376/23/1
f 377/21/1 378/4/1 379/30/1 380/22/1
f 381/13/1 382/8/1 383/14/1 384/15/1
f 385/20/1 386/21/1 387/22/1 388/23/1
f 389/20/1 390/21/1 391/22/1 392/23/1
f 393/20/1 394/21/1 395/22/1 396/23/1
f 397/20/1 398/21/1 399/22/1 400/23/1
f 401/20/1 402/21/1 403/22/1 404/23/1
f 405/20/1 406/21/1 407/22/1 408/23/1
f 409/7/1 410/11/1 411/1/1 412/12/1
f 413/28/1 414/20/1 415/23/1 416/29/1
f 417/20/1 418/21/1 419/22/1 420/23/1

