# Tiled2Unity generated file. Do not modify by hand.
# Wavefront file for 'World_mesh_0046.obj'

# Vertices (Count = 300)
v -15 -4 0
v -16 -4 0
v -16 -3 0
v -15 -3 0
v -15 -5 0
v -16 -5 0
v -16 -4 0
v -15 -4 0
v -15 -6 0
v -16 -6 0
v -16 -5 0
v -15 -5 0
v 0 -7 0
v -1 -7 0
v -1 -6 0
v 0 -6 0
v -1 -7 0
v -2 -7 0
v -2 -6 0
v -1 -6 0
v -2 -7 0
v -3 -7 0
v -3 -6 0
v -2 -6 0
v -3 -7 0
v -4 -7 0
v -4 -6 0
v -3 -6 0
v -4 -7 0
v -5 -7 0
v -5 -6 0
v -4 -6 0
v -5 -7 0
v -6 -7 0
v -6 -6 0
v -5 -6 0
v -6 -7 0
v -7 -7 0
v -7 -6 0
v -6 -6 0
v -7 -7 0
v -8 -7 0
v -8 -6 0
v -7 -6 0
v -8 -7 0
v -9 -7 0
v -9 -6 0
v -8 -6 0
v -9 -7 0
v -10 -7 0
v -10 -6 0
v -9 -6 0
v -10 -7 0
v -11 -7 0
v -11 -6 0
v -10 -6 0
v -11 -7 0
v -12 -7 0
v -12 -6 0
v -11 -6 0
v -12 -7 0
v -13 -7 0
v -13 -6 0
v -12 -6 0
v -13 -7 0
v -14 -7 0
v -14 -6 0
v -13 -6 0
v -15 -7 0
v -16 -7 0
v -16 -6 0
v -15 -6 0
v -13 -8 0
v -14 -8 0
v -14 -7 0
v -13 -7 0
v -15 -8 0
v -16 -8 0
v -16 -7 0
v -15 -7 0
v -13 -9 0
v -14 -9 0
v -14 -8 0
v -13 -8 0
v -15 -9 0
v -16 -9 0
v -16 -8 0
v -15 -8 0
v 0 -10 0
v -1 -10 0
v -1 -9 0
v 0 -9 0
v -1 -10 0
v -2 -10 0
v -2 -9 0
v -1 -9 0
v -2 -10 0
v -3 -10 0
v -3 -9 0
v -2 -9 0
v -3 -10 0
v -4 -10 0
v -4 -9 0
v -3 -9 0
v -13 -10 0
v -14 -10 0
v -14 -9 0
v -13 -9 0
v -14 -10 0
v -15 -10 0
v -15 -9 0
v -14 -9 0
v -15 -10 0
v -16 -10 0
v -16 -9 0
v -15 -9 0
v 0 -11 0
v -1 -11 0
v -1 -10 0
v 0 -10 0
v -1 -11 0
v -2 -11 0
v -2 -10 0
v -1 -10 0
v -2 -11 0
v -3 -11 0
v -3 -10 0
v -2 -10 0
v -3 -11 0
v -4 -11 0
v -4 -10 0
v -3 -10 0
v -4 -11 0
v -5 -11 0
v -5 -10 0
v -4 -10 0
v -5 -11 0
v -6 -11 0
v -6 -10 0
v -5 -10 0
v -6 -11 0
v -7 -11 0
v -7 -10 0
v -6 -10 0
v -7 -11 0
v -8 -11 0
v -8 -10 0
v -7 -10 0
v -13 -11 0
v -14 -11 0
v -14 -10 0
v -13 -10 0
v -15 -11 0
v -16 -11 0
v -16 -10 0
v -15 -10 0
v 0 -12 0
v -1 -12 0
v -1 -11 0
v 0 -11 0
v -1 -12 0
v -2 -12 0
v -2 -11 0
v -1 -11 0
v -2 -12 0
v -3 -12 0
v -3 -11 0
v -2 -11 0
v -3 -12 0
v -4 -12 0
v -4 -11 0
v -3 -11 0
v -4 -12 0
v -5 -12 0
v -5 -11 0
v -4 -11 0
v -5 -12 0
v -6 -12 0
v -6 -11 0
v -5 -11 0
v -6 -12 0
v -7 -12 0
v -7 -11 0
v -6 -11 0
v -7 -12 0
v -8 -12 0
v -8 -11 0
v -7 -11 0
v -4 -13 0
v -5 -13 0
v -5 -12 0
v -4 -12 0
v -7 -13 0
v -8 -13 0
v -8 -12 0
v -7 -12 0
v -8 -13 0
v -9 -13 0
v -9 -12 0
v -8 -12 0
v -9 -13 0
v -10 -13 0
v -10 -12 0
v -9 -12 0
v -10 -13 0
v -11 -13 0
v -11 -12 0
v -10 -12 0
v -11 -13 0
v -12 -13 0
v -12 -12 0
v -11 -12 0
v -13 -13 0
v -14 -13 0
v -14 -12 0
v -13 -12 0
v -14 -13 0
v -15 -13 0
v -15 -12 0
v -14 -12 0
v -15 -13 0
v -16 -13 0
v -16 -12 0
v -15 -12 0
v -4 -14 0
v -5 -14 0
v -5 -13 0
v -4 -13 0
v -5 -14 0
v -6 -14 0
v -6 -13 0
v -5 -13 0
v -6 -14 0
v -7 -14 0
v -7 -13 0
v -6 -13 0
v -7 -14 0
v -8 -14 0
v -8 -13 0
v -7 -13 0
v -8 -14 0
v -9 -14 0
v -9 -13 0
v -8 -13 0
v -9 -14 0
v -10 -14 0
v -10 -13 0
v -9 -13 0
v -10 -14 0
v -11 -14 0
v -11 -13 0
v -10 -13 0
v -11 -14 0
v -12 -14 0
v -12 -13 0
v -11 -13 0
v -13 -14 0
v -14 -14 0
v -14 -13 0
v -13 -13 0
v -14 -14 0
v -15 -14 0
v -15 -13 0
v -14 -13 0
v -15 -14 0
v -16 -14 0
v -16 -13 0
v -15 -13 0
v -8 -15 0
v -9 -15 0
v -9 -14 0
v -8 -14 0
v -9 -15 0
v -10 -15 0
v -10 -14 0
v -9 -14 0
v -10 -15 0
v -11 -15 0
v -11 -14 0
v -10 -14 0
v -11 -15 0
v -12 -15 0
v -12 -14 0
v -11 -14 0
v -13 -15 0
v -14 -15 0
v -14 -14 0
v -13 -14 0
v -15 -15 0
v -16 -15 0
v -16 -14 0
v -15 -14 0
v -13 -16 0
v -14 -16 0
v -14 -15 0
v -13 -15 0
v -15 -16 0
v -16 -16 0
v -16 -15 0
v -15 -15 0

# Texture cooridinates (Count = 30)
vt 0 0.9375
vt 0.0625 0.9375
vt 0.0625 1
vt 0 1
vt 0 0.875
vt 0.0625 0.875
vt 0.125 0.9375
vt 0.125 1
vt 0.1875 0.9375
vt 0.1875 1
vt 0.125 0.875
vt 0.1875 0.875
vt 0.1875 0.8125
vt 0.25 0.8125
vt 0.25 0.875
vt 0.3125 0.8125
vt 0.3125 0.875
vt 0.1875 0.75
vt 0.25 0.75
vt 0.3125 0.75
vt 0 0.8125
vt 0.0625 0.8125
vt 0.125 0.8125
vt 0.25 0.9375
vt 0.25 1
vt 0.3125 0.9375
vt 0.3125 1
vt 0.0625 0.75
vt 0.125 0.75
vt 0 0.75

# Normal
vn 0 0 -1

# Mesh description
g World_mesh_0046

# Faces
f 1/1/1 2/2/1 3/3/1 4/4/1
f 5/5/1 6/6/1 7/2/1 8/1/1
f 9/5/1 10/6/1 11/2/1 12/1/1
f 13/2/1 14/7/1 15/8/1 16/3/1
f 17/2/1 18/7/1 19/8/1 20/3/1
f 21/2/1 22/7/1 23/8/1 24/3/1
f 25/2/1 26/7/1 27/8/1 28/3/1
f 29/2/1 30/7/1 31/8/1 32/3/1
f 33/2/1 34/7/1 35/8/1 36/3/1
f 37/2/1 38/7/1 39/8/1 40/3/1
f 41/2/1 42/7/1 43/8/1 44/3/1
f 45/2/1 46/7/1 47/8/1 48/3/1
f 49/2/1 50/7/1 51/8/1 52/3/1
f 53/2/1 54/7/1 55/8/1 56/3/1
f 57/2/1 58/7/1 59/8/1 60/3/1
f 61/2/1 62/7/1 63/8/1 64/3/1
f 65/7/1 66/9/1 67/10/1 68/8/1
f 69/5/1 70/6/1 71/2/1 72/1/1
f 73/11/1 74/12/1 75/9/1 76/7/1
f 77/5/1 78/6/1 79/2/1 80/1/1
f 81/11/1 82/12/1 83/9/1 84/7/1
f 85/5/1 86/6/1 87/2/1 88/1/1
f 89/1/1 90/2/1 91/3/1 92/4/1
f 93/2/1 94/7/1 95/8/1 96/3/1
f 97/2/1 98/7/1 99/8/1 100/3/1
f 101/7/1 102/9/1 103/10/1 104/8/1
f 105/13/1 106/14/1 107/15/1 108/12/1
f 109/2/1 110/7/1 111/8/1 112/3/1
f 113/14/1 114/16/1 115/17/1 116/15/1
f 117/5/1 118/6/1 119/2/1 120/1/1
f 121/6/1 122/11/1 123/7/1 124/2/1
f 125/6/1 126/11/1 127/7/1 128/2/1
f 129/11/1 130/12/1 131/9/1 132/7/1
f 133/1/1 134/2/1 135/3/1 136/4/1
f 137/2/1 138/7/1 139/8/1 140/3/1
f 141/2/1 142/7/1 143/8/1 144/3/1
f 145/7/1 146/9/1 147/10/1 148/8/1
f 149/18/1 150/19/1 151/14/1 152/13/1
f 153/19/1 154/20/1 155/16/1 156/14/1
f 157/21/1 158/22/1 159/6/1 160/5/1
f 161/2/1 162/7/1 163/8/1 164/3/1
f 165/2/1 166/7/1 167/8/1 168/3/1
f 169/23/1 170/13/1 171/12/1 172/11/1
f 173/5/1 174/6/1 175/2/1 176/1/1
f 177/6/1 178/11/1 179/7/1 180/2/1
f 181/6/1 182/11/1 183/7/1 184/2/1
f 185/11/1 186/12/1 187/9/1 188/7/1
f 189/21/1 190/22/1 191/6/1 192/5/1
f 193/23/1 194/13/1 195/12/1 196/11/1
f 197/1/1 198/2/1 199/3/1 200/4/1
f 201/2/1 202/7/1 203/8/1 204/3/1
f 205/2/1 206/7/1 207/8/1 208/3/1
f 209/7/1 210/9/1 211/10/1 212/8/1
f 213/9/1 214/24/1 215/25/1 216/10/1
f 217/22/1 218/23/1 219/11/1 220/6/1
f 221/24/1 222/26/1 223/27/1 224/25/1
f 225/21/1 226/22/1 227/6/1 228/5/1
f 229/2/1 230/7/1 231/8/1 232/3/1
f 233/2/1 234/7/1 235/8/1 236/3/1
f 237/23/1 238/13/1 239/12/1 240/11/1
f 241/5/1 242/6/1 243/2/1 244/1/1
f 245/6/1 246/11/1 247/7/1 248/2/1
f 249/6/1 250/11/1 251/7/1 252/2/1
f 253/11/1 254/12/1 255/9/1 256/7/1
f 257/12/1 258/15/1 259/24/1 260/9/1
f 261/28/1 262/29/1 263/23/1 264/22/1
f 265/15/1 266/17/1 267/26/1 268/24/1
f 269/21/1 270/22/1 271/6/1 272/5/1
f 273/2/1 274/7/1 275/8/1 276/3/1
f 277/2/1 278/7/1 279/8/1 280/3/1
f 281/23/1 282/13/1 283/12/1 284/11/1
f 285/11/1 286/12/1 287/9/1 288/7/1
f 289/21/1 290/22/1 291/6/1 292/5/1
f 293/11/1 294/12/1 295/9/1 296/7/1
f 297/30/1 298/28/1 299/22/1 300/21/1

