# Tiled2Unity generated file. Do not modify by hand.
# Wavefront file for 'World_mesh_0031.obj'

# Vertices (Count = 64)
v 0 -11 0
v -1 -11 0
v -1 -10 0
v 0 -10 0
v -1 -11 0
v -2 -11 0
v -2 -10 0
v -1 -10 0
v -2 -11 0
v -3 -11 0
v -3 -10 0
v -2 -10 0
v 0 -12 0
v -1 -12 0
v -1 -11 0
v 0 -11 0
v -1 -12 0
v -2 -12 0
v -2 -11 0
v -1 -11 0
v -2 -12 0
v -3 -12 0
v -3 -11 0
v -2 -11 0
v -1 -13 0
v -2 -13 0
v -2 -12 0
v -1 -12 0
v -2 -13 0
v -3 -13 0
v -3 -12 0
v -2 -12 0
v -1 -14 0
v -2 -14 0
v -2 -13 0
v -1 -13 0
v -2 -14 0
v -3 -14 0
v -3 -13 0
v -2 -13 0
v 0 -15 0
v -1 -15 0
v -1 -14 0
v 0 -14 0
v -1 -15 0
v -2 -15 0
v -2 -14 0
v -1 -14 0
v -2 -15 0
v -3 -15 0
v -3 -14 0
v -2 -14 0
v 0 -16 0
v -1 -16 0
v -1 -15 0
v 0 -15 0
v -1 -16 0
v -2 -16 0
v -2 -15 0
v -1 -15 0
v -2 -16 0
v -3 -16 0
v -3 -15 0
v -2 -15 0

# Texture cooridinates (Count = 9)
vt 0 0.8125
vt 0.0625 0.8125
vt 0.0625 0.875
vt 0 0.875
vt 0.125 0.8125
vt 0.125 0.875
vt 0.1875 0.75
vt 0.1875 0.8125
vt 0.125 0.75

# Normal
vn 0 0 -1

# Mesh description
g World_mesh_0031

# Faces
f 1/1/1 2/2/1 3/3/1 4/4/1
f 5/2/1 6/5/1 7/6/1 8/3/1
f 9/2/1 10/5/1 11/6/1 12/3/1
f 13/7/1 14/8/1 15/5/1 16/9/1
f 17/7/1 18/8/1 19/5/1 20/9/1
f 21/7/1 22/8/1 23/5/1 24/9/1
f 25/7/1 26/8/1 27/5/1 28/9/1
f 29/7/1 30/8/1 31/5/1 32/9/1
f 33/7/1 34/8/1 35/5/1 36/9/1
f 37/7/1 38/8/1 39/5/1 40/9/1
f 41/7/1 42/8/1 43/5/1 44/9/1
f 45/7/1 46/8/1 47/5/1 48/9/1
f 49/7/1 50/8/1 51/5/1 52/9/1
f 53/7/1 54/8/1 55/5/1 56/9/1
f 57/7/1 58/8/1 59/5/1 60/9/1
f 61/7/1 62/8/1 63/5/1 64/9/1

