# Tiled2Unity generated file. Do not modify by hand.
# Wavefront file for 'World_mesh_0110.obj'

# Vertices (Count = 32)
v -1 -1 0
v -2 -1 0
v -2 0 0
v -1 0 0
v -2 -7 0
v -3 -7 0
v -3 -6 0
v -2 -6 0
v -3 -7 0
v -4 -7 0
v -4 -6 0
v -3 -6 0
v -7 -7 0
v -8 -7 0
v -8 -6 0
v -7 -6 0
v -3 -10 0
v -4 -10 0
v -4 -9 0
v -3 -9 0
v -7 -13 0
v -8 -13 0
v -8 -12 0
v -7 -12 0
v -2 -16 0
v -3 -16 0
v -3 -15 0
v -2 -15 0
v -7 -16 0
v -8 -16 0
v -8 -15 0
v -7 -15 0

# Texture cooridinates (Count = 17)
vt 0.3125 0.75
vt 0.375 0.75
vt 0.375 0.8125
vt 0.3125 0.8125
vt 0.25 0.875
vt 0.3125 0.875
vt 0.3125 0.9375
vt 0.25 0.9375
vt 0.125 0.6875
vt 0.1875 0.6875
vt 0.1875 0.75
vt 0.125 0.75
vt 0.0625 0.75
vt 0.125 0.8125
vt 0.0625 0.8125
vt 0.4375 0.75
vt 0.4375 0.8125

# Normal
vn 0 0 -1

# Mesh description
g World_mesh_0110

# Faces
f 1/1/1 2/2/1 3/3/1 4/4/1
f 5/5/1 6/6/1 7/7/1 8/8/1
f 9/9/1 10/10/1 11/11/1 12/12/1
f 13/5/1 14/6/1 15/7/1 16/8/1
f 17/13/1 18/12/1 19/14/1 20/15/1
f 21/13/1 22/12/1 23/14/1 24/15/1
f 25/2/1 26/16/1 27/17/1 28/3/1
f 29/2/1 30/16/1 31/17/1 32/3/1

