# Tiled2Unity generated file. Do not modify by hand.
# Wavefront file for 'World_mesh_0108.obj'

# Vertices (Count = 24)
v -11 -3 0
v -12 -3 0
v -12 -2 0
v -11 -2 0
v -11 -4 0
v -12 -4 0
v -12 -3 0
v -11 -3 0
v -11 -5 0
v -12 -5 0
v -12 -4 0
v -11 -4 0
v -14 -8 0
v -15 -8 0
v -15 -7 0
v -14 -7 0
v -10 -16 0
v -11 -16 0
v -11 -15 0
v -10 -15 0
v -13 -16 0
v -14 -16 0
v -14 -15 0
v -13 -15 0

# Texture cooridinates (Count = 14)
vt 0 0.75
vt 0.0625 0.75
vt 0.0625 0.8125
vt 0 0.8125
vt 0.0625 0.6875
vt 0.125 0.6875
vt 0.125 0.75
vt 0.0625 0.625
vt 0.125 0.625
vt 0.125 0.8125
vt 0.4375 0.9375
vt 0.5 0.9375
vt 0.5 1
vt 0.4375 1

# Normal
vn 0 0 -1

# Mesh description
g World_mesh_0108

# Faces
f 1/1/1 2/2/1 3/3/1 4/4/1
f 5/5/1 6/6/1 7/7/1 8/2/1
f 9/8/1 10/9/1 11/6/1 12/5/1
f 13/2/1 14/7/1 15/10/1 16/3/1
f 17/11/1 18/12/1 19/13/1 20/14/1
f 21/11/1 22/12/1 23/13/1 24/14/1

