# Tiled2Unity generated file. Do not modify by hand.
# Wavefront file for 'World_mesh_0061.obj'

# Vertices (Count = 272)
v -2 -1 0
v -3 -1 0
v -3 0 0
v -2 0 0
v -5 -1 0
v -6 -1 0
v -6 0 0
v -5 0 0
v -15 -1 0
v -16 -1 0
v -16 0 0
v -15 0 0
v -2 -2 0
v -3 -2 0
v -3 -1 0
v -2 -1 0
v -5 -2 0
v -6 -2 0
v -6 -1 0
v -5 -1 0
v 0 -3 0
v -1 -3 0
v -1 -2 0
v 0 -2 0
v -1 -3 0
v -2 -3 0
v -2 -2 0
v -1 -2 0
v -2 -3 0
v -3 -3 0
v -3 -2 0
v -2 -2 0
v -5 -3 0
v -6 -3 0
v -6 -2 0
v -5 -2 0
v -6 -3 0
v -7 -3 0
v -7 -2 0
v -6 -2 0
v -7 -3 0
v -8 -3 0
v -8 -2 0
v -7 -2 0
v -8 -3 0
v -9 -3 0
v -9 -2 0
v -8 -2 0
v -5 -4 0
v -6 -4 0
v -6 -3 0
v -5 -3 0
v -6 -4 0
v -7 -4 0
v -7 -3 0
v -6 -3 0
v -7 -4 0
v -8 -4 0
v -8 -3 0
v -7 -3 0
v -8 -4 0
v -9 -4 0
v -9 -3 0
v -8 -3 0
v -8 -5 0
v -9 -5 0
v -9 -4 0
v -8 -4 0
v -8 -6 0
v -9 -6 0
v -9 -5 0
v -8 -5 0
v -14 -6 0
v -15 -6 0
v -15 -5 0
v -14 -5 0
v -15 -6 0
v -16 -6 0
v -16 -5 0
v -15 -5 0
v -8 -7 0
v -9 -7 0
v -9 -6 0
v -8 -6 0
v -14 -7 0
v -15 -7 0
v -15 -6 0
v -14 -6 0
v -8 -8 0
v -9 -8 0
v -9 -7 0
v -8 -7 0
v -14 -8 0
v -15 -8 0
v -15 -7 0
v -14 -7 0
v -8 -9 0
v -9 -9 0
v -9 -8 0
v -8 -8 0
v -14 -9 0
v -15 -9 0
v -15 -8 0
v -14 -8 0
v -8 -10 0
v -9 -10 0
v -9 -9 0
v -8 -9 0
v -14 -10 0
v -15 -10 0
v -15 -9 0
v -14 -9 0
v -8 -11 0
v -9 -11 0
v -9 -10 0
v -8 -10 0
v -14 -11 0
v -15 -11 0
v -15 -10 0
v -14 -10 0
v -8 -12 0
v -9 -12 0
v -9 -11 0
v -8 -11 0
v -14 -12 0
v -15 -12 0
v -15 -11 0
v -14 -11 0
v 0 -13 0
v -1 -13 0
v -1 -12 0
v 0 -12 0
v -1 -13 0
v -2 -13 0
v -2 -12 0
v -1 -12 0
v -2 -13 0
v -3 -13 0
v -3 -12 0
v -2 -12 0
v -3 -13 0
v -4 -13 0
v -4 -12 0
v -3 -12 0
v -4 -13 0
v -5 -13 0
v -5 -12 0
v -4 -12 0
v -5 -13 0
v -6 -13 0
v -6 -12 0
v -5 -12 0
v -6 -13 0
v -7 -13 0
v -7 -12 0
v -6 -12 0
v -7 -13 0
v -8 -13 0
v -8 -12 0
v -7 -12 0
v -8 -13 0
v -9 -13 0
v -9 -12 0
v -8 -12 0
v -14 -13 0
v -15 -13 0
v -15 -12 0
v -14 -12 0
v 0 -14 0
v -1 -14 0
v -1 -13 0
v 0 -13 0
v -1 -14 0
v -2 -14 0
v -2 -13 0
v -1 -13 0
v -2 -14 0
v -3 -14 0
v -3 -13 0
v -2 -13 0
v -3 -14 0
v -4 -14 0
v -4 -13 0
v -3 -13 0
v -4 -14 0
v -5 -14 0
v -5 -13 0
v -4 -13 0
v -5 -14 0
v -6 -14 0
v -6 -13 0
v -5 -13 0
v -6 -14 0
v -7 -14 0
v -7 -13 0
v -6 -13 0
v -7 -14 0
v -8 -14 0
v -8 -13 0
v -7 -13 0
v -8 -14 0
v -9 -14 0
v -9 -13 0
v -8 -13 0
v -14 -14 0
v -15 -14 0
v -15 -13 0
v -14 -13 0
v -15 -14 0
v -16 -14 0
v -16 -13 0
v -15 -13 0
v 0 -15 0
v -1 -15 0
v -1 -14 0
v 0 -14 0
v -1 -15 0
v -2 -15 0
v -2 -14 0
v -1 -14 0
v -2 -15 0
v -3 -15 0
v -3 -14 0
v -2 -14 0
v -3 -15 0
v -4 -15 0
v -4 -14 0
v -3 -14 0
v -4 -15 0
v -5 -15 0
v -5 -14 0
v -4 -14 0
v -5 -15 0
v -6 -15 0
v -6 -14 0
v -5 -14 0
v -6 -15 0
v -7 -15 0
v -7 -14 0
v -6 -14 0
v -7 -15 0
v -8 -15 0
v -8 -14 0
v -7 -14 0
v -8 -15 0
v -9 -15 0
v -9 -14 0
v -8 -14 0
v -9 -15 0
v -10 -15 0
v -10 -14 0
v -9 -14 0
v -10 -15 0
v -11 -15 0
v -11 -14 0
v -10 -14 0
v -14 -15 0
v -15 -15 0
v -15 -14 0
v -14 -14 0
v -15 -15 0
v -16 -15 0
v -16 -14 0
v -15 -14 0
v 0 -16 0
v -1 -16 0
v -1 -15 0
v 0 -15 0
v -10 -16 0
v -11 -16 0
v -11 -15 0
v -10 -15 0

# Texture cooridinates (Count = 24)
vt 0 0.8125
vt 0.0625 0.8125
vt 0.0625 0.875
vt 0 0.875
vt 0.125 0.875
vt 0.1875 0.875
vt 0.1875 0.9375
vt 0.125 0.9375
vt 0 0.75
vt 0.0625 0.75
vt 0.0625 0.9375
vt 0.125 1
vt 0.0625 1
vt 0.25 0.8125
vt 0.3125 0.8125
vt 0.3125 0.875
vt 0.25 0.875
vt 0.1875 0.8125
vt 0.1875 1
vt 0 0.9375
vt 0 1
vt 0.125 0.8125
vt 0.125 0.75
vt 0.1875 0.75

# Normal
vn 0 0 -1

# Mesh description
g World_mesh_0061

# Faces
f 1/1/1 2/2/1 3/3/1 4/4/1
f 5/5/1 6/6/1 7/7/1 8/8/1
f 9/9/1 10/10/1 11/2/1 12/1/1
f 13/1/1 14/2/1 15/3/1 16/4/1
f 17/5/1 18/6/1 19/7/1 20/8/1
f 21/11/1 22/8/1 23/12/1 24/13/1
f 25/11/1 26/8/1 27/12/1 28/13/1
f 29/14/1 30/15/1 31/16/1 32/17/1
f 33/18/1 34/14/1 35/17/1 36/6/1
f 37/11/1 38/8/1 39/12/1 40/13/1
f 41/11/1 42/8/1 43/12/1 44/13/1
f 45/8/1 46/7/1 47/19/1 48/12/1
f 49/3/1 50/5/1 51/8/1 52/11/1
f 53/3/1 54/5/1 55/8/1 56/11/1
f 57/3/1 58/5/1 59/8/1 60/11/1
f 61/5/1 62/6/1 63/7/1 64/8/1
f 65/5/1 66/6/1 67/7/1 68/8/1
f 69/5/1 70/6/1 71/7/1 72/8/1
f 73/20/1 74/11/1 75/13/1 76/21/1
f 77/11/1 78/8/1 79/12/1 80/13/1
f 81/5/1 82/6/1 83/7/1 84/8/1
f 85/4/1 86/3/1 87/11/1 88/20/1
f 89/5/1 90/6/1 91/7/1 92/8/1
f 93/4/1 94/3/1 95/11/1 96/20/1
f 97/5/1 98/6/1 99/7/1 100/8/1
f 101/4/1 102/3/1 103/11/1 104/20/1
f 105/5/1 106/6/1 107/7/1 108/8/1
f 109/4/1 110/3/1 111/11/1 112/20/1
f 113/5/1 114/6/1 115/7/1 116/8/1
f 117/4/1 118/3/1 119/11/1 120/20/1
f 121/5/1 122/6/1 123/7/1 124/8/1
f 125/4/1 126/3/1 127/11/1 128/20/1
f 129/2/1 130/22/1 131/5/1 132/3/1
f 133/2/1 134/22/1 135/5/1 136/3/1
f 137/2/1 138/22/1 139/5/1 140/3/1
f 141/2/1 142/22/1 143/5/1 144/3/1
f 145/2/1 146/22/1 147/5/1 148/3/1
f 149/2/1 150/22/1 151/5/1 152/3/1
f 153/2/1 154/22/1 155/5/1 156/3/1
f 157/2/1 158/22/1 159/5/1 160/3/1
f 161/5/1 162/6/1 163/7/1 164/8/1
f 165/4/1 166/3/1 167/11/1 168/20/1
f 169/10/1 170/23/1 171/22/1 172/2/1
f 173/10/1 174/23/1 175/22/1 176/2/1
f 177/10/1 178/23/1 179/22/1 180/2/1
f 181/10/1 182/23/1 183/22/1 184/2/1
f 185/10/1 186/23/1 187/22/1 188/2/1
f 189/10/1 190/23/1 191/22/1 192/2/1
f 193/10/1 194/23/1 195/22/1 196/2/1
f 197/10/1 198/23/1 199/22/1 200/2/1
f 201/23/1 202/24/1 203/18/1 204/22/1
f 205/4/1 206/3/1 207/11/1 208/20/1
f 209/2/1 210/22/1 211/5/1 212/3/1
f 213/20/1 214/11/1 215/13/1 216/21/1
f 217/11/1 218/8/1 219/12/1 220/13/1
f 221/11/1 222/8/1 223/12/1 224/13/1
f 225/11/1 226/8/1 227/12/1 228/13/1
f 229/11/1 230/8/1 231/12/1 232/13/1
f 233/11/1 234/8/1 235/12/1 236/13/1
f 237/11/1 238/8/1 239/12/1 240/13/1
f 241/11/1 242/8/1 243/12/1 244/13/1
f 245/11/1 246/8/1 247/12/1 248/13/1
f 249/11/1 250/8/1 251/12/1 252/13/1
f 253/8/1 254/7/1 255/19/1 256/12/1
f 257/9/1 258/10/1 259/2/1 260/1/1
f 261/10/1 262/23/1 263/22/1 264/2/1
f 265/4/1 266/3/1 267/11/1 268/20/1
f 269/22/1 270/18/1 271/6/1 272/5/1

