# Tiled2Unity generated file. Do not modify by hand.
# Wavefront file for 'World_mesh_0081.obj'

# Vertices (Count = 164)
v -8 -1 0
v -9 -1 0
v -9 0 0
v -8 0 0
v -10 -1 0
v -11 -1 0
v -11 0 0
v -10 0 0
v -11 -1 0
v -12 -1 0
v -12 0 0
v -11 0 0
v -12 -1 0
v -13 -1 0
v -13 0 0
v -12 0 0
v -13 -1 0
v -14 -1 0
v -14 0 0
v -13 0 0
v -14 -1 0
v -15 -1 0
v -15 0 0
v -14 0 0
v -15 -1 0
v -16 -1 0
v -16 0 0
v -15 0 0
v -8 -2 0
v -9 -2 0
v -9 -1 0
v -8 -1 0
v -10 -2 0
v -11 -2 0
v -11 -1 0
v -10 -1 0
v -11 -2 0
v -12 -2 0
v -12 -1 0
v -11 -1 0
v -12 -2 0
v -13 -2 0
v -13 -1 0
v -12 -1 0
v -13 -2 0
v -14 -2 0
v -14 -1 0
v -13 -1 0
v -14 -2 0
v -15 -2 0
v -15 -1 0
v -14 -1 0
v -15 -2 0
v -16 -2 0
v -16 -1 0
v -15 -1 0
v -8 -3 0
v -9 -3 0
v -9 -2 0
v -8 -2 0
v -10 -3 0
v -11 -3 0
v -11 -2 0
v -10 -2 0
v -11 -3 0
v -12 -3 0
v -12 -2 0
v -11 -2 0
v -12 -3 0
v -13 -3 0
v -13 -2 0
v -12 -2 0
v -13 -3 0
v -14 -3 0
v -14 -2 0
v -13 -2 0
v -14 -3 0
v -15 -3 0
v -15 -2 0
v -14 -2 0
v -15 -3 0
v -16 -3 0
v -16 -2 0
v -15 -2 0
v -8 -4 0
v -9 -4 0
v -9 -3 0
v -8 -3 0
v -8 -5 0
v -9 -5 0
v -9 -4 0
v -8 -4 0
v -8 -6 0
v -9 -6 0
v -9 -5 0
v -8 -5 0
v -8 -7 0
v -9 -7 0
v -9 -6 0
v -8 -6 0
v -8 -8 0
v -9 -8 0
v -9 -7 0
v -8 -7 0
v -9 -8 0
v -10 -8 0
v -10 -7 0
v -9 -7 0
v -10 -8 0
v -11 -8 0
v -11 -7 0
v -10 -7 0
v -11 -8 0
v -12 -8 0
v -12 -7 0
v -11 -7 0
v -12 -8 0
v -13 -8 0
v -13 -7 0
v -12 -7 0
v -13 -8 0
v -14 -8 0
v -14 -7 0
v -13 -7 0
v -14 -8 0
v -15 -8 0
v -15 -7 0
v -14 -7 0
v -15 -8 0
v -16 -8 0
v -16 -7 0
v -15 -7 0
v -8 -9 0
v -9 -9 0
v -9 -8 0
v -8 -8 0
v -9 -9 0
v -10 -9 0
v -10 -8 0
v -9 -8 0
v -10 -9 0
v -11 -9 0
v -11 -8 0
v -10 -8 0
v -11 -9 0
v -12 -9 0
v -12 -8 0
v -11 -8 0
v -12 -9 0
v -13 -9 0
v -13 -8 0
v -12 -8 0
v -13 -9 0
v -14 -9 0
v -14 -8 0
v -13 -8 0
v -14 -9 0
v -15 -9 0
v -15 -8 0
v -14 -8 0
v -15 -9 0
v -16 -9 0
v -16 -8 0
v -15 -8 0

# Texture cooridinates (Count = 15)
vt 0 0.8125
vt 0.0625 0.8125
vt 0.0625 0.875
vt 0 0.875
vt 0 0.9375
vt 0.0625 0.9375
vt 0.0625 1
vt 0 1
vt 0.125 0.9375
vt 0.125 1
vt 0.125 0.875
vt 0.125 0.8125
vt 0 0.75
vt 0.0625 0.75
vt 0.125 0.75

# Normal
vn 0 0 -1

# Mesh description
g World_mesh_0081

# Faces
f 1/1/1 2/2/1 3/3/1 4/4/1
f 5/5/1 6/6/1 7/7/1 8/8/1
f 9/6/1 10/9/1 11/10/1 12/7/1
f 13/6/1 14/9/1 15/10/1 16/7/1
f 17/6/1 18/9/1 19/10/1 20/7/1
f 21/6/1 22/9/1 23/10/1 24/7/1
f 25/6/1 26/9/1 27/10/1 28/7/1
f 29/1/1 30/2/1 31/3/1 32/4/1
f 33/4/1 34/3/1 35/6/1 36/5/1
f 37/3/1 38/11/1 39/9/1 40/6/1
f 41/3/1 42/11/1 43/9/1 44/6/1
f 45/3/1 46/11/1 47/9/1 48/6/1
f 49/3/1 50/11/1 51/9/1 52/6/1
f 53/3/1 54/11/1 55/9/1 56/6/1
f 57/1/1 58/2/1 59/3/1 60/4/1
f 61/1/1 62/2/1 63/3/1 64/4/1
f 65/6/1 66/9/1 67/10/1 68/7/1
f 69/6/1 70/9/1 71/10/1 72/7/1
f 73/6/1 74/9/1 75/10/1 76/7/1
f 77/6/1 78/9/1 79/10/1 80/7/1
f 81/6/1 82/9/1 83/10/1 84/7/1
f 85/1/1 86/2/1 87/3/1 88/4/1
f 89/1/1 90/2/1 91/3/1 92/4/1
f 93/1/1 94/2/1 95/3/1 96/4/1
f 97/1/1 98/2/1 99/3/1 100/4/1
f 101/1/1 102/2/1 103/3/1 104/4/1
f 105/2/1 106/12/1 107/11/1 108/3/1
f 109/2/1 110/12/1 111/11/1 112/3/1
f 113/2/1 114/12/1 115/11/1 116/3/1
f 117/2/1 118/12/1 119/11/1 120/3/1
f 121/2/1 122/12/1 123/11/1 124/3/1
f 125/2/1 126/12/1 127/11/1 128/3/1
f 129/2/1 130/12/1 131/11/1 132/3/1
f 133/13/1 134/14/1 135/2/1 136/1/1
f 137/14/1 138/15/1 139/12/1 140/2/1
f 141/14/1 142/15/1 143/12/1 144/2/1
f 145/14/1 146/15/1 147/12/1 148/2/1
f 149/14/1 150/15/1 151/12/1 152/2/1
f 153/14/1 154/15/1 155/12/1 156/2/1
f 157/14/1 158/15/1 159/12/1 160/2/1
f 161/14/1 162/15/1 163/12/1 164/2/1

