# Tiled2Unity generated file. Do not modify by hand.
# Wavefront file for 'World_mesh_0122.obj'

# Vertices (Count = 16)
v -3 -15 0
v -4 -15 0
v -4 -14 0
v -3 -14 0
v -8 -15 0
v -9 -15 0
v -9 -14 0
v -8 -14 0
v -3 -16 0
v -4 -16 0
v -4 -15 0
v -3 -15 0
v -8 -16 0
v -9 -16 0
v -9 -15 0
v -8 -15 0

# Texture cooridinates (Count = 6)
vt 0 0.75
vt 0.0625 0.75
vt 0.0625 0.8125
vt 0 0.8125
vt 0 0.6875
vt 0.0625 0.6875

# Normal
vn 0 0 -1

# Mesh description
g World_mesh_0122

# Faces
f 1/1/1 2/2/1 3/3/1 4/4/1
f 5/1/1 6/2/1 7/3/1 8/4/1
f 9/5/1 10/6/1 11/2/1 12/1/1
f 13/5/1 14/6/1 15/2/1 16/1/1

