# Tiled2Unity generated file. Do not modify by hand.
# Wavefront file for 'World_mesh_0005.obj'

# Vertices (Count = 384)
v 0 -9 0
v -1 -9 0
v -1 -8 0
v 0 -8 0
v -1 -9 0
v -2 -9 0
v -2 -8 0
v -1 -8 0
v -2 -9 0
v -3 -9 0
v -3 -8 0
v -2 -8 0
v -3 -9 0
v -4 -9 0
v -4 -8 0
v -3 -8 0
v -4 -9 0
v -5 -9 0
v -5 -8 0
v -4 -8 0
v -5 -9 0
v -6 -9 0
v -6 -8 0
v -5 -8 0
v -6 -9 0
v -7 -9 0
v -7 -8 0
v -6 -8 0
v -7 -9 0
v -8 -9 0
v -8 -8 0
v -7 -8 0
v -8 -9 0
v -9 -9 0
v -9 -8 0
v -8 -8 0
v -9 -9 0
v -10 -9 0
v -10 -8 0
v -9 -8 0
v -10 -9 0
v -11 -9 0
v -11 -8 0
v -10 -8 0
v -11 -9 0
v -12 -9 0
v -12 -8 0
v -11 -8 0
v -12 -9 0
v -13 -9 0
v -13 -8 0
v -12 -8 0
v 0 -10 0
v -1 -10 0
v -1 -9 0
v 0 -9 0
v -1 -10 0
v -2 -10 0
v -2 -9 0
v -1 -9 0
v -2 -10 0
v -3 -10 0
v -3 -9 0
v -2 -9 0
v -3 -10 0
v -4 -10 0
v -4 -9 0
v -3 -9 0
v -4 -10 0
v -5 -10 0
v -5 -9 0
v -4 -9 0
v -5 -10 0
v -6 -10 0
v -6 -9 0
v -5 -9 0
v -6 -10 0
v -7 -10 0
v -7 -9 0
v -6 -9 0
v -7 -10 0
v -8 -10 0
v -8 -9 0
v -7 -9 0
v -8 -10 0
v -9 -10 0
v -9 -9 0
v -8 -9 0
v -9 -10 0
v -10 -10 0
v -10 -9 0
v -9 -9 0
v -10 -10 0
v -11 -10 0
v -11 -9 0
v -10 -9 0
v -11 -10 0
v -12 -10 0
v -12 -9 0
v -11 -9 0
v -12 -10 0
v -13 -10 0
v -13 -9 0
v -12 -9 0
v 0 -11 0
v -1 -11 0
v -1 -10 0
v 0 -10 0
v -3 -11 0
v -4 -11 0
v -4 -10 0
v -3 -10 0
v -4 -11 0
v -5 -11 0
v -5 -10 0
v -4 -10 0
v -5 -11 0
v -6 -11 0
v -6 -10 0
v -5 -10 0
v -6 -11 0
v -7 -11 0
v -7 -10 0
v -6 -10 0
v -7 -11 0
v -8 -11 0
v -8 -10 0
v -7 -10 0
v -8 -11 0
v -9 -11 0
v -9 -10 0
v -8 -10 0
v -9 -11 0
v -10 -11 0
v -10 -10 0
v -9 -10 0
v -10 -11 0
v -11 -11 0
v -11 -10 0
v -10 -10 0
v -11 -11 0
v -12 -11 0
v -12 -10 0
v -11 -10 0
v -12 -11 0
v -13 -11 0
v -13 -10 0
v -12 -10 0
v 0 -12 0
v -1 -12 0
v -1 -11 0
v 0 -11 0
v -3 -12 0
v -4 -12 0
v -4 -11 0
v -3 -11 0
v -4 -12 0
v -5 -12 0
v -5 -11 0
v -4 -11 0
v -7 -12 0
v -8 -12 0
v -8 -11 0
v -7 -11 0
v -8 -12 0
v -9 -12 0
v -9 -11 0
v -8 -11 0
v -9 -12 0
v -10 -12 0
v -10 -11 0
v -9 -11 0
v -10 -12 0
v -11 -12 0
v -11 -11 0
v -10 -11 0
v -11 -12 0
v -12 -12 0
v -12 -11 0
v -11 -11 0
v -12 -12 0
v -13 -12 0
v -13 -11 0
v -12 -11 0
v -13 -12 0
v -14 -12 0
v -14 -11 0
v -13 -11 0
v -14 -12 0
v -15 -12 0
v -15 -11 0
v -14 -11 0
v -15 -12 0
v -16 -12 0
v -16 -11 0
v -15 -11 0
v 0 -13 0
v -1 -13 0
v -1 -12 0
v 0 -12 0
v -1 -13 0
v -2 -13 0
v -2 -12 0
v -1 -12 0
v -2 -13 0
v -3 -13 0
v -3 -12 0
v -2 -12 0
v -3 -13 0
v -4 -13 0
v -4 -12 0
v -3 -12 0
v -4 -13 0
v -5 -13 0
v -5 -12 0
v -4 -12 0
v -7 -13 0
v -8 -13 0
v -8 -12 0
v -7 -12 0
v -8 -13 0
v -9 -13 0
v -9 -12 0
v -8 -12 0
v -9 -13 0
v -10 -13 0
v -10 -12 0
v -9 -12 0
v -10 -13 0
v -11 -13 0
v -11 -12 0
v -10 -12 0
v -11 -13 0
v -12 -13 0
v -12 -12 0
v -11 -12 0
v -12 -13 0
v -13 -13 0
v -13 -12 0
v -12 -12 0
v -13 -13 0
v -14 -13 0
v -14 -12 0
v -13 -12 0
v -14 -13 0
v -15 -13 0
v -15 -12 0
v -14 -12 0
v -15 -13 0
v -16 -13 0
v -16 -12 0
v -15 -12 0
v 0 -14 0
v -1 -14 0
v -1 -13 0
v 0 -13 0
v -1 -14 0
v -2 -14 0
v -2 -13 0
v -1 -13 0
v -2 -14 0
v -3 -14 0
v -3 -13 0
v -2 -13 0
v -3 -14 0
v -4 -14 0
v -4 -13 0
v -3 -13 0
v -4 -14 0
v -5 -14 0
v -5 -13 0
v -4 -13 0
v -7 -14 0
v -8 -14 0
v -8 -13 0
v -7 -13 0
v -8 -14 0
v -9 -14 0
v -9 -13 0
v -8 -13 0
v -11 -14 0
v -12 -14 0
v -12 -13 0
v -11 -13 0
v -12 -14 0
v -13 -14 0
v -13 -13 0
v -12 -13 0
v 0 -15 0
v -1 -15 0
v -1 -14 0
v 0 -14 0
v -1 -15 0
v -2 -15 0
v -2 -14 0
v -1 -14 0
v -2 -15 0
v -3 -15 0
v -3 -14 0
v -2 -14 0
v -3 -15 0
v -4 -15 0
v -4 -14 0
v -3 -14 0
v -4 -15 0
v -5 -15 0
v -5 -14 0
v -4 -14 0
v -5 -15 0
v -6 -15 0
v -6 -14 0
v -5 -14 0
v -6 -15 0
v -7 -15 0
v -7 -14 0
v -6 -14 0
v -7 -15 0
v -8 -15 0
v -8 -14 0
v -7 -14 0
v -8 -15 0
v -9 -15 0
v -9 -14 0
v -8 -14 0
v -11 -15 0
v -12 -15 0
v -12 -14 0
v -11 -14 0
v -12 -15 0
v -13 -15 0
v -13 -14 0
v -12 -14 0
v 0 -16 0
v -1 -16 0
v -1 -15 0
v 0 -15 0
v -1 -16 0
v -2 -16 0
v -2 -15 0
v -1 -15 0
v -2 -16 0
v -3 -16 0
v -3 -15 0
v -2 -15 0
v -3 -16 0
v -4 -16 0
v -4 -15 0
v -3 -15 0
v -4 -16 0
v -5 -16 0
v -5 -15 0
v -4 -15 0
v -5 -16 0
v -6 -16 0
v -6 -15 0
v -5 -15 0
v -6 -16 0
v -7 -16 0
v -7 -15 0
v -6 -15 0
v -7 -16 0
v -8 -16 0
v -8 -15 0
v -7 -15 0
v -8 -16 0
v -9 -16 0
v -9 -15 0
v -8 -15 0
v -9 -16 0
v -10 -16 0
v -10 -15 0
v -9 -15 0
v -10 -16 0
v -11 -16 0
v -11 -15 0
v -10 -15 0
v -11 -16 0
v -12 -16 0
v -12 -15 0
v -11 -15 0
v -12 -16 0
v -13 -16 0
v -13 -15 0
v -12 -15 0

# Texture cooridinates (Count = 29)
vt 0.0625 0.8125
vt 0.125 0.8125
vt 0.125 0.875
vt 0.0625 0.875
vt 0 0.8125
vt 0 0.875
vt 0.1875 0.75
vt 0.1875 0.8125
vt 0.125 0.75
vt 0 0.5625
vt 0.0625 0.5625
vt 0.0625 0.625
vt 0 0.625
vt 0.125 0.5625
vt 0.125 0.625
vt 0.1875 0.5625
vt 0.1875 0.625
vt 0.25 0.5625
vt 0.25 0.625
vt 0 0.5
vt 0.0625 0.5
vt 0.125 0.5
vt 0.1875 0.5
vt 0.25 0.5
vt 0 0.4375
vt 0.0625 0.4375
vt 0.125 0.4375
vt 0.1875 0.4375
vt 0.25 0.4375

# Normal
vn 0 0 -1

# Mesh description
g World_mesh_0005

# Faces
f 1/1/1 2/2/1 3/3/1 4/4/1
f 5/5/1 6/1/1 7/4/1 8/6/1
f 9/5/1 10/1/1 11/4/1 12/6/1
f 13/5/1 14/1/1 15/4/1 16/6/1
f 17/1/1 18/2/1 19/3/1 20/4/1
f 21/5/1 22/1/1 23/4/1 24/6/1
f 25/1/1 26/2/1 27/3/1 28/4/1
f 29/1/1 30/2/1 31/3/1 32/4/1
f 33/1/1 34/2/1 35/3/1 36/4/1
f 37/5/1 38/1/1 39/4/1 40/6/1
f 41/5/1 42/1/1 43/4/1 44/6/1
f 45/1/1 46/2/1 47/3/1 48/4/1
f 49/5/1 50/1/1 51/4/1 52/6/1
f 53/7/1 54/8/1 55/2/1 56/9/1
f 57/7/1 58/8/1 59/2/1 60/9/1
f 61/7/1 62/8/1 63/2/1 64/9/1
f 65/7/1 66/8/1 67/2/1 68/9/1
f 69/7/1 70/8/1 71/2/1 72/9/1
f 73/7/1 74/8/1 75/2/1 76/9/1
f 77/7/1 78/8/1 79/2/1 80/9/1
f 81/7/1 82/8/1 83/2/1 84/9/1
f 85/10/1 86/11/1 87/12/1 88/13/1
f 89/11/1 90/14/1 91/15/1 92/12/1
f 93/14/1 94/16/1 95/17/1 96/15/1
f 97/16/1 98/18/1 99/19/1 100/17/1
f 101/7/1 102/8/1 103/2/1 104/9/1
f 105/7/1 106/8/1 107/2/1 108/9/1
f 109/7/1 110/8/1 111/2/1 112/9/1
f 113/7/1 114/8/1 115/2/1 116/9/1
f 117/7/1 118/8/1 119/2/1 120/9/1
f 121/7/1 122/8/1 123/2/1 124/9/1
f 125/7/1 126/8/1 127/2/1 128/9/1
f 129/20/1 130/21/1 131/11/1 132/10/1
f 133/21/1 134/22/1 135/14/1 136/11/1
f 137/22/1 138/23/1 139/16/1 140/14/1
f 141/23/1 142/24/1 143/18/1 144/16/1
f 145/7/1 146/8/1 147/2/1 148/9/1
f 149/7/1 150/8/1 151/2/1 152/9/1
f 153/7/1 154/8/1 155/2/1 156/9/1
f 157/7/1 158/8/1 159/2/1 160/9/1
f 161/7/1 162/8/1 163/2/1 164/9/1
f 165/25/1 166/26/1 167/21/1 168/20/1
f 169/26/1 170/27/1 171/22/1 172/21/1
f 173/27/1 174/28/1 175/23/1 176/22/1
f 177/28/1 178/29/1 179/24/1 180/23/1
f 181/7/1 182/8/1 183/2/1 184/9/1
f 185/5/1 186/1/1 187/4/1 188/6/1
f 189/5/1 190/1/1 191/4/1 192/6/1
f 193/5/1 194/1/1 195/4/1 196/6/1
f 197/7/1 198/8/1 199/2/1 200/9/1
f 201/7/1 202/8/1 203/2/1 204/9/1
f 205/7/1 206/8/1 207/2/1 208/9/1
f 209/7/1 210/8/1 211/2/1 212/9/1
f 213/7/1 214/8/1 215/2/1 216/9/1
f 217/7/1 218/8/1 219/2/1 220/9/1
f 221/7/1 222/8/1 223/2/1 224/9/1
f 225/7/1 226/8/1 227/2/1 228/9/1
f 229/7/1 230/8/1 231/2/1 232/9/1
f 233/7/1 234/8/1 235/2/1 236/9/1
f 237/7/1 238/8/1 239/2/1 240/9/1
f 241/7/1 242/8/1 243/2/1 244/9/1
f 245/7/1 246/8/1 247/2/1 248/9/1
f 249/7/1 250/8/1 251/2/1 252/9/1
f 253/10/1 254/11/1 255/12/1 256/13/1
f 257/11/1 258/14/1 259/15/1 260/12/1
f 261/14/1 262/16/1 263/17/1 264/15/1
f 265/16/1 266/18/1 267/19/1 268/17/1
f 269/7/1 270/8/1 271/2/1 272/9/1
f 273/7/1 274/8/1 275/2/1 276/9/1
f 277/7/1 278/8/1 279/2/1 280/9/1
f 281/7/1 282/8/1 283/2/1 284/9/1
f 285/7/1 286/8/1 287/2/1 288/9/1
f 289/20/1 290/21/1 291/11/1 292/10/1
f 293/21/1 294/22/1 295/14/1 296/11/1
f 297/22/1 298/23/1 299/16/1 300/14/1
f 301/23/1 302/24/1 303/18/1 304/16/1
f 305/7/1 306/8/1 307/2/1 308/9/1
f 309/7/1 310/8/1 311/2/1 312/9/1
f 313/7/1 314/8/1 315/2/1 316/9/1
f 317/7/1 318/8/1 319/2/1 320/9/1
f 321/7/1 322/8/1 323/2/1 324/9/1
f 325/7/1 326/8/1 327/2/1 328/9/1
f 329/7/1 330/8/1 331/2/1 332/9/1
f 333/25/1 334/26/1 335/21/1 336/20/1
f 337/26/1 338/27/1 339/22/1 340/21/1
f 341/27/1 342/28/1 343/23/1 344/22/1
f 345/28/1 346/29/1 347/24/1 348/23/1
f 349/7/1 350/8/1 351/2/1 352/9/1
f 353/7/1 354/8/1 355/2/1 356/9/1
f 357/7/1 358/8/1 359/2/1 360/9/1
f 361/7/1 362/8/1 363/2/1 364/9/1
f 365/7/1 366/8/1 367/2/1 368/9/1
f 369/7/1 370/8/1 371/2/1 372/9/1
f 373/7/1 374/8/1 375/2/1 376/9/1
f 377/7/1 378/8/1 379/2/1 380/9/1
f 381/7/1 382/8/1 383/2/1 384/9/1

