# Tiled2Unity generated file. Do not modify by hand.
# Wavefront file for 'World_mesh_0009.obj'

# Vertices (Count = 256)
v 0 -12 0
v -1 -12 0
v -1 -11 0
v 0 -11 0
v -1 -12 0
v -2 -12 0
v -2 -11 0
v -1 -11 0
v -2 -12 0
v -3 -12 0
v -3 -11 0
v -2 -11 0
v -3 -12 0
v -4 -12 0
v -4 -11 0
v -3 -11 0
v -4 -12 0
v -5 -12 0
v -5 -11 0
v -4 -11 0
v -5 -12 0
v -6 -12 0
v -6 -11 0
v -5 -11 0
v -10 -12 0
v -11 -12 0
v -11 -11 0
v -10 -11 0
v -11 -12 0
v -12 -12 0
v -12 -11 0
v -11 -11 0
v -12 -12 0
v -13 -12 0
v -13 -11 0
v -12 -11 0
v -13 -12 0
v -14 -12 0
v -14 -11 0
v -13 -11 0
v -14 -12 0
v -15 -12 0
v -15 -11 0
v -14 -11 0
v -15 -12 0
v -16 -12 0
v -16 -11 0
v -15 -11 0
v 0 -13 0
v -1 -13 0
v -1 -12 0
v 0 -12 0
v -1 -13 0
v -2 -13 0
v -2 -12 0
v -1 -12 0
v -2 -13 0
v -3 -13 0
v -3 -12 0
v -2 -12 0
v -3 -13 0
v -4 -13 0
v -4 -12 0
v -3 -12 0
v -4 -13 0
v -5 -13 0
v -5 -12 0
v -4 -12 0
v -5 -13 0
v -6 -13 0
v -6 -12 0
v -5 -12 0
v -10 -13 0
v -11 -13 0
v -11 -12 0
v -10 -12 0
v -11 -13 0
v -12 -13 0
v -12 -12 0
v -11 -12 0
v -12 -13 0
v -13 -13 0
v -13 -12 0
v -12 -12 0
v -13 -13 0
v -14 -13 0
v -14 -12 0
v -13 -12 0
v -14 -13 0
v -15 -13 0
v -15 -12 0
v -14 -12 0
v -15 -13 0
v -16 -13 0
v -16 -12 0
v -15 -12 0
v 0 -14 0
v -1 -14 0
v -1 -13 0
v 0 -13 0
v -1 -14 0
v -2 -14 0
v -2 -13 0
v -1 -13 0
v -2 -14 0
v -3 -14 0
v -3 -13 0
v -2 -13 0
v -3 -14 0
v -4 -14 0
v -4 -13 0
v -3 -13 0
v -4 -14 0
v -5 -14 0
v -5 -13 0
v -4 -13 0
v -5 -14 0
v -6 -14 0
v -6 -13 0
v -5 -13 0
v -10 -14 0
v -11 -14 0
v -11 -13 0
v -10 -13 0
v -11 -14 0
v -12 -14 0
v -12 -13 0
v -11 -13 0
v -12 -14 0
v -13 -14 0
v -13 -13 0
v -12 -13 0
v -13 -14 0
v -14 -14 0
v -14 -13 0
v -13 -13 0
v -14 -14 0
v -15 -14 0
v -15 -13 0
v -14 -13 0
v -15 -14 0
v -16 -14 0
v -16 -13 0
v -15 -13 0
v 0 -15 0
v -1 -15 0
v -1 -14 0
v 0 -14 0
v -1 -15 0
v -2 -15 0
v -2 -14 0
v -1 -14 0
v -2 -15 0
v -3 -15 0
v -3 -14 0
v -2 -14 0
v -3 -15 0
v -4 -15 0
v -4 -14 0
v -3 -14 0
v -4 -15 0
v -5 -15 0
v -5 -14 0
v -4 -14 0
v -5 -15 0
v -6 -15 0
v -6 -14 0
v -5 -14 0
v -10 -15 0
v -11 -15 0
v -11 -14 0
v -10 -14 0
v -11 -15 0
v -12 -15 0
v -12 -14 0
v -11 -14 0
v -12 -15 0
v -13 -15 0
v -13 -14 0
v -12 -14 0
v -13 -15 0
v -14 -15 0
v -14 -14 0
v -13 -14 0
v -14 -15 0
v -15 -15 0
v -15 -14 0
v -14 -14 0
v -15 -15 0
v -16 -15 0
v -16 -14 0
v -15 -14 0
v 0 -16 0
v -1 -16 0
v -1 -15 0
v 0 -15 0
v -1 -16 0
v -2 -16 0
v -2 -15 0
v -1 -15 0
v -2 -16 0
v -3 -16 0
v -3 -15 0
v -2 -15 0
v -3 -16 0
v -4 -16 0
v -4 -15 0
v -3 -15 0
v -4 -16 0
v -5 -16 0
v -5 -15 0
v -4 -15 0
v -5 -16 0
v -6 -16 0
v -6 -15 0
v -5 -15 0
v -6 -16 0
v -7 -16 0
v -7 -15 0
v -6 -15 0
v -7 -16 0
v -8 -16 0
v -8 -15 0
v -7 -15 0
v -8 -16 0
v -9 -16 0
v -9 -15 0
v -8 -15 0
v -9 -16 0
v -10 -16 0
v -10 -15 0
v -9 -15 0
v -10 -16 0
v -11 -16 0
v -11 -15 0
v -10 -15 0
v -11 -16 0
v -12 -16 0
v -12 -15 0
v -11 -15 0
v -12 -16 0
v -13 -16 0
v -13 -15 0
v -12 -15 0
v -13 -16 0
v -14 -16 0
v -14 -15 0
v -13 -15 0
v -14 -16 0
v -15 -16 0
v -15 -15 0
v -14 -15 0
v -15 -16 0
v -16 -16 0
v -16 -15 0
v -15 -15 0

# Texture cooridinates (Count = 29)
vt 0.0625 0.8125
vt 0.125 0.8125
vt 0.125 0.875
vt 0.0625 0.875
vt 0 0.8125
vt 0 0.875
vt 0.1875 0.5625
vt 0.25 0.5625
vt 0.25 0.625
vt 0.1875 0.625
vt 0 0.5625
vt 0.0625 0.5625
vt 0.0625 0.625
vt 0 0.625
vt 0.125 0.5625
vt 0.125 0.625
vt 0.125 0.75
vt 0.1875 0.75
vt 0.1875 0.8125
vt 0.1875 0.5
vt 0.25 0.5
vt 0 0.5
vt 0.0625 0.5
vt 0.125 0.5
vt 0.1875 0.4375
vt 0.25 0.4375
vt 0 0.4375
vt 0.0625 0.4375
vt 0.125 0.4375

# Normal
vn 0 0 -1

# Mesh description
g World_mesh_0009

# Faces
f 1/1/1 2/2/1 3/3/1 4/4/1
f 5/5/1 6/1/1 7/4/1 8/6/1
f 9/1/1 10/2/1 11/3/1 12/4/1
f 13/5/1 14/1/1 15/4/1 16/6/1
f 17/1/1 18/2/1 19/3/1 20/4/1
f 21/5/1 22/1/1 23/4/1 24/6/1
f 25/1/1 26/2/1 27/3/1 28/4/1
f 29/5/1 30/1/1 31/4/1 32/6/1
f 33/5/1 34/1/1 35/4/1 36/6/1
f 37/5/1 38/1/1 39/4/1 40/6/1
f 41/1/1 42/2/1 43/3/1 44/4/1
f 45/1/1 46/2/1 47/3/1 48/4/1
f 49/7/1 50/8/1 51/9/1 52/10/1
f 53/11/1 54/12/1 55/13/1 56/14/1
f 57/12/1 58/15/1 59/16/1 60/13/1
f 61/15/1 62/7/1 63/10/1 64/16/1
f 65/7/1 66/8/1 67/9/1 68/10/1
f 69/17/1 70/18/1 71/19/1 72/2/1
f 73/17/1 74/18/1 75/19/1 76/2/1
f 77/11/1 78/12/1 79/13/1 80/14/1
f 81/12/1 82/15/1 83/16/1 84/13/1
f 85/15/1 86/7/1 87/10/1 88/16/1
f 89/7/1 90/8/1 91/9/1 92/10/1
f 93/17/1 94/18/1 95/19/1 96/2/1
f 97/20/1 98/21/1 99/8/1 100/7/1
f 101/22/1 102/23/1 103/12/1 104/11/1
f 105/23/1 106/24/1 107/15/1 108/12/1
f 109/24/1 110/20/1 111/7/1 112/15/1
f 113/20/1 114/21/1 115/8/1 116/7/1
f 117/17/1 118/18/1 119/19/1 120/2/1
f 121/17/1 122/18/1 123/19/1 124/2/1
f 125/22/1 126/23/1 127/12/1 128/11/1
f 129/23/1 130/24/1 131/15/1 132/12/1
f 133/24/1 134/20/1 135/7/1 136/15/1
f 137/20/1 138/21/1 139/8/1 140/7/1
f 141/17/1 142/18/1 143/19/1 144/2/1
f 145/25/1 146/26/1 147/21/1 148/20/1
f 149/27/1 150/28/1 151/23/1 152/22/1
f 153/28/1 154/29/1 155/24/1 156/23/1
f 157/29/1 158/25/1 159/20/1 160/24/1
f 161/25/1 162/26/1 163/21/1 164/20/1
f 165/17/1 166/18/1 167/19/1 168/2/1
f 169/17/1 170/18/1 171/19/1 172/2/1
f 173/27/1 174/28/1 175/23/1 176/22/1
f 177/28/1 178/29/1 179/24/1 180/23/1
f 181/29/1 182/25/1 183/20/1 184/24/1
f 185/25/1 186/26/1 187/21/1 188/20/1
f 189/17/1 190/18/1 191/19/1 192/2/1
f 193/17/1 194/18/1 195/19/1 196/2/1
f 197/17/1 198/18/1 199/19/1 200/2/1
f 201/17/1 202/18/1 203/19/1 204/2/1
f 205/17/1 206/18/1 207/19/1 208/2/1
f 209/17/1 210/18/1 211/19/1 212/2/1
f 213/17/1 214/18/1 215/19/1 216/2/1
f 217/5/1 218/1/1 219/4/1 220/6/1
f 221/5/1 222/1/1 223/4/1 224/6/1
f 225/5/1 226/1/1 227/4/1 228/6/1
f 229/5/1 230/1/1 231/4/1 232/6/1
f 233/17/1 234/18/1 235/19/1 236/2/1
f 237/17/1 238/18/1 239/19/1 240/2/1
f 241/17/1 242/18/1 243/19/1 244/2/1
f 245/17/1 246/18/1 247/19/1 248/2/1
f 249/17/1 250/18/1 251/19/1 252/2/1
f 253/17/1 254/18/1 255/19/1 256/2/1

