# Tiled2Unity generated file. Do not modify by hand.
# Wavefront file for 'World_mesh_0058.obj'

# Vertices (Count = 352)
v -14 -1 0
v -15 -1 0
v -15 0 0
v -14 0 0
v -14 -2 0
v -15 -2 0
v -15 -1 0
v -14 -1 0
v -14 -3 0
v -15 -3 0
v -15 -2 0
v -14 -2 0
v -1 -4 0
v -2 -4 0
v -2 -3 0
v -1 -3 0
v -2 -4 0
v -3 -4 0
v -3 -3 0
v -2 -3 0
v -3 -4 0
v -4 -4 0
v -4 -3 0
v -3 -3 0
v -4 -4 0
v -5 -4 0
v -5 -3 0
v -4 -3 0
v -5 -4 0
v -6 -4 0
v -6 -3 0
v -5 -3 0
v -6 -4 0
v -7 -4 0
v -7 -3 0
v -6 -3 0
v -7 -4 0
v -8 -4 0
v -8 -3 0
v -7 -3 0
v -8 -4 0
v -9 -4 0
v -9 -3 0
v -8 -3 0
v -9 -4 0
v -10 -4 0
v -10 -3 0
v -9 -3 0
v -10 -4 0
v -11 -4 0
v -11 -3 0
v -10 -3 0
v -11 -4 0
v -12 -4 0
v -12 -3 0
v -11 -3 0
v -12 -4 0
v -13 -4 0
v -13 -3 0
v -12 -3 0
v -13 -4 0
v -14 -4 0
v -14 -3 0
v -13 -3 0
v -14 -4 0
v -15 -4 0
v -15 -3 0
v -14 -3 0
v -1 -5 0
v -2 -5 0
v -2 -4 0
v -1 -4 0
v -2 -5 0
v -3 -5 0
v -3 -4 0
v -2 -4 0
v -3 -5 0
v -4 -5 0
v -4 -4 0
v -3 -4 0
v -4 -5 0
v -5 -5 0
v -5 -4 0
v -4 -4 0
v -5 -5 0
v -6 -5 0
v -6 -4 0
v -5 -4 0
v -6 -5 0
v -7 -5 0
v -7 -4 0
v -6 -4 0
v -7 -5 0
v -8 -5 0
v -8 -4 0
v -7 -4 0
v -8 -5 0
v -9 -5 0
v -9 -4 0
v -8 -4 0
v -9 -5 0
v -10 -5 0
v -10 -4 0
v -9 -4 0
v -10 -5 0
v -11 -5 0
v -11 -4 0
v -10 -4 0
v -11 -5 0
v -12 -5 0
v -12 -4 0
v -11 -4 0
v -12 -5 0
v -13 -5 0
v -13 -4 0
v -12 -4 0
v -13 -5 0
v -14 -5 0
v -14 -4 0
v -13 -4 0
v -14 -5 0
v -15 -5 0
v -15 -4 0
v -14 -4 0
v -1 -6 0
v -2 -6 0
v -2 -5 0
v -1 -5 0
v -1 -7 0
v -2 -7 0
v -2 -6 0
v -1 -6 0
v -6 -7 0
v -7 -7 0
v -7 -6 0
v -6 -6 0
v -7 -7 0
v -8 -7 0
v -8 -6 0
v -7 -6 0
v -8 -7 0
v -9 -7 0
v -9 -6 0
v -8 -6 0
v -9 -7 0
v -10 -7 0
v -10 -6 0
v -9 -6 0
v -1 -8 0
v -2 -8 0
v -2 -7 0
v -1 -7 0
v -6 -8 0
v -7 -8 0
v -7 -7 0
v -6 -7 0
v -7 -8 0
v -8 -8 0
v -8 -7 0
v -7 -7 0
v -8 -8 0
v -9 -8 0
v -9 -7 0
v -8 -7 0
v -9 -8 0
v -10 -8 0
v -10 -7 0
v -9 -7 0
v -1 -9 0
v -2 -9 0
v -2 -8 0
v -1 -8 0
v -6 -9 0
v -7 -9 0
v -7 -8 0
v -6 -8 0
v -9 -9 0
v -10 -9 0
v -10 -8 0
v -9 -8 0
v -1 -10 0
v -2 -10 0
v -2 -9 0
v -1 -9 0
v -6 -10 0
v -7 -10 0
v -7 -9 0
v -6 -9 0
v -9 -10 0
v -10 -10 0
v -10 -9 0
v -9 -9 0
v -1 -11 0
v -2 -11 0
v -2 -10 0
v -1 -10 0
v -6 -11 0
v -7 -11 0
v -7 -10 0
v -6 -10 0
v -9 -11 0
v -10 -11 0
v -10 -10 0
v -9 -10 0
v -1 -12 0
v -2 -12 0
v -2 -11 0
v -1 -11 0
v -6 -12 0
v -7 -12 0
v -7 -11 0
v -6 -11 0
v -9 -12 0
v -10 -12 0
v -10 -11 0
v -9 -11 0
v -1 -13 0
v -2 -13 0
v -2 -12 0
v -1 -12 0
v -6 -13 0
v -7 -13 0
v -7 -12 0
v -6 -12 0
v -7 -13 0
v -8 -13 0
v -8 -12 0
v -7 -12 0
v -8 -13 0
v -9 -13 0
v -9 -12 0
v -8 -12 0
v -9 -13 0
v -10 -13 0
v -10 -12 0
v -9 -12 0
v -1 -14 0
v -2 -14 0
v -2 -13 0
v -1 -13 0
v -1 -15 0
v -2 -15 0
v -2 -14 0
v -1 -14 0
v -2 -15 0
v -3 -15 0
v -3 -14 0
v -2 -14 0
v -3 -15 0
v -4 -15 0
v -4 -14 0
v -3 -14 0
v -4 -15 0
v -5 -15 0
v -5 -14 0
v -4 -14 0
v -5 -15 0
v -6 -15 0
v -6 -14 0
v -5 -14 0
v -6 -15 0
v -7 -15 0
v -7 -14 0
v -6 -14 0
v -7 -15 0
v -8 -15 0
v -8 -14 0
v -7 -14 0
v -8 -15 0
v -9 -15 0
v -9 -14 0
v -8 -14 0
v -9 -15 0
v -10 -15 0
v -10 -14 0
v -9 -14 0
v -10 -15 0
v -11 -15 0
v -11 -14 0
v -10 -14 0
v -11 -15 0
v -12 -15 0
v -12 -14 0
v -11 -14 0
v -12 -15 0
v -13 -15 0
v -13 -14 0
v -12 -14 0
v -13 -15 0
v -14 -15 0
v -14 -14 0
v -13 -14 0
v -14 -15 0
v -15 -15 0
v -15 -14 0
v -14 -14 0
v -1 -16 0
v -2 -16 0
v -2 -15 0
v -1 -15 0
v -2 -16 0
v -3 -16 0
v -3 -15 0
v -2 -15 0
v -3 -16 0
v -4 -16 0
v -4 -15 0
v -3 -15 0
v -4 -16 0
v -5 -16 0
v -5 -15 0
v -4 -15 0
v -5 -16 0
v -6 -16 0
v -6 -15 0
v -5 -15 0
v -6 -16 0
v -7 -16 0
v -7 -15 0
v -6 -15 0
v -7 -16 0
v -8 -16 0
v -8 -15 0
v -7 -15 0
v -8 -16 0
v -9 -16 0
v -9 -15 0
v -8 -15 0
v -9 -16 0
v -10 -16 0
v -10 -15 0
v -9 -15 0
v -10 -16 0
v -11 -16 0
v -11 -15 0
v -10 -15 0
v -11 -16 0
v -12 -16 0
v -12 -15 0
v -11 -15 0
v -12 -16 0
v -13 -16 0
v -13 -15 0
v -12 -15 0
v -13 -16 0
v -14 -16 0
v -14 -15 0
v -13 -15 0
v -14 -16 0
v -15 -16 0
v -15 -15 0
v -14 -15 0

# Texture cooridinates (Count = 27)
vt 0 0.875
vt 0.0625 0.875
vt 0.0625 0.9375
vt 0 0.9375
vt 0.0625 1
vt 0 1
vt 0.125 0.9375
vt 0.125 1
vt 0.25 0.8125
vt 0.3125 0.8125
vt 0.3125 0.875
vt 0.25 0.875
vt 0.0625 0.75
vt 0.125 0.75
vt 0.125 0.8125
vt 0.0625 0.8125
vt 0.1875 0.9375
vt 0.1875 1
vt 0.125 0.875
vt 0.1875 0.875
vt 0 0.8125
vt 0.1875 0.8125
vt 0.25 0.9375
vt 0.3125 0.9375
vt 0.3125 1
vt 0.25 1
vt 0 0.75

# Normal
vn 0 0 -1

# Mesh description
g World_mesh_0058

# Faces
f 1/1/1 2/2/1 3/3/1 4/4/1
f 5/1/1 6/2/1 7/3/1 8/4/1
f 9/1/1 10/2/1 11/3/1 12/4/1
f 13/4/1 14/3/1 15/5/1 16/6/1
f 17/3/1 18/7/1 19/8/1 20/5/1
f 21/3/1 22/7/1 23/8/1 24/5/1
f 25/3/1 26/7/1 27/8/1 28/5/1
f 29/3/1 30/7/1 31/8/1 32/5/1
f 33/3/1 34/7/1 35/8/1 36/5/1
f 37/3/1 38/7/1 39/8/1 40/5/1
f 41/3/1 42/7/1 43/8/1 44/5/1
f 45/3/1 46/7/1 47/8/1 48/5/1
f 49/3/1 50/7/1 51/8/1 52/5/1
f 53/3/1 54/7/1 55/8/1 56/5/1
f 57/3/1 58/7/1 59/8/1 60/5/1
f 61/3/1 62/7/1 63/8/1 64/5/1
f 65/9/1 66/10/1 67/11/1 68/12/1
f 69/1/1 70/2/1 71/3/1 72/4/1
f 73/13/1 74/14/1 75/15/1 76/16/1
f 77/13/1 78/14/1 79/15/1 80/16/1
f 81/13/1 82/14/1 83/15/1 84/16/1
f 85/13/1 86/14/1 87/15/1 88/16/1
f 89/13/1 90/14/1 91/15/1 92/16/1
f 93/13/1 94/14/1 95/15/1 96/16/1
f 97/13/1 98/14/1 99/15/1 100/16/1
f 101/13/1 102/14/1 103/15/1 104/16/1
f 105/13/1 106/14/1 107/15/1 108/16/1
f 109/13/1 110/14/1 111/15/1 112/16/1
f 113/13/1 114/14/1 115/15/1 116/16/1
f 117/13/1 118/14/1 119/15/1 120/16/1
f 121/13/1 122/14/1 123/15/1 124/16/1
f 125/1/1 126/2/1 127/3/1 128/4/1
f 129/1/1 130/2/1 131/3/1 132/4/1
f 133/4/1 134/3/1 135/5/1 136/6/1
f 137/3/1 138/7/1 139/8/1 140/5/1
f 141/3/1 142/7/1 143/8/1 144/5/1
f 145/7/1 146/17/1 147/18/1 148/8/1
f 149/1/1 150/2/1 151/3/1 152/4/1
f 153/1/1 154/2/1 155/3/1 156/4/1
f 157/2/1 158/19/1 159/7/1 160/3/1
f 161/2/1 162/19/1 163/7/1 164/3/1
f 165/19/1 166/20/1 167/17/1 168/7/1
f 169/1/1 170/2/1 171/3/1 172/4/1
f 173/21/1 174/16/1 175/2/1 176/1/1
f 177/15/1 178/22/1 179/20/1 180/19/1
f 181/1/1 182/2/1 183/3/1 184/4/1
f 185/21/1 186/16/1 187/2/1 188/1/1
f 189/15/1 190/22/1 191/20/1 192/19/1
f 193/1/1 194/2/1 195/3/1 196/4/1
f 197/21/1 198/16/1 199/2/1 200/1/1
f 201/15/1 202/22/1 203/20/1 204/19/1
f 205/1/1 206/2/1 207/3/1 208/4/1
f 209/21/1 210/16/1 211/2/1 212/1/1
f 213/15/1 214/22/1 215/20/1 216/19/1
f 217/1/1 218/2/1 219/3/1 220/4/1
f 221/21/1 222/16/1 223/2/1 224/1/1
f 225/3/1 226/7/1 227/8/1 228/5/1
f 229/3/1 230/7/1 231/8/1 232/5/1
f 233/15/1 234/22/1 235/20/1 236/19/1
f 237/1/1 238/2/1 239/3/1 240/4/1
f 241/1/1 242/2/1 243/3/1 244/4/1
f 245/16/1 246/15/1 247/19/1 248/2/1
f 249/16/1 250/15/1 251/19/1 252/2/1
f 253/16/1 254/15/1 255/19/1 256/2/1
f 257/16/1 258/15/1 259/19/1 260/2/1
f 261/16/1 262/15/1 263/19/1 264/2/1
f 265/16/1 266/15/1 267/19/1 268/2/1
f 269/16/1 270/15/1 271/19/1 272/2/1
f 273/16/1 274/15/1 275/19/1 276/2/1
f 277/16/1 278/15/1 279/19/1 280/2/1
f 281/16/1 282/15/1 283/19/1 284/2/1
f 285/16/1 286/15/1 287/19/1 288/2/1
f 289/16/1 290/15/1 291/19/1 292/2/1
f 293/23/1 294/24/1 295/25/1 296/26/1
f 297/27/1 298/13/1 299/16/1 300/21/1
f 301/13/1 302/14/1 303/15/1 304/16/1
f 305/13/1 306/14/1 307/15/1 308/16/1
f 309/13/1 310/14/1 311/15/1 312/16/1
f 313/13/1 314/14/1 315/15/1 316/16/1
f 317/13/1 318/14/1 319/15/1 320/16/1
f 321/13/1 322/14/1 323/15/1 324/16/1
f 325/13/1 326/14/1 327/15/1 328/16/1
f 329/13/1 330/14/1 331/15/1 332/16/1
f 333/13/1 334/14/1 335/15/1 336/16/1
f 337/13/1 338/14/1 339/15/1 340/16/1
f 341/13/1 342/14/1 343/15/1 344/16/1
f 345/13/1 346/14/1 347/15/1 348/16/1
f 349/12/1 350/11/1 351/24/1 352/23/1

