# Tiled2Unity generated file. Do not modify by hand.
# Wavefront file for 'World_mesh_0127.obj'

# Vertices (Count = 12)
v 0 -9 0
v -1 -9 0
v -1 -8 0
v 0 -8 0
v 0 -10 0
v -1 -10 0
v -1 -9 0
v 0 -9 0
v 0 -11 0
v -1 -11 0
v -1 -10 0
v 0 -10 0

# Texture cooridinates (Count = 8)
vt 0.375 0.75
vt 0.4375 0.75
vt 0.4375 0.8125
vt 0.375 0.8125
vt 0.375 0.6875
vt 0.4375 0.6875
vt 0.375 0.625
vt 0.4375 0.625

# Normal
vn 0 0 -1

# Mesh description
g World_mesh_0127

# Faces
f 1/1/1 2/2/1 3/3/1 4/4/1
f 5/5/1 6/6/1 7/2/1 8/1/1
f 9/7/1 10/8/1 11/6/1 12/5/1

