# Tiled2Unity generated file. Do not modify by hand.
# Wavefront file for 'World_mesh_0029.obj'

# Vertices (Count = 152)
v -9 -11 0
v -10 -11 0
v -10 -10 0
v -9 -10 0
v -10 -11 0
v -11 -11 0
v -11 -10 0
v -10 -10 0
v -11 -11 0
v -12 -11 0
v -12 -10 0
v -11 -10 0
v -12 -11 0
v -13 -11 0
v -13 -10 0
v -12 -10 0
v -13 -11 0
v -14 -11 0
v -14 -10 0
v -13 -10 0
v -14 -11 0
v -15 -11 0
v -15 -10 0
v -14 -10 0
v -15 -11 0
v -16 -11 0
v -16 -10 0
v -15 -10 0
v -9 -12 0
v -10 -12 0
v -10 -11 0
v -9 -11 0
v -10 -12 0
v -11 -12 0
v -11 -11 0
v -10 -11 0
v -11 -12 0
v -12 -12 0
v -12 -11 0
v -11 -11 0
v -12 -12 0
v -13 -12 0
v -13 -11 0
v -12 -11 0
v -13 -12 0
v -14 -12 0
v -14 -11 0
v -13 -11 0
v -14 -12 0
v -15 -12 0
v -15 -11 0
v -14 -11 0
v -15 -12 0
v -16 -12 0
v -16 -11 0
v -15 -11 0
v -9 -13 0
v -10 -13 0
v -10 -12 0
v -9 -12 0
v -10 -13 0
v -11 -13 0
v -11 -12 0
v -10 -12 0
v -13 -13 0
v -14 -13 0
v -14 -12 0
v -13 -12 0
v -14 -13 0
v -15 -13 0
v -15 -12 0
v -14 -12 0
v -15 -13 0
v -16 -13 0
v -16 -12 0
v -15 -12 0
v -9 -14 0
v -10 -14 0
v -10 -13 0
v -9 -13 0
v -10 -14 0
v -11 -14 0
v -11 -13 0
v -10 -13 0
v -13 -14 0
v -14 -14 0
v -14 -13 0
v -13 -13 0
v -14 -14 0
v -15 -14 0
v -15 -13 0
v -14 -13 0
v -15 -14 0
v -16 -14 0
v -16 -13 0
v -15 -13 0
v -9 -15 0
v -10 -15 0
v -10 -14 0
v -9 -14 0
v -10 -15 0
v -11 -15 0
v -11 -14 0
v -10 -14 0
v -11 -15 0
v -12 -15 0
v -12 -14 0
v -11 -14 0
v -12 -15 0
v -13 -15 0
v -13 -14 0
v -12 -14 0
v -13 -15 0
v -14 -15 0
v -14 -14 0
v -13 -14 0
v -14 -15 0
v -15 -15 0
v -15 -14 0
v -14 -14 0
v -15 -15 0
v -16 -15 0
v -16 -14 0
v -15 -14 0
v -9 -16 0
v -10 -16 0
v -10 -15 0
v -9 -15 0
v -10 -16 0
v -11 -16 0
v -11 -15 0
v -10 -15 0
v -11 -16 0
v -12 -16 0
v -12 -15 0
v -11 -15 0
v -12 -16 0
v -13 -16 0
v -13 -15 0
v -12 -15 0
v -13 -16 0
v -14 -16 0
v -14 -15 0
v -13 -15 0
v -14 -16 0
v -15 -16 0
v -15 -15 0
v -14 -15 0
v -15 -16 0
v -16 -16 0
v -16 -15 0
v -15 -15 0

# Texture cooridinates (Count = 9)
vt 0 0.8125
vt 0.0625 0.8125
vt 0.0625 0.875
vt 0 0.875
vt 0.125 0.8125
vt 0.125 0.875
vt 0.1875 0.75
vt 0.1875 0.8125
vt 0.125 0.75

# Normal
vn 0 0 -1

# Mesh description
g World_mesh_0029

# Faces
f 1/1/1 2/2/1 3/3/1 4/4/1
f 5/1/1 6/2/1 7/3/1 8/4/1
f 9/2/1 10/5/1 11/6/1 12/3/1
f 13/2/1 14/5/1 15/6/1 16/3/1
f 17/1/1 18/2/1 19/3/1 20/4/1
f 21/1/1 22/2/1 23/3/1 24/4/1
f 25/1/1 26/2/1 27/3/1 28/4/1
f 29/7/1 30/8/1 31/5/1 32/9/1
f 33/7/1 34/8/1 35/5/1 36/9/1
f 37/7/1 38/8/1 39/5/1 40/9/1
f 41/7/1 42/8/1 43/5/1 44/9/1
f 45/7/1 46/8/1 47/5/1 48/9/1
f 49/7/1 50/8/1 51/5/1 52/9/1
f 53/7/1 54/8/1 55/5/1 56/9/1
f 57/7/1 58/8/1 59/5/1 60/9/1
f 61/7/1 62/8/1 63/5/1 64/9/1
f 65/7/1 66/8/1 67/5/1 68/9/1
f 69/7/1 70/8/1 71/5/1 72/9/1
f 73/7/1 74/8/1 75/5/1 76/9/1
f 77/7/1 78/8/1 79/5/1 80/9/1
f 81/7/1 82/8/1 83/5/1 84/9/1
f 85/7/1 86/8/1 87/5/1 88/9/1
f 89/7/1 90/8/1 91/5/1 92/9/1
f 93/7/1 94/8/1 95/5/1 96/9/1
f 97/7/1 98/8/1 99/5/1 100/9/1
f 101/7/1 102/8/1 103/5/1 104/9/1
f 105/7/1 106/8/1 107/5/1 108/9/1
f 109/7/1 110/8/1 111/5/1 112/9/1
f 113/7/1 114/8/1 115/5/1 116/9/1
f 117/7/1 118/8/1 119/5/1 120/9/1
f 121/7/1 122/8/1 123/5/1 124/9/1
f 125/7/1 126/8/1 127/5/1 128/9/1
f 129/7/1 130/8/1 131/5/1 132/9/1
f 133/7/1 134/8/1 135/5/1 136/9/1
f 137/7/1 138/8/1 139/5/1 140/9/1
f 141/7/1 142/8/1 143/5/1 144/9/1
f 145/7/1 146/8/1 147/5/1 148/9/1
f 149/7/1 150/8/1 151/5/1 152/9/1

