# Tiled2Unity generated file. Do not modify by hand.
# Wavefront file for 'BackGround_mesh_0002.obj'

# Vertices (Count = 176)
v -20 -29 0
v -21 -29 0
v -21 -28 0
v -20 -28 0
v -21 -29 0
v -22 -29 0
v -22 -28 0
v -21 -28 0
v -22 -29 0
v -23 -29 0
v -23 -28 0
v -22 -28 0
v -23 -29 0
v -24 -29 0
v -24 -28 0
v -23 -28 0
v -24 -29 0
v -25 -29 0
v -25 -28 0
v -24 -28 0
v -20 -30 0
v -21 -30 0
v -21 -29 0
v -20 -29 0
v -21 -30 0
v -22 -30 0
v -22 -29 0
v -21 -29 0
v -22 -30 0
v -23 -30 0
v -23 -29 0
v -22 -29 0
v -23 -30 0
v -24 -30 0
v -24 -29 0
v -23 -29 0
v -24 -30 0
v -25 -30 0
v -25 -29 0
v -24 -29 0
v -36 -30 0
v -37 -30 0
v -37 -29 0
v -36 -29 0
v -37 -30 0
v -38 -30 0
v -38 -29 0
v -37 -29 0
v -38 -30 0
v -39 -30 0
v -39 -29 0
v -38 -29 0
v -39 -30 0
v -40 -30 0
v -40 -29 0
v -39 -29 0
v -20 -31 0
v -21 -31 0
v -21 -30 0
v -20 -30 0
v -21 -31 0
v -22 -31 0
v -22 -30 0
v -21 -30 0
v -22 -31 0
v -23 -31 0
v -23 -30 0
v -22 -30 0
v -23 -31 0
v -24 -31 0
v -24 -30 0
v -23 -30 0
v -24 -31 0
v -25 -31 0
v -25 -30 0
v -24 -30 0
v -36 -31 0
v -37 -31 0
v -37 -30 0
v -36 -30 0
v -37 -31 0
v -38 -31 0
v -38 -30 0
v -37 -30 0
v -39 -31 0
v -40 -31 0
v -40 -30 0
v -39 -30 0
v -31 -32 0
v -32 -32 0
v -32 -31 0
v -31 -31 0
v -32 -32 0
v -33 -32 0
v -33 -31 0
v -32 -31 0
v -33 -32 0
v -34 -32 0
v -34 -31 0
v -33 -31 0
v -34 -32 0
v -35 -32 0
v -35 -31 0
v -34 -31 0
v -35 -32 0
v -36 -32 0
v -36 -31 0
v -35 -31 0
v -36 -32 0
v -37 -32 0
v -37 -31 0
v -36 -31 0
v -39 -32 0
v -40 -32 0
v -40 -31 0
v -39 -31 0
v -40 -32 0
v -41 -32 0
v -41 -31 0
v -40 -31 0
v -41 -32 0
v -42 -32 0
v -42 -31 0
v -41 -31 0
v -42 -32 0
v -43 -32 0
v -43 -31 0
v -42 -31 0
v -43 -32 0
v -44 -32 0
v -44 -31 0
v -43 -31 0
v -44 -32 0
v -45 -32 0
v -45 -31 0
v -44 -31 0
v -31 -33 0
v -32 -33 0
v -32 -32 0
v -31 -32 0
v -32 -33 0
v -33 -33 0
v -33 -32 0
v -32 -32 0
v -33 -33 0
v -34 -33 0
v -34 -32 0
v -33 -32 0
v -34 -33 0
v -35 -33 0
v -35 -32 0
v -34 -32 0
v -36 -33 0
v -37 -33 0
v -37 -32 0
v -36 -32 0
v -39 -33 0
v -40 -33 0
v -40 -32 0
v -39 -32 0
v -40 -33 0
v -41 -33 0
v -41 -32 0
v -40 -32 0
v -42 -33 0
v -43 -33 0
v -43 -32 0
v -42 -32 0
v -43 -33 0
v -44 -33 0
v -44 -32 0
v -43 -32 0
v -44 -33 0
v -45 -33 0
v -45 -32 0
v -44 -32 0

# Texture cooridinates (Count = 33)
vt 0.3125 0.5625
vt 0.375 0.5625
vt 0.375 0.625
vt 0.3125 0.625
vt 0.4375 0.5625
vt 0.4375 0.625
vt 0.5 0.5625
vt 0.5 0.625
vt 0.3125 0.5
vt 0.375 0.5
vt 0.4375 0.5
vt 0.5 0.5
vt 0.0625 0.6875
vt 0.125 0.6875
vt 0.125 0.75
vt 0.0625 0.75
vt 0.1875 0.6875
vt 0.1875 0.75
vt 0.3125 0.4375
vt 0.375 0.4375
vt 0.4375 0.4375
vt 0.5 0.4375
vt 0.0625 0.625
vt 0.125 0.625
vt 0 0.6875
vt 0 0.75
vt 0.25 0.6875
vt 0.3125 0.6875
vt 0.3125 0.75
vt 0.25 0.75
vt 0 0.625
vt 0.1875 0.625
vt 0.25 0.625

# Normal
vn 0 0 -1

# Mesh description
g BackGround_mesh_0002

# Faces
f 1/1/1 2/2/1 3/3/1 4/4/1
f 5/2/1 6/5/1 7/6/1 8/3/1
f 9/2/1 10/5/1 11/6/1 12/3/1
f 13/2/1 14/5/1 15/6/1 16/3/1
f 17/5/1 18/7/1 19/8/1 20/6/1
f 21/9/1 22/10/1 23/2/1 24/1/1
f 25/9/1 26/10/1 27/2/1 28/1/1
f 29/10/1 30/11/1 31/5/1 32/2/1
f 33/10/1 34/11/1 35/5/1 36/2/1
f 37/11/1 38/12/1 39/7/1 40/5/1
f 41/13/1 42/14/1 43/15/1 44/16/1
f 45/14/1 46/17/1 47/18/1 48/15/1
f 49/14/1 50/17/1 51/18/1 52/15/1
f 53/13/1 54/14/1 55/15/1 56/16/1
f 57/19/1 58/20/1 59/10/1 60/9/1
f 61/20/1 62/21/1 63/11/1 64/10/1
f 65/20/1 66/21/1 67/11/1 68/10/1
f 69/20/1 70/21/1 71/11/1 72/10/1
f 73/21/1 74/22/1 75/12/1 76/11/1
f 77/23/1 78/24/1 79/14/1 80/13/1
f 81/23/1 82/24/1 83/14/1 84/13/1
f 85/23/1 86/24/1 87/14/1 88/13/1
f 89/25/1 90/13/1 91/16/1 92/26/1
f 93/13/1 94/14/1 95/15/1 96/16/1
f 97/14/1 98/17/1 99/18/1 100/15/1
f 101/13/1 102/14/1 103/15/1 104/16/1
f 105/14/1 106/17/1 107/18/1 108/15/1
f 109/27/1 110/28/1 111/29/1 112/30/1
f 113/25/1 114/13/1 115/16/1 116/26/1
f 117/13/1 118/14/1 119/15/1 120/16/1
f 121/14/1 122/17/1 123/18/1 124/15/1
f 125/13/1 126/14/1 127/15/1 128/16/1
f 129/17/1 130/27/1 131/30/1 132/18/1
f 133/27/1 134/28/1 135/29/1 136/30/1
f 137/31/1 138/23/1 139/13/1 140/25/1
f 141/23/1 142/24/1 143/14/1 144/13/1
f 145/24/1 146/32/1 147/17/1 148/14/1
f 149/23/1 150/24/1 151/14/1 152/13/1
f 153/33/1 154/4/1 155/28/1 156/27/1
f 157/31/1 158/23/1 159/13/1 160/25/1
f 161/24/1 162/32/1 163/17/1 164/14/1
f 165/23/1 166/24/1 167/14/1 168/13/1
f 169/24/1 170/32/1 171/17/1 172/14/1
f 173/33/1 174/4/1 175/28/1 176/27/1

