# Tiled2Unity generated file. Do not modify by hand.
# Wavefront file for '??????????_mesh_0005.obj'

# Vertices (Count = 88)
v -688 -752 0
v -704 -752 0
v -704 -736 0
v -688 -736 0
v -704 -752 0
v -720 -752 0
v -720 -736 0
v -704 -736 0
v -720 -752 0
v -736 -752 0
v -736 -736 0
v -720 -736 0
v -736 -752 0
v -752 -752 0
v -752 -736 0
v -736 -736 0
v -752 -752 0
v -768 -752 0
v -768 -736 0
v -752 -736 0
v -768 -752 0
v -784 -752 0
v -784 -736 0
v -768 -736 0
v -784 -752 0
v -800 -752 0
v -800 -736 0
v -784 -736 0
v -800 -752 0
v -816 -752 0
v -816 -736 0
v -800 -736 0
v -816 -752 0
v -832 -752 0
v -832 -736 0
v -816 -736 0
v -832 -752 0
v -848 -752 0
v -848 -736 0
v -832 -736 0
v -848 -752 0
v -864 -752 0
v -864 -736 0
v -848 -736 0
v -864 -752 0
v -880 -752 0
v -880 -736 0
v -864 -736 0
v -880 -752 0
v -896 -752 0
v -896 -736 0
v -880 -736 0
v -896 -752 0
v -912 -752 0
v -912 -736 0
v -896 -736 0
v -912 -752 0
v -928 -752 0
v -928 -736 0
v -912 -736 0
v -928 -752 0
v -944 -752 0
v -944 -736 0
v -928 -736 0
v -944 -752 0
v -960 -752 0
v -960 -736 0
v -944 -736 0
v -960 -752 0
v -976 -752 0
v -976 -736 0
v -960 -736 0
v -976 -752 0
v -992 -752 0
v -992 -736 0
v -976 -736 0
v -992 -752 0
v -1008 -752 0
v -1008 -736 0
v -992 -736 0
v -1008 -752 0
v -1024 -752 0
v -1024 -736 0
v -1008 -736 0
v -1024 -752 0
v -1040 -752 0
v -1040 -736 0
v -1024 -736 0

# Texture cooridinates (Count = 4)
vt 0.0625 0.8125
vt 0.125 0.8125
vt 0.125 0.875
vt 0.0625 0.875

# Normal
vn 0 0 -1

# Mesh description
g ??????????_mesh_0005

# Faces
f 1/1/1 2/2/1 3/3/1 4/4/1
f 5/1/1 6/2/1 7/3/1 8/4/1
f 9/1/1 10/2/1 11/3/1 12/4/1
f 13/1/1 14/2/1 15/3/1 16/4/1
f 17/1/1 18/2/1 19/3/1 20/4/1
f 21/1/1 22/2/1 23/3/1 24/4/1
f 25/1/1 26/2/1 27/3/1 28/4/1
f 29/1/1 30/2/1 31/3/1 32/4/1
f 33/1/1 34/2/1 35/3/1 36/4/1
f 37/1/1 38/2/1 39/3/1 40/4/1
f 41/1/1 42/2/1 43/3/1 44/4/1
f 45/1/1 46/2/1 47/3/1 48/4/1
f 49/1/1 50/2/1 51/3/1 52/4/1
f 53/1/1 54/2/1 55/3/1 56/4/1
f 57/1/1 58/2/1 59/3/1 60/4/1
f 61/1/1 62/2/1 63/3/1 64/4/1
f 65/1/1 66/2/1 67/3/1 68/4/1
f 69/1/1 70/2/1 71/3/1 72/4/1
f 73/1/1 74/2/1 75/3/1 76/4/1
f 77/1/1 78/2/1 79/3/1 80/4/1
f 81/1/1 82/2/1 83/3/1 84/4/1
f 85/1/1 86/2/1 87/3/1 88/4/1

