# Tiled2Unity generated file. Do not modify by hand.
# Wavefront file for 'World1_mesh_0137.obj'

# Vertices (Count = 24)
v -4 -9 0
v -5 -9 0
v -5 -8 0
v -4 -8 0
v -9 -9 0
v -10 -9 0
v -10 -8 0
v -9 -8 0
v -4 -10 0
v -5 -10 0
v -5 -9 0
v -4 -9 0
v -9 -10 0
v -10 -10 0
v -10 -9 0
v -9 -9 0
v -4 -11 0
v -5 -11 0
v -5 -10 0
v -4 -10 0
v -9 -11 0
v -10 -11 0
v -10 -10 0
v -9 -10 0

# Texture cooridinates (Count = 9)
vt 0.1875 0.75
vt 0.25 0.75
vt 0.25 0.8125
vt 0.1875 0.8125
vt 0.125 0.6875
vt 0.1875 0.6875
vt 0.125 0.75
vt 0.125 0.625
vt 0.1875 0.625

# Normal
vn 0 0 -1

# Mesh description
g World1_mesh_0137

# Faces
f 1/1/1 2/2/1 3/3/1 4/4/1
f 5/1/1 6/2/1 7/3/1 8/4/1
f 9/5/1 10/6/1 11/1/1 12/7/1
f 13/5/1 14/6/1 15/1/1 16/7/1
f 17/8/1 18/9/1 19/6/1 20/5/1
f 21/8/1 22/9/1 23/6/1 24/5/1

