# Tiled2Unity generated file. Do not modify by hand.
# Wavefront file for 'World1_mesh_0088.obj'

# Vertices (Count = 360)
v 0 -1 0
v -1 -1 0
v -1 0 0
v 0 0 0
v -1 -1 0
v -2 -1 0
v -2 0 0
v -1 0 0
v -2 -1 0
v -3 -1 0
v -3 0 0
v -2 0 0
v -3 -1 0
v -4 -1 0
v -4 0 0
v -3 0 0
v -4 -1 0
v -5 -1 0
v -5 0 0
v -4 0 0
v -5 -1 0
v -6 -1 0
v -6 0 0
v -5 0 0
v -6 -1 0
v -7 -1 0
v -7 0 0
v -6 0 0
v -7 -1 0
v -8 -1 0
v -8 0 0
v -7 0 0
v -8 -1 0
v -9 -1 0
v -9 0 0
v -8 0 0
v -15 -1 0
v -16 -1 0
v -16 0 0
v -15 0 0
v -8 -2 0
v -9 -2 0
v -9 -1 0
v -8 -1 0
v -9 -2 0
v -10 -2 0
v -10 -1 0
v -9 -1 0
v -10 -2 0
v -11 -2 0
v -11 -1 0
v -10 -1 0
v -11 -2 0
v -12 -2 0
v -12 -1 0
v -11 -1 0
v -12 -2 0
v -13 -2 0
v -13 -1 0
v -12 -1 0
v -13 -2 0
v -14 -2 0
v -14 -1 0
v -13 -1 0
v -14 -2 0
v -15 -2 0
v -15 -1 0
v -14 -1 0
v -15 -2 0
v -16 -2 0
v -16 -1 0
v -15 -1 0
v -8 -3 0
v -9 -3 0
v -9 -2 0
v -8 -2 0
v -9 -3 0
v -10 -3 0
v -10 -2 0
v -9 -2 0
v -10 -3 0
v -11 -3 0
v -11 -2 0
v -10 -2 0
v -11 -3 0
v -12 -3 0
v -12 -2 0
v -11 -2 0
v -12 -3 0
v -13 -3 0
v -13 -2 0
v -12 -2 0
v -13 -3 0
v -14 -3 0
v -14 -2 0
v -13 -2 0
v -14 -3 0
v -15 -3 0
v -15 -2 0
v -14 -2 0
v -15 -3 0
v -16 -3 0
v -16 -2 0
v -15 -2 0
v 0 -7 0
v -1 -7 0
v -1 -6 0
v 0 -6 0
v -1 -7 0
v -2 -7 0
v -2 -6 0
v -1 -6 0
v -2 -7 0
v -3 -7 0
v -3 -6 0
v -2 -6 0
v -3 -7 0
v -4 -7 0
v -4 -6 0
v -3 -6 0
v -4 -7 0
v -5 -7 0
v -5 -6 0
v -4 -6 0
v -5 -7 0
v -6 -7 0
v -6 -6 0
v -5 -6 0
v -6 -7 0
v -7 -7 0
v -7 -6 0
v -6 -6 0
v -7 -7 0
v -8 -7 0
v -8 -6 0
v -7 -6 0
v -8 -7 0
v -9 -7 0
v -9 -6 0
v -8 -6 0
v -9 -7 0
v -10 -7 0
v -10 -6 0
v -9 -6 0
v -10 -7 0
v -11 -7 0
v -11 -6 0
v -10 -6 0
v -11 -7 0
v -12 -7 0
v -12 -6 0
v -11 -6 0
v -12 -7 0
v -13 -7 0
v -13 -6 0
v -12 -6 0
v -13 -7 0
v -14 -7 0
v -14 -6 0
v -13 -6 0
v -14 -7 0
v -15 -7 0
v -15 -6 0
v -14 -6 0
v 0 -8 0
v -1 -8 0
v -1 -7 0
v 0 -7 0
v -1 -8 0
v -2 -8 0
v -2 -7 0
v -1 -7 0
v -2 -8 0
v -3 -8 0
v -3 -7 0
v -2 -7 0
v -3 -8 0
v -4 -8 0
v -4 -7 0
v -3 -7 0
v -4 -8 0
v -5 -8 0
v -5 -7 0
v -4 -7 0
v -5 -8 0
v -6 -8 0
v -6 -7 0
v -5 -7 0
v -6 -8 0
v -7 -8 0
v -7 -7 0
v -6 -7 0
v -7 -8 0
v -8 -8 0
v -8 -7 0
v -7 -7 0
v -8 -8 0
v -9 -8 0
v -9 -7 0
v -8 -7 0
v -9 -8 0
v -10 -8 0
v -10 -7 0
v -9 -7 0
v -10 -8 0
v -11 -8 0
v -11 -7 0
v -10 -7 0
v -11 -8 0
v -12 -8 0
v -12 -7 0
v -11 -7 0
v -12 -8 0
v -13 -8 0
v -13 -7 0
v -12 -7 0
v -13 -8 0
v -14 -8 0
v -14 -7 0
v -13 -7 0
v -14 -8 0
v -15 -8 0
v -15 -7 0
v -14 -7 0
v -14 -9 0
v -15 -9 0
v -15 -8 0
v -14 -8 0
v -14 -10 0
v -15 -10 0
v -15 -9 0
v -14 -9 0
v -14 -11 0
v -15 -11 0
v -15 -10 0
v -14 -10 0
v -14 -12 0
v -15 -12 0
v -15 -11 0
v -14 -11 0
v -14 -13 0
v -15 -13 0
v -15 -12 0
v -14 -12 0
v 0 -14 0
v -1 -14 0
v -1 -13 0
v 0 -13 0
v -1 -14 0
v -2 -14 0
v -2 -13 0
v -1 -13 0
v -2 -14 0
v -3 -14 0
v -3 -13 0
v -2 -13 0
v -3 -14 0
v -4 -14 0
v -4 -13 0
v -3 -13 0
v -4 -14 0
v -5 -14 0
v -5 -13 0
v -4 -13 0
v -5 -14 0
v -6 -14 0
v -6 -13 0
v -5 -13 0
v -6 -14 0
v -7 -14 0
v -7 -13 0
v -6 -13 0
v -7 -14 0
v -8 -14 0
v -8 -13 0
v -7 -13 0
v -8 -14 0
v -9 -14 0
v -9 -13 0
v -8 -13 0
v -9 -14 0
v -10 -14 0
v -10 -13 0
v -9 -13 0
v -10 -14 0
v -11 -14 0
v -11 -13 0
v -10 -13 0
v -13 -14 0
v -14 -14 0
v -14 -13 0
v -13 -13 0
v -14 -14 0
v -15 -14 0
v -15 -13 0
v -14 -13 0
v 0 -15 0
v -1 -15 0
v -1 -14 0
v 0 -14 0
v -1 -15 0
v -2 -15 0
v -2 -14 0
v -1 -14 0
v -2 -15 0
v -3 -15 0
v -3 -14 0
v -2 -14 0
v -3 -15 0
v -4 -15 0
v -4 -14 0
v -3 -14 0
v -4 -15 0
v -5 -15 0
v -5 -14 0
v -4 -14 0
v -5 -15 0
v -6 -15 0
v -6 -14 0
v -5 -14 0
v -6 -15 0
v -7 -15 0
v -7 -14 0
v -6 -14 0
v -7 -15 0
v -8 -15 0
v -8 -14 0
v -7 -14 0
v -8 -15 0
v -9 -15 0
v -9 -14 0
v -8 -14 0
v -9 -15 0
v -10 -15 0
v -10 -14 0
v -9 -14 0
v -10 -15 0
v -11 -15 0
v -11 -14 0
v -10 -14 0
v -13 -15 0
v -14 -15 0
v -14 -14 0
v -13 -14 0
v -14 -15 0
v -15 -15 0
v -15 -14 0
v -14 -14 0
v 0 -16 0
v -1 -16 0
v -1 -15 0
v 0 -15 0
v -10 -16 0
v -11 -16 0
v -11 -15 0
v -10 -15 0
v -13 -16 0
v -14 -16 0
v -14 -15 0
v -13 -15 0

# Texture cooridinates (Count = 24)
vt 0.0625 0.75
vt 0.125 0.75
vt 0.125 0.8125
vt 0.0625 0.8125
vt 0.25 0.875
vt 0.3125 0.875
vt 0.3125 0.9375
vt 0.25 0.9375
vt 0.125 0.875
vt 0.1875 0.875
vt 0.1875 0.9375
vt 0.125 0.9375
vt 0 0.8125
vt 0.0625 0.875
vt 0 0.875
vt 0 0.75
vt 0.1875 0.75
vt 0.1875 0.8125
vt 0.0625 0.9375
vt 0.125 1
vt 0.0625 1
vt 0.1875 1
vt 0.25 1
vt 0.3125 1

# Normal
vn 0 0 -1

# Mesh description
g World1_mesh_0088

# Faces
f 1/1/1 2/2/1 3/3/1 4/4/1
f 5/1/1 6/2/1 7/3/1 8/4/1
f 9/1/1 10/2/1 11/3/1 12/4/1
f 13/1/1 14/2/1 15/3/1 16/4/1
f 17/1/1 18/2/1 19/3/1 20/4/1
f 21/1/1 22/2/1 23/3/1 24/4/1
f 25/1/1 26/2/1 27/3/1 28/4/1
f 29/1/1 30/2/1 31/3/1 32/4/1
f 33/5/1 34/6/1 35/7/1 36/8/1
f 37/9/1 38/10/1 39/11/1 40/12/1
f 41/13/1 42/4/1 43/14/1 44/15/1
f 45/4/1 46/3/1 47/9/1 48/14/1
f 49/4/1 50/3/1 51/9/1 52/14/1
f 53/4/1 54/3/1 55/9/1 56/14/1
f 57/4/1 58/3/1 59/9/1 60/14/1
f 61/4/1 62/3/1 63/9/1 64/14/1
f 65/4/1 66/3/1 67/9/1 68/14/1
f 69/9/1 70/10/1 71/11/1 72/12/1
f 73/16/1 74/1/1 75/4/1 76/13/1
f 77/1/1 78/2/1 79/3/1 80/4/1
f 81/1/1 82/2/1 83/3/1 84/4/1
f 85/1/1 86/2/1 87/3/1 88/4/1
f 89/1/1 90/2/1 91/3/1 92/4/1
f 93/1/1 94/2/1 95/3/1 96/4/1
f 97/1/1 98/2/1 99/3/1 100/4/1
f 101/2/1 102/17/1 103/18/1 104/3/1
f 105/19/1 106/12/1 107/20/1 108/21/1
f 109/19/1 110/12/1 111/20/1 112/21/1
f 113/19/1 114/12/1 115/20/1 116/21/1
f 117/19/1 118/12/1 119/20/1 120/21/1
f 121/19/1 122/12/1 123/20/1 124/21/1
f 125/19/1 126/12/1 127/20/1 128/21/1
f 129/19/1 130/12/1 131/20/1 132/21/1
f 133/19/1 134/12/1 135/20/1 136/21/1
f 137/19/1 138/12/1 139/20/1 140/21/1
f 141/19/1 142/12/1 143/20/1 144/21/1
f 145/19/1 146/12/1 147/20/1 148/21/1
f 149/19/1 150/12/1 151/20/1 152/21/1
f 153/19/1 154/12/1 155/20/1 156/21/1
f 157/19/1 158/12/1 159/20/1 160/21/1
f 161/12/1 162/11/1 163/22/1 164/20/1
f 165/14/1 166/9/1 167/12/1 168/19/1
f 169/14/1 170/9/1 171/12/1 172/19/1
f 173/14/1 174/9/1 175/12/1 176/19/1
f 177/14/1 178/9/1 179/12/1 180/19/1
f 181/14/1 182/9/1 183/12/1 184/19/1
f 185/14/1 186/9/1 187/12/1 188/19/1
f 189/14/1 190/9/1 191/12/1 192/19/1
f 193/14/1 194/9/1 195/12/1 196/19/1
f 197/14/1 198/9/1 199/12/1 200/19/1
f 201/14/1 202/9/1 203/12/1 204/19/1
f 205/14/1 206/9/1 207/12/1 208/19/1
f 209/14/1 210/9/1 211/12/1 212/19/1
f 213/14/1 214/9/1 215/12/1 216/19/1
f 217/14/1 218/9/1 219/12/1 220/19/1
f 221/3/1 222/18/1 223/10/1 224/9/1
f 225/3/1 226/18/1 227/10/1 228/9/1
f 229/3/1 230/18/1 231/10/1 232/9/1
f 233/3/1 234/18/1 235/10/1 236/9/1
f 237/3/1 238/18/1 239/10/1 240/9/1
f 241/3/1 242/18/1 243/10/1 244/9/1
f 245/11/1 246/8/1 247/23/1 248/22/1
f 249/4/1 250/3/1 251/9/1 252/14/1
f 253/4/1 254/3/1 255/9/1 256/14/1
f 257/4/1 258/3/1 259/9/1 260/14/1
f 261/4/1 262/3/1 263/9/1 264/14/1
f 265/4/1 266/3/1 267/9/1 268/14/1
f 269/4/1 270/3/1 271/9/1 272/14/1
f 273/4/1 274/3/1 275/9/1 276/14/1
f 277/4/1 278/3/1 279/9/1 280/14/1
f 281/4/1 282/3/1 283/9/1 284/14/1
f 285/8/1 286/7/1 287/24/1 288/23/1
f 289/11/1 290/8/1 291/23/1 292/22/1
f 293/3/1 294/18/1 295/10/1 296/9/1
f 297/10/1 298/5/1 299/8/1 300/11/1
f 301/1/1 302/2/1 303/3/1 304/4/1
f 305/1/1 306/2/1 307/3/1 308/4/1
f 309/1/1 310/2/1 311/3/1 312/4/1
f 313/1/1 314/2/1 315/3/1 316/4/1
f 317/1/1 318/2/1 319/3/1 320/4/1
f 321/1/1 322/2/1 323/3/1 324/4/1
f 325/1/1 326/2/1 327/3/1 328/4/1
f 329/1/1 330/2/1 331/3/1 332/4/1
f 333/1/1 334/2/1 335/3/1 336/4/1
f 337/5/1 338/6/1 339/7/1 340/8/1
f 341/10/1 342/5/1 343/8/1 344/11/1
f 345/2/1 346/17/1 347/18/1 348/3/1
f 349/9/1 350/10/1 351/11/1 352/12/1
f 353/13/1 354/4/1 355/14/1 356/15/1
f 357/9/1 358/10/1 359/11/1 360/12/1

