# Tiled2Unity generated file. Do not modify by hand.
# Wavefront file for 'World1_mesh_0084.obj'

# Vertices (Count = 360)
v -15 -1 0
v -16 -1 0
v -16 0 0
v -15 0 0
v 0 -2 0
v -1 -2 0
v -1 -1 0
v 0 -1 0
v -1 -2 0
v -2 -2 0
v -2 -1 0
v -1 -1 0
v -2 -2 0
v -3 -2 0
v -3 -1 0
v -2 -1 0
v -3 -2 0
v -4 -2 0
v -4 -1 0
v -3 -1 0
v -4 -2 0
v -5 -2 0
v -5 -1 0
v -4 -1 0
v -7 -2 0
v -8 -2 0
v -8 -1 0
v -7 -1 0
v -8 -2 0
v -9 -2 0
v -9 -1 0
v -8 -1 0
v -9 -2 0
v -10 -2 0
v -10 -1 0
v -9 -1 0
v -10 -2 0
v -11 -2 0
v -11 -1 0
v -10 -1 0
v -11 -2 0
v -12 -2 0
v -12 -1 0
v -11 -1 0
v -12 -2 0
v -13 -2 0
v -13 -1 0
v -12 -1 0
v -13 -2 0
v -14 -2 0
v -14 -1 0
v -13 -1 0
v -14 -2 0
v -15 -2 0
v -15 -1 0
v -14 -1 0
v -15 -2 0
v -16 -2 0
v -16 -1 0
v -15 -1 0
v 0 -3 0
v -1 -3 0
v -1 -2 0
v 0 -2 0
v -1 -3 0
v -2 -3 0
v -2 -2 0
v -1 -2 0
v -2 -3 0
v -3 -3 0
v -3 -2 0
v -2 -2 0
v -3 -3 0
v -4 -3 0
v -4 -2 0
v -3 -2 0
v -4 -3 0
v -5 -3 0
v -5 -2 0
v -4 -2 0
v -7 -3 0
v -8 -3 0
v -8 -2 0
v -7 -2 0
v -8 -3 0
v -9 -3 0
v -9 -2 0
v -8 -2 0
v -9 -3 0
v -10 -3 0
v -10 -2 0
v -9 -2 0
v -10 -3 0
v -11 -3 0
v -11 -2 0
v -10 -2 0
v -11 -3 0
v -12 -3 0
v -12 -2 0
v -11 -2 0
v -12 -3 0
v -13 -3 0
v -13 -2 0
v -12 -2 0
v -13 -3 0
v -14 -3 0
v -14 -2 0
v -13 -2 0
v -14 -3 0
v -15 -3 0
v -15 -2 0
v -14 -2 0
v -15 -3 0
v -16 -3 0
v -16 -2 0
v -15 -2 0
v -4 -4 0
v -5 -4 0
v -5 -3 0
v -4 -3 0
v -7 -4 0
v -8 -4 0
v -8 -3 0
v -7 -3 0
v -4 -5 0
v -5 -5 0
v -5 -4 0
v -4 -4 0
v -7 -5 0
v -8 -5 0
v -8 -4 0
v -7 -4 0
v -4 -6 0
v -5 -6 0
v -5 -5 0
v -4 -5 0
v -7 -6 0
v -8 -6 0
v -8 -5 0
v -7 -5 0
v -4 -7 0
v -5 -7 0
v -5 -6 0
v -4 -6 0
v -7 -7 0
v -8 -7 0
v -8 -6 0
v -7 -6 0
v -4 -8 0
v -5 -8 0
v -5 -7 0
v -4 -7 0
v -7 -8 0
v -8 -8 0
v -8 -7 0
v -7 -7 0
v -4 -9 0
v -5 -9 0
v -5 -8 0
v -4 -8 0
v -7 -9 0
v -8 -9 0
v -8 -8 0
v -7 -8 0
v -4 -10 0
v -5 -10 0
v -5 -9 0
v -4 -9 0
v -7 -10 0
v -8 -10 0
v -8 -9 0
v -7 -9 0
v -4 -11 0
v -5 -11 0
v -5 -10 0
v -4 -10 0
v -7 -11 0
v -8 -11 0
v -8 -10 0
v -7 -10 0
v -8 -11 0
v -9 -11 0
v -9 -10 0
v -8 -10 0
v -9 -11 0
v -10 -11 0
v -10 -10 0
v -9 -10 0
v -10 -11 0
v -11 -11 0
v -11 -10 0
v -10 -10 0
v -11 -11 0
v -12 -11 0
v -12 -10 0
v -11 -10 0
v -12 -11 0
v -13 -11 0
v -13 -10 0
v -12 -10 0
v -13 -11 0
v -14 -11 0
v -14 -10 0
v -13 -10 0
v -14 -11 0
v -15 -11 0
v -15 -10 0
v -14 -10 0
v -15 -11 0
v -16 -11 0
v -16 -10 0
v -15 -10 0
v -4 -12 0
v -5 -12 0
v -5 -11 0
v -4 -11 0
v -7 -12 0
v -8 -12 0
v -8 -11 0
v -7 -11 0
v -8 -12 0
v -9 -12 0
v -9 -11 0
v -8 -11 0
v -9 -12 0
v -10 -12 0
v -10 -11 0
v -9 -11 0
v -10 -12 0
v -11 -12 0
v -11 -11 0
v -10 -11 0
v -11 -12 0
v -12 -12 0
v -12 -11 0
v -11 -11 0
v -12 -12 0
v -13 -12 0
v -13 -11 0
v -12 -11 0
v -13 -12 0
v -14 -12 0
v -14 -11 0
v -13 -11 0
v -14 -12 0
v -15 -12 0
v -15 -11 0
v -14 -11 0
v -15 -12 0
v -16 -12 0
v -16 -11 0
v -15 -11 0
v 0 -13 0
v -1 -13 0
v -1 -12 0
v 0 -12 0
v -1 -13 0
v -2 -13 0
v -2 -12 0
v -1 -12 0
v -2 -13 0
v -3 -13 0
v -3 -12 0
v -2 -12 0
v -3 -13 0
v -4 -13 0
v -4 -12 0
v -3 -12 0
v -4 -13 0
v -5 -13 0
v -5 -12 0
v -4 -12 0
v -7 -13 0
v -8 -13 0
v -8 -12 0
v -7 -12 0
v -8 -13 0
v -9 -13 0
v -9 -12 0
v -8 -12 0
v -15 -13 0
v -16 -13 0
v -16 -12 0
v -15 -12 0
v 0 -14 0
v -1 -14 0
v -1 -13 0
v 0 -13 0
v -1 -14 0
v -2 -14 0
v -2 -13 0
v -1 -13 0
v -2 -14 0
v -3 -14 0
v -3 -13 0
v -2 -13 0
v -3 -14 0
v -4 -14 0
v -4 -13 0
v -3 -13 0
v -4 -14 0
v -5 -14 0
v -5 -13 0
v -4 -13 0
v -7 -14 0
v -8 -14 0
v -8 -13 0
v -7 -13 0
v -8 -14 0
v -9 -14 0
v -9 -13 0
v -8 -13 0
v -15 -14 0
v -16 -14 0
v -16 -13 0
v -15 -13 0
v -15 -15 0
v -16 -15 0
v -16 -14 0
v -15 -14 0
v 0 -16 0
v -1 -16 0
v -1 -15 0
v 0 -15 0
v -1 -16 0
v -2 -16 0
v -2 -15 0
v -1 -15 0
v -2 -16 0
v -3 -16 0
v -3 -15 0
v -2 -15 0
v -3 -16 0
v -4 -16 0
v -4 -15 0
v -3 -15 0
v -4 -16 0
v -5 -16 0
v -5 -15 0
v -4 -15 0
v -5 -16 0
v -6 -16 0
v -6 -15 0
v -5 -15 0
v -6 -16 0
v -7 -16 0
v -7 -15 0
v -6 -15 0
v -7 -16 0
v -8 -16 0
v -8 -15 0
v -7 -15 0
v -8 -16 0
v -9 -16 0
v -9 -15 0
v -8 -15 0
v -15 -16 0
v -16 -16 0
v -16 -15 0
v -15 -15 0

# Texture cooridinates (Count = 28)
vt 0.125 0.875
vt 0.1875 0.875
vt 0.1875 0.9375
vt 0.125 0.9375
vt 0.0625 0.8125
vt 0.125 0.8125
vt 0.0625 0.875
vt 0.25 0.9375
vt 0.3125 0.9375
vt 0.3125 1
vt 0.25 1
vt 0.1875 1
vt 0.0625 0.75
vt 0.125 0.75
vt 0.25 0.875
vt 0.3125 0.875
vt 0.1875 0.75
vt 0.1875 0.8125
vt 0 0.875
vt 0.0625 0.9375
vt 0 0.9375
vt 0.0625 1
vt 0 1
vt 0.125 1
vt 0.25 0.8125
vt 0.3125 0.8125
vt 0.25 0.75
vt 0.3125 0.75

# Normal
vn 0 0 -1

# Mesh description
g World1_mesh_0084

# Faces
f 1/1/1 2/2/1 3/3/1 4/4/1
f 5/5/1 6/6/1 7/1/1 8/7/1
f 9/5/1 10/6/1 11/1/1 12/7/1
f 13/5/1 14/6/1 15/1/1 16/7/1
f 17/5/1 18/6/1 19/1/1 20/7/1
f 21/8/1 22/9/1 23/10/1 24/11/1
f 25/3/1 26/8/1 27/11/1 28/12/1
f 29/5/1 30/6/1 31/1/1 32/7/1
f 33/5/1 34/6/1 35/1/1 36/7/1
f 37/5/1 38/6/1 39/1/1 40/7/1
f 41/5/1 42/6/1 43/1/1 44/7/1
f 45/5/1 46/6/1 47/1/1 48/7/1
f 49/5/1 50/6/1 51/1/1 52/7/1
f 53/5/1 54/6/1 55/1/1 56/7/1
f 57/1/1 58/2/1 59/3/1 60/4/1
f 61/13/1 62/14/1 63/6/1 64/5/1
f 65/13/1 66/14/1 67/6/1 68/5/1
f 69/13/1 70/14/1 71/6/1 72/5/1
f 73/13/1 74/14/1 75/6/1 76/5/1
f 77/15/1 78/16/1 79/9/1 80/8/1
f 81/2/1 82/15/1 83/8/1 84/3/1
f 85/13/1 86/14/1 87/6/1 88/5/1
f 89/13/1 90/14/1 91/6/1 92/5/1
f 93/13/1 94/14/1 95/6/1 96/5/1
f 97/13/1 98/14/1 99/6/1 100/5/1
f 101/13/1 102/14/1 103/6/1 104/5/1
f 105/13/1 106/14/1 107/6/1 108/5/1
f 109/13/1 110/14/1 111/6/1 112/5/1
f 113/14/1 114/17/1 115/18/1 116/6/1
f 117/19/1 118/7/1 119/20/1 120/21/1
f 121/1/1 122/2/1 123/3/1 124/4/1
f 125/19/1 126/7/1 127/20/1 128/21/1
f 129/1/1 130/2/1 131/3/1 132/4/1
f 133/19/1 134/7/1 135/20/1 136/21/1
f 137/1/1 138/2/1 139/3/1 140/4/1
f 141/19/1 142/7/1 143/20/1 144/21/1
f 145/1/1 146/2/1 147/3/1 148/4/1
f 149/19/1 150/7/1 151/20/1 152/21/1
f 153/1/1 154/2/1 155/3/1 156/4/1
f 157/19/1 158/7/1 159/20/1 160/21/1
f 161/1/1 162/2/1 163/3/1 164/4/1
f 165/19/1 166/7/1 167/20/1 168/21/1
f 169/1/1 170/2/1 171/3/1 172/4/1
f 173/19/1 174/7/1 175/20/1 176/21/1
f 177/1/1 178/2/1 179/3/1 180/4/1
f 181/21/1 182/20/1 183/22/1 184/23/1
f 185/20/1 186/4/1 187/24/1 188/22/1
f 189/20/1 190/4/1 191/24/1 192/22/1
f 193/20/1 194/4/1 195/24/1 196/22/1
f 197/20/1 198/4/1 199/24/1 200/22/1
f 201/20/1 202/4/1 203/24/1 204/22/1
f 205/20/1 206/4/1 207/24/1 208/22/1
f 209/4/1 210/3/1 211/12/1 212/24/1
f 213/19/1 214/7/1 215/20/1 216/21/1
f 217/1/1 218/2/1 219/3/1 220/4/1
f 221/19/1 222/7/1 223/20/1 224/21/1
f 225/7/1 226/1/1 227/4/1 228/20/1
f 229/7/1 230/1/1 231/4/1 232/20/1
f 233/7/1 234/1/1 235/4/1 236/20/1
f 237/7/1 238/1/1 239/4/1 240/20/1
f 241/7/1 242/1/1 243/4/1 244/20/1
f 245/7/1 246/1/1 247/4/1 248/20/1
f 249/1/1 250/2/1 251/3/1 252/4/1
f 253/20/1 254/4/1 255/24/1 256/22/1
f 257/20/1 258/4/1 259/24/1 260/22/1
f 261/20/1 262/4/1 263/24/1 264/22/1
f 265/20/1 266/4/1 267/24/1 268/22/1
f 269/25/1 270/26/1 271/16/1 272/15/1
f 273/18/1 274/25/1 275/15/1 276/2/1
f 277/25/1 278/26/1 279/16/1 280/15/1
f 281/1/1 282/2/1 283/3/1 284/4/1
f 285/7/1 286/1/1 287/4/1 288/20/1
f 289/7/1 290/1/1 291/4/1 292/20/1
f 293/7/1 294/1/1 295/4/1 296/20/1
f 297/7/1 298/1/1 299/4/1 300/20/1
f 301/27/1 302/28/1 303/26/1 304/25/1
f 305/17/1 306/27/1 307/25/1 308/18/1
f 309/27/1 310/28/1 311/26/1 312/25/1
f 313/1/1 314/2/1 315/3/1 316/4/1
f 317/1/1 318/2/1 319/3/1 320/4/1
f 321/5/1 322/6/1 323/1/1 324/7/1
f 325/5/1 326/6/1 327/1/1 328/7/1
f 329/5/1 330/6/1 331/1/1 332/7/1
f 333/5/1 334/6/1 335/1/1 336/7/1
f 337/5/1 338/6/1 339/1/1 340/7/1
f 341/5/1 342/6/1 343/1/1 344/7/1
f 345/5/1 346/6/1 347/1/1 348/7/1
f 349/5/1 350/6/1 351/1/1 352/7/1
f 353/8/1 354/9/1 355/10/1 356/11/1
f 357/1/1 358/2/1 359/3/1 360/4/1

