# Tiled2Unity generated file. Do not modify by hand.
# Wavefront file for 'World1_mesh_0102.obj'

# Vertices (Count = 352)
v -4 -1 0
v -5 -1 0
v -5 0 0
v -4 0 0
v -5 -1 0
v -6 -1 0
v -6 0 0
v -5 0 0
v -6 -1 0
v -7 -1 0
v -7 0 0
v -6 0 0
v -11 -1 0
v -12 -1 0
v -12 0 0
v -11 0 0
v -12 -1 0
v -13 -1 0
v -13 0 0
v -12 0 0
v -13 -1 0
v -14 -1 0
v -14 0 0
v -13 0 0
v 0 -2 0
v -1 -2 0
v -1 -1 0
v 0 -1 0
v -3 -2 0
v -4 -2 0
v -4 -1 0
v -3 -1 0
v -4 -2 0
v -5 -2 0
v -5 -1 0
v -4 -1 0
v -5 -2 0
v -6 -2 0
v -6 -1 0
v -5 -1 0
v -6 -2 0
v -7 -2 0
v -7 -1 0
v -6 -1 0
v -7 -2 0
v -8 -2 0
v -8 -1 0
v -7 -1 0
v -10 -2 0
v -11 -2 0
v -11 -1 0
v -10 -1 0
v -11 -2 0
v -12 -2 0
v -12 -1 0
v -11 -1 0
v -12 -2 0
v -13 -2 0
v -13 -1 0
v -12 -1 0
v -13 -2 0
v -14 -2 0
v -14 -1 0
v -13 -1 0
v -14 -2 0
v -15 -2 0
v -15 -1 0
v -14 -1 0
v 0 -3 0
v -1 -3 0
v -1 -2 0
v 0 -2 0
v -3 -3 0
v -4 -3 0
v -4 -2 0
v -3 -2 0
v -4 -3 0
v -5 -3 0
v -5 -2 0
v -4 -2 0
v -6 -3 0
v -7 -3 0
v -7 -2 0
v -6 -2 0
v -7 -3 0
v -8 -3 0
v -8 -2 0
v -7 -2 0
v -10 -3 0
v -11 -3 0
v -11 -2 0
v -10 -2 0
v -11 -3 0
v -12 -3 0
v -12 -2 0
v -11 -2 0
v -13 -3 0
v -14 -3 0
v -14 -2 0
v -13 -2 0
v -14 -3 0
v -15 -3 0
v -15 -2 0
v -14 -2 0
v 0 -4 0
v -1 -4 0
v -1 -3 0
v 0 -3 0
v -3 -4 0
v -4 -4 0
v -4 -3 0
v -3 -3 0
v -4 -4 0
v -5 -4 0
v -5 -3 0
v -4 -3 0
v -6 -4 0
v -7 -4 0
v -7 -3 0
v -6 -3 0
v -7 -4 0
v -8 -4 0
v -8 -3 0
v -7 -3 0
v -10 -4 0
v -11 -4 0
v -11 -3 0
v -10 -3 0
v -11 -4 0
v -12 -4 0
v -12 -3 0
v -11 -3 0
v -13 -4 0
v -14 -4 0
v -14 -3 0
v -13 -3 0
v -14 -4 0
v -15 -4 0
v -15 -3 0
v -14 -3 0
v 0 -5 0
v -1 -5 0
v -1 -4 0
v 0 -4 0
v -3 -5 0
v -4 -5 0
v -4 -4 0
v -3 -4 0
v -4 -5 0
v -5 -5 0
v -5 -4 0
v -4 -4 0
v -5 -5 0
v -6 -5 0
v -6 -4 0
v -5 -4 0
v -6 -5 0
v -7 -5 0
v -7 -4 0
v -6 -4 0
v -7 -5 0
v -8 -5 0
v -8 -4 0
v -7 -4 0
v -10 -5 0
v -11 -5 0
v -11 -4 0
v -10 -4 0
v -11 -5 0
v -12 -5 0
v -12 -4 0
v -11 -4 0
v -12 -5 0
v -13 -5 0
v -13 -4 0
v -12 -4 0
v -13 -5 0
v -14 -5 0
v -14 -4 0
v -13 -4 0
v -14 -5 0
v -15 -5 0
v -15 -4 0
v -14 -4 0
v -4 -6 0
v -5 -6 0
v -5 -5 0
v -4 -5 0
v -5 -6 0
v -6 -6 0
v -6 -5 0
v -5 -5 0
v -6 -6 0
v -7 -6 0
v -7 -5 0
v -6 -5 0
v -11 -6 0
v -12 -6 0
v -12 -5 0
v -11 -5 0
v -12 -6 0
v -13 -6 0
v -13 -5 0
v -12 -5 0
v -13 -6 0
v -14 -6 0
v -14 -5 0
v -13 -5 0
v -4 -8 0
v -5 -8 0
v -5 -7 0
v -4 -7 0
v -5 -8 0
v -6 -8 0
v -6 -7 0
v -5 -7 0
v -6 -8 0
v -7 -8 0
v -7 -7 0
v -6 -7 0
v -11 -8 0
v -12 -8 0
v -12 -7 0
v -11 -7 0
v -12 -8 0
v -13 -8 0
v -13 -7 0
v -12 -7 0
v -13 -8 0
v -14 -8 0
v -14 -7 0
v -13 -7 0
v 0 -9 0
v -1 -9 0
v -1 -8 0
v 0 -8 0
v -1 -9 0
v -2 -9 0
v -2 -8 0
v -1 -8 0
v -2 -9 0
v -3 -9 0
v -3 -8 0
v -2 -8 0
v -3 -9 0
v -4 -9 0
v -4 -8 0
v -3 -8 0
v -4 -9 0
v -5 -9 0
v -5 -8 0
v -4 -8 0
v -5 -9 0
v -6 -9 0
v -6 -8 0
v -5 -8 0
v -6 -9 0
v -7 -9 0
v -7 -8 0
v -6 -8 0
v -7 -9 0
v -8 -9 0
v -8 -8 0
v -7 -8 0
v -8 -9 0
v -9 -9 0
v -9 -8 0
v -8 -8 0
v -9 -9 0
v -10 -9 0
v -10 -8 0
v -9 -8 0
v -10 -9 0
v -11 -9 0
v -11 -8 0
v -10 -8 0
v -11 -9 0
v -12 -9 0
v -12 -8 0
v -11 -8 0
v -12 -9 0
v -13 -9 0
v -13 -8 0
v -12 -8 0
v -13 -9 0
v -14 -9 0
v -14 -8 0
v -13 -8 0
v -14 -9 0
v -15 -9 0
v -15 -8 0
v -14 -8 0
v -15 -9 0
v -16 -9 0
v -16 -8 0
v -15 -8 0
v 0 -10 0
v -1 -10 0
v -1 -9 0
v 0 -9 0
v -1 -10 0
v -2 -10 0
v -2 -9 0
v -1 -9 0
v -2 -10 0
v -3 -10 0
v -3 -9 0
v -2 -9 0
v -3 -10 0
v -4 -10 0
v -4 -9 0
v -3 -9 0
v -4 -10 0
v -5 -10 0
v -5 -9 0
v -4 -9 0
v -6 -10 0
v -7 -10 0
v -7 -9 0
v -6 -9 0
v -7 -10 0
v -8 -10 0
v -8 -9 0
v -7 -9 0
v -8 -10 0
v -9 -10 0
v -9 -9 0
v -8 -9 0
v -9 -10 0
v -10 -10 0
v -10 -9 0
v -9 -9 0
v -10 -10 0
v -11 -10 0
v -11 -9 0
v -10 -9 0
v -11 -10 0
v -12 -10 0
v -12 -9 0
v -11 -9 0
v -13 -10 0
v -14 -10 0
v -14 -9 0
v -13 -9 0
v -14 -10 0
v -15 -10 0
v -15 -9 0
v -14 -9 0
v -15 -10 0
v -16 -10 0
v -16 -9 0
v -15 -9 0

# Texture cooridinates (Count = 29)
vt 0.1875 0.9375
vt 0.25 0.9375
vt 0.25 1
vt 0.1875 1
vt 0.0625 0.8125
vt 0.125 0.8125
vt 0.125 0.875
vt 0.0625 0.875
vt 0.3125 0.9375
vt 0.3125 1
vt 0.1875 0.875
vt 0.25 0.875
vt 0.0625 0.75
vt 0.125 0.75
vt 0.3125 0.875
vt 0.1875 0.75
vt 0.1875 0.8125
vt 0 0.75
vt 0 0.8125
vt 0.25 0.8125
vt 0.3125 0.8125
vt 0.125 0.9375
vt 0.125 1
vt 0 0.9375
vt 0.0625 0.9375
vt 0.0625 1
vt 0 1
vt 0.25 0.75
vt 0.3125 0.75

# Normal
vn 0 0 -1

# Mesh description
g World1_mesh_0102

# Faces
f 1/1/1 2/2/1 3/3/1 4/4/1
f 5/5/1 6/6/1 7/7/1 8/8/1
f 9/2/1 10/9/1 11/10/1 12/3/1
f 13/1/1 14/2/1 15/3/1 16/4/1
f 17/5/1 18/6/1 19/7/1 20/8/1
f 21/2/1 22/9/1 23/10/1 24/3/1
f 25/2/1 26/9/1 27/10/1 28/3/1
f 29/1/1 30/2/1 31/3/1 32/4/1
f 33/11/1 34/12/1 35/2/1 36/1/1
f 37/13/1 38/14/1 39/6/1 40/5/1
f 41/12/1 42/15/1 43/9/1 44/2/1
f 45/2/1 46/9/1 47/10/1 48/3/1
f 49/1/1 50/2/1 51/3/1 52/4/1
f 53/11/1 54/12/1 55/2/1 56/1/1
f 57/13/1 58/14/1 59/6/1 60/5/1
f 61/12/1 62/15/1 63/9/1 64/2/1
f 65/2/1 66/9/1 67/10/1 68/3/1
f 69/12/1 70/15/1 71/9/1 72/2/1
f 73/11/1 74/12/1 75/2/1 76/1/1
f 77/14/1 78/16/1 79/17/1 80/6/1
f 81/18/1 82/13/1 83/5/1 84/19/1
f 85/12/1 86/15/1 87/9/1 88/2/1
f 89/11/1 90/12/1 91/2/1 92/1/1
f 93/14/1 94/16/1 95/17/1 96/6/1
f 97/18/1 98/13/1 99/5/1 100/19/1
f 101/12/1 102/15/1 103/9/1 104/2/1
f 105/20/1 106/21/1 107/15/1 108/12/1
f 109/17/1 110/20/1 111/12/1 112/11/1
f 113/22/1 114/1/1 115/4/1 116/23/1
f 117/24/1 118/25/1 119/26/1 120/27/1
f 121/20/1 122/21/1 123/15/1 124/12/1
f 125/17/1 126/20/1 127/12/1 128/11/1
f 129/22/1 130/1/1 131/4/1 132/23/1
f 133/24/1 134/25/1 135/26/1 136/27/1
f 137/20/1 138/21/1 139/15/1 140/12/1
f 141/28/1 142/29/1 143/21/1 144/20/1
f 145/16/1 146/28/1 147/20/1 148/17/1
f 149/17/1 150/20/1 151/12/1 152/11/1
f 153/25/1 154/22/1 155/23/1 156/26/1
f 157/20/1 158/21/1 159/15/1 160/12/1
f 161/28/1 162/29/1 163/21/1 164/20/1
f 165/16/1 166/28/1 167/20/1 168/17/1
f 169/17/1 170/20/1 171/12/1 172/11/1
f 173/25/1 174/22/1 175/23/1 176/26/1
f 177/20/1 178/21/1 179/15/1 180/12/1
f 181/28/1 182/29/1 183/21/1 184/20/1
f 185/16/1 186/28/1 187/20/1 188/17/1
f 189/8/1 190/7/1 191/22/1 192/25/1
f 193/28/1 194/29/1 195/21/1 196/20/1
f 197/16/1 198/28/1 199/20/1 200/17/1
f 201/8/1 202/7/1 203/22/1 204/25/1
f 205/28/1 206/29/1 207/21/1 208/20/1
f 209/1/1 210/2/1 211/3/1 212/4/1
f 213/5/1 214/6/1 215/7/1 216/8/1
f 217/2/1 218/9/1 219/10/1 220/3/1
f 221/1/1 222/2/1 223/3/1 224/4/1
f 225/5/1 226/6/1 227/7/1 228/8/1
f 229/2/1 230/9/1 231/10/1 232/3/1
f 233/5/1 234/6/1 235/7/1 236/8/1
f 237/5/1 238/6/1 239/7/1 240/8/1
f 241/5/1 242/6/1 243/7/1 244/8/1
f 245/5/1 246/6/1 247/7/1 248/8/1
f 249/11/1 250/12/1 251/2/1 252/1/1
f 253/13/1 254/14/1 255/6/1 256/5/1
f 257/12/1 258/15/1 259/9/1 260/2/1
f 261/5/1 262/6/1 263/7/1 264/8/1
f 265/5/1 266/6/1 267/7/1 268/8/1
f 269/5/1 270/6/1 271/7/1 272/8/1
f 273/5/1 274/6/1 275/7/1 276/8/1
f 277/11/1 278/12/1 279/2/1 280/1/1
f 281/13/1 282/14/1 283/6/1 284/5/1
f 285/12/1 286/15/1 287/9/1 288/2/1
f 289/5/1 290/6/1 291/7/1 292/8/1
f 293/5/1 294/6/1 295/7/1 296/8/1
f 297/13/1 298/14/1 299/6/1 300/5/1
f 301/13/1 302/14/1 303/6/1 304/5/1
f 305/13/1 306/14/1 307/6/1 308/5/1
f 309/13/1 310/14/1 311/6/1 312/5/1
f 313/14/1 314/16/1 315/17/1 316/6/1
f 317/18/1 318/13/1 319/5/1 320/19/1
f 321/13/1 322/14/1 323/6/1 324/5/1
f 325/13/1 326/14/1 327/6/1 328/5/1
f 329/13/1 330/14/1 331/6/1 332/5/1
f 333/13/1 334/14/1 335/6/1 336/5/1
f 337/14/1 338/16/1 339/17/1 340/6/1
f 341/18/1 342/13/1 343/5/1 344/19/1
f 345/13/1 346/14/1 347/6/1 348/5/1
f 349/13/1 350/14/1 351/6/1 352/5/1

