# Tiled2Unity generated file. Do not modify by hand.
# Wavefront file for 'World1_mesh_0127.obj'

# Vertices (Count = 20)
v -3 -14 0
v -4 -14 0
v -4 -13 0
v -3 -13 0
v -10 -14 0
v -11 -14 0
v -11 -13 0
v -10 -13 0
v -11 -14 0
v -12 -14 0
v -12 -13 0
v -11 -13 0
v -15 -14 0
v -16 -14 0
v -16 -13 0
v -15 -13 0
v -4 -15 0
v -5 -15 0
v -5 -14 0
v -4 -14 0

# Texture cooridinates (Count = 14)
vt 0.25 0.875
vt 0.3125 0.875
vt 0.3125 0.9375
vt 0.25 0.9375
vt 0.1875 0.9375
vt 0.25 1
vt 0.1875 1
vt 0.3125 1
vt 0.25 0.8125
vt 0.3125 0.8125
vt 0.0625 0.75
vt 0.125 0.75
vt 0.125 0.8125
vt 0.0625 0.8125

# Normal
vn 0 0 -1

# Mesh description
g World1_mesh_0127

# Faces
f 1/1/1 2/2/1 3/3/1 4/4/1
f 5/5/1 6/4/1 7/6/1 8/7/1
f 9/4/1 10/3/1 11/8/1 12/6/1
f 13/9/1 14/10/1 15/2/1 16/1/1
f 17/11/1 18/12/1 19/13/1 20/14/1

