# Tiled2Unity generated file. Do not modify by hand.
# Wavefront file for 'World1_mesh_0120.obj'

# Vertices (Count = 376)
v 0 -1 0
v -1 -1 0
v -1 0 0
v 0 0 0
v -3 -1 0
v -4 -1 0
v -4 0 0
v -3 0 0
v -9 -1 0
v -10 -1 0
v -10 0 0
v -9 0 0
v 0 -2 0
v -1 -2 0
v -1 -1 0
v 0 -1 0
v -1 -2 0
v -2 -2 0
v -2 -1 0
v -1 -1 0
v -2 -2 0
v -3 -2 0
v -3 -1 0
v -2 -1 0
v -3 -2 0
v -4 -2 0
v -4 -1 0
v -3 -1 0
v -9 -2 0
v -10 -2 0
v -10 -1 0
v -9 -1 0
v -9 -3 0
v -10 -3 0
v -10 -2 0
v -9 -2 0
v -9 -4 0
v -10 -4 0
v -10 -3 0
v -9 -3 0
v 0 -5 0
v -1 -5 0
v -1 -4 0
v 0 -4 0
v -3 -5 0
v -4 -5 0
v -4 -4 0
v -3 -4 0
v -4 -5 0
v -5 -5 0
v -5 -4 0
v -4 -4 0
v -5 -5 0
v -6 -5 0
v -6 -4 0
v -5 -4 0
v -6 -5 0
v -7 -5 0
v -7 -4 0
v -6 -4 0
v -7 -5 0
v -8 -5 0
v -8 -4 0
v -7 -4 0
v -8 -5 0
v -9 -5 0
v -9 -4 0
v -8 -4 0
v -9 -5 0
v -10 -5 0
v -10 -4 0
v -9 -4 0
v 0 -6 0
v -1 -6 0
v -1 -5 0
v 0 -5 0
v -3 -6 0
v -4 -6 0
v -4 -5 0
v -3 -5 0
v -4 -6 0
v -5 -6 0
v -5 -5 0
v -4 -5 0
v -5 -6 0
v -6 -6 0
v -6 -5 0
v -5 -5 0
v -6 -6 0
v -7 -6 0
v -7 -5 0
v -6 -5 0
v -7 -6 0
v -8 -6 0
v -8 -5 0
v -7 -5 0
v -8 -6 0
v -9 -6 0
v -9 -5 0
v -8 -5 0
v -9 -6 0
v -10 -6 0
v -10 -5 0
v -9 -5 0
v -12 -6 0
v -13 -6 0
v -13 -5 0
v -12 -5 0
v -13 -6 0
v -14 -6 0
v -14 -5 0
v -13 -5 0
v -14 -6 0
v -15 -6 0
v -15 -5 0
v -14 -5 0
v -15 -6 0
v -16 -6 0
v -16 -5 0
v -15 -5 0
v 0 -7 0
v -1 -7 0
v -1 -6 0
v 0 -6 0
v -3 -7 0
v -4 -7 0
v -4 -6 0
v -3 -6 0
v -12 -7 0
v -13 -7 0
v -13 -6 0
v -12 -6 0
v -13 -7 0
v -14 -7 0
v -14 -6 0
v -13 -6 0
v -14 -7 0
v -15 -7 0
v -15 -6 0
v -14 -6 0
v -15 -7 0
v -16 -7 0
v -16 -6 0
v -15 -6 0
v 0 -8 0
v -1 -8 0
v -1 -7 0
v 0 -7 0
v -3 -8 0
v -4 -8 0
v -4 -7 0
v -3 -7 0
v -12 -8 0
v -13 -8 0
v -13 -7 0
v -12 -7 0
v 0 -9 0
v -1 -9 0
v -1 -8 0
v 0 -8 0
v -3 -9 0
v -4 -9 0
v -4 -8 0
v -3 -8 0
v -4 -9 0
v -5 -9 0
v -5 -8 0
v -4 -8 0
v -5 -9 0
v -6 -9 0
v -6 -8 0
v -5 -8 0
v -12 -9 0
v -13 -9 0
v -13 -8 0
v -12 -8 0
v 0 -10 0
v -1 -10 0
v -1 -9 0
v 0 -9 0
v -3 -10 0
v -4 -10 0
v -4 -9 0
v -3 -9 0
v -4 -10 0
v -5 -10 0
v -5 -9 0
v -4 -9 0
v -5 -10 0
v -6 -10 0
v -6 -9 0
v -5 -9 0
v -12 -10 0
v -13 -10 0
v -13 -9 0
v -12 -9 0
v -5 -11 0
v -6 -11 0
v -6 -10 0
v -5 -10 0
v -6 -11 0
v -7 -11 0
v -7 -10 0
v -6 -10 0
v -7 -11 0
v -8 -11 0
v -8 -10 0
v -7 -10 0
v -8 -11 0
v -9 -11 0
v -9 -10 0
v -8 -10 0
v -9 -11 0
v -10 -11 0
v -10 -10 0
v -9 -10 0
v -10 -11 0
v -11 -11 0
v -11 -10 0
v -10 -10 0
v -11 -11 0
v -12 -11 0
v -12 -10 0
v -11 -10 0
v -12 -11 0
v -13 -11 0
v -13 -10 0
v -12 -10 0
v -5 -12 0
v -6 -12 0
v -6 -11 0
v -5 -11 0
v -6 -12 0
v -7 -12 0
v -7 -11 0
v -6 -11 0
v -7 -12 0
v -8 -12 0
v -8 -11 0
v -7 -11 0
v -8 -12 0
v -9 -12 0
v -9 -11 0
v -8 -11 0
v -9 -12 0
v -10 -12 0
v -10 -11 0
v -9 -11 0
v -10 -12 0
v -11 -12 0
v -11 -11 0
v -10 -11 0
v -11 -12 0
v -12 -12 0
v -12 -11 0
v -11 -11 0
v -12 -12 0
v -13 -12 0
v -13 -11 0
v -12 -11 0
v -5 -14 0
v -6 -14 0
v -6 -13 0
v -5 -13 0
v -6 -14 0
v -7 -14 0
v -7 -13 0
v -6 -13 0
v -7 -14 0
v -8 -14 0
v -8 -13 0
v -7 -13 0
v -8 -14 0
v -9 -14 0
v -9 -13 0
v -8 -13 0
v -9 -14 0
v -10 -14 0
v -10 -13 0
v -9 -13 0
v -10 -14 0
v -11 -14 0
v -11 -13 0
v -10 -13 0
v -11 -14 0
v -12 -14 0
v -12 -13 0
v -11 -13 0
v -12 -14 0
v -13 -14 0
v -13 -13 0
v -12 -13 0
v -5 -15 0
v -6 -15 0
v -6 -14 0
v -5 -14 0
v -6 -15 0
v -7 -15 0
v -7 -14 0
v -6 -14 0
v -7 -15 0
v -8 -15 0
v -8 -14 0
v -7 -14 0
v -8 -15 0
v -9 -15 0
v -9 -14 0
v -8 -14 0
v -9 -15 0
v -10 -15 0
v -10 -14 0
v -9 -14 0
v -10 -15 0
v -11 -15 0
v -11 -14 0
v -10 -14 0
v -11 -15 0
v -12 -15 0
v -12 -14 0
v -11 -14 0
v -12 -15 0
v -13 -15 0
v -13 -14 0
v -12 -14 0
v -13 -15 0
v -14 -15 0
v -14 -14 0
v -13 -14 0
v -14 -15 0
v -15 -15 0
v -15 -14 0
v -14 -14 0
v -15 -15 0
v -16 -15 0
v -16 -14 0
v -15 -14 0
v 0 -16 0
v -1 -16 0
v -1 -15 0
v 0 -15 0
v -1 -16 0
v -2 -16 0
v -2 -15 0
v -1 -15 0
v -2 -16 0
v -3 -16 0
v -3 -15 0
v -2 -15 0
v -3 -16 0
v -4 -16 0
v -4 -15 0
v -3 -15 0
v -4 -16 0
v -5 -16 0
v -5 -15 0
v -4 -15 0
v -5 -16 0
v -6 -16 0
v -6 -15 0
v -5 -15 0
v -12 -16 0
v -13 -16 0
v -13 -15 0
v -12 -15 0
v -13 -16 0
v -14 -16 0
v -14 -15 0
v -13 -15 0
v -14 -16 0
v -15 -16 0
v -15 -15 0
v -14 -15 0
v -15 -16 0
v -16 -16 0
v -16 -15 0
v -15 -15 0

# Texture cooridinates (Count = 30)
vt 0 0.875
vt 0.0625 0.875
vt 0.0625 0.9375
vt 0 0.9375
vt 0.125 0.8125
vt 0.1875 0.8125
vt 0.1875 0.875
vt 0.125 0.875
vt 0.0625 0.8125
vt 0.25 0.9375
vt 0.3125 0.9375
vt 0.3125 1
vt 0.25 1
vt 0.1875 0.9375
vt 0.1875 1
vt 0.25 0.875
vt 0.3125 0.875
vt 0.0625 0.75
vt 0.125 0.75
vt 0.1875 0.75
vt 0.0625 1
vt 0 1
vt 0.125 0.9375
vt 0.125 1
vt 0 0.8125
vt 0.25 0.8125
vt 0.3125 0.8125
vt 0.25 0.75
vt 0.3125 0.75
vt 0 0.75

# Normal
vn 0 0 -1

# Mesh description
g World1_mesh_0120

# Faces
f 1/1/1 2/2/1 3/3/1 4/4/1
f 5/5/1 6/6/1 7/7/1 8/8/1
f 9/5/1 10/6/1 11/7/1 12/8/1
f 13/1/1 14/2/1 15/3/1 16/4/1
f 17/9/1 18/5/1 19/8/1 20/2/1
f 21/9/1 22/5/1 23/8/1 24/2/1
f 25/5/1 26/6/1 27/7/1 28/8/1
f 29/5/1 30/6/1 31/7/1 32/8/1
f 33/5/1 34/6/1 35/7/1 36/8/1
f 37/5/1 38/6/1 39/7/1 40/8/1
f 41/10/1 42/11/1 43/12/1 44/13/1
f 45/14/1 46/10/1 47/13/1 48/15/1
f 49/9/1 50/5/1 51/8/1 52/2/1
f 53/9/1 54/5/1 55/8/1 56/2/1
f 57/9/1 58/5/1 59/8/1 60/2/1
f 61/9/1 62/5/1 63/8/1 64/2/1
f 65/9/1 66/5/1 67/8/1 68/2/1
f 69/5/1 70/6/1 71/7/1 72/8/1
f 73/16/1 74/17/1 75/11/1 76/10/1
f 77/7/1 78/16/1 79/10/1 80/14/1
f 81/18/1 82/19/1 83/5/1 84/9/1
f 85/18/1 86/19/1 87/5/1 88/9/1
f 89/18/1 90/19/1 91/5/1 92/9/1
f 93/18/1 94/19/1 95/5/1 96/9/1
f 97/18/1 98/19/1 99/5/1 100/9/1
f 101/19/1 102/20/1 103/6/1 104/5/1
f 105/4/1 106/3/1 107/21/1 108/22/1
f 109/3/1 110/23/1 111/24/1 112/21/1
f 113/3/1 114/23/1 115/24/1 116/21/1
f 117/3/1 118/23/1 119/24/1 120/21/1
f 121/25/1 122/9/1 123/2/1 124/1/1
f 125/8/1 126/7/1 127/14/1 128/23/1
f 129/1/1 130/2/1 131/3/1 132/4/1
f 133/2/1 134/8/1 135/23/1 136/3/1
f 137/2/1 138/8/1 139/23/1 140/3/1
f 141/2/1 142/8/1 143/23/1 144/3/1
f 145/25/1 146/9/1 147/2/1 148/1/1
f 149/8/1 150/7/1 151/14/1 152/23/1
f 153/1/1 154/2/1 155/3/1 156/4/1
f 157/26/1 158/27/1 159/17/1 160/16/1
f 161/6/1 162/26/1 163/16/1 164/7/1
f 165/3/1 166/23/1 167/24/1 168/21/1
f 169/23/1 170/14/1 171/15/1 172/24/1
f 173/1/1 174/2/1 175/3/1 176/4/1
f 177/28/1 178/29/1 179/27/1 180/26/1
f 181/20/1 182/28/1 183/26/1 184/6/1
f 185/2/1 186/8/1 187/23/1 188/3/1
f 189/8/1 190/7/1 191/14/1 192/23/1
f 193/1/1 194/2/1 195/3/1 196/4/1
f 197/6/1 198/26/1 199/16/1 200/7/1
f 201/3/1 202/23/1 203/24/1 204/21/1
f 205/3/1 206/23/1 207/24/1 208/21/1
f 209/3/1 210/23/1 211/24/1 212/21/1
f 213/3/1 214/23/1 215/24/1 216/21/1
f 217/3/1 218/23/1 219/24/1 220/21/1
f 221/3/1 222/23/1 223/24/1 224/21/1
f 225/26/1 226/27/1 227/17/1 228/16/1
f 229/20/1 230/28/1 231/26/1 232/6/1
f 233/2/1 234/8/1 235/23/1 236/3/1
f 237/2/1 238/8/1 239/23/1 240/3/1
f 241/2/1 242/8/1 243/23/1 244/3/1
f 245/2/1 246/8/1 247/23/1 248/3/1
f 249/2/1 250/8/1 251/23/1 252/3/1
f 253/2/1 254/8/1 255/23/1 256/3/1
f 257/28/1 258/29/1 259/27/1 260/26/1
f 261/14/1 262/10/1 263/13/1 264/15/1
f 265/9/1 266/5/1 267/8/1 268/2/1
f 269/9/1 270/5/1 271/8/1 272/2/1
f 273/9/1 274/5/1 275/8/1 276/2/1
f 277/9/1 278/5/1 279/8/1 280/2/1
f 281/9/1 282/5/1 283/8/1 284/2/1
f 285/9/1 286/5/1 287/8/1 288/2/1
f 289/10/1 290/11/1 291/12/1 292/13/1
f 293/7/1 294/16/1 295/10/1 296/14/1
f 297/18/1 298/19/1 299/5/1 300/9/1
f 301/18/1 302/19/1 303/5/1 304/9/1
f 305/18/1 306/19/1 307/5/1 308/9/1
f 309/18/1 310/19/1 311/5/1 312/9/1
f 313/18/1 314/19/1 315/5/1 316/9/1
f 317/18/1 318/19/1 319/5/1 320/9/1
f 321/16/1 322/17/1 323/11/1 324/10/1
f 325/9/1 326/5/1 327/8/1 328/2/1
f 329/9/1 330/5/1 331/8/1 332/2/1
f 333/9/1 334/5/1 335/8/1 336/2/1
f 337/9/1 338/5/1 339/8/1 340/2/1
f 341/9/1 342/5/1 343/8/1 344/2/1
f 345/9/1 346/5/1 347/8/1 348/2/1
f 349/9/1 350/5/1 351/8/1 352/2/1
f 353/9/1 354/5/1 355/8/1 356/2/1
f 357/5/1 358/6/1 359/7/1 360/8/1
f 361/30/1 362/18/1 363/9/1 364/25/1
f 365/18/1 366/19/1 367/5/1 368/9/1
f 369/18/1 370/19/1 371/5/1 372/9/1
f 373/18/1 374/19/1 375/5/1 376/9/1

