# Tiled2Unity generated file. Do not modify by hand.
# Wavefront file for 'World1_mesh_0047.obj'

# Vertices (Count = 140)
v -12 -1 0
v -13 -1 0
v -13 0 0
v -12 0 0
v -13 -1 0
v -14 -1 0
v -14 0 0
v -13 0 0
v -14 -1 0
v -15 -1 0
v -15 0 0
v -14 0 0
v -15 -1 0
v -16 -1 0
v -16 0 0
v -15 0 0
v -7 -2 0
v -8 -2 0
v -8 -1 0
v -7 -1 0
v -8 -2 0
v -9 -2 0
v -9 -1 0
v -8 -1 0
v -9 -2 0
v -10 -2 0
v -10 -1 0
v -9 -1 0
v -12 -2 0
v -13 -2 0
v -13 -1 0
v -12 -1 0
v -13 -2 0
v -14 -2 0
v -14 -1 0
v -13 -1 0
v -14 -2 0
v -15 -2 0
v -15 -1 0
v -14 -1 0
v -15 -2 0
v -16 -2 0
v -16 -1 0
v -15 -1 0
v -7 -3 0
v -8 -3 0
v -8 -2 0
v -7 -2 0
v -8 -3 0
v -9 -3 0
v -9 -2 0
v -8 -2 0
v -9 -3 0
v -10 -3 0
v -10 -2 0
v -9 -2 0
v -10 -3 0
v -11 -3 0
v -11 -2 0
v -10 -2 0
v -11 -3 0
v -12 -3 0
v -12 -2 0
v -11 -2 0
v -12 -3 0
v -13 -3 0
v -13 -2 0
v -12 -2 0
v -13 -3 0
v -14 -3 0
v -14 -2 0
v -13 -2 0
v -14 -3 0
v -15 -3 0
v -15 -2 0
v -14 -2 0
v -15 -3 0
v -16 -3 0
v -16 -2 0
v -15 -2 0
v -7 -4 0
v -8 -4 0
v -8 -3 0
v -7 -3 0
v -8 -4 0
v -9 -4 0
v -9 -3 0
v -8 -3 0
v -9 -4 0
v -10 -4 0
v -10 -3 0
v -9 -3 0
v -12 -4 0
v -13 -4 0
v -13 -3 0
v -12 -3 0
v -13 -4 0
v -14 -4 0
v -14 -3 0
v -13 -3 0
v -14 -4 0
v -15 -4 0
v -15 -3 0
v -14 -3 0
v -15 -4 0
v -16 -4 0
v -16 -3 0
v -15 -3 0
v -12 -5 0
v -13 -5 0
v -13 -4 0
v -12 -4 0
v -13 -5 0
v -14 -5 0
v -14 -4 0
v -13 -4 0
v -14 -5 0
v -15 -5 0
v -15 -4 0
v -14 -4 0
v -15 -5 0
v -16 -5 0
v -16 -4 0
v -15 -4 0
v -12 -6 0
v -13 -6 0
v -13 -5 0
v -12 -5 0
v -13 -6 0
v -14 -6 0
v -14 -5 0
v -13 -5 0
v -14 -6 0
v -15 -6 0
v -15 -5 0
v -14 -5 0
v -15 -6 0
v -16 -6 0
v -16 -5 0
v -15 -5 0

# Texture cooridinates (Count = 25)
vt 0.0625 0.8125
vt 0.125 0.8125
vt 0.125 0.875
vt 0.0625 0.875
vt 0.125 0.75
vt 0.1875 0.75
vt 0.1875 0.8125
vt 0 0.8125
vt 0 0.875
vt 0 0.5625
vt 0.0625 0.5625
vt 0.0625 0.625
vt 0 0.625
vt 0.125 0.5625
vt 0.125 0.625
vt 0.1875 0.5625
vt 0.1875 0.625
vt 0 0.5
vt 0.0625 0.5
vt 0.125 0.5
vt 0.1875 0.5
vt 0 0.4375
vt 0.0625 0.4375
vt 0.125 0.4375
vt 0.1875 0.4375

# Normal
vn 0 0 -1

# Mesh description
g World1_mesh_0047

# Faces
f 1/1/1 2/2/1 3/3/1 4/4/1
f 5/1/1 6/2/1 7/3/1 8/4/1
f 9/5/1 10/6/1 11/7/1 12/2/1
f 13/5/1 14/6/1 15/7/1 16/2/1
f 17/8/1 18/1/1 19/4/1 20/9/1
f 21/1/1 22/2/1 23/3/1 24/4/1
f 25/8/1 26/1/1 27/4/1 28/9/1
f 29/5/1 30/6/1 31/7/1 32/2/1
f 33/10/1 34/11/1 35/12/1 36/13/1
f 37/11/1 38/14/1 39/15/1 40/12/1
f 41/14/1 42/16/1 43/17/1 44/15/1
f 45/5/1 46/6/1 47/7/1 48/2/1
f 49/5/1 50/6/1 51/7/1 52/2/1
f 53/5/1 54/6/1 55/7/1 56/2/1
f 57/5/1 58/6/1 59/7/1 60/2/1
f 61/5/1 62/6/1 63/7/1 64/2/1
f 65/5/1 66/6/1 67/7/1 68/2/1
f 69/18/1 70/19/1 71/11/1 72/10/1
f 73/19/1 74/20/1 75/14/1 76/11/1
f 77/20/1 78/21/1 79/16/1 80/14/1
f 81/5/1 82/6/1 83/7/1 84/2/1
f 85/5/1 86/6/1 87/7/1 88/2/1
f 89/5/1 90/6/1 91/7/1 92/2/1
f 93/5/1 94/6/1 95/7/1 96/2/1
f 97/22/1 98/23/1 99/19/1 100/18/1
f 101/23/1 102/24/1 103/20/1 104/19/1
f 105/24/1 106/25/1 107/21/1 108/20/1
f 109/5/1 110/6/1 111/7/1 112/2/1
f 113/5/1 114/6/1 115/7/1 116/2/1
f 117/5/1 118/6/1 119/7/1 120/2/1
f 121/5/1 122/6/1 123/7/1 124/2/1
f 125/5/1 126/6/1 127/7/1 128/2/1
f 129/5/1 130/6/1 131/7/1 132/2/1
f 133/5/1 134/6/1 135/7/1 136/2/1
f 137/5/1 138/6/1 139/7/1 140/2/1

