# Tiled2Unity generated file. Do not modify by hand.
# Wavefront file for 'World1_mesh_0070.obj'

# Vertices (Count = 476)
v -1 -1 0
v -2 -1 0
v -2 0 0
v -1 0 0
v -2 -1 0
v -3 -1 0
v -3 0 0
v -2 0 0
v -3 -1 0
v -4 -1 0
v -4 0 0
v -3 0 0
v -4 -1 0
v -5 -1 0
v -5 0 0
v -4 0 0
v -5 -1 0
v -6 -1 0
v -6 0 0
v -5 0 0
v -6 -1 0
v -7 -1 0
v -7 0 0
v -6 0 0
v -7 -1 0
v -8 -1 0
v -8 0 0
v -7 0 0
v -8 -1 0
v -9 -1 0
v -9 0 0
v -8 0 0
v -11 -1 0
v -12 -1 0
v -12 0 0
v -11 0 0
v -12 -1 0
v -13 -1 0
v -13 0 0
v -12 0 0
v -13 -1 0
v -14 -1 0
v -14 0 0
v -13 0 0
v -14 -1 0
v -15 -1 0
v -15 0 0
v -14 0 0
v -15 -1 0
v -16 -1 0
v -16 0 0
v -15 0 0
v -1 -2 0
v -2 -2 0
v -2 -1 0
v -1 -1 0
v -2 -2 0
v -3 -2 0
v -3 -1 0
v -2 -1 0
v -8 -2 0
v -9 -2 0
v -9 -1 0
v -8 -1 0
v -11 -2 0
v -12 -2 0
v -12 -1 0
v -11 -1 0
v -1 -3 0
v -2 -3 0
v -2 -2 0
v -1 -2 0
v -3 -3 0
v -4 -3 0
v -4 -2 0
v -3 -2 0
v -4 -3 0
v -5 -3 0
v -5 -2 0
v -4 -2 0
v -5 -3 0
v -6 -3 0
v -6 -2 0
v -5 -2 0
v -6 -3 0
v -7 -3 0
v -7 -2 0
v -6 -2 0
v -7 -3 0
v -8 -3 0
v -8 -2 0
v -7 -2 0
v -8 -3 0
v -9 -3 0
v -9 -2 0
v -8 -2 0
v -11 -3 0
v -12 -3 0
v -12 -2 0
v -11 -2 0
v -12 -3 0
v -13 -3 0
v -13 -2 0
v -12 -2 0
v -13 -3 0
v -14 -3 0
v -14 -2 0
v -13 -2 0
v -14 -3 0
v -15 -3 0
v -15 -2 0
v -14 -2 0
v -15 -3 0
v -16 -3 0
v -16 -2 0
v -15 -2 0
v -1 -4 0
v -2 -4 0
v -2 -3 0
v -1 -3 0
v -3 -4 0
v -4 -4 0
v -4 -3 0
v -3 -3 0
v -4 -4 0
v -5 -4 0
v -5 -3 0
v -4 -3 0
v -5 -4 0
v -6 -4 0
v -6 -3 0
v -5 -3 0
v -6 -4 0
v -7 -4 0
v -7 -3 0
v -6 -3 0
v -7 -4 0
v -8 -4 0
v -8 -3 0
v -7 -3 0
v -8 -4 0
v -9 -4 0
v -9 -3 0
v -8 -3 0
v -11 -4 0
v -12 -4 0
v -12 -3 0
v -11 -3 0
v -12 -4 0
v -13 -4 0
v -13 -3 0
v -12 -3 0
v -13 -4 0
v -14 -4 0
v -14 -3 0
v -13 -3 0
v -14 -4 0
v -15 -4 0
v -15 -3 0
v -14 -3 0
v -15 -4 0
v -16 -4 0
v -16 -3 0
v -15 -3 0
v -1 -5 0
v -2 -5 0
v -2 -4 0
v -1 -4 0
v -3 -5 0
v -4 -5 0
v -4 -4 0
v -3 -4 0
v -1 -6 0
v -2 -6 0
v -2 -5 0
v -1 -5 0
v -3 -6 0
v -4 -6 0
v -4 -5 0
v -3 -5 0
v -6 -6 0
v -7 -6 0
v -7 -5 0
v -6 -5 0
v -7 -6 0
v -8 -6 0
v -8 -5 0
v -7 -5 0
v -8 -6 0
v -9 -6 0
v -9 -5 0
v -8 -5 0
v -9 -6 0
v -10 -6 0
v -10 -5 0
v -9 -5 0
v -10 -6 0
v -11 -6 0
v -11 -5 0
v -10 -5 0
v -11 -6 0
v -12 -6 0
v -12 -5 0
v -11 -5 0
v -12 -6 0
v -13 -6 0
v -13 -5 0
v -12 -5 0
v -13 -6 0
v -14 -6 0
v -14 -5 0
v -13 -5 0
v -1 -7 0
v -2 -7 0
v -2 -6 0
v -1 -6 0
v -3 -7 0
v -4 -7 0
v -4 -6 0
v -3 -6 0
v -6 -7 0
v -7 -7 0
v -7 -6 0
v -6 -6 0
v -7 -7 0
v -8 -7 0
v -8 -6 0
v -7 -6 0
v -8 -7 0
v -9 -7 0
v -9 -6 0
v -8 -6 0
v -9 -7 0
v -10 -7 0
v -10 -6 0
v -9 -6 0
v -10 -7 0
v -11 -7 0
v -11 -6 0
v -10 -6 0
v -11 -7 0
v -12 -7 0
v -12 -6 0
v -11 -6 0
v -12 -7 0
v -13 -7 0
v -13 -6 0
v -12 -6 0
v -13 -7 0
v -14 -7 0
v -14 -6 0
v -13 -6 0
v -1 -8 0
v -2 -8 0
v -2 -7 0
v -1 -7 0
v -3 -8 0
v -4 -8 0
v -4 -7 0
v -3 -7 0
v -6 -8 0
v -7 -8 0
v -7 -7 0
v -6 -7 0
v -13 -8 0
v -14 -8 0
v -14 -7 0
v -13 -7 0
v -1 -9 0
v -2 -9 0
v -2 -8 0
v -1 -8 0
v -2 -9 0
v -3 -9 0
v -3 -8 0
v -2 -8 0
v -3 -9 0
v -4 -9 0
v -4 -8 0
v -3 -8 0
v -6 -9 0
v -7 -9 0
v -7 -8 0
v -6 -8 0
v -13 -9 0
v -14 -9 0
v -14 -8 0
v -13 -8 0
v -1 -10 0
v -2 -10 0
v -2 -9 0
v -1 -9 0
v -2 -10 0
v -3 -10 0
v -3 -9 0
v -2 -9 0
v -3 -10 0
v -4 -10 0
v -4 -9 0
v -3 -9 0
v -6 -10 0
v -7 -10 0
v -7 -9 0
v -6 -9 0
v -13 -10 0
v -14 -10 0
v -14 -9 0
v -13 -9 0
v -6 -11 0
v -7 -11 0
v -7 -10 0
v -6 -10 0
v -13 -11 0
v -14 -11 0
v -14 -10 0
v -13 -10 0
v -1 -12 0
v -2 -12 0
v -2 -11 0
v -1 -11 0
v -2 -12 0
v -3 -12 0
v -3 -11 0
v -2 -11 0
v -3 -12 0
v -4 -12 0
v -4 -11 0
v -3 -11 0
v -6 -12 0
v -7 -12 0
v -7 -11 0
v -6 -11 0
v -9 -12 0
v -10 -12 0
v -10 -11 0
v -9 -11 0
v -10 -12 0
v -11 -12 0
v -11 -11 0
v -10 -11 0
v -11 -12 0
v -12 -12 0
v -12 -11 0
v -11 -11 0
v -12 -12 0
v -13 -12 0
v -13 -11 0
v -12 -11 0
v -13 -12 0
v -14 -12 0
v -14 -11 0
v -13 -11 0
v -1 -13 0
v -2 -13 0
v -2 -12 0
v -1 -12 0
v -2 -13 0
v -3 -13 0
v -3 -12 0
v -2 -12 0
v -3 -13 0
v -4 -13 0
v -4 -12 0
v -3 -12 0
v -6 -13 0
v -7 -13 0
v -7 -12 0
v -6 -12 0
v -9 -13 0
v -10 -13 0
v -10 -12 0
v -9 -12 0
v -10 -13 0
v -11 -13 0
v -11 -12 0
v -10 -12 0
v -11 -13 0
v -12 -13 0
v -12 -12 0
v -11 -12 0
v -12 -13 0
v -13 -13 0
v -13 -12 0
v -12 -12 0
v -13 -13 0
v -14 -13 0
v -14 -12 0
v -13 -12 0
v -1 -14 0
v -2 -14 0
v -2 -13 0
v -1 -13 0
v -3 -14 0
v -4 -14 0
v -4 -13 0
v -3 -13 0
v -6 -14 0
v -7 -14 0
v -7 -13 0
v -6 -13 0
v -9 -14 0
v -10 -14 0
v -10 -13 0
v -9 -13 0
v -1 -15 0
v -2 -15 0
v -2 -14 0
v -1 -14 0
v -3 -15 0
v -4 -15 0
v -4 -14 0
v -3 -14 0
v -6 -15 0
v -7 -15 0
v -7 -14 0
v -6 -14 0
v -9 -15 0
v -10 -15 0
v -10 -14 0
v -9 -14 0
v -12 -15 0
v -13 -15 0
v -13 -14 0
v -12 -14 0
v -13 -15 0
v -14 -15 0
v -14 -14 0
v -13 -14 0
v -14 -15 0
v -15 -15 0
v -15 -14 0
v -14 -14 0
v -15 -15 0
v -16 -15 0
v -16 -14 0
v -15 -14 0
v -1 -16 0
v -2 -16 0
v -2 -15 0
v -1 -15 0
v -3 -16 0
v -4 -16 0
v -4 -15 0
v -3 -15 0
v -6 -16 0
v -7 -16 0
v -7 -15 0
v -6 -15 0
v -7 -16 0
v -8 -16 0
v -8 -15 0
v -7 -15 0
v -8 -16 0
v -9 -16 0
v -9 -15 0
v -8 -15 0
v -9 -16 0
v -10 -16 0
v -10 -15 0
v -9 -15 0
v -12 -16 0
v -13 -16 0
v -13 -15 0
v -12 -15 0
v -13 -16 0
v -14 -16 0
v -14 -15 0
v -13 -15 0
v -14 -16 0
v -15 -16 0
v -15 -15 0
v -14 -15 0
v -15 -16 0
v -16 -16 0
v -16 -15 0
v -15 -15 0

# Texture cooridinates (Count = 28)
vt 0.1875 0.9375
vt 0.25 0.9375
vt 0.25 1
vt 0.1875 1
vt 0.1875 0.875
vt 0.25 0.875
vt 0.0625 0.75
vt 0.125 0.75
vt 0.125 0.8125
vt 0.0625 0.8125
vt 0.3125 0.875
vt 0.3125 0.9375
vt 0.1875 0.75
vt 0.1875 0.8125
vt 0 0.875
vt 0.0625 0.875
vt 0.0625 0.9375
vt 0 0.9375
vt 0.125 0.875
vt 0.125 0.9375
vt 0.0625 1
vt 0 1
vt 0.125 1
vt 0.25 0.8125
vt 0.3125 0.8125
vt 0.25 0.75
vt 0.3125 0.75
vt 0.3125 1

# Normal
vn 0 0 -1

# Mesh description
g World1_mesh_0070

# Faces
f 1/1/1 2/2/1 3/3/1 4/4/1
f 5/5/1 6/6/1 7/2/1 8/1/1
f 9/7/1 10/8/1 11/9/1 12/10/1
f 13/7/1 14/8/1 15/9/1 16/10/1
f 17/7/1 18/8/1 19/9/1 20/10/1
f 21/7/1 22/8/1 23/9/1 24/10/1
f 25/7/1 26/8/1 27/9/1 28/10/1
f 29/6/1 30/11/1 31/12/1 32/2/1
f 33/5/1 34/6/1 35/2/1 36/1/1
f 37/7/1 38/8/1 39/9/1 40/10/1
f 41/7/1 42/8/1 43/9/1 44/10/1
f 45/7/1 46/8/1 47/9/1 48/10/1
f 49/7/1 50/8/1 51/9/1 52/10/1
f 53/5/1 54/6/1 55/2/1 56/1/1
f 57/8/1 58/13/1 59/14/1 60/9/1
f 61/15/1 62/16/1 63/17/1 64/18/1
f 65/19/1 66/5/1 67/1/1 68/20/1
f 69/19/1 70/5/1 71/1/1 72/20/1
f 73/18/1 74/17/1 75/21/1 76/22/1
f 77/17/1 78/20/1 79/23/1 80/21/1
f 81/17/1 82/20/1 83/23/1 84/21/1
f 85/17/1 86/20/1 87/23/1 88/21/1
f 89/17/1 90/20/1 91/23/1 92/21/1
f 93/24/1 94/25/1 95/11/1 96/6/1
f 97/14/1 98/24/1 99/6/1 100/5/1
f 101/17/1 102/20/1 103/23/1 104/21/1
f 105/17/1 106/20/1 107/23/1 108/21/1
f 109/17/1 110/20/1 111/23/1 112/21/1
f 113/17/1 114/20/1 115/23/1 116/21/1
f 117/19/1 118/5/1 119/1/1 120/20/1
f 121/15/1 122/16/1 123/17/1 124/18/1
f 125/16/1 126/19/1 127/20/1 128/17/1
f 129/16/1 130/19/1 131/20/1 132/17/1
f 133/16/1 134/19/1 135/20/1 136/17/1
f 137/16/1 138/19/1 139/20/1 140/17/1
f 141/26/1 142/27/1 143/25/1 144/24/1
f 145/13/1 146/26/1 147/24/1 148/14/1
f 149/16/1 150/19/1 151/20/1 152/17/1
f 153/16/1 154/19/1 155/20/1 156/17/1
f 157/16/1 158/19/1 159/20/1 160/17/1
f 161/16/1 162/19/1 163/20/1 164/17/1
f 165/19/1 166/5/1 167/1/1 168/20/1
f 169/15/1 170/16/1 171/17/1 172/18/1
f 173/19/1 174/5/1 175/1/1 176/20/1
f 177/15/1 178/16/1 179/17/1 180/18/1
f 181/1/1 182/2/1 183/3/1 184/4/1
f 185/10/1 186/9/1 187/19/1 188/16/1
f 189/10/1 190/9/1 191/19/1 192/16/1
f 193/10/1 194/9/1 195/19/1 196/16/1
f 197/10/1 198/9/1 199/19/1 200/16/1
f 201/10/1 202/9/1 203/19/1 204/16/1
f 205/10/1 206/9/1 207/19/1 208/16/1
f 209/2/1 210/12/1 211/28/1 212/3/1
f 213/19/1 214/5/1 215/1/1 216/20/1
f 217/15/1 218/16/1 219/17/1 220/18/1
f 221/5/1 222/6/1 223/2/1 224/1/1
f 225/7/1 226/8/1 227/9/1 228/10/1
f 229/7/1 230/8/1 231/9/1 232/10/1
f 233/7/1 234/8/1 235/9/1 236/10/1
f 237/7/1 238/8/1 239/9/1 240/10/1
f 241/7/1 242/8/1 243/9/1 244/10/1
f 245/7/1 246/8/1 247/9/1 248/10/1
f 249/6/1 250/11/1 251/12/1 252/2/1
f 253/19/1 254/5/1 255/1/1 256/20/1
f 257/15/1 258/16/1 259/17/1 260/18/1
f 261/19/1 262/5/1 263/1/1 264/20/1
f 265/15/1 266/16/1 267/17/1 268/18/1
f 269/14/1 270/24/1 271/6/1 272/5/1
f 273/17/1 274/20/1 275/23/1 276/21/1
f 277/24/1 278/25/1 279/11/1 280/6/1
f 281/19/1 282/5/1 283/1/1 284/20/1
f 285/15/1 286/16/1 287/17/1 288/18/1
f 289/13/1 290/26/1 291/24/1 292/14/1
f 293/16/1 294/19/1 295/20/1 296/17/1
f 297/26/1 298/27/1 299/25/1 300/24/1
f 301/19/1 302/5/1 303/1/1 304/20/1
f 305/15/1 306/16/1 307/17/1 308/18/1
f 309/19/1 310/5/1 311/1/1 312/20/1
f 313/15/1 314/16/1 315/17/1 316/18/1
f 317/1/1 318/2/1 319/3/1 320/4/1
f 321/10/1 322/9/1 323/19/1 324/16/1
f 325/2/1 326/12/1 327/28/1 328/3/1
f 329/19/1 330/5/1 331/1/1 332/20/1
f 333/18/1 334/17/1 335/21/1 336/22/1
f 337/17/1 338/20/1 339/23/1 340/21/1
f 341/17/1 342/20/1 343/23/1 344/21/1
f 345/17/1 346/20/1 347/23/1 348/21/1
f 349/24/1 350/25/1 351/11/1 352/6/1
f 353/5/1 354/6/1 355/2/1 356/1/1
f 357/7/1 358/8/1 359/9/1 360/10/1
f 361/6/1 362/11/1 363/12/1 364/2/1
f 365/19/1 366/5/1 367/1/1 368/20/1
f 369/15/1 370/16/1 371/17/1 372/18/1
f 373/16/1 374/19/1 375/20/1 376/17/1
f 377/16/1 378/19/1 379/20/1 380/17/1
f 381/16/1 382/19/1 383/20/1 384/17/1
f 385/26/1 386/27/1 387/25/1 388/24/1
f 389/19/1 390/5/1 391/1/1 392/20/1
f 393/15/1 394/16/1 395/17/1 396/18/1
f 397/19/1 398/5/1 399/1/1 400/20/1
f 401/15/1 402/16/1 403/17/1 404/18/1
f 405/19/1 406/5/1 407/1/1 408/20/1
f 409/15/1 410/16/1 411/17/1 412/18/1
f 413/19/1 414/5/1 415/1/1 416/20/1
f 417/15/1 418/16/1 419/17/1 420/18/1
f 421/1/1 422/2/1 423/3/1 424/4/1
f 425/10/1 426/9/1 427/19/1 428/16/1
f 429/10/1 430/9/1 431/19/1 432/16/1
f 433/10/1 434/9/1 435/19/1 436/16/1
f 437/19/1 438/5/1 439/1/1 440/20/1
f 441/15/1 442/16/1 443/17/1 444/18/1
f 445/14/1 446/24/1 447/6/1 448/5/1
f 449/17/1 450/20/1 451/23/1 452/21/1
f 453/17/1 454/20/1 455/23/1 456/21/1
f 457/24/1 458/25/1 459/11/1 460/6/1
f 461/5/1 462/6/1 463/2/1 464/1/1
f 465/7/1 466/8/1 467/9/1 468/10/1
f 469/7/1 470/8/1 471/9/1 472/10/1
f 473/7/1 474/8/1 475/9/1 476/10/1

