# Tiled2Unity generated file. Do not modify by hand.
# Wavefront file for 'World1_mesh_0097.obj'

# Vertices (Count = 428)
v 0 -1 0
v -1 -1 0
v -1 0 0
v 0 0 0
v -1 -1 0
v -2 -1 0
v -2 0 0
v -1 0 0
v -2 -1 0
v -3 -1 0
v -3 0 0
v -2 0 0
v -3 -1 0
v -4 -1 0
v -4 0 0
v -3 0 0
v -4 -1 0
v -5 -1 0
v -5 0 0
v -4 0 0
v -5 -1 0
v -6 -1 0
v -6 0 0
v -5 0 0
v -6 -1 0
v -7 -1 0
v -7 0 0
v -6 0 0
v -7 -1 0
v -8 -1 0
v -8 0 0
v -7 0 0
v -8 -1 0
v -9 -1 0
v -9 0 0
v -8 0 0
v -9 -1 0
v -10 -1 0
v -10 0 0
v -9 0 0
v 0 -2 0
v -1 -2 0
v -1 -1 0
v 0 -1 0
v -4 -2 0
v -5 -2 0
v -5 -1 0
v -4 -1 0
v -5 -2 0
v -6 -2 0
v -6 -1 0
v -5 -1 0
v -6 -2 0
v -7 -2 0
v -7 -1 0
v -6 -1 0
v -7 -2 0
v -8 -2 0
v -8 -1 0
v -7 -1 0
v -8 -2 0
v -9 -2 0
v -9 -1 0
v -8 -1 0
v -9 -2 0
v -10 -2 0
v -10 -1 0
v -9 -1 0
v 0 -3 0
v -1 -3 0
v -1 -2 0
v 0 -2 0
v 0 -4 0
v -1 -4 0
v -1 -3 0
v 0 -3 0
v 0 -6 0
v -1 -6 0
v -1 -5 0
v 0 -5 0
v -1 -6 0
v -2 -6 0
v -2 -5 0
v -1 -5 0
v -2 -6 0
v -3 -6 0
v -3 -5 0
v -2 -5 0
v -3 -6 0
v -4 -6 0
v -4 -5 0
v -3 -5 0
v -4 -6 0
v -5 -6 0
v -5 -5 0
v -4 -5 0
v -6 -6 0
v -7 -6 0
v -7 -5 0
v -6 -5 0
v -7 -6 0
v -8 -6 0
v -8 -5 0
v -7 -5 0
v -8 -6 0
v -9 -6 0
v -9 -5 0
v -8 -5 0
v -9 -6 0
v -10 -6 0
v -10 -5 0
v -9 -5 0
v -10 -6 0
v -11 -6 0
v -11 -5 0
v -10 -5 0
v -11 -6 0
v -12 -6 0
v -12 -5 0
v -11 -5 0
v -13 -6 0
v -14 -6 0
v -14 -5 0
v -13 -5 0
v -14 -6 0
v -15 -6 0
v -15 -5 0
v -14 -5 0
v -15 -6 0
v -16 -6 0
v -16 -5 0
v -15 -5 0
v 0 -7 0
v -1 -7 0
v -1 -6 0
v 0 -6 0
v -1 -7 0
v -2 -7 0
v -2 -6 0
v -1 -6 0
v -2 -7 0
v -3 -7 0
v -3 -6 0
v -2 -6 0
v -3 -7 0
v -4 -7 0
v -4 -6 0
v -3 -6 0
v -4 -7 0
v -5 -7 0
v -5 -6 0
v -4 -6 0
v -5 -7 0
v -6 -7 0
v -6 -6 0
v -5 -6 0
v -6 -7 0
v -7 -7 0
v -7 -6 0
v -6 -6 0
v -7 -7 0
v -8 -7 0
v -8 -6 0
v -7 -6 0
v -8 -7 0
v -9 -7 0
v -9 -6 0
v -8 -6 0
v -9 -7 0
v -10 -7 0
v -10 -6 0
v -9 -6 0
v -10 -7 0
v -11 -7 0
v -11 -6 0
v -10 -6 0
v -11 -7 0
v -12 -7 0
v -12 -6 0
v -11 -6 0
v -12 -7 0
v -13 -7 0
v -13 -6 0
v -12 -6 0
v -13 -7 0
v -14 -7 0
v -14 -6 0
v -13 -6 0
v -14 -7 0
v -15 -7 0
v -15 -6 0
v -14 -6 0
v -15 -7 0
v -16 -7 0
v -16 -6 0
v -15 -6 0
v -4 -8 0
v -5 -8 0
v -5 -7 0
v -4 -7 0
v -5 -8 0
v -6 -8 0
v -6 -7 0
v -5 -7 0
v -6 -8 0
v -7 -8 0
v -7 -7 0
v -6 -7 0
v -11 -8 0
v -12 -8 0
v -12 -7 0
v -11 -7 0
v -12 -8 0
v -13 -8 0
v -13 -7 0
v -12 -7 0
v -13 -8 0
v -14 -8 0
v -14 -7 0
v -13 -7 0
v -4 -10 0
v -5 -10 0
v -5 -9 0
v -4 -9 0
v -5 -10 0
v -6 -10 0
v -6 -9 0
v -5 -9 0
v -6 -10 0
v -7 -10 0
v -7 -9 0
v -6 -9 0
v -11 -10 0
v -12 -10 0
v -12 -9 0
v -11 -9 0
v -12 -10 0
v -13 -10 0
v -13 -9 0
v -12 -9 0
v -13 -10 0
v -14 -10 0
v -14 -9 0
v -13 -9 0
v 0 -11 0
v -1 -11 0
v -1 -10 0
v 0 -10 0
v -3 -11 0
v -4 -11 0
v -4 -10 0
v -3 -10 0
v -4 -11 0
v -5 -11 0
v -5 -10 0
v -4 -10 0
v -5 -11 0
v -6 -11 0
v -6 -10 0
v -5 -10 0
v -6 -11 0
v -7 -11 0
v -7 -10 0
v -6 -10 0
v -7 -11 0
v -8 -11 0
v -8 -10 0
v -7 -10 0
v -10 -11 0
v -11 -11 0
v -11 -10 0
v -10 -10 0
v -11 -11 0
v -12 -11 0
v -12 -10 0
v -11 -10 0
v -12 -11 0
v -13 -11 0
v -13 -10 0
v -12 -10 0
v -13 -11 0
v -14 -11 0
v -14 -10 0
v -13 -10 0
v -14 -11 0
v -15 -11 0
v -15 -10 0
v -14 -10 0
v 0 -12 0
v -1 -12 0
v -1 -11 0
v 0 -11 0
v -3 -12 0
v -4 -12 0
v -4 -11 0
v -3 -11 0
v -4 -12 0
v -5 -12 0
v -5 -11 0
v -4 -11 0
v -6 -12 0
v -7 -12 0
v -7 -11 0
v -6 -11 0
v -7 -12 0
v -8 -12 0
v -8 -11 0
v -7 -11 0
v -10 -12 0
v -11 -12 0
v -11 -11 0
v -10 -11 0
v -11 -12 0
v -12 -12 0
v -12 -11 0
v -11 -11 0
v -13 -12 0
v -14 -12 0
v -14 -11 0
v -13 -11 0
v -14 -12 0
v -15 -12 0
v -15 -11 0
v -14 -11 0
v 0 -13 0
v -1 -13 0
v -1 -12 0
v 0 -12 0
v -3 -13 0
v -4 -13 0
v -4 -12 0
v -3 -12 0
v -4 -13 0
v -5 -13 0
v -5 -12 0
v -4 -12 0
v -6 -13 0
v -7 -13 0
v -7 -12 0
v -6 -12 0
v -7 -13 0
v -8 -13 0
v -8 -12 0
v -7 -12 0
v -10 -13 0
v -11 -13 0
v -11 -12 0
v -10 -12 0
v -11 -13 0
v -12 -13 0
v -12 -12 0
v -11 -12 0
v -13 -13 0
v -14 -13 0
v -14 -12 0
v -13 -12 0
v -14 -13 0
v -15 -13 0
v -15 -12 0
v -14 -12 0
v 0 -14 0
v -1 -14 0
v -1 -13 0
v 0 -13 0
v -3 -14 0
v -4 -14 0
v -4 -13 0
v -3 -13 0
v -4 -14 0
v -5 -14 0
v -5 -13 0
v -4 -13 0
v -5 -14 0
v -6 -14 0
v -6 -13 0
v -5 -13 0
v -6 -14 0
v -7 -14 0
v -7 -13 0
v -6 -13 0
v -7 -14 0
v -8 -14 0
v -8 -13 0
v -7 -13 0
v -10 -14 0
v -11 -14 0
v -11 -13 0
v -10 -13 0
v -11 -14 0
v -12 -14 0
v -12 -13 0
v -11 -13 0
v -12 -14 0
v -13 -14 0
v -13 -13 0
v -12 -13 0
v -13 -14 0
v -14 -14 0
v -14 -13 0
v -13 -13 0
v -14 -14 0
v -15 -14 0
v -15 -13 0
v -14 -13 0
v -4 -15 0
v -5 -15 0
v -5 -14 0
v -4 -14 0
v -5 -15 0
v -6 -15 0
v -6 -14 0
v -5 -14 0
v -6 -15 0
v -7 -15 0
v -7 -14 0
v -6 -14 0
v -11 -15 0
v -12 -15 0
v -12 -14 0
v -11 -14 0
v -12 -15 0
v -13 -15 0
v -13 -14 0
v -12 -14 0
v -13 -15 0
v -14 -15 0
v -14 -14 0
v -13 -14 0

# Texture cooridinates (Count = 29)
vt 0.1875 0.875
vt 0.25 0.875
vt 0.25 0.9375
vt 0.1875 0.9375
vt 0.0625 0.75
vt 0.125 0.75
vt 0.125 0.8125
vt 0.0625 0.8125
vt 0.3125 0.875
vt 0.3125 0.9375
vt 0.125 0.875
vt 0.0625 0.875
vt 0.125 0.9375
vt 0 0.75
vt 0 0.8125
vt 0.1875 0.75
vt 0.1875 0.8125
vt 0.0625 0.9375
vt 0.125 1
vt 0.0625 1
vt 0.1875 1
vt 0 0.9375
vt 0 1
vt 0.25 0.8125
vt 0.3125 0.8125
vt 0.25 0.75
vt 0.3125 0.75
vt 0.25 1
vt 0.3125 1

# Normal
vn 0 0 -1

# Mesh description
g World1_mesh_0097

# Faces
f 1/1/1 2/2/1 3/3/1 4/4/1
f 5/5/1 6/6/1 7/7/1 8/8/1
f 9/5/1 10/6/1 11/7/1 12/8/1
f 13/5/1 14/6/1 15/7/1 16/8/1
f 17/2/1 18/9/1 19/10/1 20/3/1
f 21/8/1 22/7/1 23/11/1 24/12/1
f 25/8/1 26/7/1 27/11/1 28/12/1
f 29/8/1 30/7/1 31/11/1 32/12/1
f 33/8/1 34/7/1 35/11/1 36/12/1
f 37/11/1 38/1/1 39/4/1 40/13/1
f 41/11/1 42/1/1 43/4/1 44/13/1
f 45/14/1 46/5/1 47/8/1 48/15/1
f 49/5/1 50/6/1 51/7/1 52/8/1
f 53/5/1 54/6/1 55/7/1 56/8/1
f 57/5/1 58/6/1 59/7/1 60/8/1
f 61/5/1 62/6/1 63/7/1 64/8/1
f 65/6/1 66/16/1 67/17/1 68/7/1
f 69/11/1 70/1/1 71/4/1 72/13/1
f 73/6/1 74/16/1 75/17/1 76/7/1
f 77/18/1 78/13/1 79/19/1 80/20/1
f 81/18/1 82/13/1 83/19/1 84/20/1
f 85/18/1 86/13/1 87/19/1 88/20/1
f 89/18/1 90/13/1 91/19/1 92/20/1
f 93/13/1 94/4/1 95/21/1 96/19/1
f 97/22/1 98/18/1 99/20/1 100/23/1
f 101/18/1 102/13/1 103/19/1 104/20/1
f 105/18/1 106/13/1 107/19/1 108/20/1
f 109/18/1 110/13/1 111/19/1 112/20/1
f 113/18/1 114/13/1 115/19/1 116/20/1
f 117/13/1 118/4/1 119/21/1 120/19/1
f 121/22/1 122/18/1 123/20/1 124/23/1
f 125/18/1 126/13/1 127/19/1 128/20/1
f 129/18/1 130/13/1 131/19/1 132/20/1
f 133/12/1 134/11/1 135/13/1 136/18/1
f 137/12/1 138/11/1 139/13/1 140/18/1
f 141/12/1 142/11/1 143/13/1 144/18/1
f 145/12/1 146/11/1 147/13/1 148/18/1
f 149/17/1 150/24/1 151/2/1 152/1/1
f 153/18/1 154/13/1 155/19/1 156/20/1
f 157/24/1 158/25/1 159/9/1 160/2/1
f 161/12/1 162/11/1 163/13/1 164/18/1
f 165/12/1 166/11/1 167/13/1 168/18/1
f 169/12/1 170/11/1 171/13/1 172/18/1
f 173/12/1 174/11/1 175/13/1 176/18/1
f 177/17/1 178/24/1 179/2/1 180/1/1
f 181/18/1 182/13/1 183/19/1 184/20/1
f 185/24/1 186/25/1 187/9/1 188/2/1
f 189/12/1 190/11/1 191/13/1 192/18/1
f 193/12/1 194/11/1 195/13/1 196/18/1
f 197/16/1 198/26/1 199/24/1 200/17/1
f 201/12/1 202/11/1 203/13/1 204/18/1
f 205/26/1 206/27/1 207/25/1 208/24/1
f 209/16/1 210/26/1 211/24/1 212/17/1
f 213/12/1 214/11/1 215/13/1 216/18/1
f 217/26/1 218/27/1 219/25/1 220/24/1
f 221/4/1 222/3/1 223/28/1 224/21/1
f 225/8/1 226/7/1 227/11/1 228/12/1
f 229/3/1 230/10/1 231/29/1 232/28/1
f 233/4/1 234/3/1 235/28/1 236/21/1
f 237/8/1 238/7/1 239/11/1 240/12/1
f 241/3/1 242/10/1 243/29/1 244/28/1
f 245/3/1 246/10/1 247/29/1 248/28/1
f 249/4/1 250/3/1 251/28/1 252/21/1
f 253/1/1 254/2/1 255/3/1 256/4/1
f 257/5/1 258/6/1 259/7/1 260/8/1
f 261/2/1 262/9/1 263/10/1 264/3/1
f 265/3/1 266/10/1 267/29/1 268/28/1
f 269/4/1 270/3/1 271/28/1 272/21/1
f 273/1/1 274/2/1 275/3/1 276/4/1
f 277/5/1 278/6/1 279/7/1 280/8/1
f 281/2/1 282/9/1 283/10/1 284/3/1
f 285/3/1 286/10/1 287/29/1 288/28/1
f 289/2/1 290/9/1 291/10/1 292/3/1
f 293/1/1 294/2/1 295/3/1 296/4/1
f 297/6/1 298/16/1 299/17/1 300/7/1
f 301/14/1 302/5/1 303/8/1 304/15/1
f 305/2/1 306/9/1 307/10/1 308/3/1
f 309/1/1 310/2/1 311/3/1 312/4/1
f 313/6/1 314/16/1 315/17/1 316/7/1
f 317/14/1 318/5/1 319/8/1 320/15/1
f 321/2/1 322/9/1 323/10/1 324/3/1
f 325/24/1 326/25/1 327/9/1 328/2/1
f 329/17/1 330/24/1 331/2/1 332/1/1
f 333/13/1 334/4/1 335/21/1 336/19/1
f 337/22/1 338/18/1 339/20/1 340/23/1
f 341/24/1 342/25/1 343/9/1 344/2/1
f 345/17/1 346/24/1 347/2/1 348/1/1
f 349/13/1 350/4/1 351/21/1 352/19/1
f 353/22/1 354/18/1 355/20/1 356/23/1
f 357/24/1 358/25/1 359/9/1 360/2/1
f 361/26/1 362/27/1 363/25/1 364/24/1
f 365/16/1 366/26/1 367/24/1 368/17/1
f 369/17/1 370/24/1 371/2/1 372/1/1
f 373/18/1 374/13/1 375/19/1 376/20/1
f 377/24/1 378/25/1 379/9/1 380/2/1
f 381/26/1 382/27/1 383/25/1 384/24/1
f 385/16/1 386/26/1 387/24/1 388/17/1
f 389/17/1 390/24/1 391/2/1 392/1/1
f 393/18/1 394/13/1 395/19/1 396/20/1
f 397/24/1 398/25/1 399/9/1 400/2/1
f 401/26/1 402/27/1 403/25/1 404/24/1
f 405/16/1 406/26/1 407/24/1 408/17/1
f 409/12/1 410/11/1 411/13/1 412/18/1
f 413/26/1 414/27/1 415/25/1 416/24/1
f 417/16/1 418/26/1 419/24/1 420/17/1
f 421/12/1 422/11/1 423/13/1 424/18/1
f 425/26/1 426/27/1 427/25/1 428/24/1

