# Tiled2Unity generated file. Do not modify by hand.
# Wavefront file for 'World1_mesh_0125.obj'

# Vertices (Count = 48)
v -1 -1 0
v -2 -1 0
v -2 0 0
v -1 0 0
v -7 -1 0
v -8 -1 0
v -8 0 0
v -7 0 0
v -8 -1 0
v -9 -1 0
v -9 0 0
v -8 0 0
v -14 -1 0
v -15 -1 0
v -15 0 0
v -14 0 0
v -3 -3 0
v -4 -3 0
v -4 -2 0
v -3 -2 0
v -11 -3 0
v -12 -3 0
v -12 -2 0
v -11 -2 0
v -1 -6 0
v -2 -6 0
v -2 -5 0
v -1 -5 0
v -15 -7 0
v -16 -7 0
v -16 -6 0
v -15 -6 0
v -13 -12 0
v -14 -12 0
v -14 -11 0
v -13 -11 0
v -2 -13 0
v -3 -13 0
v -3 -12 0
v -2 -12 0
v -12 -15 0
v -13 -15 0
v -13 -14 0
v -12 -14 0
v -4 -16 0
v -5 -16 0
v -5 -15 0
v -4 -15 0

# Texture cooridinates (Count = 12)
vt 0.4375 0.9375
vt 0.5 0.9375
vt 0.5 1
vt 0.4375 1
vt 0.3125 0.75
vt 0.375 0.75
vt 0.375 0.8125
vt 0.3125 0.8125
vt 0.0625 0.75
vt 0.125 0.75
vt 0.125 0.8125
vt 0.0625 0.8125

# Normal
vn 0 0 -1

# Mesh description
g World1_mesh_0125

# Faces
f 1/1/1 2/2/1 3/3/1 4/4/1
f 5/5/1 6/6/1 7/7/1 8/8/1
f 9/5/1 10/6/1 11/7/1 12/8/1
f 13/1/1 14/2/1 15/3/1 16/4/1
f 17/9/1 18/10/1 19/11/1 20/12/1
f 21/9/1 22/10/1 23/11/1 24/12/1
f 25/9/1 26/10/1 27/11/1 28/12/1
f 29/9/1 30/10/1 31/11/1 32/12/1
f 33/9/1 34/10/1 35/11/1 36/12/1
f 37/9/1 38/10/1 39/11/1 40/12/1
f 41/9/1 42/10/1 43/11/1 44/12/1
f 45/9/1 46/10/1 47/11/1 48/12/1

