# Tiled2Unity generated file. Do not modify by hand.
# Wavefront file for 'World1_mesh_0006.obj'

# Vertices (Count = 140)
v 0 -1 0
v -1 -1 0
v -1 0 0
v 0 0 0
v 0 -14 0
v -1 -14 0
v -1 -13 0
v 0 -13 0
v -1 -14 0
v -2 -14 0
v -2 -13 0
v -1 -13 0
v 0 -15 0
v -1 -15 0
v -1 -14 0
v 0 -14 0
v -1 -15 0
v -2 -15 0
v -2 -14 0
v -1 -14 0
v -2 -15 0
v -3 -15 0
v -3 -14 0
v -2 -14 0
v -3 -15 0
v -4 -15 0
v -4 -14 0
v -3 -14 0
v -4 -15 0
v -5 -15 0
v -5 -14 0
v -4 -14 0
v -5 -15 0
v -6 -15 0
v -6 -14 0
v -5 -14 0
v -6 -15 0
v -7 -15 0
v -7 -14 0
v -6 -14 0
v -7 -15 0
v -8 -15 0
v -8 -14 0
v -7 -14 0
v -8 -15 0
v -9 -15 0
v -9 -14 0
v -8 -14 0
v -9 -15 0
v -10 -15 0
v -10 -14 0
v -9 -14 0
v -10 -15 0
v -11 -15 0
v -11 -14 0
v -10 -14 0
v -11 -15 0
v -12 -15 0
v -12 -14 0
v -11 -14 0
v -12 -15 0
v -13 -15 0
v -13 -14 0
v -12 -14 0
v -13 -15 0
v -14 -15 0
v -14 -14 0
v -13 -14 0
v -14 -15 0
v -15 -15 0
v -15 -14 0
v -14 -14 0
v -15 -15 0
v -16 -15 0
v -16 -14 0
v -15 -14 0
v 0 -16 0
v -1 -16 0
v -1 -15 0
v 0 -15 0
v -1 -16 0
v -2 -16 0
v -2 -15 0
v -1 -15 0
v -2 -16 0
v -3 -16 0
v -3 -15 0
v -2 -15 0
v -3 -16 0
v -4 -16 0
v -4 -15 0
v -3 -15 0
v -4 -16 0
v -5 -16 0
v -5 -15 0
v -4 -15 0
v -5 -16 0
v -6 -16 0
v -6 -15 0
v -5 -15 0
v -6 -16 0
v -7 -16 0
v -7 -15 0
v -6 -15 0
v -7 -16 0
v -8 -16 0
v -8 -15 0
v -7 -15 0
v -8 -16 0
v -9 -16 0
v -9 -15 0
v -8 -15 0
v -9 -16 0
v -10 -16 0
v -10 -15 0
v -9 -15 0
v -10 -16 0
v -11 -16 0
v -11 -15 0
v -10 -15 0
v -11 -16 0
v -12 -16 0
v -12 -15 0
v -11 -15 0
v -12 -16 0
v -13 -16 0
v -13 -15 0
v -12 -15 0
v -13 -16 0
v -14 -16 0
v -14 -15 0
v -13 -15 0
v -14 -16 0
v -15 -16 0
v -15 -15 0
v -14 -15 0
v -15 -16 0
v -16 -16 0
v -16 -15 0
v -15 -15 0

# Texture cooridinates (Count = 4)
vt 0.125 0.75
vt 0.1875 0.75
vt 0.1875 0.8125
vt 0.125 0.8125

# Normal
vn 0 0 -1

# Mesh description
g World1_mesh_0006

# Faces
f 1/1/1 2/2/1 3/3/1 4/4/1
f 5/2/1 6/3/1 7/4/1 8/1/1
f 9/2/1 10/3/1 11/4/1 12/1/1
f 13/2/1 14/3/1 15/4/1 16/1/1
f 17/2/1 18/3/1 19/4/1 20/1/1
f 21/2/1 22/3/1 23/4/1 24/1/1
f 25/2/1 26/3/1 27/4/1 28/1/1
f 29/2/1 30/3/1 31/4/1 32/1/1
f 33/2/1 34/3/1 35/4/1 36/1/1
f 37/2/1 38/3/1 39/4/1 40/1/1
f 41/2/1 42/3/1 43/4/1 44/1/1
f 45/2/1 46/3/1 47/4/1 48/1/1
f 49/2/1 50/3/1 51/4/1 52/1/1
f 53/2/1 54/3/1 55/4/1 56/1/1
f 57/2/1 58/3/1 59/4/1 60/1/1
f 61/2/1 62/3/1 63/4/1 64/1/1
f 65/1/1 66/2/1 67/3/1 68/4/1
f 69/1/1 70/2/1 71/3/1 72/4/1
f 73/1/1 74/2/1 75/3/1 76/4/1
f 77/2/1 78/3/1 79/4/1 80/1/1
f 81/2/1 82/3/1 83/4/1 84/1/1
f 85/2/1 86/3/1 87/4/1 88/1/1
f 89/2/1 90/3/1 91/4/1 92/1/1
f 93/2/1 94/3/1 95/4/1 96/1/1
f 97/2/1 98/3/1 99/4/1 100/1/1
f 101/2/1 102/3/1 103/4/1 104/1/1
f 105/2/1 106/3/1 107/4/1 108/1/1
f 109/2/1 110/3/1 111/4/1 112/1/1
f 113/2/1 114/3/1 115/4/1 116/1/1
f 117/2/1 118/3/1 119/4/1 120/1/1
f 121/2/1 122/3/1 123/4/1 124/1/1
f 125/2/1 126/3/1 127/4/1 128/1/1
f 129/1/1 130/2/1 131/3/1 132/4/1
f 133/1/1 134/2/1 135/3/1 136/4/1
f 137/1/1 138/2/1 139/3/1 140/4/1

