# Tiled2Unity generated file. Do not modify by hand.
# Wavefront file for 'World1_mesh_0093.obj'

# Vertices (Count = 268)
v -2 -1 0
v -3 -1 0
v -3 0 0
v -2 0 0
v -9 -1 0
v -10 -1 0
v -10 0 0
v -9 0 0
v -2 -2 0
v -3 -2 0
v -3 -1 0
v -2 -1 0
v -9 -2 0
v -10 -2 0
v -10 -1 0
v -9 -1 0
v 0 -3 0
v -1 -3 0
v -1 -2 0
v 0 -2 0
v -1 -3 0
v -2 -3 0
v -2 -2 0
v -1 -2 0
v -2 -3 0
v -3 -3 0
v -3 -2 0
v -2 -2 0
v -9 -3 0
v -10 -3 0
v -10 -2 0
v -9 -2 0
v 0 -4 0
v -1 -4 0
v -1 -3 0
v 0 -3 0
v -1 -4 0
v -2 -4 0
v -2 -3 0
v -1 -3 0
v -2 -4 0
v -3 -4 0
v -3 -3 0
v -2 -3 0
v -9 -4 0
v -10 -4 0
v -10 -3 0
v -9 -3 0
v -9 -5 0
v -10 -5 0
v -10 -4 0
v -9 -4 0
v 0 -6 0
v -1 -6 0
v -1 -5 0
v 0 -5 0
v -1 -6 0
v -2 -6 0
v -2 -5 0
v -1 -5 0
v -2 -6 0
v -3 -6 0
v -3 -5 0
v -2 -5 0
v -9 -6 0
v -10 -6 0
v -10 -5 0
v -9 -5 0
v 0 -7 0
v -1 -7 0
v -1 -6 0
v 0 -6 0
v -1 -7 0
v -2 -7 0
v -2 -6 0
v -1 -6 0
v -2 -7 0
v -3 -7 0
v -3 -6 0
v -2 -6 0
v -3 -7 0
v -4 -7 0
v -4 -6 0
v -3 -6 0
v -4 -7 0
v -5 -7 0
v -5 -6 0
v -4 -6 0
v -5 -7 0
v -6 -7 0
v -6 -6 0
v -5 -6 0
v -6 -7 0
v -7 -7 0
v -7 -6 0
v -6 -6 0
v -7 -7 0
v -8 -7 0
v -8 -6 0
v -7 -6 0
v -8 -7 0
v -9 -7 0
v -9 -6 0
v -8 -6 0
v -9 -7 0
v -10 -7 0
v -10 -6 0
v -9 -6 0
v -2 -8 0
v -3 -8 0
v -3 -7 0
v -2 -7 0
v -3 -8 0
v -4 -8 0
v -4 -7 0
v -3 -7 0
v -4 -8 0
v -5 -8 0
v -5 -7 0
v -4 -7 0
v -5 -8 0
v -6 -8 0
v -6 -7 0
v -5 -7 0
v -6 -8 0
v -7 -8 0
v -7 -7 0
v -6 -7 0
v -7 -8 0
v -8 -8 0
v -8 -7 0
v -7 -7 0
v -8 -8 0
v -9 -8 0
v -9 -7 0
v -8 -7 0
v -9 -8 0
v -10 -8 0
v -10 -7 0
v -9 -7 0
v 0 -10 0
v -1 -10 0
v -1 -9 0
v 0 -9 0
v 0 -11 0
v -1 -11 0
v -1 -10 0
v 0 -10 0
v 0 -12 0
v -1 -12 0
v -1 -11 0
v 0 -11 0
v -4 -12 0
v -5 -12 0
v -5 -11 0
v -4 -11 0
v -5 -12 0
v -6 -12 0
v -6 -11 0
v -5 -11 0
v -6 -12 0
v -7 -12 0
v -7 -11 0
v -6 -11 0
v -7 -12 0
v -8 -12 0
v -8 -11 0
v -7 -11 0
v -8 -12 0
v -9 -12 0
v -9 -11 0
v -8 -11 0
v -9 -12 0
v -10 -12 0
v -10 -11 0
v -9 -11 0
v 0 -13 0
v -1 -13 0
v -1 -12 0
v 0 -12 0
v -1 -13 0
v -2 -13 0
v -2 -12 0
v -1 -12 0
v -2 -13 0
v -3 -13 0
v -3 -12 0
v -2 -12 0
v -3 -13 0
v -4 -13 0
v -4 -12 0
v -3 -12 0
v -4 -13 0
v -5 -13 0
v -5 -12 0
v -4 -12 0
v -5 -13 0
v -6 -13 0
v -6 -12 0
v -5 -12 0
v -6 -13 0
v -7 -13 0
v -7 -12 0
v -6 -12 0
v -7 -13 0
v -8 -13 0
v -8 -12 0
v -7 -12 0
v -8 -13 0
v -9 -13 0
v -9 -12 0
v -8 -12 0
v -9 -13 0
v -10 -13 0
v -10 -12 0
v -9 -12 0
v 0 -14 0
v -1 -14 0
v -1 -13 0
v 0 -13 0
v -1 -14 0
v -2 -14 0
v -2 -13 0
v -1 -13 0
v -2 -14 0
v -3 -14 0
v -3 -13 0
v -2 -13 0
v -3 -14 0
v -4 -14 0
v -4 -13 0
v -3 -13 0
v -4 -14 0
v -5 -14 0
v -5 -13 0
v -4 -13 0
v -9 -14 0
v -10 -14 0
v -10 -13 0
v -9 -13 0
v -9 -15 0
v -10 -15 0
v -10 -14 0
v -9 -14 0
v 0 -16 0
v -1 -16 0
v -1 -15 0
v 0 -15 0
v -1 -16 0
v -2 -16 0
v -2 -15 0
v -1 -15 0
v -2 -16 0
v -3 -16 0
v -3 -15 0
v -2 -15 0
v -3 -16 0
v -4 -16 0
v -4 -15 0
v -3 -15 0
v -4 -16 0
v -5 -16 0
v -5 -15 0
v -4 -15 0
v -9 -16 0
v -10 -16 0
v -10 -15 0
v -9 -15 0

# Texture cooridinates (Count = 30)
vt 0 0.875
vt 0.0625 0.875
vt 0.0625 0.9375
vt 0 0.9375
vt 0.125 0.875
vt 0.1875 0.875
vt 0.1875 0.9375
vt 0.125 0.9375
vt 0.125 1
vt 0.0625 1
vt 0.25 0.8125
vt 0.3125 0.8125
vt 0.3125 0.875
vt 0.25 0.875
vt 0.25 0.75
vt 0.3125 0.75
vt 0.0625 0.8125
vt 0.125 0.8125
vt 0.25 0.9375
vt 0.3125 0.9375
vt 0.3125 1
vt 0.25 1
vt 0.0625 0.75
vt 0.125 0.75
vt 0 0.75
vt 0 0.8125
vt 0.1875 0.75
vt 0.1875 0.8125
vt 0.1875 1
vt 0 1

# Normal
vn 0 0 -1

# Mesh description
g World1_mesh_0093

# Faces
f 1/1/1 2/2/1 3/3/1 4/4/1
f 5/5/1 6/6/1 7/7/1 8/8/1
f 9/1/1 10/2/1 11/3/1 12/4/1
f 13/5/1 14/6/1 15/7/1 16/8/1
f 17/3/1 18/8/1 19/9/1 20/10/1
f 21/3/1 22/8/1 23/9/1 24/10/1
f 25/11/1 26/12/1 27/13/1 28/14/1
f 29/5/1 30/6/1 31/7/1 32/8/1
f 33/2/1 34/5/1 35/8/1 36/3/1
f 37/2/1 38/5/1 39/8/1 40/3/1
f 41/15/1 42/16/1 43/12/1 44/11/1
f 45/5/1 46/6/1 47/7/1 48/8/1
f 49/5/1 50/6/1 51/7/1 52/8/1
f 53/17/1 54/18/1 55/5/1 56/2/1
f 57/17/1 58/18/1 59/5/1 60/2/1
f 61/19/1 62/20/1 63/21/1 64/22/1
f 65/5/1 66/6/1 67/7/1 68/8/1
f 69/23/1 70/24/1 71/18/1 72/17/1
f 73/23/1 74/24/1 75/18/1 76/17/1
f 77/14/1 78/13/1 79/20/1 80/19/1
f 81/17/1 82/18/1 83/5/1 84/2/1
f 85/17/1 86/18/1 87/5/1 88/2/1
f 89/17/1 90/18/1 91/5/1 92/2/1
f 93/17/1 94/18/1 95/5/1 96/2/1
f 97/17/1 98/18/1 99/5/1 100/2/1
f 101/17/1 102/18/1 103/5/1 104/2/1
f 105/5/1 106/6/1 107/7/1 108/8/1
f 109/25/1 110/23/1 111/17/1 112/26/1
f 113/23/1 114/24/1 115/18/1 116/17/1
f 117/23/1 118/24/1 119/18/1 120/17/1
f 121/23/1 122/24/1 123/18/1 124/17/1
f 125/23/1 126/24/1 127/18/1 128/17/1
f 129/23/1 130/24/1 131/18/1 132/17/1
f 133/23/1 134/24/1 135/18/1 136/17/1
f 137/24/1 138/27/1 139/28/1 140/18/1
f 141/8/1 142/7/1 143/29/1 144/9/1
f 145/5/1 146/6/1 147/7/1 148/8/1
f 149/5/1 150/6/1 151/7/1 152/8/1
f 153/4/1 154/3/1 155/10/1 156/30/1
f 157/3/1 158/8/1 159/9/1 160/10/1
f 161/3/1 162/8/1 163/9/1 164/10/1
f 165/3/1 166/8/1 167/9/1 168/10/1
f 169/3/1 170/8/1 171/9/1 172/10/1
f 173/8/1 174/7/1 175/29/1 176/9/1
f 177/28/1 178/11/1 179/14/1 180/6/1
f 181/3/1 182/8/1 183/9/1 184/10/1
f 185/3/1 186/8/1 187/9/1 188/10/1
f 189/3/1 190/8/1 191/9/1 192/10/1
f 193/11/1 194/12/1 195/13/1 196/14/1
f 197/2/1 198/5/1 199/8/1 200/3/1
f 201/2/1 202/5/1 203/8/1 204/3/1
f 205/2/1 206/5/1 207/8/1 208/3/1
f 209/2/1 210/5/1 211/8/1 212/3/1
f 213/5/1 214/6/1 215/7/1 216/8/1
f 217/27/1 218/15/1 219/11/1 220/28/1
f 221/2/1 222/5/1 223/8/1 224/3/1
f 225/2/1 226/5/1 227/8/1 228/3/1
f 229/2/1 230/5/1 231/8/1 232/3/1
f 233/15/1 234/16/1 235/12/1 236/11/1
f 237/5/1 238/6/1 239/7/1 240/8/1
f 241/5/1 242/6/1 243/7/1 244/8/1
f 245/7/1 246/19/1 247/22/1 248/29/1
f 249/17/1 250/18/1 251/5/1 252/2/1
f 253/17/1 254/18/1 255/5/1 256/2/1
f 257/17/1 258/18/1 259/5/1 260/2/1
f 261/19/1 262/20/1 263/21/1 264/22/1
f 265/5/1 266/6/1 267/7/1 268/8/1

