# Tiled2Unity generated file. Do not modify by hand.
# Wavefront file for 'World1_mesh_0046.obj'

# Vertices (Count = 36)
v 0 -1 0
v -1 -1 0
v -1 0 0
v 0 0 0
v -1 -1 0
v -2 -1 0
v -2 0 0
v -1 0 0
v -2 -1 0
v -3 -1 0
v -3 0 0
v -2 0 0
v 0 -2 0
v -1 -2 0
v -1 -1 0
v 0 -1 0
v -1 -2 0
v -2 -2 0
v -2 -1 0
v -1 -1 0
v -2 -2 0
v -3 -2 0
v -3 -1 0
v -2 -1 0
v 0 -3 0
v -1 -3 0
v -1 -2 0
v 0 -2 0
v -1 -3 0
v -2 -3 0
v -2 -2 0
v -1 -2 0
v -2 -3 0
v -3 -3 0
v -3 -2 0
v -2 -2 0

# Texture cooridinates (Count = 10)
vt 0.1875 0.5
vt 0.25 0.5
vt 0.25 0.5625
vt 0.1875 0.5625
vt 0.125 0.75
vt 0.1875 0.75
vt 0.1875 0.8125
vt 0.125 0.8125
vt 0.1875 0.4375
vt 0.25 0.4375

# Normal
vn 0 0 -1

# Mesh description
g World1_mesh_0046

# Faces
f 1/1/1 2/2/1 3/3/1 4/4/1
f 5/5/1 6/6/1 7/7/1 8/8/1
f 9/5/1 10/6/1 11/7/1 12/8/1
f 13/9/1 14/10/1 15/2/1 16/1/1
f 17/5/1 18/6/1 19/7/1 20/8/1
f 21/5/1 22/6/1 23/7/1 24/8/1
f 25/5/1 26/6/1 27/7/1 28/8/1
f 29/5/1 30/6/1 31/7/1 32/8/1
f 33/5/1 34/6/1 35/7/1 36/8/1

