# Tiled2Unity generated file. Do not modify by hand.
# Wavefront file for 'World1_mesh_0104.obj'

# Vertices (Count = 212)
v -6 -1 0
v -7 -1 0
v -7 0 0
v -6 0 0
v -6 -2 0
v -7 -2 0
v -7 -1 0
v -6 -1 0
v -9 -2 0
v -10 -2 0
v -10 -1 0
v -9 -1 0
v -10 -2 0
v -11 -2 0
v -11 -1 0
v -10 -1 0
v -11 -2 0
v -12 -2 0
v -12 -1 0
v -11 -1 0
v -12 -2 0
v -13 -2 0
v -13 -1 0
v -12 -1 0
v -13 -2 0
v -14 -2 0
v -14 -1 0
v -13 -1 0
v -6 -3 0
v -7 -3 0
v -7 -2 0
v -6 -2 0
v -9 -3 0
v -10 -3 0
v -10 -2 0
v -9 -2 0
v -10 -3 0
v -11 -3 0
v -11 -2 0
v -10 -2 0
v -11 -3 0
v -12 -3 0
v -12 -2 0
v -11 -2 0
v -12 -3 0
v -13 -3 0
v -13 -2 0
v -12 -2 0
v -13 -3 0
v -14 -3 0
v -14 -2 0
v -13 -2 0
v -6 -4 0
v -7 -4 0
v -7 -3 0
v -6 -3 0
v -9 -4 0
v -10 -4 0
v -10 -3 0
v -9 -3 0
v -13 -4 0
v -14 -4 0
v -14 -3 0
v -13 -3 0
v -6 -5 0
v -7 -5 0
v -7 -4 0
v -6 -4 0
v -9 -5 0
v -10 -5 0
v -10 -4 0
v -9 -4 0
v -10 -5 0
v -11 -5 0
v -11 -4 0
v -10 -4 0
v -11 -5 0
v -12 -5 0
v -12 -4 0
v -11 -4 0
v -12 -5 0
v -13 -5 0
v -13 -4 0
v -12 -4 0
v -13 -5 0
v -14 -5 0
v -14 -4 0
v -13 -4 0
v -6 -6 0
v -7 -6 0
v -7 -5 0
v -6 -5 0
v -6 -7 0
v -7 -7 0
v -7 -6 0
v -6 -6 0
v -6 -8 0
v -7 -8 0
v -7 -7 0
v -6 -7 0
v -7 -8 0
v -8 -8 0
v -8 -7 0
v -7 -7 0
v -8 -8 0
v -9 -8 0
v -9 -7 0
v -8 -7 0
v -9 -8 0
v -10 -8 0
v -10 -7 0
v -9 -7 0
v -10 -8 0
v -11 -8 0
v -11 -7 0
v -10 -7 0
v -11 -8 0
v -12 -8 0
v -12 -7 0
v -11 -7 0
v -12 -8 0
v -13 -8 0
v -13 -7 0
v -12 -7 0
v -13 -8 0
v -14 -8 0
v -14 -7 0
v -13 -7 0
v -6 -9 0
v -7 -9 0
v -7 -8 0
v -6 -8 0
v -7 -9 0
v -8 -9 0
v -8 -8 0
v -7 -8 0
v -8 -9 0
v -9 -9 0
v -9 -8 0
v -8 -8 0
v -9 -9 0
v -10 -9 0
v -10 -8 0
v -9 -8 0
v -10 -9 0
v -11 -9 0
v -11 -8 0
v -10 -8 0
v -11 -9 0
v -12 -9 0
v -12 -8 0
v -11 -8 0
v -12 -9 0
v -13 -9 0
v -13 -8 0
v -12 -8 0
v -13 -9 0
v -14 -9 0
v -14 -8 0
v -13 -8 0
v -13 -10 0
v -14 -10 0
v -14 -9 0
v -13 -9 0
v -13 -11 0
v -14 -11 0
v -14 -10 0
v -13 -10 0
v -13 -12 0
v -14 -12 0
v -14 -11 0
v -13 -11 0
v -10 -13 0
v -11 -13 0
v -11 -12 0
v -10 -12 0
v -11 -13 0
v -12 -13 0
v -12 -12 0
v -11 -12 0
v -12 -13 0
v -13 -13 0
v -13 -12 0
v -12 -12 0
v -13 -13 0
v -14 -13 0
v -14 -12 0
v -13 -12 0
v -10 -14 0
v -11 -14 0
v -11 -13 0
v -10 -13 0
v -11 -14 0
v -12 -14 0
v -12 -13 0
v -11 -13 0
v -12 -14 0
v -13 -14 0
v -13 -13 0
v -12 -13 0
v -13 -14 0
v -14 -14 0
v -14 -13 0
v -13 -13 0
v -10 -15 0
v -11 -15 0
v -11 -14 0
v -10 -14 0
v -10 -16 0
v -11 -16 0
v -11 -15 0
v -10 -15 0

# Texture cooridinates (Count = 29)
vt 0 0.8125
vt 0.0625 0.8125
vt 0.0625 0.875
vt 0 0.875
vt 0 0.9375
vt 0.0625 0.9375
vt 0.0625 1
vt 0 1
vt 0.125 0.9375
vt 0.125 1
vt 0.1875 0.9375
vt 0.1875 1
vt 0.125 0.875
vt 0.1875 0.875
vt 0.125 0.8125
vt 0.1875 0.8125
vt 0.25 0.9375
vt 0.3125 0.9375
vt 0.3125 1
vt 0.25 1
vt 0 0.75
vt 0.0625 0.75
vt 0.125 0.75
vt 0.25 0.875
vt 0.3125 0.875
vt 0.25 0.8125
vt 0.3125 0.8125
vt 0.25 0.75
vt 0.3125 0.75

# Normal
vn 0 0 -1

# Mesh description
g World1_mesh_0104

# Faces
f 1/1/1 2/2/1 3/3/1 4/4/1
f 5/1/1 6/2/1 7/3/1 8/4/1
f 9/5/1 10/6/1 11/7/1 12/8/1
f 13/6/1 14/9/1 15/10/1 16/7/1
f 17/6/1 18/9/1 19/10/1 20/7/1
f 21/6/1 22/9/1 23/10/1 24/7/1
f 25/9/1 26/11/1 27/12/1 28/10/1
f 29/1/1 30/2/1 31/3/1 32/4/1
f 33/4/1 34/3/1 35/6/1 36/5/1
f 37/3/1 38/13/1 39/9/1 40/6/1
f 41/3/1 42/13/1 43/9/1 44/6/1
f 45/3/1 46/13/1 47/9/1 48/6/1
f 49/13/1 50/14/1 51/11/1 52/9/1
f 53/1/1 54/2/1 55/3/1 56/4/1
f 57/4/1 58/3/1 59/6/1 60/5/1
f 61/15/1 62/16/1 63/14/1 64/13/1
f 65/1/1 66/2/1 67/3/1 68/4/1
f 69/4/1 70/3/1 71/6/1 72/5/1
f 73/2/1 74/15/1 75/13/1 76/3/1
f 77/2/1 78/15/1 79/13/1 80/3/1
f 81/2/1 82/15/1 83/13/1 84/3/1
f 85/15/1 86/16/1 87/14/1 88/13/1
f 89/1/1 90/2/1 91/3/1 92/4/1
f 93/1/1 94/2/1 95/3/1 96/4/1
f 97/1/1 98/2/1 99/3/1 100/4/1
f 101/2/1 102/15/1 103/13/1 104/3/1
f 105/2/1 106/15/1 107/13/1 108/3/1
f 109/2/1 110/15/1 111/13/1 112/3/1
f 113/2/1 114/15/1 115/13/1 116/3/1
f 117/2/1 118/15/1 119/13/1 120/3/1
f 121/2/1 122/15/1 123/13/1 124/3/1
f 125/17/1 126/18/1 127/19/1 128/20/1
f 129/21/1 130/22/1 131/2/1 132/1/1
f 133/22/1 134/23/1 135/15/1 136/2/1
f 137/22/1 138/23/1 139/15/1 140/2/1
f 141/22/1 142/23/1 143/15/1 144/2/1
f 145/22/1 146/23/1 147/15/1 148/2/1
f 149/22/1 150/23/1 151/15/1 152/2/1
f 153/22/1 154/23/1 155/15/1 156/2/1
f 157/24/1 158/25/1 159/18/1 160/17/1
f 161/1/1 162/2/1 163/3/1 164/4/1
f 165/1/1 166/2/1 167/3/1 168/4/1
f 169/1/1 170/2/1 171/3/1 172/4/1
f 173/5/1 174/6/1 175/7/1 176/8/1
f 177/6/1 178/9/1 179/10/1 180/7/1
f 181/6/1 182/9/1 183/10/1 184/7/1
f 185/26/1 186/27/1 187/25/1 188/24/1
f 189/1/1 190/2/1 191/3/1 192/4/1
f 193/3/1 194/13/1 195/9/1 196/6/1
f 197/3/1 198/13/1 199/9/1 200/6/1
f 201/28/1 202/29/1 203/27/1 204/26/1
f 205/1/1 206/2/1 207/3/1 208/4/1
f 209/1/1 210/2/1 211/3/1 212/4/1

