# Tiled2Unity generated file. Do not modify by hand.
# Wavefront file for 'World1_mesh_0036.obj'

# Vertices (Count = 388)
v -5 -1 0
v -6 -1 0
v -6 0 0
v -5 0 0
v -6 -1 0
v -7 -1 0
v -7 0 0
v -6 0 0
v -7 -1 0
v -8 -1 0
v -8 0 0
v -7 0 0
v -8 -1 0
v -9 -1 0
v -9 0 0
v -8 0 0
v 0 -8 0
v -1 -8 0
v -1 -7 0
v 0 -7 0
v -1 -8 0
v -2 -8 0
v -2 -7 0
v -1 -7 0
v -2 -8 0
v -3 -8 0
v -3 -7 0
v -2 -7 0
v -3 -8 0
v -4 -8 0
v -4 -7 0
v -3 -7 0
v -7 -8 0
v -8 -8 0
v -8 -7 0
v -7 -7 0
v -8 -8 0
v -9 -8 0
v -9 -7 0
v -8 -7 0
v -9 -8 0
v -10 -8 0
v -10 -7 0
v -9 -7 0
v -10 -8 0
v -11 -8 0
v -11 -7 0
v -10 -7 0
v -14 -8 0
v -15 -8 0
v -15 -7 0
v -14 -7 0
v -15 -8 0
v -16 -8 0
v -16 -7 0
v -15 -7 0
v 0 -9 0
v -1 -9 0
v -1 -8 0
v 0 -8 0
v -1 -9 0
v -2 -9 0
v -2 -8 0
v -1 -8 0
v -2 -9 0
v -3 -9 0
v -3 -8 0
v -2 -8 0
v -3 -9 0
v -4 -9 0
v -4 -8 0
v -3 -8 0
v -4 -9 0
v -5 -9 0
v -5 -8 0
v -4 -8 0
v -5 -9 0
v -6 -9 0
v -6 -8 0
v -5 -8 0
v -6 -9 0
v -7 -9 0
v -7 -8 0
v -6 -8 0
v -7 -9 0
v -8 -9 0
v -8 -8 0
v -7 -8 0
v -8 -9 0
v -9 -9 0
v -9 -8 0
v -8 -8 0
v -9 -9 0
v -10 -9 0
v -10 -8 0
v -9 -8 0
v -10 -9 0
v -11 -9 0
v -11 -8 0
v -10 -8 0
v -11 -9 0
v -12 -9 0
v -12 -8 0
v -11 -8 0
v -12 -9 0
v -13 -9 0
v -13 -8 0
v -12 -8 0
v -13 -9 0
v -14 -9 0
v -14 -8 0
v -13 -8 0
v -14 -9 0
v -15 -9 0
v -15 -8 0
v -14 -8 0
v -15 -9 0
v -16 -9 0
v -16 -8 0
v -15 -8 0
v 0 -10 0
v -1 -10 0
v -1 -9 0
v 0 -9 0
v -1 -10 0
v -2 -10 0
v -2 -9 0
v -1 -9 0
v -2 -10 0
v -3 -10 0
v -3 -9 0
v -2 -9 0
v -3 -10 0
v -4 -10 0
v -4 -9 0
v -3 -9 0
v -4 -10 0
v -5 -10 0
v -5 -9 0
v -4 -9 0
v -5 -10 0
v -6 -10 0
v -6 -9 0
v -5 -9 0
v -6 -10 0
v -7 -10 0
v -7 -9 0
v -6 -9 0
v -7 -10 0
v -8 -10 0
v -8 -9 0
v -7 -9 0
v -8 -10 0
v -9 -10 0
v -9 -9 0
v -8 -9 0
v -9 -10 0
v -10 -10 0
v -10 -9 0
v -9 -9 0
v -10 -10 0
v -11 -10 0
v -11 -9 0
v -10 -9 0
v -11 -10 0
v -12 -10 0
v -12 -9 0
v -11 -9 0
v -12 -10 0
v -13 -10 0
v -13 -9 0
v -12 -9 0
v -13 -10 0
v -14 -10 0
v -14 -9 0
v -13 -9 0
v -14 -10 0
v -15 -10 0
v -15 -9 0
v -14 -9 0
v -15 -10 0
v -16 -10 0
v -16 -9 0
v -15 -9 0
v 0 -11 0
v -1 -11 0
v -1 -10 0
v 0 -10 0
v -1 -11 0
v -2 -11 0
v -2 -10 0
v -1 -10 0
v -2 -11 0
v -3 -11 0
v -3 -10 0
v -2 -10 0
v -3 -11 0
v -4 -11 0
v -4 -10 0
v -3 -10 0
v -7 -11 0
v -8 -11 0
v -8 -10 0
v -7 -10 0
v -8 -11 0
v -9 -11 0
v -9 -10 0
v -8 -10 0
v -9 -11 0
v -10 -11 0
v -10 -10 0
v -9 -10 0
v -10 -11 0
v -11 -11 0
v -11 -10 0
v -10 -10 0
v -14 -11 0
v -15 -11 0
v -15 -10 0
v -14 -10 0
v -15 -11 0
v -16 -11 0
v -16 -10 0
v -15 -10 0
v -1 -12 0
v -2 -12 0
v -2 -11 0
v -1 -11 0
v -2 -12 0
v -3 -12 0
v -3 -11 0
v -2 -11 0
v -8 -12 0
v -9 -12 0
v -9 -11 0
v -8 -11 0
v -9 -12 0
v -10 -12 0
v -10 -11 0
v -9 -11 0
v -15 -12 0
v -16 -12 0
v -16 -11 0
v -15 -11 0
v -1 -13 0
v -2 -13 0
v -2 -12 0
v -1 -12 0
v -2 -13 0
v -3 -13 0
v -3 -12 0
v -2 -12 0
v -8 -13 0
v -9 -13 0
v -9 -12 0
v -8 -12 0
v -9 -13 0
v -10 -13 0
v -10 -12 0
v -9 -12 0
v -15 -13 0
v -16 -13 0
v -16 -12 0
v -15 -12 0
v -1 -14 0
v -2 -14 0
v -2 -13 0
v -1 -13 0
v -2 -14 0
v -3 -14 0
v -3 -13 0
v -2 -13 0
v -8 -14 0
v -9 -14 0
v -9 -13 0
v -8 -13 0
v -9 -14 0
v -10 -14 0
v -10 -13 0
v -9 -13 0
v -15 -14 0
v -16 -14 0
v -16 -13 0
v -15 -13 0
v 0 -15 0
v -1 -15 0
v -1 -14 0
v 0 -14 0
v -1 -15 0
v -2 -15 0
v -2 -14 0
v -1 -14 0
v -2 -15 0
v -3 -15 0
v -3 -14 0
v -2 -14 0
v -3 -15 0
v -4 -15 0
v -4 -14 0
v -3 -14 0
v -7 -15 0
v -8 -15 0
v -8 -14 0
v -7 -14 0
v -8 -15 0
v -9 -15 0
v -9 -14 0
v -8 -14 0
v -9 -15 0
v -10 -15 0
v -10 -14 0
v -9 -14 0
v -10 -15 0
v -11 -15 0
v -11 -14 0
v -10 -14 0
v -14 -15 0
v -15 -15 0
v -15 -14 0
v -14 -14 0
v -15 -15 0
v -16 -15 0
v -16 -14 0
v -15 -14 0
v 0 -16 0
v -1 -16 0
v -1 -15 0
v 0 -15 0
v -1 -16 0
v -2 -16 0
v -2 -15 0
v -1 -15 0
v -2 -16 0
v -3 -16 0
v -3 -15 0
v -2 -15 0
v -3 -16 0
v -4 -16 0
v -4 -15 0
v -3 -15 0
v -4 -16 0
v -5 -16 0
v -5 -15 0
v -4 -15 0
v -5 -16 0
v -6 -16 0
v -6 -15 0
v -5 -15 0
v -6 -16 0
v -7 -16 0
v -7 -15 0
v -6 -15 0
v -7 -16 0
v -8 -16 0
v -8 -15 0
v -7 -15 0
v -8 -16 0
v -9 -16 0
v -9 -15 0
v -8 -15 0
v -9 -16 0
v -10 -16 0
v -10 -15 0
v -9 -15 0
v -10 -16 0
v -11 -16 0
v -11 -15 0
v -10 -15 0
v -11 -16 0
v -12 -16 0
v -12 -15 0
v -11 -15 0
v -12 -16 0
v -13 -16 0
v -13 -15 0
v -12 -15 0
v -13 -16 0
v -14 -16 0
v -14 -15 0
v -13 -15 0
v -14 -16 0
v -15 -16 0
v -15 -15 0
v -14 -15 0
v -15 -16 0
v -16 -16 0
v -16 -15 0
v -15 -15 0

# Texture cooridinates (Count = 20)
vt 0 0.4375
vt 0.0625 0.4375
vt 0.0625 0.5
vt 0 0.5
vt 0.125 0.4375
vt 0.125 0.5
vt 0.1875 0.4375
vt 0.1875 0.5
vt 0.25 0.4375
vt 0.25 0.5
vt 0.125 0.8125
vt 0.1875 0.8125
vt 0.1875 0.875
vt 0.125 0.875
vt 0 0.8125
vt 0.0625 0.8125
vt 0.0625 0.875
vt 0 0.875
vt 0.125 0.75
vt 0.1875 0.75

# Normal
vn 0 0 -1

# Mesh description
g World1_mesh_0036

# Faces
f 1/1/1 2/2/1 3/3/1 4/4/1
f 5/2/1 6/5/1 7/6/1 8/3/1
f 9/5/1 10/7/1 11/8/1 12/6/1
f 13/7/1 14/9/1 15/10/1 16/8/1
f 17/11/1 18/12/1 19/13/1 20/14/1
f 21/15/1 22/16/1 23/17/1 24/18/1
f 25/15/1 26/16/1 27/17/1 28/18/1
f 29/15/1 30/16/1 31/17/1 32/18/1
f 33/15/1 34/16/1 35/17/1 36/18/1
f 37/11/1 38/12/1 39/13/1 40/14/1
f 41/15/1 42/16/1 43/17/1 44/18/1
f 45/15/1 46/16/1 47/17/1 48/18/1
f 49/15/1 50/16/1 51/17/1 52/18/1
f 53/15/1 54/16/1 55/17/1 56/18/1
f 57/19/1 58/20/1 59/12/1 60/11/1
f 61/19/1 62/20/1 63/12/1 64/11/1
f 65/19/1 66/20/1 67/12/1 68/11/1
f 69/19/1 70/20/1 71/12/1 72/11/1
f 73/15/1 74/16/1 75/17/1 76/18/1
f 77/15/1 78/16/1 79/17/1 80/18/1
f 81/15/1 82/16/1 83/17/1 84/18/1
f 85/19/1 86/20/1 87/12/1 88/11/1
f 89/19/1 90/20/1 91/12/1 92/11/1
f 93/19/1 94/20/1 95/12/1 96/11/1
f 97/19/1 98/20/1 99/12/1 100/11/1
f 101/16/1 102/11/1 103/14/1 104/17/1
f 105/16/1 106/11/1 107/14/1 108/17/1
f 109/16/1 110/11/1 111/14/1 112/17/1
f 113/19/1 114/20/1 115/12/1 116/11/1
f 117/19/1 118/20/1 119/12/1 120/11/1
f 121/19/1 122/20/1 123/12/1 124/11/1
f 125/19/1 126/20/1 127/12/1 128/11/1
f 129/19/1 130/20/1 131/12/1 132/11/1
f 133/19/1 134/20/1 135/12/1 136/11/1
f 137/19/1 138/20/1 139/12/1 140/11/1
f 141/19/1 142/20/1 143/12/1 144/11/1
f 145/19/1 146/20/1 147/12/1 148/11/1
f 149/19/1 150/20/1 151/12/1 152/11/1
f 153/19/1 154/20/1 155/12/1 156/11/1
f 157/19/1 158/20/1 159/12/1 160/11/1
f 161/19/1 162/20/1 163/12/1 164/11/1
f 165/19/1 166/20/1 167/12/1 168/11/1
f 169/19/1 170/20/1 171/12/1 172/11/1
f 173/19/1 174/20/1 175/12/1 176/11/1
f 177/19/1 178/20/1 179/12/1 180/11/1
f 181/19/1 182/20/1 183/12/1 184/11/1
f 185/19/1 186/20/1 187/12/1 188/11/1
f 189/19/1 190/20/1 191/12/1 192/11/1
f 193/19/1 194/20/1 195/12/1 196/11/1
f 197/19/1 198/20/1 199/12/1 200/11/1
f 201/19/1 202/20/1 203/12/1 204/11/1
f 205/19/1 206/20/1 207/12/1 208/11/1
f 209/19/1 210/20/1 211/12/1 212/11/1
f 213/19/1 214/20/1 215/12/1 216/11/1
f 217/19/1 218/20/1 219/12/1 220/11/1
f 221/19/1 222/20/1 223/12/1 224/11/1
f 225/19/1 226/20/1 227/12/1 228/11/1
f 229/19/1 230/20/1 231/12/1 232/11/1
f 233/19/1 234/20/1 235/12/1 236/11/1
f 237/19/1 238/20/1 239/12/1 240/11/1
f 241/19/1 242/20/1 243/12/1 244/11/1
f 245/19/1 246/20/1 247/12/1 248/11/1
f 249/19/1 250/20/1 251/12/1 252/11/1
f 253/19/1 254/20/1 255/12/1 256/11/1
f 257/19/1 258/20/1 259/12/1 260/11/1
f 261/19/1 262/20/1 263/12/1 264/11/1
f 265/19/1 266/20/1 267/12/1 268/11/1
f 269/19/1 270/20/1 271/12/1 272/11/1
f 273/19/1 274/20/1 275/12/1 276/11/1
f 277/19/1 278/20/1 279/12/1 280/11/1
f 281/19/1 282/20/1 283/12/1 284/11/1
f 285/11/1 286/12/1 287/13/1 288/14/1
f 289/19/1 290/20/1 291/12/1 292/11/1
f 293/19/1 294/20/1 295/12/1 296/11/1
f 297/15/1 298/16/1 299/17/1 300/18/1
f 301/11/1 302/12/1 303/13/1 304/14/1
f 305/19/1 306/20/1 307/12/1 308/11/1
f 309/19/1 310/20/1 311/12/1 312/11/1
f 313/15/1 314/16/1 315/17/1 316/18/1
f 317/15/1 318/16/1 319/17/1 320/18/1
f 321/19/1 322/20/1 323/12/1 324/11/1
f 325/19/1 326/20/1 327/12/1 328/11/1
f 329/19/1 330/20/1 331/12/1 332/11/1
f 333/19/1 334/20/1 335/12/1 336/11/1
f 337/19/1 338/20/1 339/12/1 340/11/1
f 341/11/1 342/12/1 343/13/1 344/14/1
f 345/16/1 346/11/1 347/14/1 348/17/1
f 349/16/1 350/11/1 351/14/1 352/17/1
f 353/19/1 354/20/1 355/12/1 356/11/1
f 357/19/1 358/20/1 359/12/1 360/11/1
f 361/19/1 362/20/1 363/12/1 364/11/1
f 365/19/1 366/20/1 367/12/1 368/11/1
f 369/11/1 370/12/1 371/13/1 372/14/1
f 373/15/1 374/16/1 375/17/1 376/18/1
f 377/16/1 378/11/1 379/14/1 380/17/1
f 381/19/1 382/20/1 383/12/1 384/11/1
f 385/19/1 386/20/1 387/12/1 388/11/1

