# Tiled2Unity generated file. Do not modify by hand.
# Wavefront file for 'World1_mesh_0150.obj'

# Vertices (Count = 32)
v -2 -10 0
v -3 -10 0
v -3 -9 0
v -2 -9 0
v -2 -14 0
v -3 -14 0
v -3 -13 0
v -2 -13 0
v -6 -14 0
v -7 -14 0
v -7 -13 0
v -6 -13 0
v -14 -14 0
v -15 -14 0
v -15 -13 0
v -14 -13 0
v -6 -15 0
v -7 -15 0
v -7 -14 0
v -6 -14 0
v -14 -15 0
v -15 -15 0
v -15 -14 0
v -14 -14 0
v -6 -16 0
v -7 -16 0
v -7 -15 0
v -6 -15 0
v -14 -16 0
v -15 -16 0
v -15 -15 0
v -14 -15 0

# Texture cooridinates (Count = 15)
vt 0.1875 0.875
vt 0.25 0.875
vt 0.25 0.9375
vt 0.1875 0.9375
vt 0.0625 0.75
vt 0.125 0.75
vt 0.125 0.8125
vt 0.0625 0.8125
vt 0 0.75
vt 0 0.8125
vt 0.125 0.6875
vt 0.1875 0.6875
vt 0.1875 0.75
vt 0.125 0.625
vt 0.1875 0.625

# Normal
vn 0 0 -1

# Mesh description
g World1_mesh_0150

# Faces
f 1/1/1 2/2/1 3/3/1 4/4/1
f 5/5/1 6/6/1 7/7/1 8/8/1
f 9/9/1 10/5/1 11/8/1 12/10/1
f 13/9/1 14/5/1 15/8/1 16/10/1
f 17/11/1 18/12/1 19/13/1 20/6/1
f 21/11/1 22/12/1 23/13/1 24/6/1
f 25/14/1 26/15/1 27/12/1 28/11/1
f 29/14/1 30/15/1 31/12/1 32/11/1

