# Tiled2Unity generated file. Do not modify by hand.
# Wavefront file for 'World1_mesh_0166.obj'

# Vertices (Count = 12)
v -14 -1 0
v -15 -1 0
v -15 0 0
v -14 0 0
v -14 -2 0
v -15 -2 0
v -15 -1 0
v -14 -1 0
v -15 -2 0
v -16 -2 0
v -16 -1 0
v -15 -1 0

# Texture cooridinates (Count = 4)
vt 0.25 0.5625
vt 0.3125 0.5625
vt 0.3125 0.625
vt 0.25 0.625

# Normal
vn 0 0 -1

# Mesh description
g World1_mesh_0166

# Faces
f 1/1/1 2/2/1 3/3/1 4/4/1
f 5/1/1 6/2/1 7/3/1 8/4/1
f 9/1/1 10/2/1 11/3/1 12/4/1

