# Tiled2Unity generated file. Do not modify by hand.
# Wavefront file for 'World1_mesh_0146.obj'

# Vertices (Count = 16)
v 0 -8 0
v -1 -8 0
v -1 -7 0
v 0 -7 0
v -12 -11 0
v -13 -11 0
v -13 -10 0
v -12 -10 0
v -5 -14 0
v -6 -14 0
v -6 -13 0
v -5 -13 0
v 0 -15 0
v -1 -15 0
v -1 -14 0
v 0 -14 0

# Texture cooridinates (Count = 12)
vt 0.0625 0.75
vt 0.125 0.75
vt 0.125 0.8125
vt 0.0625 0.8125
vt 0.4375 0.9375
vt 0.5 0.9375
vt 0.5 1
vt 0.4375 1
vt 0.3125 0.75
vt 0.375 0.75
vt 0.375 0.8125
vt 0.3125 0.8125

# Normal
vn 0 0 -1

# Mesh description
g World1_mesh_0146

# Faces
f 1/1/1 2/2/1 3/3/1 4/4/1
f 5/5/1 6/6/1 7/7/1 8/8/1
f 9/9/1 10/10/1 11/11/1 12/12/1
f 13/1/1 14/2/1 15/3/1 16/4/1

