# Tiled2Unity generated file. Do not modify by hand.
# Wavefront file for 'World1_mesh_0066.obj'

# Vertices (Count = 292)
v 0 -1 0
v -1 -1 0
v -1 0 0
v 0 0 0
v -1 -1 0
v -2 -1 0
v -2 0 0
v -1 0 0
v -2 -1 0
v -3 -1 0
v -3 0 0
v -2 0 0
v -3 -1 0
v -4 -1 0
v -4 0 0
v -3 0 0
v -4 -1 0
v -5 -1 0
v -5 0 0
v -4 0 0
v -5 -1 0
v -6 -1 0
v -6 0 0
v -5 0 0
v -6 -1 0
v -7 -1 0
v -7 0 0
v -6 0 0
v -9 -1 0
v -10 -1 0
v -10 0 0
v -9 0 0
v -10 -1 0
v -11 -1 0
v -11 0 0
v -10 0 0
v -11 -1 0
v -12 -1 0
v -12 0 0
v -11 0 0
v -12 -1 0
v -13 -1 0
v -13 0 0
v -12 0 0
v -13 -1 0
v -14 -1 0
v -14 0 0
v -13 0 0
v -14 -1 0
v -15 -1 0
v -15 0 0
v -14 0 0
v -15 -1 0
v -16 -1 0
v -16 0 0
v -15 0 0
v 0 -2 0
v -1 -2 0
v -1 -1 0
v 0 -1 0
v -1 -2 0
v -2 -2 0
v -2 -1 0
v -1 -1 0
v -2 -2 0
v -3 -2 0
v -3 -1 0
v -2 -1 0
v -3 -2 0
v -4 -2 0
v -4 -1 0
v -3 -1 0
v -4 -2 0
v -5 -2 0
v -5 -1 0
v -4 -1 0
v -5 -2 0
v -6 -2 0
v -6 -1 0
v -5 -1 0
v -6 -2 0
v -7 -2 0
v -7 -1 0
v -6 -1 0
v -9 -2 0
v -10 -2 0
v -10 -1 0
v -9 -1 0
v -10 -2 0
v -11 -2 0
v -11 -1 0
v -10 -1 0
v -11 -2 0
v -12 -2 0
v -12 -1 0
v -11 -1 0
v -12 -2 0
v -13 -2 0
v -13 -1 0
v -12 -1 0
v -13 -2 0
v -14 -2 0
v -14 -1 0
v -13 -1 0
v -14 -2 0
v -15 -2 0
v -15 -1 0
v -14 -1 0
v -15 -2 0
v -16 -2 0
v -16 -1 0
v -15 -1 0
v -6 -3 0
v -7 -3 0
v -7 -2 0
v -6 -2 0
v -9 -3 0
v -10 -3 0
v -10 -2 0
v -9 -2 0
v -6 -4 0
v -7 -4 0
v -7 -3 0
v -6 -3 0
v -9 -4 0
v -10 -4 0
v -10 -3 0
v -9 -3 0
v -6 -5 0
v -7 -5 0
v -7 -4 0
v -6 -4 0
v -9 -5 0
v -10 -5 0
v -10 -4 0
v -9 -4 0
v -6 -6 0
v -7 -6 0
v -7 -5 0
v -6 -5 0
v -9 -6 0
v -10 -6 0
v -10 -5 0
v -9 -5 0
v -6 -7 0
v -7 -7 0
v -7 -6 0
v -6 -6 0
v -9 -7 0
v -10 -7 0
v -10 -6 0
v -9 -6 0
v -6 -8 0
v -7 -8 0
v -7 -7 0
v -6 -7 0
v -9 -8 0
v -10 -8 0
v -10 -7 0
v -9 -7 0
v -6 -9 0
v -7 -9 0
v -7 -8 0
v -6 -8 0
v -9 -9 0
v -10 -9 0
v -10 -8 0
v -9 -8 0
v -6 -10 0
v -7 -10 0
v -7 -9 0
v -6 -9 0
v -9 -10 0
v -10 -10 0
v -10 -9 0
v -9 -9 0
v -6 -11 0
v -7 -11 0
v -7 -10 0
v -6 -10 0
v -9 -11 0
v -10 -11 0
v -10 -10 0
v -9 -10 0
v -5 -12 0
v -6 -12 0
v -6 -11 0
v -5 -11 0
v -6 -12 0
v -7 -12 0
v -7 -11 0
v -6 -11 0
v -9 -12 0
v -10 -12 0
v -10 -11 0
v -9 -11 0
v -10 -12 0
v -11 -12 0
v -11 -11 0
v -10 -11 0
v -13 -12 0
v -14 -12 0
v -14 -11 0
v -13 -11 0
v -14 -12 0
v -15 -12 0
v -15 -11 0
v -14 -11 0
v -15 -12 0
v -16 -12 0
v -16 -11 0
v -15 -11 0
v -5 -13 0
v -6 -13 0
v -6 -12 0
v -5 -12 0
v -6 -13 0
v -7 -13 0
v -7 -12 0
v -6 -12 0
v -9 -13 0
v -10 -13 0
v -10 -12 0
v -9 -12 0
v -10 -13 0
v -11 -13 0
v -11 -12 0
v -10 -12 0
v -11 -13 0
v -12 -13 0
v -12 -12 0
v -11 -12 0
v -12 -13 0
v -13 -13 0
v -13 -12 0
v -12 -12 0
v -13 -13 0
v -14 -13 0
v -14 -12 0
v -13 -12 0
v -14 -13 0
v -15 -13 0
v -15 -12 0
v -14 -12 0
v -15 -13 0
v -16 -13 0
v -16 -12 0
v -15 -12 0
v -5 -14 0
v -6 -14 0
v -6 -13 0
v -5 -13 0
v -10 -14 0
v -11 -14 0
v -11 -13 0
v -10 -13 0
v -11 -14 0
v -12 -14 0
v -12 -13 0
v -11 -13 0
v -12 -14 0
v -13 -14 0
v -13 -13 0
v -12 -13 0
v -13 -14 0
v -14 -14 0
v -14 -13 0
v -13 -13 0
v -5 -15 0
v -6 -15 0
v -6 -14 0
v -5 -14 0
v -5 -16 0
v -6 -16 0
v -6 -15 0
v -5 -15 0
v -10 -16 0
v -11 -16 0
v -11 -15 0
v -10 -15 0
v -11 -16 0
v -12 -16 0
v -12 -15 0
v -11 -15 0
v -12 -16 0
v -13 -16 0
v -13 -15 0
v -12 -15 0
v -13 -16 0
v -14 -16 0
v -14 -15 0
v -13 -15 0

# Texture cooridinates (Count = 29)
vt 0.0625 0.8125
vt 0.125 0.8125
vt 0.125 0.875
vt 0.0625 0.875
vt 0.25 0.9375
vt 0.3125 0.9375
vt 0.3125 1
vt 0.25 1
vt 0.1875 0.9375
vt 0.1875 1
vt 0.0625 0.75
vt 0.125 0.75
vt 0.25 0.875
vt 0.3125 0.875
vt 0.1875 0.875
vt 0 0.8125
vt 0 0.875
vt 0.1875 0.8125
vt 0 0.9375
vt 0.0625 0.9375
vt 0.0625 1
vt 0 1
vt 0.25 0.8125
vt 0.3125 0.8125
vt 0.125 0.9375
vt 0.125 1
vt 0.25 0.75
vt 0.3125 0.75
vt 0.1875 0.75

# Normal
vn 0 0 -1

# Mesh description
g World1_mesh_0066

# Faces
f 1/1/1 2/2/1 3/3/1 4/4/1
f 5/1/1 6/2/1 7/3/1 8/4/1
f 9/1/1 10/2/1 11/3/1 12/4/1
f 13/1/1 14/2/1 15/3/1 16/4/1
f 17/1/1 18/2/1 19/3/1 20/4/1
f 21/1/1 22/2/1 23/3/1 24/4/1
f 25/5/1 26/6/1 27/7/1 28/8/1
f 29/9/1 30/5/1 31/8/1 32/10/1
f 33/1/1 34/2/1 35/3/1 36/4/1
f 37/1/1 38/2/1 39/3/1 40/4/1
f 41/1/1 42/2/1 43/3/1 44/4/1
f 45/1/1 46/2/1 47/3/1 48/4/1
f 49/1/1 50/2/1 51/3/1 52/4/1
f 53/1/1 54/2/1 55/3/1 56/4/1
f 57/11/1 58/12/1 59/2/1 60/1/1
f 61/11/1 62/12/1 63/2/1 64/1/1
f 65/11/1 66/12/1 67/2/1 68/1/1
f 69/11/1 70/12/1 71/2/1 72/1/1
f 73/11/1 74/12/1 75/2/1 76/1/1
f 77/11/1 78/12/1 79/2/1 80/1/1
f 81/13/1 82/14/1 83/6/1 84/5/1
f 85/15/1 86/13/1 87/5/1 88/9/1
f 89/11/1 90/12/1 91/2/1 92/1/1
f 93/11/1 94/12/1 95/2/1 96/1/1
f 97/11/1 98/12/1 99/2/1 100/1/1
f 101/11/1 102/12/1 103/2/1 104/1/1
f 105/11/1 106/12/1 107/2/1 108/1/1
f 109/11/1 110/12/1 111/2/1 112/1/1
f 113/16/1 114/1/1 115/4/1 116/17/1
f 117/2/1 118/18/1 119/15/1 120/3/1
f 121/16/1 122/1/1 123/4/1 124/17/1
f 125/2/1 126/18/1 127/15/1 128/3/1
f 129/16/1 130/1/1 131/4/1 132/17/1
f 133/2/1 134/18/1 135/15/1 136/3/1
f 137/16/1 138/1/1 139/4/1 140/17/1
f 141/2/1 142/18/1 143/15/1 144/3/1
f 145/16/1 146/1/1 147/4/1 148/17/1
f 149/2/1 150/18/1 151/15/1 152/3/1
f 153/16/1 154/1/1 155/4/1 156/17/1
f 157/2/1 158/18/1 159/15/1 160/3/1
f 161/16/1 162/1/1 163/4/1 164/17/1
f 165/2/1 166/18/1 167/15/1 168/3/1
f 169/16/1 170/1/1 171/4/1 172/17/1
f 173/2/1 174/18/1 175/15/1 176/3/1
f 177/16/1 178/1/1 179/4/1 180/17/1
f 181/2/1 182/18/1 183/15/1 184/3/1
f 185/19/1 186/20/1 187/21/1 188/22/1
f 189/23/1 190/24/1 191/14/1 192/13/1
f 193/18/1 194/23/1 195/13/1 196/15/1
f 197/25/1 198/9/1 199/10/1 200/26/1
f 201/19/1 202/20/1 203/21/1 204/22/1
f 205/20/1 206/25/1 207/26/1 208/21/1
f 209/20/1 210/25/1 211/26/1 212/21/1
f 213/17/1 214/4/1 215/20/1 216/19/1
f 217/27/1 218/28/1 219/24/1 220/23/1
f 221/29/1 222/27/1 223/23/1 224/18/1
f 225/18/1 226/23/1 227/13/1 228/15/1
f 229/20/1 230/25/1 231/26/1 232/21/1
f 233/20/1 234/25/1 235/26/1 236/21/1
f 237/23/1 238/24/1 239/14/1 240/13/1
f 241/4/1 242/3/1 243/25/1 244/20/1
f 245/4/1 246/3/1 247/25/1 248/20/1
f 249/17/1 250/4/1 251/20/1 252/19/1
f 253/29/1 254/27/1 255/23/1 256/18/1
f 257/4/1 258/3/1 259/25/1 260/20/1
f 261/4/1 262/3/1 263/25/1 264/20/1
f 265/27/1 266/28/1 267/24/1 268/23/1
f 269/17/1 270/4/1 271/20/1 272/19/1
f 273/17/1 274/4/1 275/20/1 276/19/1
f 277/9/1 278/5/1 279/8/1 280/10/1
f 281/1/1 282/2/1 283/3/1 284/4/1
f 285/1/1 286/2/1 287/3/1 288/4/1
f 289/5/1 290/6/1 291/7/1 292/8/1

