# Tiled2Unity generated file. Do not modify by hand.
# Wavefront file for 'World1_mesh_0126.obj'

# Vertices (Count = 20)
v -7 -4 0
v -8 -4 0
v -8 -3 0
v -7 -3 0
v -8 -8 0
v -9 -8 0
v -9 -7 0
v -8 -7 0
v -7 -10 0
v -8 -10 0
v -8 -9 0
v -7 -9 0
v -8 -13 0
v -9 -13 0
v -9 -12 0
v -8 -12 0
v -6 -14 0
v -7 -14 0
v -7 -13 0
v -6 -13 0

# Texture cooridinates (Count = 4)
vt 0.0625 0.75
vt 0.125 0.75
vt 0.125 0.8125
vt 0.0625 0.8125

# Normal
vn 0 0 -1

# Mesh description
g World1_mesh_0126

# Faces
f 1/1/1 2/2/1 3/3/1 4/4/1
f 5/1/1 6/2/1 7/3/1 8/4/1
f 9/1/1 10/2/1 11/3/1 12/4/1
f 13/1/1 14/2/1 15/3/1 16/4/1
f 17/1/1 18/2/1 19/3/1 20/4/1

