# Tiled2Unity generated file. Do not modify by hand.
# Wavefront file for 'World1_mesh_0009.obj'

# Vertices (Count = 412)
v 0 -1 0
v -1 -1 0
v -1 0 0
v 0 0 0
v -1 -1 0
v -2 -1 0
v -2 0 0
v -1 0 0
v -9 -1 0
v -10 -1 0
v -10 0 0
v -9 0 0
v -10 -1 0
v -11 -1 0
v -11 0 0
v -10 0 0
v 0 -2 0
v -1 -2 0
v -1 -1 0
v 0 -1 0
v -9 -2 0
v -10 -2 0
v -10 -1 0
v -9 -1 0
v -10 -2 0
v -11 -2 0
v -11 -1 0
v -10 -1 0
v 0 -3 0
v -1 -3 0
v -1 -2 0
v 0 -2 0
v -9 -3 0
v -10 -3 0
v -10 -2 0
v -9 -2 0
v -10 -3 0
v -11 -3 0
v -11 -2 0
v -10 -2 0
v 0 -4 0
v -1 -4 0
v -1 -3 0
v 0 -3 0
v -9 -4 0
v -10 -4 0
v -10 -3 0
v -9 -3 0
v -10 -4 0
v -11 -4 0
v -11 -3 0
v -10 -3 0
v 0 -5 0
v -1 -5 0
v -1 -4 0
v 0 -4 0
v -4 -5 0
v -5 -5 0
v -5 -4 0
v -4 -4 0
v -5 -5 0
v -6 -5 0
v -6 -4 0
v -5 -4 0
v -6 -5 0
v -7 -5 0
v -7 -4 0
v -6 -4 0
v -7 -5 0
v -8 -5 0
v -8 -4 0
v -7 -4 0
v -8 -5 0
v -9 -5 0
v -9 -4 0
v -8 -4 0
v -9 -5 0
v -10 -5 0
v -10 -4 0
v -9 -4 0
v -10 -5 0
v -11 -5 0
v -11 -4 0
v -10 -4 0
v -11 -5 0
v -12 -5 0
v -12 -4 0
v -11 -4 0
v -12 -5 0
v -13 -5 0
v -13 -4 0
v -12 -4 0
v -13 -5 0
v -14 -5 0
v -14 -4 0
v -13 -4 0
v -14 -5 0
v -15 -5 0
v -15 -4 0
v -14 -4 0
v -15 -5 0
v -16 -5 0
v -16 -4 0
v -15 -4 0
v 0 -6 0
v -1 -6 0
v -1 -5 0
v 0 -5 0
v -4 -6 0
v -5 -6 0
v -5 -5 0
v -4 -5 0
v -5 -6 0
v -6 -6 0
v -6 -5 0
v -5 -5 0
v -6 -6 0
v -7 -6 0
v -7 -5 0
v -6 -5 0
v -7 -6 0
v -8 -6 0
v -8 -5 0
v -7 -5 0
v -8 -6 0
v -9 -6 0
v -9 -5 0
v -8 -5 0
v -9 -6 0
v -10 -6 0
v -10 -5 0
v -9 -5 0
v -10 -6 0
v -11 -6 0
v -11 -5 0
v -10 -5 0
v -11 -6 0
v -12 -6 0
v -12 -5 0
v -11 -5 0
v -12 -6 0
v -13 -6 0
v -13 -5 0
v -12 -5 0
v -13 -6 0
v -14 -6 0
v -14 -5 0
v -13 -5 0
v -14 -6 0
v -15 -6 0
v -15 -5 0
v -14 -5 0
v -15 -6 0
v -16 -6 0
v -16 -5 0
v -15 -5 0
v 0 -7 0
v -1 -7 0
v -1 -6 0
v 0 -6 0
v -4 -7 0
v -5 -7 0
v -5 -6 0
v -4 -6 0
v -5 -7 0
v -6 -7 0
v -6 -6 0
v -5 -6 0
v -14 -7 0
v -15 -7 0
v -15 -6 0
v -14 -6 0
v -15 -7 0
v -16 -7 0
v -16 -6 0
v -15 -6 0
v 0 -8 0
v -1 -8 0
v -1 -7 0
v 0 -7 0
v -4 -8 0
v -5 -8 0
v -5 -7 0
v -4 -7 0
v -5 -8 0
v -6 -8 0
v -6 -7 0
v -5 -7 0
v -14 -8 0
v -15 -8 0
v -15 -7 0
v -14 -7 0
v -15 -8 0
v -16 -8 0
v -16 -7 0
v -15 -7 0
v 0 -9 0
v -1 -9 0
v -1 -8 0
v 0 -8 0
v -4 -9 0
v -5 -9 0
v -5 -8 0
v -4 -8 0
v -5 -9 0
v -6 -9 0
v -6 -8 0
v -5 -8 0
v -14 -9 0
v -15 -9 0
v -15 -8 0
v -14 -8 0
v -15 -9 0
v -16 -9 0
v -16 -8 0
v -15 -8 0
v 0 -10 0
v -1 -10 0
v -1 -9 0
v 0 -9 0
v -4 -10 0
v -5 -10 0
v -5 -9 0
v -4 -9 0
v -5 -10 0
v -6 -10 0
v -6 -9 0
v -5 -9 0
v -14 -10 0
v -15 -10 0
v -15 -9 0
v -14 -9 0
v -15 -10 0
v -16 -10 0
v -16 -9 0
v -15 -9 0
v 0 -11 0
v -1 -11 0
v -1 -10 0
v 0 -10 0
v -1 -11 0
v -2 -11 0
v -2 -10 0
v -1 -10 0
v -2 -11 0
v -3 -11 0
v -3 -10 0
v -2 -10 0
v -3 -11 0
v -4 -11 0
v -4 -10 0
v -3 -10 0
v -4 -11 0
v -5 -11 0
v -5 -10 0
v -4 -10 0
v -5 -11 0
v -6 -11 0
v -6 -10 0
v -5 -10 0
v -14 -11 0
v -15 -11 0
v -15 -10 0
v -14 -10 0
v -15 -11 0
v -16 -11 0
v -16 -10 0
v -15 -10 0
v 0 -12 0
v -1 -12 0
v -1 -11 0
v 0 -11 0
v -1 -12 0
v -2 -12 0
v -2 -11 0
v -1 -11 0
v -2 -12 0
v -3 -12 0
v -3 -11 0
v -2 -11 0
v -3 -12 0
v -4 -12 0
v -4 -11 0
v -3 -11 0
v -4 -12 0
v -5 -12 0
v -5 -11 0
v -4 -11 0
v -5 -12 0
v -6 -12 0
v -6 -11 0
v -5 -11 0
v -14 -12 0
v -15 -12 0
v -15 -11 0
v -14 -11 0
v -15 -12 0
v -16 -12 0
v -16 -11 0
v -15 -11 0
v 0 -13 0
v -1 -13 0
v -1 -12 0
v 0 -12 0
v -4 -13 0
v -5 -13 0
v -5 -12 0
v -4 -12 0
v -5 -13 0
v -6 -13 0
v -6 -12 0
v -5 -12 0
v -14 -13 0
v -15 -13 0
v -15 -12 0
v -14 -12 0
v -15 -13 0
v -16 -13 0
v -16 -12 0
v -15 -12 0
v 0 -14 0
v -1 -14 0
v -1 -13 0
v 0 -13 0
v -4 -14 0
v -5 -14 0
v -5 -13 0
v -4 -13 0
v -5 -14 0
v -6 -14 0
v -6 -13 0
v -5 -13 0
v -10 -14 0
v -11 -14 0
v -11 -13 0
v -10 -13 0
v -11 -14 0
v -12 -14 0
v -12 -13 0
v -11 -13 0
v -12 -14 0
v -13 -14 0
v -13 -13 0
v -12 -13 0
v -13 -14 0
v -14 -14 0
v -14 -13 0
v -13 -13 0
v -14 -14 0
v -15 -14 0
v -15 -13 0
v -14 -13 0
v -15 -14 0
v -16 -14 0
v -16 -13 0
v -15 -13 0
v 0 -15 0
v -1 -15 0
v -1 -14 0
v 0 -14 0
v -4 -15 0
v -5 -15 0
v -5 -14 0
v -4 -14 0
v -5 -15 0
v -6 -15 0
v -6 -14 0
v -5 -14 0
v -10 -15 0
v -11 -15 0
v -11 -14 0
v -10 -14 0
v -11 -15 0
v -12 -15 0
v -12 -14 0
v -11 -14 0
v -12 -15 0
v -13 -15 0
v -13 -14 0
v -12 -14 0
v -13 -15 0
v -14 -15 0
v -14 -14 0
v -13 -14 0
v -14 -15 0
v -15 -15 0
v -15 -14 0
v -14 -14 0
v -15 -15 0
v -16 -15 0
v -16 -14 0
v -15 -14 0
v 0 -16 0
v -1 -16 0
v -1 -15 0
v 0 -15 0
v -4 -16 0
v -5 -16 0
v -5 -15 0
v -4 -15 0
v -5 -16 0
v -6 -16 0
v -6 -15 0
v -5 -15 0
v -10 -16 0
v -11 -16 0
v -11 -15 0
v -10 -15 0
v -11 -16 0
v -12 -16 0
v -12 -15 0
v -11 -15 0

# Texture cooridinates (Count = 4)
vt 0.1875 0.75
vt 0.1875 0.8125
vt 0.125 0.8125
vt 0.125 0.75

# Normal
vn 0 0 -1

# Mesh description
g World1_mesh_0009

# Faces
f 1/1/1 2/2/1 3/3/1 4/4/1
f 5/1/1 6/2/1 7/3/1 8/4/1
f 9/1/1 10/2/1 11/3/1 12/4/1
f 13/1/1 14/2/1 15/3/1 16/4/1
f 17/1/1 18/2/1 19/3/1 20/4/1
f 21/1/1 22/2/1 23/3/1 24/4/1
f 25/1/1 26/2/1 27/3/1 28/4/1
f 29/1/1 30/2/1 31/3/1 32/4/1
f 33/1/1 34/2/1 35/3/1 36/4/1
f 37/1/1 38/2/1 39/3/1 40/4/1
f 41/1/1 42/2/1 43/3/1 44/4/1
f 45/1/1 46/2/1 47/3/1 48/4/1
f 49/1/1 50/2/1 51/3/1 52/4/1
f 53/1/1 54/2/1 55/3/1 56/4/1
f 57/4/1 58/1/1 59/2/1 60/3/1
f 61/4/1 62/1/1 63/2/1 64/3/1
f 65/4/1 66/1/1 67/2/1 68/3/1
f 69/4/1 70/1/1 71/2/1 72/3/1
f 73/4/1 74/1/1 75/2/1 76/3/1
f 77/4/1 78/1/1 79/2/1 80/3/1
f 81/4/1 82/1/1 83/2/1 84/3/1
f 85/4/1 86/1/1 87/2/1 88/3/1
f 89/4/1 90/1/1 91/2/1 92/3/1
f 93/4/1 94/1/1 95/2/1 96/3/1
f 97/4/1 98/1/1 99/2/1 100/3/1
f 101/4/1 102/1/1 103/2/1 104/3/1
f 105/1/1 106/2/1 107/3/1 108/4/1
f 109/4/1 110/1/1 111/2/1 112/3/1
f 113/4/1 114/1/1 115/2/1 116/3/1
f 117/4/1 118/1/1 119/2/1 120/3/1
f 121/4/1 122/1/1 123/2/1 124/3/1
f 125/4/1 126/1/1 127/2/1 128/3/1
f 129/4/1 130/1/1 131/2/1 132/3/1
f 133/4/1 134/1/1 135/2/1 136/3/1
f 137/4/1 138/1/1 139/2/1 140/3/1
f 141/4/1 142/1/1 143/2/1 144/3/1
f 145/4/1 146/1/1 147/2/1 148/3/1
f 149/4/1 150/1/1 151/2/1 152/3/1
f 153/4/1 154/1/1 155/2/1 156/3/1
f 157/1/1 158/2/1 159/3/1 160/4/1
f 161/4/1 162/1/1 163/2/1 164/3/1
f 165/4/1 166/1/1 167/2/1 168/3/1
f 169/4/1 170/1/1 171/2/1 172/3/1
f 173/4/1 174/1/1 175/2/1 176/3/1
f 177/1/1 178/2/1 179/3/1 180/4/1
f 181/4/1 182/1/1 183/2/1 184/3/1
f 185/4/1 186/1/1 187/2/1 188/3/1
f 189/4/1 190/1/1 191/2/1 192/3/1
f 193/4/1 194/1/1 195/2/1 196/3/1
f 197/1/1 198/2/1 199/3/1 200/4/1
f 201/4/1 202/1/1 203/2/1 204/3/1
f 205/4/1 206/1/1 207/2/1 208/3/1
f 209/4/1 210/1/1 211/2/1 212/3/1
f 213/4/1 214/1/1 215/2/1 216/3/1
f 217/1/1 218/2/1 219/3/1 220/4/1
f 221/4/1 222/1/1 223/2/1 224/3/1
f 225/4/1 226/1/1 227/2/1 228/3/1
f 229/4/1 230/1/1 231/2/1 232/3/1
f 233/4/1 234/1/1 235/2/1 236/3/1
f 237/1/1 238/2/1 239/3/1 240/4/1
f 241/1/1 242/2/1 243/3/1 244/4/1
f 245/1/1 246/2/1 247/3/1 248/4/1
f 249/1/1 250/2/1 251/3/1 252/4/1
f 253/4/1 254/1/1 255/2/1 256/3/1
f 257/4/1 258/1/1 259/2/1 260/3/1
f 261/4/1 262/1/1 263/2/1 264/3/1
f 265/4/1 266/1/1 267/2/1 268/3/1
f 269/1/1 270/2/1 271/3/1 272/4/1
f 273/1/1 274/2/1 275/3/1 276/4/1
f 277/1/1 278/2/1 279/3/1 280/4/1
f 281/1/1 282/2/1 283/3/1 284/4/1
f 285/4/1 286/1/1 287/2/1 288/3/1
f 289/4/1 290/1/1 291/2/1 292/3/1
f 293/4/1 294/1/1 295/2/1 296/3/1
f 297/4/1 298/1/1 299/2/1 300/3/1
f 301/1/1 302/2/1 303/3/1 304/4/1
f 305/4/1 306/1/1 307/2/1 308/3/1
f 309/4/1 310/1/1 311/2/1 312/3/1
f 313/4/1 314/1/1 315/2/1 316/3/1
f 317/4/1 318/1/1 319/2/1 320/3/1
f 321/1/1 322/2/1 323/3/1 324/4/1
f 325/4/1 326/1/1 327/2/1 328/3/1
f 329/4/1 330/1/1 331/2/1 332/3/1
f 333/4/1 334/1/1 335/2/1 336/3/1
f 337/4/1 338/1/1 339/2/1 340/3/1
f 341/4/1 342/1/1 343/2/1 344/3/1
f 345/4/1 346/1/1 347/2/1 348/3/1
f 349/4/1 350/1/1 351/2/1 352/3/1
f 353/4/1 354/1/1 355/2/1 356/3/1
f 357/1/1 358/2/1 359/3/1 360/4/1
f 361/4/1 362/1/1 363/2/1 364/3/1
f 365/4/1 366/1/1 367/2/1 368/3/1
f 369/4/1 370/1/1 371/2/1 372/3/1
f 373/4/1 374/1/1 375/2/1 376/3/1
f 377/4/1 378/1/1 379/2/1 380/3/1
f 381/4/1 382/1/1 383/2/1 384/3/1
f 385/4/1 386/1/1 387/2/1 388/3/1
f 389/4/1 390/1/1 391/2/1 392/3/1
f 393/1/1 394/2/1 395/3/1 396/4/1
f 397/4/1 398/1/1 399/2/1 400/3/1
f 401/4/1 402/1/1 403/2/1 404/3/1
f 405/4/1 406/1/1 407/2/1 408/3/1
f 409/4/1 410/1/1 411/2/1 412/3/1

