# Tiled2Unity generated file. Do not modify by hand.
# Wavefront file for 'World1_mesh_0071.obj'

# Vertices (Count = 496)
v 0 -1 0
v -1 -1 0
v -1 0 0
v 0 0 0
v -1 -1 0
v -2 -1 0
v -2 0 0
v -1 0 0
v -2 -1 0
v -3 -1 0
v -3 0 0
v -2 0 0
v -3 -1 0
v -4 -1 0
v -4 0 0
v -3 0 0
v -6 -1 0
v -7 -1 0
v -7 0 0
v -6 0 0
v -7 -1 0
v -8 -1 0
v -8 0 0
v -7 0 0
v -8 -1 0
v -9 -1 0
v -9 0 0
v -8 0 0
v -9 -1 0
v -10 -1 0
v -10 0 0
v -9 0 0
v -10 -1 0
v -11 -1 0
v -11 0 0
v -10 0 0
v -11 -1 0
v -12 -1 0
v -12 0 0
v -11 0 0
v -12 -1 0
v -13 -1 0
v -13 0 0
v -12 0 0
v -15 -1 0
v -16 -1 0
v -16 0 0
v -15 0 0
v -3 -2 0
v -4 -2 0
v -4 -1 0
v -3 -1 0
v -6 -2 0
v -7 -2 0
v -7 -1 0
v -6 -1 0
v -12 -2 0
v -13 -2 0
v -13 -1 0
v -12 -1 0
v -15 -2 0
v -16 -2 0
v -16 -1 0
v -15 -1 0
v 0 -3 0
v -1 -3 0
v -1 -2 0
v 0 -2 0
v -1 -3 0
v -2 -3 0
v -2 -2 0
v -1 -2 0
v -2 -3 0
v -3 -3 0
v -3 -2 0
v -2 -2 0
v -3 -3 0
v -4 -3 0
v -4 -2 0
v -3 -2 0
v -6 -3 0
v -7 -3 0
v -7 -2 0
v -6 -2 0
v -7 -3 0
v -8 -3 0
v -8 -2 0
v -7 -2 0
v -8 -3 0
v -9 -3 0
v -9 -2 0
v -8 -2 0
v -12 -3 0
v -13 -3 0
v -13 -2 0
v -12 -2 0
v -15 -3 0
v -16 -3 0
v -16 -2 0
v -15 -2 0
v 0 -4 0
v -1 -4 0
v -1 -3 0
v 0 -3 0
v -1 -4 0
v -2 -4 0
v -2 -3 0
v -1 -3 0
v -2 -4 0
v -3 -4 0
v -3 -3 0
v -2 -3 0
v -3 -4 0
v -4 -4 0
v -4 -3 0
v -3 -3 0
v -6 -4 0
v -7 -4 0
v -7 -3 0
v -6 -3 0
v -7 -4 0
v -8 -4 0
v -8 -3 0
v -7 -3 0
v -8 -4 0
v -9 -4 0
v -9 -3 0
v -8 -3 0
v -12 -4 0
v -13 -4 0
v -13 -3 0
v -12 -3 0
v -15 -4 0
v -16 -4 0
v -16 -3 0
v -15 -3 0
v -8 -5 0
v -9 -5 0
v -9 -4 0
v -8 -4 0
v -12 -5 0
v -13 -5 0
v -13 -4 0
v -12 -4 0
v -15 -5 0
v -16 -5 0
v -16 -4 0
v -15 -4 0
v 0 -6 0
v -1 -6 0
v -1 -5 0
v 0 -5 0
v -1 -6 0
v -2 -6 0
v -2 -5 0
v -1 -5 0
v -2 -6 0
v -3 -6 0
v -3 -5 0
v -2 -5 0
v -3 -6 0
v -4 -6 0
v -4 -5 0
v -3 -5 0
v -4 -6 0
v -5 -6 0
v -5 -5 0
v -4 -5 0
v -5 -6 0
v -6 -6 0
v -6 -5 0
v -5 -5 0
v -8 -6 0
v -9 -6 0
v -9 -5 0
v -8 -5 0
v -12 -6 0
v -13 -6 0
v -13 -5 0
v -12 -5 0
v -15 -6 0
v -16 -6 0
v -16 -5 0
v -15 -5 0
v 0 -7 0
v -1 -7 0
v -1 -6 0
v 0 -6 0
v -1 -7 0
v -2 -7 0
v -2 -6 0
v -1 -6 0
v -2 -7 0
v -3 -7 0
v -3 -6 0
v -2 -6 0
v -3 -7 0
v -4 -7 0
v -4 -6 0
v -3 -6 0
v -4 -7 0
v -5 -7 0
v -5 -6 0
v -4 -6 0
v -5 -7 0
v -6 -7 0
v -6 -6 0
v -5 -6 0
v -8 -7 0
v -9 -7 0
v -9 -6 0
v -8 -6 0
v -9 -7 0
v -10 -7 0
v -10 -6 0
v -9 -6 0
v -10 -7 0
v -11 -7 0
v -11 -6 0
v -10 -6 0
v -11 -7 0
v -12 -7 0
v -12 -6 0
v -11 -6 0
v -12 -7 0
v -13 -7 0
v -13 -6 0
v -12 -6 0
v -15 -7 0
v -16 -7 0
v -16 -6 0
v -15 -6 0
v 0 -8 0
v -1 -8 0
v -1 -7 0
v 0 -7 0
v -5 -8 0
v -6 -8 0
v -6 -7 0
v -5 -7 0
v -8 -8 0
v -9 -8 0
v -9 -7 0
v -8 -7 0
v -9 -8 0
v -10 -8 0
v -10 -7 0
v -9 -7 0
v -10 -8 0
v -11 -8 0
v -11 -7 0
v -10 -7 0
v -11 -8 0
v -12 -8 0
v -12 -7 0
v -11 -7 0
v -12 -8 0
v -13 -8 0
v -13 -7 0
v -12 -7 0
v -15 -8 0
v -16 -8 0
v -16 -7 0
v -15 -7 0
v 0 -9 0
v -1 -9 0
v -1 -8 0
v 0 -8 0
v -5 -9 0
v -6 -9 0
v -6 -8 0
v -5 -8 0
v -15 -9 0
v -16 -9 0
v -16 -8 0
v -15 -8 0
v 0 -10 0
v -1 -10 0
v -1 -9 0
v 0 -9 0
v -5 -10 0
v -6 -10 0
v -6 -9 0
v -5 -9 0
v -8 -10 0
v -9 -10 0
v -9 -9 0
v -8 -9 0
v -9 -10 0
v -10 -10 0
v -10 -9 0
v -9 -9 0
v -10 -10 0
v -11 -10 0
v -11 -9 0
v -10 -9 0
v -11 -10 0
v -12 -10 0
v -12 -9 0
v -11 -9 0
v -12 -10 0
v -13 -10 0
v -13 -9 0
v -12 -9 0
v -15 -10 0
v -16 -10 0
v -16 -9 0
v -15 -9 0
v 0 -11 0
v -1 -11 0
v -1 -10 0
v 0 -10 0
v -5 -11 0
v -6 -11 0
v -6 -10 0
v -5 -10 0
v -8 -11 0
v -9 -11 0
v -9 -10 0
v -8 -10 0
v -9 -11 0
v -10 -11 0
v -10 -10 0
v -9 -10 0
v -10 -11 0
v -11 -11 0
v -11 -10 0
v -10 -10 0
v -11 -11 0
v -12 -11 0
v -12 -10 0
v -11 -10 0
v -12 -11 0
v -13 -11 0
v -13 -10 0
v -12 -10 0
v -15 -11 0
v -16 -11 0
v -16 -10 0
v -15 -10 0
v 0 -12 0
v -1 -12 0
v -1 -11 0
v 0 -11 0
v -1 -12 0
v -2 -12 0
v -2 -11 0
v -1 -11 0
v -2 -12 0
v -3 -12 0
v -3 -11 0
v -2 -11 0
v -3 -12 0
v -4 -12 0
v -4 -11 0
v -3 -11 0
v -4 -12 0
v -5 -12 0
v -5 -11 0
v -4 -11 0
v -5 -12 0
v -6 -12 0
v -6 -11 0
v -5 -11 0
v -8 -12 0
v -9 -12 0
v -9 -11 0
v -8 -11 0
v -12 -12 0
v -13 -12 0
v -13 -11 0
v -12 -11 0
v -15 -12 0
v -16 -12 0
v -16 -11 0
v -15 -11 0
v 0 -13 0
v -1 -13 0
v -1 -12 0
v 0 -12 0
v -1 -13 0
v -2 -13 0
v -2 -12 0
v -1 -12 0
v -2 -13 0
v -3 -13 0
v -3 -12 0
v -2 -12 0
v -3 -13 0
v -4 -13 0
v -4 -12 0
v -3 -12 0
v -4 -13 0
v -5 -13 0
v -5 -12 0
v -4 -12 0
v -5 -13 0
v -6 -13 0
v -6 -12 0
v -5 -12 0
v -8 -13 0
v -9 -13 0
v -9 -12 0
v -8 -12 0
v -12 -13 0
v -13 -13 0
v -13 -12 0
v -12 -12 0
v -15 -13 0
v -16 -13 0
v -16 -12 0
v -15 -12 0
v -8 -14 0
v -9 -14 0
v -9 -13 0
v -8 -13 0
v -12 -14 0
v -13 -14 0
v -13 -13 0
v -12 -13 0
v -15 -14 0
v -16 -14 0
v -16 -13 0
v -15 -13 0
v 0 -15 0
v -1 -15 0
v -1 -14 0
v 0 -14 0
v -1 -15 0
v -2 -15 0
v -2 -14 0
v -1 -14 0
v -2 -15 0
v -3 -15 0
v -3 -14 0
v -2 -14 0
v -3 -15 0
v -4 -15 0
v -4 -14 0
v -3 -14 0
v -4 -15 0
v -5 -15 0
v -5 -14 0
v -4 -14 0
v -5 -15 0
v -6 -15 0
v -6 -14 0
v -5 -14 0
v -8 -15 0
v -9 -15 0
v -9 -14 0
v -8 -14 0
v -12 -15 0
v -13 -15 0
v -13 -14 0
v -12 -14 0
v -15 -15 0
v -16 -15 0
v -16 -14 0
v -15 -14 0
v 0 -16 0
v -1 -16 0
v -1 -15 0
v 0 -15 0
v -1 -16 0
v -2 -16 0
v -2 -15 0
v -1 -15 0
v -2 -16 0
v -3 -16 0
v -3 -15 0
v -2 -15 0
v -3 -16 0
v -4 -16 0
v -4 -15 0
v -3 -15 0
v -4 -16 0
v -5 -16 0
v -5 -15 0
v -4 -15 0
v -5 -16 0
v -6 -16 0
v -6 -15 0
v -5 -15 0
v -8 -16 0
v -9 -16 0
v -9 -15 0
v -8 -15 0
v -12 -16 0
v -13 -16 0
v -13 -15 0
v -12 -15 0
v -15 -16 0
v -16 -16 0
v -16 -15 0
v -15 -15 0

# Texture cooridinates (Count = 27)
vt 0.0625 0.75
vt 0.125 0.75
vt 0.125 0.8125
vt 0.0625 0.8125
vt 0.25 0.875
vt 0.3125 0.875
vt 0.3125 0.9375
vt 0.25 0.9375
vt 0.1875 0.875
vt 0.1875 0.9375
vt 0.125 0.875
vt 0.125 0.9375
vt 0 0.875
vt 0.0625 0.875
vt 0.0625 0.9375
vt 0 0.9375
vt 0.125 1
vt 0.0625 1
vt 0.25 0.8125
vt 0.3125 0.8125
vt 0.1875 0.8125
vt 0.1875 1
vt 0.25 0.75
vt 0.3125 0.75
vt 0.1875 0.75
vt 0.25 1
vt 0.3125 1

# Normal
vn 0 0 -1

# Mesh description
g World1_mesh_0071

# Faces
f 1/1/1 2/2/1 3/3/1 4/4/1
f 5/1/1 6/2/1 7/3/1 8/4/1
f 9/1/1 10/2/1 11/3/1 12/4/1
f 13/5/1 14/6/1 15/7/1 16/8/1
f 17/9/1 18/5/1 19/8/1 20/10/1
f 21/1/1 22/2/1 23/3/1 24/4/1
f 25/1/1 26/2/1 27/3/1 28/4/1
f 29/1/1 30/2/1 31/3/1 32/4/1
f 33/1/1 34/2/1 35/3/1 36/4/1
f 37/1/1 38/2/1 39/3/1 40/4/1
f 41/5/1 42/6/1 43/7/1 44/8/1
f 45/11/1 46/9/1 47/10/1 48/12/1
f 49/13/1 50/14/1 51/15/1 52/16/1
f 53/11/1 54/9/1 55/10/1 56/12/1
f 57/13/1 58/14/1 59/15/1 60/16/1
f 61/11/1 62/9/1 63/10/1 64/12/1
f 65/15/1 66/12/1 67/17/1 68/18/1
f 69/15/1 70/12/1 71/17/1 72/18/1
f 73/15/1 74/12/1 75/17/1 76/18/1
f 77/19/1 78/20/1 79/6/1 80/5/1
f 81/21/1 82/19/1 83/5/1 84/9/1
f 85/15/1 86/12/1 87/17/1 88/18/1
f 89/12/1 90/10/1 91/22/1 92/17/1
f 93/13/1 94/14/1 95/15/1 96/16/1
f 97/11/1 98/9/1 99/10/1 100/12/1
f 101/14/1 102/11/1 103/12/1 104/15/1
f 105/14/1 106/11/1 107/12/1 108/15/1
f 109/14/1 110/11/1 111/12/1 112/15/1
f 113/23/1 114/24/1 115/20/1 116/19/1
f 117/25/1 118/23/1 119/19/1 120/21/1
f 121/14/1 122/11/1 123/12/1 124/15/1
f 125/11/1 126/9/1 127/10/1 128/12/1
f 129/13/1 130/14/1 131/15/1 132/16/1
f 133/11/1 134/9/1 135/10/1 136/12/1
f 137/11/1 138/9/1 139/10/1 140/12/1
f 141/13/1 142/14/1 143/15/1 144/16/1
f 145/11/1 146/9/1 147/10/1 148/12/1
f 149/10/1 150/8/1 151/26/1 152/22/1
f 153/4/1 154/3/1 155/11/1 156/14/1
f 157/4/1 158/3/1 159/11/1 160/14/1
f 161/4/1 162/3/1 163/11/1 164/14/1
f 165/4/1 166/3/1 167/11/1 168/14/1
f 169/8/1 170/7/1 171/27/1 172/26/1
f 173/11/1 174/9/1 175/10/1 176/12/1
f 177/13/1 178/14/1 179/15/1 180/16/1
f 181/11/1 182/9/1 183/10/1 184/12/1
f 185/9/1 186/5/1 187/8/1 188/10/1
f 189/1/1 190/2/1 191/3/1 192/4/1
f 193/1/1 194/2/1 195/3/1 196/4/1
f 197/1/1 198/2/1 199/3/1 200/4/1
f 201/1/1 202/2/1 203/3/1 204/4/1
f 205/5/1 206/6/1 207/7/1 208/8/1
f 209/21/1 210/19/1 211/5/1 212/9/1
f 213/15/1 214/12/1 215/17/1 216/18/1
f 217/15/1 218/12/1 219/17/1 220/18/1
f 221/15/1 222/12/1 223/17/1 224/18/1
f 225/19/1 226/20/1 227/6/1 228/5/1
f 229/11/1 230/9/1 231/10/1 232/12/1
f 233/11/1 234/9/1 235/10/1 236/12/1
f 237/13/1 238/14/1 239/15/1 240/16/1
f 241/25/1 242/23/1 243/19/1 244/21/1
f 245/14/1 246/11/1 247/12/1 248/15/1
f 249/14/1 250/11/1 251/12/1 252/15/1
f 253/14/1 254/11/1 255/12/1 256/15/1
f 257/23/1 258/24/1 259/20/1 260/19/1
f 261/11/1 262/9/1 263/10/1 264/12/1
f 265/11/1 266/9/1 267/10/1 268/12/1
f 269/13/1 270/14/1 271/15/1 272/16/1
f 273/11/1 274/9/1 275/10/1 276/12/1
f 277/11/1 278/9/1 279/10/1 280/12/1
f 281/13/1 282/14/1 283/15/1 284/16/1
f 285/10/1 286/8/1 287/26/1 288/22/1
f 289/4/1 290/3/1 291/11/1 292/14/1
f 293/4/1 294/3/1 295/11/1 296/14/1
f 297/4/1 298/3/1 299/11/1 300/14/1
f 301/8/1 302/7/1 303/27/1 304/26/1
f 305/11/1 306/9/1 307/10/1 308/12/1
f 309/11/1 310/9/1 311/10/1 312/12/1
f 313/13/1 314/14/1 315/15/1 316/16/1
f 317/9/1 318/5/1 319/8/1 320/10/1
f 321/1/1 322/2/1 323/3/1 324/4/1
f 325/1/1 326/2/1 327/3/1 328/4/1
f 329/1/1 330/2/1 331/3/1 332/4/1
f 333/5/1 334/6/1 335/7/1 336/8/1
f 337/11/1 338/9/1 339/10/1 340/12/1
f 341/21/1 342/19/1 343/5/1 344/9/1
f 345/15/1 346/12/1 347/17/1 348/18/1
f 349/15/1 350/12/1 351/17/1 352/18/1
f 353/15/1 354/12/1 355/17/1 356/18/1
f 357/15/1 358/12/1 359/17/1 360/18/1
f 361/19/1 362/20/1 363/6/1 364/5/1
f 365/11/1 366/9/1 367/10/1 368/12/1
f 369/13/1 370/14/1 371/15/1 372/16/1
f 373/11/1 374/9/1 375/10/1 376/12/1
f 377/25/1 378/23/1 379/19/1 380/21/1
f 381/14/1 382/11/1 383/12/1 384/15/1
f 385/14/1 386/11/1 387/12/1 388/15/1
f 389/14/1 390/11/1 391/12/1 392/15/1
f 393/14/1 394/11/1 395/12/1 396/15/1
f 397/23/1 398/24/1 399/20/1 400/19/1
f 401/11/1 402/9/1 403/10/1 404/12/1
f 405/13/1 406/14/1 407/15/1 408/16/1
f 409/11/1 410/9/1 411/10/1 412/12/1
f 413/11/1 414/9/1 415/10/1 416/12/1
f 417/13/1 418/14/1 419/15/1 420/16/1
f 421/11/1 422/9/1 423/10/1 424/12/1
f 425/4/1 426/3/1 427/11/1 428/14/1
f 429/4/1 430/3/1 431/11/1 432/14/1
f 433/4/1 434/3/1 435/11/1 436/14/1
f 437/4/1 438/3/1 439/11/1 440/14/1
f 441/4/1 442/3/1 443/11/1 444/14/1
f 445/8/1 446/7/1 447/27/1 448/26/1
f 449/11/1 450/9/1 451/10/1 452/12/1
f 453/13/1 454/14/1 455/15/1 456/16/1
f 457/11/1 458/9/1 459/10/1 460/12/1
f 461/1/1 462/2/1 463/3/1 464/4/1
f 465/1/1 466/2/1 467/3/1 468/4/1
f 469/1/1 470/2/1 471/3/1 472/4/1
f 473/1/1 474/2/1 475/3/1 476/4/1
f 477/1/1 478/2/1 479/3/1 480/4/1
f 481/5/1 482/6/1 483/7/1 484/8/1
f 485/11/1 486/9/1 487/10/1 488/12/1
f 489/13/1 490/14/1 491/15/1 492/16/1
f 493/11/1 494/9/1 495/10/1 496/12/1

