# Tiled2Unity generated file. Do not modify by hand.
# Wavefront file for 'World1_mesh_0091.obj'

# Vertices (Count = 240)
v 0 -1 0
v -1 -1 0
v -1 0 0
v 0 0 0
v -1 -1 0
v -2 -1 0
v -2 0 0
v -1 0 0
v -2 -1 0
v -3 -1 0
v -3 0 0
v -2 0 0
v -3 -1 0
v -4 -1 0
v -4 0 0
v -3 0 0
v -13 -1 0
v -14 -1 0
v -14 0 0
v -13 0 0
v 0 -2 0
v -1 -2 0
v -1 -1 0
v 0 -1 0
v -1 -2 0
v -2 -2 0
v -2 -1 0
v -1 -1 0
v -2 -2 0
v -3 -2 0
v -3 -1 0
v -2 -1 0
v -3 -2 0
v -4 -2 0
v -4 -1 0
v -3 -1 0
v -13 -2 0
v -14 -2 0
v -14 -1 0
v -13 -1 0
v -3 -3 0
v -4 -3 0
v -4 -2 0
v -3 -2 0
v -13 -3 0
v -14 -3 0
v -14 -2 0
v -13 -2 0
v -3 -4 0
v -4 -4 0
v -4 -3 0
v -3 -3 0
v -13 -4 0
v -14 -4 0
v -14 -3 0
v -13 -3 0
v -3 -5 0
v -4 -5 0
v -4 -4 0
v -3 -4 0
v -13 -5 0
v -14 -5 0
v -14 -4 0
v -13 -4 0
v -3 -6 0
v -4 -6 0
v -4 -5 0
v -3 -5 0
v -13 -6 0
v -14 -6 0
v -14 -5 0
v -13 -5 0
v -3 -7 0
v -4 -7 0
v -4 -6 0
v -3 -6 0
v -13 -7 0
v -14 -7 0
v -14 -6 0
v -13 -6 0
v -3 -8 0
v -4 -8 0
v -4 -7 0
v -3 -7 0
v -13 -8 0
v -14 -8 0
v -14 -7 0
v -13 -7 0
v -3 -9 0
v -4 -9 0
v -4 -8 0
v -3 -8 0
v -13 -9 0
v -14 -9 0
v -14 -8 0
v -13 -8 0
v -3 -10 0
v -4 -10 0
v -4 -9 0
v -3 -9 0
v -10 -10 0
v -11 -10 0
v -11 -9 0
v -10 -9 0
v -11 -10 0
v -12 -10 0
v -12 -9 0
v -11 -9 0
v -12 -10 0
v -13 -10 0
v -13 -9 0
v -12 -9 0
v -13 -10 0
v -14 -10 0
v -14 -9 0
v -13 -9 0
v -3 -11 0
v -4 -11 0
v -4 -10 0
v -3 -10 0
v -10 -11 0
v -11 -11 0
v -11 -10 0
v -10 -10 0
v -11 -11 0
v -12 -11 0
v -12 -10 0
v -11 -10 0
v -12 -11 0
v -13 -11 0
v -13 -10 0
v -12 -10 0
v -13 -11 0
v -14 -11 0
v -14 -10 0
v -13 -10 0
v -3 -12 0
v -4 -12 0
v -4 -11 0
v -3 -11 0
v -10 -12 0
v -11 -12 0
v -11 -11 0
v -10 -11 0
v -3 -13 0
v -4 -13 0
v -4 -12 0
v -3 -12 0
v -4 -13 0
v -5 -13 0
v -5 -12 0
v -4 -12 0
v -5 -13 0
v -6 -13 0
v -6 -12 0
v -5 -12 0
v -6 -13 0
v -7 -13 0
v -7 -12 0
v -6 -12 0
v -7 -13 0
v -8 -13 0
v -8 -12 0
v -7 -12 0
v -8 -13 0
v -9 -13 0
v -9 -12 0
v -8 -12 0
v -9 -13 0
v -10 -13 0
v -10 -12 0
v -9 -12 0
v -10 -13 0
v -11 -13 0
v -11 -12 0
v -10 -12 0
v -3 -14 0
v -4 -14 0
v -4 -13 0
v -3 -13 0
v -4 -14 0
v -5 -14 0
v -5 -13 0
v -4 -13 0
v -5 -14 0
v -6 -14 0
v -6 -13 0
v -5 -13 0
v -6 -14 0
v -7 -14 0
v -7 -13 0
v -6 -13 0
v -7 -14 0
v -8 -14 0
v -8 -13 0
v -7 -13 0
v -8 -14 0
v -9 -14 0
v -9 -13 0
v -8 -13 0
v -9 -14 0
v -10 -14 0
v -10 -13 0
v -9 -13 0
v -10 -14 0
v -11 -14 0
v -11 -13 0
v -10 -13 0
v -3 -16 0
v -4 -16 0
v -4 -15 0
v -3 -15 0
v -4 -16 0
v -5 -16 0
v -5 -15 0
v -4 -15 0
v -5 -16 0
v -6 -16 0
v -6 -15 0
v -5 -15 0
v -6 -16 0
v -7 -16 0
v -7 -15 0
v -6 -15 0
v -7 -16 0
v -8 -16 0
v -8 -15 0
v -7 -15 0
v -8 -16 0
v -9 -16 0
v -9 -15 0
v -8 -15 0
v -9 -16 0
v -10 -16 0
v -10 -15 0
v -9 -15 0
v -10 -16 0
v -11 -16 0
v -11 -15 0
v -10 -15 0

# Texture cooridinates (Count = 26)
vt 0.0625 0.9375
vt 0.125 0.9375
vt 0.125 1
vt 0.0625 1
vt 0.1875 0.9375
vt 0.1875 1
vt 0 0.875
vt 0.0625 0.875
vt 0 0.9375
vt 0.125 0.875
vt 0.1875 0.875
vt 0 1
vt 0.25 0.8125
vt 0.3125 0.8125
vt 0.3125 0.875
vt 0.25 0.875
vt 0.25 0.75
vt 0.3125 0.75
vt 0.1875 0.8125
vt 0.1875 0.75
vt 0.25 0.9375
vt 0.25 1
vt 0.0625 0.8125
vt 0.125 0.8125
vt 0.3125 0.9375
vt 0.3125 1

# Normal
vn 0 0 -1

# Mesh description
g World1_mesh_0091

# Faces
f 1/1/1 2/2/1 3/3/1 4/4/1
f 5/1/1 6/2/1 7/3/1 8/4/1
f 9/1/1 10/2/1 11/3/1 12/4/1
f 13/2/1 14/5/1 15/6/1 16/3/1
f 17/7/1 18/8/1 19/1/1 20/9/1
f 21/8/1 22/10/1 23/2/1 24/1/1
f 25/8/1 26/10/1 27/2/1 28/1/1
f 29/8/1 30/10/1 31/2/1 32/1/1
f 33/10/1 34/11/1 35/5/1 36/2/1
f 37/7/1 38/8/1 39/1/1 40/9/1
f 41/10/1 42/11/1 43/5/1 44/2/1
f 45/7/1 46/8/1 47/1/1 48/9/1
f 49/10/1 50/11/1 51/5/1 52/2/1
f 53/7/1 54/8/1 55/1/1 56/9/1
f 57/10/1 58/11/1 59/5/1 60/2/1
f 61/7/1 62/8/1 63/1/1 64/9/1
f 65/10/1 66/11/1 67/5/1 68/2/1
f 69/7/1 70/8/1 71/1/1 72/9/1
f 73/10/1 74/11/1 75/5/1 76/2/1
f 77/7/1 78/8/1 79/1/1 80/9/1
f 81/10/1 82/11/1 83/5/1 84/2/1
f 85/7/1 86/8/1 87/1/1 88/9/1
f 89/10/1 90/11/1 91/5/1 92/2/1
f 93/7/1 94/8/1 95/1/1 96/9/1
f 97/10/1 98/11/1 99/5/1 100/2/1
f 101/9/1 102/1/1 103/4/1 104/12/1
f 105/1/1 106/2/1 107/3/1 108/4/1
f 109/1/1 110/2/1 111/3/1 112/4/1
f 113/13/1 114/14/1 115/15/1 116/16/1
f 117/10/1 118/11/1 119/5/1 120/2/1
f 121/7/1 122/8/1 123/1/1 124/9/1
f 125/8/1 126/10/1 127/2/1 128/1/1
f 129/8/1 130/10/1 131/2/1 132/1/1
f 133/17/1 134/18/1 135/14/1 136/13/1
f 137/10/1 138/11/1 139/5/1 140/2/1
f 141/7/1 142/8/1 143/1/1 144/9/1
f 145/19/1 146/13/1 147/16/1 148/11/1
f 149/1/1 150/2/1 151/3/1 152/4/1
f 153/1/1 154/2/1 155/3/1 156/4/1
f 157/1/1 158/2/1 159/3/1 160/4/1
f 161/1/1 162/2/1 163/3/1 164/4/1
f 165/1/1 166/2/1 167/3/1 168/4/1
f 169/1/1 170/2/1 171/3/1 172/4/1
f 173/13/1 174/14/1 175/15/1 176/16/1
f 177/20/1 178/17/1 179/13/1 180/19/1
f 181/8/1 182/10/1 183/2/1 184/1/1
f 185/8/1 186/10/1 187/2/1 188/1/1
f 189/8/1 190/10/1 191/2/1 192/1/1
f 193/8/1 194/10/1 195/2/1 196/1/1
f 197/8/1 198/10/1 199/2/1 200/1/1
f 201/8/1 202/10/1 203/2/1 204/1/1
f 205/17/1 206/18/1 207/14/1 208/13/1
f 209/5/1 210/21/1 211/22/1 212/6/1
f 213/23/1 214/24/1 215/10/1 216/8/1
f 217/23/1 218/24/1 219/10/1 220/8/1
f 221/23/1 222/24/1 223/10/1 224/8/1
f 225/23/1 226/24/1 227/10/1 228/8/1
f 229/23/1 230/24/1 231/10/1 232/8/1
f 233/23/1 234/24/1 235/10/1 236/8/1
f 237/21/1 238/25/1 239/26/1 240/22/1

