# Tiled2Unity generated file. Do not modify by hand.
# Wavefront file for 'World1_mesh_0135.obj'

# Vertices (Count = 32)
v -14 -1 0
v -15 -1 0
v -15 0 0
v -14 0 0
v -11 -3 0
v -12 -3 0
v -12 -2 0
v -11 -2 0
v -1 -5 0
v -2 -5 0
v -2 -4 0
v -1 -4 0
v -4 -9 0
v -5 -9 0
v -5 -8 0
v -4 -8 0
v -5 -9 0
v -6 -9 0
v -6 -8 0
v -5 -8 0
v -6 -11 0
v -7 -11 0
v -7 -10 0
v -6 -10 0
v -3 -16 0
v -4 -16 0
v -4 -15 0
v -3 -15 0
v -11 -16 0
v -12 -16 0
v -12 -15 0
v -11 -15 0

# Texture cooridinates (Count = 16)
vt 0.0625 0.75
vt 0.125 0.75
vt 0.125 0.8125
vt 0.0625 0.8125
vt 0.25 0.875
vt 0.3125 0.875
vt 0.3125 0.9375
vt 0.25 0.9375
vt 0.1875 0.9375
vt 0.25 1
vt 0.1875 1
vt 0.3125 0.75
vt 0.375 0.75
vt 0.375 0.8125
vt 0.3125 0.8125
vt 0.25 0.8125

# Normal
vn 0 0 -1

# Mesh description
g World1_mesh_0135

# Faces
f 1/1/1 2/2/1 3/3/1 4/4/1
f 5/5/1 6/6/1 7/7/1 8/8/1
f 9/1/1 10/2/1 11/3/1 12/4/1
f 13/9/1 14/8/1 15/10/1 16/11/1
f 17/12/1 18/13/1 19/14/1 20/15/1
f 21/1/1 22/2/1 23/3/1 24/4/1
f 25/16/1 26/15/1 27/6/1 28/5/1
f 29/5/1 30/6/1 31/7/1 32/8/1

