# Tiled2Unity generated file. Do not modify by hand.
# Wavefront file for 'World1_mesh_0130.obj'

# Vertices (Count = 32)
v -5 -4 0
v -6 -4 0
v -6 -3 0
v -5 -3 0
v -13 -4 0
v -14 -4 0
v -14 -3 0
v -13 -3 0
v -10 -5 0
v -11 -5 0
v -11 -4 0
v -10 -4 0
v -2 -10 0
v -3 -10 0
v -3 -9 0
v -2 -9 0
v -4 -11 0
v -5 -11 0
v -5 -10 0
v -4 -10 0
v -11 -13 0
v -12 -13 0
v -12 -12 0
v -11 -12 0
v -12 -13 0
v -13 -13 0
v -13 -12 0
v -12 -12 0
v -11 -14 0
v -12 -14 0
v -12 -13 0
v -11 -13 0

# Texture cooridinates (Count = 20)
vt 0.3125 0.75
vt 0.375 0.75
vt 0.375 0.8125
vt 0.3125 0.8125
vt 0.4375 0.9375
vt 0.5 0.9375
vt 0.5 1
vt 0.4375 1
vt 0.0625 0.75
vt 0.125 0.75
vt 0.125 0.8125
vt 0.0625 0.8125
vt 0.25 0.75
vt 0.25 0.8125
vt 0.1875 0.9375
vt 0.25 0.9375
vt 0.25 1
vt 0.1875 1
vt 0.3125 0.9375
vt 0.3125 1

# Normal
vn 0 0 -1

# Mesh description
g World1_mesh_0130

# Faces
f 1/1/1 2/2/1 3/3/1 4/4/1
f 5/5/1 6/6/1 7/7/1 8/8/1
f 9/9/1 10/10/1 11/11/1 12/12/1
f 13/13/1 14/1/1 15/4/1 16/14/1
f 17/9/1 18/10/1 19/11/1 20/12/1
f 21/15/1 22/16/1 23/17/1 24/18/1
f 25/16/1 26/19/1 27/20/1 28/17/1
f 29/9/1 30/10/1 31/11/1 32/12/1

