# Tiled2Unity generated file. Do not modify by hand.
# Wavefront file for 'World1_mesh_0075.obj'

# Vertices (Count = 492)
v -1 -1 0
v -2 -1 0
v -2 0 0
v -1 0 0
v -3 -1 0
v -4 -1 0
v -4 0 0
v -3 0 0
v -6 -1 0
v -7 -1 0
v -7 0 0
v -6 0 0
v -7 -1 0
v -8 -1 0
v -8 0 0
v -7 0 0
v -8 -1 0
v -9 -1 0
v -9 0 0
v -8 0 0
v -9 -1 0
v -10 -1 0
v -10 0 0
v -9 0 0
v -12 -1 0
v -13 -1 0
v -13 0 0
v -12 0 0
v -1 -2 0
v -2 -2 0
v -2 -1 0
v -1 -1 0
v -3 -2 0
v -4 -2 0
v -4 -1 0
v -3 -1 0
v -12 -2 0
v -13 -2 0
v -13 -1 0
v -12 -1 0
v -15 -2 0
v -16 -2 0
v -16 -1 0
v -15 -1 0
v -1 -3 0
v -2 -3 0
v -2 -2 0
v -1 -2 0
v -3 -3 0
v -4 -3 0
v -4 -2 0
v -3 -2 0
v -6 -3 0
v -7 -3 0
v -7 -2 0
v -6 -2 0
v -7 -3 0
v -8 -3 0
v -8 -2 0
v -7 -2 0
v -8 -3 0
v -9 -3 0
v -9 -2 0
v -8 -2 0
v -9 -3 0
v -10 -3 0
v -10 -2 0
v -9 -2 0
v -12 -3 0
v -13 -3 0
v -13 -2 0
v -12 -2 0
v -15 -3 0
v -16 -3 0
v -16 -2 0
v -15 -2 0
v -1 -4 0
v -2 -4 0
v -2 -3 0
v -1 -3 0
v -2 -4 0
v -3 -4 0
v -3 -3 0
v -2 -3 0
v -3 -4 0
v -4 -4 0
v -4 -3 0
v -3 -3 0
v -6 -4 0
v -7 -4 0
v -7 -3 0
v -6 -3 0
v -7 -4 0
v -8 -4 0
v -8 -3 0
v -7 -3 0
v -8 -4 0
v -9 -4 0
v -9 -3 0
v -8 -3 0
v -9 -4 0
v -10 -4 0
v -10 -3 0
v -9 -3 0
v -12 -4 0
v -13 -4 0
v -13 -3 0
v -12 -3 0
v -15 -4 0
v -16 -4 0
v -16 -3 0
v -15 -3 0
v -1 -5 0
v -2 -5 0
v -2 -4 0
v -1 -4 0
v -2 -5 0
v -3 -5 0
v -3 -4 0
v -2 -4 0
v -3 -5 0
v -4 -5 0
v -4 -4 0
v -3 -4 0
v -6 -5 0
v -7 -5 0
v -7 -4 0
v -6 -4 0
v -9 -5 0
v -10 -5 0
v -10 -4 0
v -9 -4 0
v -12 -5 0
v -13 -5 0
v -13 -4 0
v -12 -4 0
v -13 -5 0
v -14 -5 0
v -14 -4 0
v -13 -4 0
v -14 -5 0
v -15 -5 0
v -15 -4 0
v -14 -4 0
v -15 -5 0
v -16 -5 0
v -16 -4 0
v -15 -4 0
v -6 -6 0
v -7 -6 0
v -7 -5 0
v -6 -5 0
v -9 -6 0
v -10 -6 0
v -10 -5 0
v -9 -5 0
v -12 -6 0
v -13 -6 0
v -13 -5 0
v -12 -5 0
v -13 -6 0
v -14 -6 0
v -14 -5 0
v -13 -5 0
v -14 -6 0
v -15 -6 0
v -15 -5 0
v -14 -5 0
v -15 -6 0
v -16 -6 0
v -16 -5 0
v -15 -5 0
v -1 -7 0
v -2 -7 0
v -2 -6 0
v -1 -6 0
v -2 -7 0
v -3 -7 0
v -3 -6 0
v -2 -6 0
v -3 -7 0
v -4 -7 0
v -4 -6 0
v -3 -6 0
v -6 -7 0
v -7 -7 0
v -7 -6 0
v -6 -6 0
v -9 -7 0
v -10 -7 0
v -10 -6 0
v -9 -6 0
v -1 -8 0
v -2 -8 0
v -2 -7 0
v -1 -7 0
v -2 -8 0
v -3 -8 0
v -3 -7 0
v -2 -7 0
v -3 -8 0
v -4 -8 0
v -4 -7 0
v -3 -7 0
v -6 -8 0
v -7 -8 0
v -7 -7 0
v -6 -7 0
v -9 -8 0
v -10 -8 0
v -10 -7 0
v -9 -7 0
v -12 -8 0
v -13 -8 0
v -13 -7 0
v -12 -7 0
v -13 -8 0
v -14 -8 0
v -14 -7 0
v -13 -7 0
v -14 -8 0
v -15 -8 0
v -15 -7 0
v -14 -7 0
v -15 -8 0
v -16 -8 0
v -16 -7 0
v -15 -7 0
v -1 -9 0
v -2 -9 0
v -2 -8 0
v -1 -8 0
v -3 -9 0
v -4 -9 0
v -4 -8 0
v -3 -8 0
v -6 -9 0
v -7 -9 0
v -7 -8 0
v -6 -8 0
v -7 -9 0
v -8 -9 0
v -8 -8 0
v -7 -8 0
v -8 -9 0
v -9 -9 0
v -9 -8 0
v -8 -8 0
v -9 -9 0
v -10 -9 0
v -10 -8 0
v -9 -8 0
v -12 -9 0
v -13 -9 0
v -13 -8 0
v -12 -8 0
v -13 -9 0
v -14 -9 0
v -14 -8 0
v -13 -8 0
v -14 -9 0
v -15 -9 0
v -15 -8 0
v -14 -8 0
v -15 -9 0
v -16 -9 0
v -16 -8 0
v -15 -8 0
v -1 -10 0
v -2 -10 0
v -2 -9 0
v -1 -9 0
v -3 -10 0
v -4 -10 0
v -4 -9 0
v -3 -9 0
v -6 -10 0
v -7 -10 0
v -7 -9 0
v -6 -9 0
v -7 -10 0
v -8 -10 0
v -8 -9 0
v -7 -9 0
v -8 -10 0
v -9 -10 0
v -9 -9 0
v -8 -9 0
v -9 -10 0
v -10 -10 0
v -10 -9 0
v -9 -9 0
v -12 -10 0
v -13 -10 0
v -13 -9 0
v -12 -9 0
v -15 -10 0
v -16 -10 0
v -16 -9 0
v -15 -9 0
v -1 -11 0
v -2 -11 0
v -2 -10 0
v -1 -10 0
v -3 -11 0
v -4 -11 0
v -4 -10 0
v -3 -10 0
v -12 -11 0
v -13 -11 0
v -13 -10 0
v -12 -10 0
v -15 -11 0
v -16 -11 0
v -16 -10 0
v -15 -10 0
v -1 -12 0
v -2 -12 0
v -2 -11 0
v -1 -11 0
v -3 -12 0
v -4 -12 0
v -4 -11 0
v -3 -11 0
v -6 -12 0
v -7 -12 0
v -7 -11 0
v -6 -11 0
v -7 -12 0
v -8 -12 0
v -8 -11 0
v -7 -11 0
v -8 -12 0
v -9 -12 0
v -9 -11 0
v -8 -11 0
v -9 -12 0
v -10 -12 0
v -10 -11 0
v -9 -11 0
v -12 -12 0
v -13 -12 0
v -13 -11 0
v -12 -11 0
v -15 -12 0
v -16 -12 0
v -16 -11 0
v -15 -11 0
v -1 -13 0
v -2 -13 0
v -2 -12 0
v -1 -12 0
v -3 -13 0
v -4 -13 0
v -4 -12 0
v -3 -12 0
v -6 -13 0
v -7 -13 0
v -7 -12 0
v -6 -12 0
v -7 -13 0
v -8 -13 0
v -8 -12 0
v -7 -12 0
v -8 -13 0
v -9 -13 0
v -9 -12 0
v -8 -12 0
v -9 -13 0
v -10 -13 0
v -10 -12 0
v -9 -12 0
v -12 -13 0
v -13 -13 0
v -13 -12 0
v -12 -12 0
v -15 -13 0
v -16 -13 0
v -16 -12 0
v -15 -12 0
v -1 -14 0
v -2 -14 0
v -2 -13 0
v -1 -13 0
v -3 -14 0
v -4 -14 0
v -4 -13 0
v -3 -13 0
v -6 -14 0
v -7 -14 0
v -7 -13 0
v -6 -13 0
v -9 -14 0
v -10 -14 0
v -10 -13 0
v -9 -13 0
v -12 -14 0
v -13 -14 0
v -13 -13 0
v -12 -13 0
v -15 -14 0
v -16 -14 0
v -16 -13 0
v -15 -13 0
v -1 -15 0
v -2 -15 0
v -2 -14 0
v -1 -14 0
v -2 -15 0
v -3 -15 0
v -3 -14 0
v -2 -14 0
v -3 -15 0
v -4 -15 0
v -4 -14 0
v -3 -14 0
v -6 -15 0
v -7 -15 0
v -7 -14 0
v -6 -14 0
v -7 -15 0
v -8 -15 0
v -8 -14 0
v -7 -14 0
v -8 -15 0
v -9 -15 0
v -9 -14 0
v -8 -14 0
v -9 -15 0
v -10 -15 0
v -10 -14 0
v -9 -14 0
v -12 -15 0
v -13 -15 0
v -13 -14 0
v -12 -14 0
v -13 -15 0
v -14 -15 0
v -14 -14 0
v -13 -14 0
v -14 -15 0
v -15 -15 0
v -15 -14 0
v -14 -14 0
v -15 -15 0
v -16 -15 0
v -16 -14 0
v -15 -14 0
v -1 -16 0
v -2 -16 0
v -2 -15 0
v -1 -15 0
v -2 -16 0
v -3 -16 0
v -3 -15 0
v -2 -15 0
v -3 -16 0
v -4 -16 0
v -4 -15 0
v -3 -15 0
v -6 -16 0
v -7 -16 0
v -7 -15 0
v -6 -15 0
v -7 -16 0
v -8 -16 0
v -8 -15 0
v -7 -15 0
v -8 -16 0
v -9 -16 0
v -9 -15 0
v -8 -15 0
v -9 -16 0
v -10 -16 0
v -10 -15 0
v -9 -15 0
v -12 -16 0
v -13 -16 0
v -13 -15 0
v -12 -15 0
v -13 -16 0
v -14 -16 0
v -14 -15 0
v -13 -15 0
v -14 -16 0
v -15 -16 0
v -15 -15 0
v -14 -15 0
v -15 -16 0
v -16 -16 0
v -16 -15 0
v -15 -15 0

# Texture cooridinates (Count = 28)
vt 0.125 0.875
vt 0.1875 0.875
vt 0.1875 0.9375
vt 0.125 0.9375
vt 0 0.875
vt 0.0625 0.875
vt 0.0625 0.9375
vt 0 0.9375
vt 0.1875 0.75
vt 0.25 0.75
vt 0.25 0.8125
vt 0.1875 0.8125
vt 0.3125 0.75
vt 0.3125 0.8125
vt 0.0625 1
vt 0 1
vt 0.25 0.9375
vt 0.25 1
vt 0.1875 1
vt 0.0625 0.8125
vt 0.125 0.8125
vt 0.3125 0.9375
vt 0.3125 1
vt 0.25 0.875
vt 0.125 1
vt 0.3125 0.875
vt 0.0625 0.75
vt 0.125 0.75

# Normal
vn 0 0 -1

# Mesh description
g World1_mesh_0075

# Faces
f 1/1/1 2/2/1 3/3/1 4/4/1
f 5/5/1 6/6/1 7/7/1 8/8/1
f 9/9/1 10/10/1 11/11/1 12/12/1
f 13/6/1 14/1/1 15/4/1 16/7/1
f 17/6/1 18/1/1 19/4/1 20/7/1
f 21/10/1 22/13/1 23/14/1 24/11/1
f 25/1/1 26/2/1 27/3/1 28/4/1
f 29/1/1 30/2/1 31/3/1 32/4/1
f 33/5/1 34/6/1 35/7/1 36/8/1
f 37/1/1 38/2/1 39/3/1 40/4/1
f 41/8/1 42/7/1 43/15/1 44/16/1
f 45/1/1 46/2/1 47/3/1 48/4/1
f 49/5/1 50/6/1 51/7/1 52/8/1
f 53/3/1 54/17/1 55/18/1 56/19/1
f 57/20/1 58/21/1 59/1/1 60/6/1
f 61/20/1 62/21/1 63/1/1 64/6/1
f 65/17/1 66/22/1 67/23/1 68/18/1
f 69/1/1 70/2/1 71/3/1 72/4/1
f 73/5/1 74/6/1 75/7/1 76/8/1
f 77/12/1 78/11/1 79/24/1 80/2/1
f 81/7/1 82/4/1 83/25/1 84/15/1
f 85/11/1 86/14/1 87/26/1 88/24/1
f 89/2/1 90/24/1 91/17/1 92/3/1
f 93/27/1 94/28/1 95/21/1 96/20/1
f 97/27/1 98/28/1 99/21/1 100/20/1
f 101/24/1 102/26/1 103/22/1 104/17/1
f 105/1/1 106/2/1 107/3/1 108/4/1
f 109/5/1 110/6/1 111/7/1 112/8/1
f 113/9/1 114/10/1 115/11/1 116/12/1
f 117/6/1 118/1/1 119/4/1 120/7/1
f 121/10/1 122/13/1 123/14/1 124/11/1
f 125/1/1 126/2/1 127/3/1 128/4/1
f 129/5/1 130/6/1 131/7/1 132/8/1
f 133/12/1 134/11/1 135/24/1 136/2/1
f 137/7/1 138/4/1 139/25/1 140/15/1
f 141/7/1 142/4/1 143/25/1 144/15/1
f 145/11/1 146/14/1 147/26/1 148/24/1
f 149/1/1 150/2/1 151/3/1 152/4/1
f 153/5/1 154/6/1 155/7/1 156/8/1
f 157/9/1 158/10/1 159/11/1 160/12/1
f 161/6/1 162/1/1 163/4/1 164/7/1
f 165/6/1 166/1/1 167/4/1 168/7/1
f 169/10/1 170/13/1 171/14/1 172/11/1
f 173/3/1 174/17/1 175/18/1 176/19/1
f 177/20/1 178/21/1 179/1/1 180/6/1
f 181/17/1 182/22/1 183/23/1 184/18/1
f 185/1/1 186/2/1 187/3/1 188/4/1
f 189/5/1 190/6/1 191/7/1 192/8/1
f 193/2/1 194/24/1 195/17/1 196/3/1
f 197/27/1 198/28/1 199/21/1 200/20/1
f 201/24/1 202/26/1 203/22/1 204/17/1
f 205/1/1 206/2/1 207/3/1 208/4/1
f 209/5/1 210/6/1 211/7/1 212/8/1
f 213/3/1 214/17/1 215/18/1 216/19/1
f 217/20/1 218/21/1 219/1/1 220/6/1
f 221/20/1 222/21/1 223/1/1 224/6/1
f 225/17/1 226/22/1 227/23/1 228/18/1
f 229/1/1 230/2/1 231/3/1 232/4/1
f 233/5/1 234/6/1 235/7/1 236/8/1
f 237/12/1 238/11/1 239/24/1 240/2/1
f 241/7/1 242/4/1 243/25/1 244/15/1
f 245/7/1 246/4/1 247/25/1 248/15/1
f 249/11/1 250/14/1 251/26/1 252/24/1
f 253/2/1 254/24/1 255/17/1 256/3/1
f 257/27/1 258/28/1 259/21/1 260/20/1
f 261/27/1 262/28/1 263/21/1 264/20/1
f 265/24/1 266/26/1 267/22/1 268/17/1
f 269/1/1 270/2/1 271/3/1 272/4/1
f 273/5/1 274/6/1 275/7/1 276/8/1
f 277/9/1 278/10/1 279/11/1 280/12/1
f 281/6/1 282/1/1 283/4/1 284/7/1
f 285/6/1 286/1/1 287/4/1 288/7/1
f 289/10/1 290/13/1 291/14/1 292/11/1
f 293/1/1 294/2/1 295/3/1 296/4/1
f 297/5/1 298/6/1 299/7/1 300/8/1
f 301/1/1 302/2/1 303/3/1 304/4/1
f 305/5/1 306/6/1 307/7/1 308/8/1
f 309/1/1 310/2/1 311/3/1 312/4/1
f 313/5/1 314/6/1 315/7/1 316/8/1
f 317/1/1 318/2/1 319/3/1 320/4/1
f 321/5/1 322/6/1 323/7/1 324/8/1
f 325/3/1 326/17/1 327/18/1 328/19/1
f 329/20/1 330/21/1 331/1/1 332/6/1
f 333/20/1 334/21/1 335/1/1 336/6/1
f 337/17/1 338/22/1 339/23/1 340/18/1
f 341/1/1 342/2/1 343/3/1 344/4/1
f 345/5/1 346/6/1 347/7/1 348/8/1
f 349/1/1 350/2/1 351/3/1 352/4/1
f 353/5/1 354/6/1 355/7/1 356/8/1
f 357/2/1 358/24/1 359/17/1 360/3/1
f 361/27/1 362/28/1 363/21/1 364/20/1
f 365/27/1 366/28/1 367/21/1 368/20/1
f 369/24/1 370/26/1 371/22/1 372/17/1
f 373/1/1 374/2/1 375/3/1 376/4/1
f 377/5/1 378/6/1 379/7/1 380/8/1
f 381/1/1 382/2/1 383/3/1 384/4/1
f 385/5/1 386/6/1 387/7/1 388/8/1
f 389/1/1 390/2/1 391/3/1 392/4/1
f 393/5/1 394/6/1 395/7/1 396/8/1
f 397/1/1 398/2/1 399/3/1 400/4/1
f 401/5/1 402/6/1 403/7/1 404/8/1
f 405/12/1 406/11/1 407/24/1 408/2/1
f 409/7/1 410/4/1 411/25/1 412/15/1
f 413/11/1 414/14/1 415/26/1 416/24/1
f 417/12/1 418/11/1 419/24/1 420/2/1
f 421/7/1 422/4/1 423/25/1 424/15/1
f 425/7/1 426/4/1 427/25/1 428/15/1
f 429/11/1 430/14/1 431/26/1 432/24/1
f 433/12/1 434/11/1 435/24/1 436/2/1
f 437/7/1 438/4/1 439/25/1 440/15/1
f 441/7/1 442/4/1 443/25/1 444/15/1
f 445/11/1 446/14/1 447/26/1 448/24/1
f 449/9/1 450/10/1 451/11/1 452/12/1
f 453/6/1 454/1/1 455/4/1 456/7/1
f 457/10/1 458/13/1 459/14/1 460/11/1
f 461/9/1 462/10/1 463/11/1 464/12/1
f 465/6/1 466/1/1 467/4/1 468/7/1
f 469/6/1 470/1/1 471/4/1 472/7/1
f 473/10/1 474/13/1 475/14/1 476/11/1
f 477/9/1 478/10/1 479/11/1 480/12/1
f 481/6/1 482/1/1 483/4/1 484/7/1
f 485/6/1 486/1/1 487/4/1 488/7/1
f 489/10/1 490/13/1 491/14/1 492/11/1

