# Tiled2Unity generated file. Do not modify by hand.
# Wavefront file for 'World1_mesh_0134.obj'

# Vertices (Count = 40)
v -7 -1 0
v -8 -1 0
v -8 0 0
v -7 0 0
v -8 -1 0
v -9 -1 0
v -9 0 0
v -8 0 0
v 0 -3 0
v -1 -3 0
v -1 -2 0
v 0 -2 0
v -2 -5 0
v -3 -5 0
v -3 -4 0
v -2 -4 0
v -13 -6 0
v -14 -6 0
v -14 -5 0
v -13 -5 0
v -8 -10 0
v -9 -10 0
v -9 -9 0
v -8 -9 0
v -5 -11 0
v -6 -11 0
v -6 -10 0
v -5 -10 0
v -7 -16 0
v -8 -16 0
v -8 -15 0
v -7 -15 0
v -13 -16 0
v -14 -16 0
v -14 -15 0
v -13 -15 0
v -14 -16 0
v -15 -16 0
v -15 -15 0
v -14 -15 0

# Texture cooridinates (Count = 18)
vt 0.25 0.75
vt 0.3125 0.75
vt 0.3125 0.8125
vt 0.25 0.8125
vt 0.4375 0.9375
vt 0.5 0.9375
vt 0.5 1
vt 0.4375 1
vt 0.0625 0.75
vt 0.125 0.75
vt 0.125 0.8125
vt 0.0625 0.8125
vt 0.25 0.875
vt 0.3125 0.875
vt 0.3125 0.9375
vt 0.25 0.9375
vt 0.375 0.75
vt 0.375 0.8125

# Normal
vn 0 0 -1

# Mesh description
g World1_mesh_0134

# Faces
f 1/1/1 2/2/1 3/3/1 4/4/1
f 5/5/1 6/6/1 7/7/1 8/8/1
f 9/9/1 10/10/1 11/11/1 12/12/1
f 13/13/1 14/14/1 15/15/1 16/16/1
f 17/13/1 18/14/1 19/15/1 20/16/1
f 21/2/1 22/17/1 23/18/1 24/3/1
f 25/9/1 26/10/1 27/11/1 28/12/1
f 29/2/1 30/17/1 31/18/1 32/3/1
f 33/4/1 34/3/1 35/14/1 36/13/1
f 37/1/1 38/2/1 39/3/1 40/4/1

