# Tiled2Unity generated file. Do not modify by hand.
# Wavefront file for 'World1_mesh_0145.obj'

# Vertices (Count = 12)
v -11 -4 0
v -12 -4 0
v -12 -3 0
v -11 -3 0
v -11 -9 0
v -12 -9 0
v -12 -8 0
v -11 -8 0
v -14 -12 0
v -15 -12 0
v -15 -11 0
v -14 -11 0

# Texture cooridinates (Count = 4)
vt 0.0625 0.75
vt 0.125 0.75
vt 0.125 0.8125
vt 0.0625 0.8125

# Normal
vn 0 0 -1

# Mesh description
g World1_mesh_0145

# Faces
f 1/1/1 2/2/1 3/3/1 4/4/1
f 5/1/1 6/2/1 7/3/1 8/4/1
f 9/1/1 10/2/1 11/3/1 12/4/1

