# Tiled2Unity generated file. Do not modify by hand.
# Wavefront file for 'menu_mesh_0004.obj'

# Vertices (Count = 88)
v -688 -736 0
v -704 -736 0
v -704 -720 0
v -688 -720 0
v -704 -736 0
v -720 -736 0
v -720 -720 0
v -704 -720 0
v -720 -736 0
v -736 -736 0
v -736 -720 0
v -720 -720 0
v -736 -736 0
v -752 -736 0
v -752 -720 0
v -736 -720 0
v -752 -736 0
v -768 -736 0
v -768 -720 0
v -752 -720 0
v -768 -736 0
v -784 -736 0
v -784 -720 0
v -768 -720 0
v -784 -736 0
v -800 -736 0
v -800 -720 0
v -784 -720 0
v -800 -736 0
v -816 -736 0
v -816 -720 0
v -800 -720 0
v -816 -736 0
v -832 -736 0
v -832 -720 0
v -816 -720 0
v -832 -736 0
v -848 -736 0
v -848 -720 0
v -832 -720 0
v -848 -736 0
v -864 -736 0
v -864 -720 0
v -848 -720 0
v -864 -736 0
v -880 -736 0
v -880 -720 0
v -864 -720 0
v -880 -736 0
v -896 -736 0
v -896 -720 0
v -880 -720 0
v -896 -736 0
v -912 -736 0
v -912 -720 0
v -896 -720 0
v -912 -736 0
v -928 -736 0
v -928 -720 0
v -912 -720 0
v -928 -736 0
v -944 -736 0
v -944 -720 0
v -928 -720 0
v -944 -736 0
v -960 -736 0
v -960 -720 0
v -944 -720 0
v -960 -736 0
v -976 -736 0
v -976 -720 0
v -960 -720 0
v -976 -736 0
v -992 -736 0
v -992 -720 0
v -976 -720 0
v -992 -736 0
v -1008 -736 0
v -1008 -720 0
v -992 -720 0
v -1008 -736 0
v -1024 -736 0
v -1024 -720 0
v -1008 -720 0
v -1024 -736 0
v -1040 -736 0
v -1040 -720 0
v -1024 -720 0

# Texture cooridinates (Count = 8)
vt 0 0.8125
vt 0.0625 0.8125
vt 0.0625 0.875
vt 0 0.875
vt 0.125 0.8125
vt 0.125 0.875
vt 0.1875 0.8125
vt 0.1875 0.875

# Normal
vn 0 0 -1

# Mesh description
g menu_mesh_0004

# Faces
f 1/1/1 2/2/1 3/3/1 4/4/1
f 5/1/1 6/2/1 7/3/1 8/4/1
f 9/1/1 10/2/1 11/3/1 12/4/1
f 13/2/1 14/5/1 15/6/1 16/3/1
f 17/2/1 18/5/1 19/6/1 20/3/1
f 21/1/1 22/2/1 23/3/1 24/4/1
f 25/1/1 26/2/1 27/3/1 28/4/1
f 29/2/1 30/5/1 31/6/1 32/3/1
f 33/2/1 34/5/1 35/6/1 36/3/1
f 37/2/1 38/5/1 39/6/1 40/3/1
f 41/2/1 42/5/1 43/6/1 44/3/1
f 45/2/1 46/5/1 47/6/1 48/3/1
f 49/2/1 50/5/1 51/6/1 52/3/1
f 53/2/1 54/5/1 55/6/1 56/3/1
f 57/2/1 58/5/1 59/6/1 60/3/1
f 61/2/1 62/5/1 63/6/1 64/3/1
f 65/5/1 66/7/1 67/8/1 68/6/1
f 69/2/1 70/5/1 71/6/1 72/3/1
f 73/5/1 74/7/1 75/8/1 76/6/1
f 77/2/1 78/5/1 79/6/1 80/3/1
f 81/1/1 82/2/1 83/3/1 84/4/1
f 85/2/1 86/5/1 87/6/1 88/3/1

