# Tiled2Unity generated file. Do not modify by hand.
# Wavefront file for 'World1_mesh_0079.obj'

# Vertices (Count = 268)
v 0 -7 0
v -1 -7 0
v -1 -6 0
v 0 -6 0
v -1 -7 0
v -2 -7 0
v -2 -6 0
v -1 -6 0
v -2 -7 0
v -3 -7 0
v -3 -6 0
v -2 -6 0
v -3 -7 0
v -4 -7 0
v -4 -6 0
v -3 -6 0
v -4 -7 0
v -5 -7 0
v -5 -6 0
v -4 -6 0
v -5 -7 0
v -6 -7 0
v -6 -6 0
v -5 -6 0
v -6 -7 0
v -7 -7 0
v -7 -6 0
v -6 -6 0
v -7 -7 0
v -8 -7 0
v -8 -6 0
v -7 -6 0
v -8 -7 0
v -9 -7 0
v -9 -6 0
v -8 -6 0
v -9 -7 0
v -10 -7 0
v -10 -6 0
v -9 -6 0
v 0 -8 0
v -1 -8 0
v -1 -7 0
v 0 -7 0
v -1 -8 0
v -2 -8 0
v -2 -7 0
v -1 -7 0
v -2 -8 0
v -3 -8 0
v -3 -7 0
v -2 -7 0
v -3 -8 0
v -4 -8 0
v -4 -7 0
v -3 -7 0
v -4 -8 0
v -5 -8 0
v -5 -7 0
v -4 -7 0
v -5 -8 0
v -6 -8 0
v -6 -7 0
v -5 -7 0
v -6 -8 0
v -7 -8 0
v -7 -7 0
v -6 -7 0
v -7 -8 0
v -8 -8 0
v -8 -7 0
v -7 -7 0
v -8 -8 0
v -9 -8 0
v -9 -7 0
v -8 -7 0
v -9 -8 0
v -10 -8 0
v -10 -7 0
v -9 -7 0
v -9 -9 0
v -10 -9 0
v -10 -8 0
v -9 -8 0
v -10 -9 0
v -11 -9 0
v -11 -8 0
v -10 -8 0
v -11 -9 0
v -12 -9 0
v -12 -8 0
v -11 -8 0
v -12 -9 0
v -13 -9 0
v -13 -8 0
v -12 -8 0
v -13 -9 0
v -14 -9 0
v -14 -8 0
v -13 -8 0
v -14 -9 0
v -15 -9 0
v -15 -8 0
v -14 -8 0
v -15 -9 0
v -16 -9 0
v -16 -8 0
v -15 -8 0
v -9 -10 0
v -10 -10 0
v -10 -9 0
v -9 -9 0
v -10 -10 0
v -11 -10 0
v -11 -9 0
v -10 -9 0
v -11 -10 0
v -12 -10 0
v -12 -9 0
v -11 -9 0
v -12 -10 0
v -13 -10 0
v -13 -9 0
v -12 -9 0
v -13 -10 0
v -14 -10 0
v -14 -9 0
v -13 -9 0
v -14 -10 0
v -15 -10 0
v -15 -9 0
v -14 -9 0
v -15 -10 0
v -16 -10 0
v -16 -9 0
v -15 -9 0
v 0 -11 0
v -1 -11 0
v -1 -10 0
v 0 -10 0
v -1 -11 0
v -2 -11 0
v -2 -10 0
v -1 -10 0
v -2 -11 0
v -3 -11 0
v -3 -10 0
v -2 -10 0
v -3 -11 0
v -4 -11 0
v -4 -10 0
v -3 -10 0
v 0 -12 0
v -1 -12 0
v -1 -11 0
v 0 -11 0
v -1 -12 0
v -2 -12 0
v -2 -11 0
v -1 -11 0
v -2 -12 0
v -3 -12 0
v -3 -11 0
v -2 -11 0
v -3 -12 0
v -4 -12 0
v -4 -11 0
v -3 -11 0
v -9 -12 0
v -10 -12 0
v -10 -11 0
v -9 -11 0
v -10 -12 0
v -11 -12 0
v -11 -11 0
v -10 -11 0
v -11 -12 0
v -12 -12 0
v -12 -11 0
v -11 -11 0
v -12 -12 0
v -13 -12 0
v -13 -11 0
v -12 -11 0
v -13 -12 0
v -14 -12 0
v -14 -11 0
v -13 -11 0
v -14 -12 0
v -15 -12 0
v -15 -11 0
v -14 -11 0
v -15 -12 0
v -16 -12 0
v -16 -11 0
v -15 -11 0
v 0 -13 0
v -1 -13 0
v -1 -12 0
v 0 -12 0
v -3 -13 0
v -4 -13 0
v -4 -12 0
v -3 -12 0
v -9 -13 0
v -10 -13 0
v -10 -12 0
v -9 -12 0
v -10 -13 0
v -11 -13 0
v -11 -12 0
v -10 -12 0
v -11 -13 0
v -12 -13 0
v -12 -12 0
v -11 -12 0
v -12 -13 0
v -13 -13 0
v -13 -12 0
v -12 -12 0
v -13 -13 0
v -14 -13 0
v -14 -12 0
v -13 -12 0
v -14 -13 0
v -15 -13 0
v -15 -12 0
v -14 -12 0
v -15 -13 0
v -16 -13 0
v -16 -12 0
v -15 -12 0
v 0 -14 0
v -1 -14 0
v -1 -13 0
v 0 -13 0
v -3 -14 0
v -4 -14 0
v -4 -13 0
v -3 -13 0
v -9 -14 0
v -10 -14 0
v -10 -13 0
v -9 -13 0
v 0 -15 0
v -1 -15 0
v -1 -14 0
v 0 -14 0
v -3 -15 0
v -4 -15 0
v -4 -14 0
v -3 -14 0
v -9 -15 0
v -10 -15 0
v -10 -14 0
v -9 -14 0
v 0 -16 0
v -1 -16 0
v -1 -15 0
v 0 -15 0
v -3 -16 0
v -4 -16 0
v -4 -15 0
v -3 -15 0
v -9 -16 0
v -10 -16 0
v -10 -15 0
v -9 -15 0

# Texture cooridinates (Count = 23)
vt 0.0625 0.9375
vt 0.125 0.9375
vt 0.125 1
vt 0.0625 1
vt 0.1875 0.9375
vt 0.1875 1
vt 0.0625 0.875
vt 0.125 0.875
vt 0.1875 0.875
vt 0.1875 0.8125
vt 0.25 0.8125
vt 0.25 0.875
vt 0.1875 0.75
vt 0.25 0.75
vt 0 0.9375
vt 0 1
vt 0 0.875
vt 0.125 0.8125
vt 0.25 0.9375
vt 0.25 1
vt 0.0625 0.8125
vt 0.0625 0.75
vt 0.125 0.75

# Normal
vn 0 0 -1

# Mesh description
g World1_mesh_0079

# Faces
f 1/1/1 2/2/1 3/3/1 4/4/1
f 5/1/1 6/2/1 7/3/1 8/4/1
f 9/1/1 10/2/1 11/3/1 12/4/1
f 13/1/1 14/2/1 15/3/1 16/4/1
f 17/1/1 18/2/1 19/3/1 20/4/1
f 21/1/1 22/2/1 23/3/1 24/4/1
f 25/1/1 26/2/1 27/3/1 28/4/1
f 29/1/1 30/2/1 31/3/1 32/4/1
f 33/1/1 34/2/1 35/3/1 36/4/1
f 37/2/1 38/5/1 39/6/1 40/3/1
f 41/7/1 42/8/1 43/2/1 44/1/1
f 45/7/1 46/8/1 47/2/1 48/1/1
f 49/7/1 50/8/1 51/2/1 52/1/1
f 53/7/1 54/8/1 55/2/1 56/1/1
f 57/7/1 58/8/1 59/2/1 60/1/1
f 61/7/1 62/8/1 63/2/1 64/1/1
f 65/7/1 66/8/1 67/2/1 68/1/1
f 69/7/1 70/8/1 71/2/1 72/1/1
f 73/7/1 74/8/1 75/2/1 76/1/1
f 77/8/1 78/9/1 79/5/1 80/2/1
f 81/10/1 82/11/1 83/12/1 84/9/1
f 85/1/1 86/2/1 87/3/1 88/4/1
f 89/1/1 90/2/1 91/3/1 92/4/1
f 93/1/1 94/2/1 95/3/1 96/4/1
f 97/1/1 98/2/1 99/3/1 100/4/1
f 101/1/1 102/2/1 103/3/1 104/4/1
f 105/1/1 106/2/1 107/3/1 108/4/1
f 109/13/1 110/14/1 111/11/1 112/10/1
f 113/7/1 114/8/1 115/2/1 116/1/1
f 117/7/1 118/8/1 119/2/1 120/1/1
f 121/7/1 122/8/1 123/2/1 124/1/1
f 125/7/1 126/8/1 127/2/1 128/1/1
f 129/7/1 130/8/1 131/2/1 132/1/1
f 133/7/1 134/8/1 135/2/1 136/1/1
f 137/15/1 138/1/1 139/4/1 140/16/1
f 141/1/1 142/2/1 143/3/1 144/4/1
f 145/1/1 146/2/1 147/3/1 148/4/1
f 149/2/1 150/5/1 151/6/1 152/3/1
f 153/17/1 154/7/1 155/1/1 156/15/1
f 157/7/1 158/8/1 159/2/1 160/1/1
f 161/7/1 162/8/1 163/2/1 164/1/1
f 165/18/1 166/10/1 167/9/1 168/8/1
f 169/5/1 170/19/1 171/20/1 172/6/1
f 173/21/1 174/18/1 175/8/1 176/7/1
f 177/21/1 178/18/1 179/8/1 180/7/1
f 181/21/1 182/18/1 183/8/1 184/7/1
f 185/21/1 186/18/1 187/8/1 188/7/1
f 189/21/1 190/18/1 191/8/1 192/7/1
f 193/21/1 194/18/1 195/8/1 196/7/1
f 197/17/1 198/7/1 199/1/1 200/15/1
f 201/18/1 202/10/1 203/9/1 204/8/1
f 205/9/1 206/12/1 207/19/1 208/5/1
f 209/22/1 210/23/1 211/18/1 212/21/1
f 213/22/1 214/23/1 215/18/1 216/21/1
f 217/22/1 218/23/1 219/18/1 220/21/1
f 221/22/1 222/23/1 223/18/1 224/21/1
f 225/22/1 226/23/1 227/18/1 228/21/1
f 229/22/1 230/23/1 231/18/1 232/21/1
f 233/17/1 234/7/1 235/1/1 236/15/1
f 237/8/1 238/9/1 239/5/1 240/2/1
f 241/18/1 242/10/1 243/9/1 244/8/1
f 245/17/1 246/7/1 247/1/1 248/15/1
f 249/8/1 250/9/1 251/5/1 252/2/1
f 253/18/1 254/10/1 255/9/1 256/8/1
f 257/17/1 258/7/1 259/1/1 260/15/1
f 261/8/1 262/9/1 263/5/1 264/2/1
f 265/18/1 266/10/1 267/9/1 268/8/1

