# Tiled2Unity generated file. Do not modify by hand.
# Wavefront file for 'World1_mesh_0080.obj'

# Vertices (Count = 284)
v -13 -1 0
v -14 -1 0
v -14 0 0
v -13 0 0
v -13 -2 0
v -14 -2 0
v -14 -1 0
v -13 -1 0
v -13 -3 0
v -14 -3 0
v -14 -2 0
v -13 -2 0
v -13 -4 0
v -14 -4 0
v -14 -3 0
v -13 -3 0
v -5 -5 0
v -6 -5 0
v -6 -4 0
v -5 -4 0
v -6 -5 0
v -7 -5 0
v -7 -4 0
v -6 -4 0
v -7 -5 0
v -8 -5 0
v -8 -4 0
v -7 -4 0
v -8 -5 0
v -9 -5 0
v -9 -4 0
v -8 -4 0
v -9 -5 0
v -10 -5 0
v -10 -4 0
v -9 -4 0
v -10 -5 0
v -11 -5 0
v -11 -4 0
v -10 -4 0
v -11 -5 0
v -12 -5 0
v -12 -4 0
v -11 -4 0
v -12 -5 0
v -13 -5 0
v -13 -4 0
v -12 -4 0
v -13 -5 0
v -14 -5 0
v -14 -4 0
v -13 -4 0
v -5 -6 0
v -6 -6 0
v -6 -5 0
v -5 -5 0
v -6 -6 0
v -7 -6 0
v -7 -5 0
v -6 -5 0
v -7 -6 0
v -8 -6 0
v -8 -5 0
v -7 -5 0
v -8 -6 0
v -9 -6 0
v -9 -5 0
v -8 -5 0
v -9 -6 0
v -10 -6 0
v -10 -5 0
v -9 -5 0
v -10 -6 0
v -11 -6 0
v -11 -5 0
v -10 -5 0
v -11 -6 0
v -12 -6 0
v -12 -5 0
v -11 -5 0
v -12 -6 0
v -13 -6 0
v -13 -5 0
v -12 -5 0
v -13 -6 0
v -14 -6 0
v -14 -5 0
v -13 -5 0
v -5 -7 0
v -6 -7 0
v -6 -6 0
v -5 -6 0
v -5 -8 0
v -6 -8 0
v -6 -7 0
v -5 -7 0
v 0 -9 0
v -1 -9 0
v -1 -8 0
v 0 -8 0
v -1 -9 0
v -2 -9 0
v -2 -8 0
v -1 -8 0
v -2 -9 0
v -3 -9 0
v -3 -8 0
v -2 -8 0
v -3 -9 0
v -4 -9 0
v -4 -8 0
v -3 -8 0
v -4 -9 0
v -5 -9 0
v -5 -8 0
v -4 -8 0
v -5 -9 0
v -6 -9 0
v -6 -8 0
v -5 -8 0
v 0 -10 0
v -1 -10 0
v -1 -9 0
v 0 -9 0
v -1 -10 0
v -2 -10 0
v -2 -9 0
v -1 -9 0
v -2 -10 0
v -3 -10 0
v -3 -9 0
v -2 -9 0
v -3 -10 0
v -4 -10 0
v -4 -9 0
v -3 -9 0
v -4 -10 0
v -5 -10 0
v -5 -9 0
v -4 -9 0
v -5 -10 0
v -6 -10 0
v -6 -9 0
v -5 -9 0
v -8 -10 0
v -9 -10 0
v -9 -9 0
v -8 -9 0
v -9 -10 0
v -10 -10 0
v -10 -9 0
v -9 -9 0
v -10 -10 0
v -11 -10 0
v -11 -9 0
v -10 -9 0
v -11 -10 0
v -12 -10 0
v -12 -9 0
v -11 -9 0
v -8 -11 0
v -9 -11 0
v -9 -10 0
v -8 -10 0
v -9 -11 0
v -10 -11 0
v -10 -10 0
v -9 -10 0
v -10 -11 0
v -11 -11 0
v -11 -10 0
v -10 -10 0
v -11 -11 0
v -12 -11 0
v -12 -10 0
v -11 -10 0
v 0 -12 0
v -1 -12 0
v -1 -11 0
v 0 -11 0
v -1 -12 0
v -2 -12 0
v -2 -11 0
v -1 -11 0
v -2 -12 0
v -3 -12 0
v -3 -11 0
v -2 -11 0
v -3 -12 0
v -4 -12 0
v -4 -11 0
v -3 -11 0
v -4 -12 0
v -5 -12 0
v -5 -11 0
v -4 -11 0
v -5 -12 0
v -6 -12 0
v -6 -11 0
v -5 -11 0
v -8 -12 0
v -9 -12 0
v -9 -11 0
v -8 -11 0
v -9 -12 0
v -10 -12 0
v -10 -11 0
v -9 -11 0
v -10 -12 0
v -11 -12 0
v -11 -11 0
v -10 -11 0
v -11 -12 0
v -12 -12 0
v -12 -11 0
v -11 -11 0
v 0 -13 0
v -1 -13 0
v -1 -12 0
v 0 -12 0
v -1 -13 0
v -2 -13 0
v -2 -12 0
v -1 -12 0
v -2 -13 0
v -3 -13 0
v -3 -12 0
v -2 -12 0
v -3 -13 0
v -4 -13 0
v -4 -12 0
v -3 -12 0
v -4 -13 0
v -5 -13 0
v -5 -12 0
v -4 -12 0
v -5 -13 0
v -6 -13 0
v -6 -12 0
v -5 -12 0
v -5 -14 0
v -6 -14 0
v -6 -13 0
v -5 -13 0
v -5 -15 0
v -6 -15 0
v -6 -14 0
v -5 -14 0
v -5 -16 0
v -6 -16 0
v -6 -15 0
v -5 -15 0
v -6 -16 0
v -7 -16 0
v -7 -15 0
v -6 -15 0
v -7 -16 0
v -8 -16 0
v -8 -15 0
v -7 -15 0
v -8 -16 0
v -9 -16 0
v -9 -15 0
v -8 -15 0
v -9 -16 0
v -10 -16 0
v -10 -15 0
v -9 -15 0
v -10 -16 0
v -11 -16 0
v -11 -15 0
v -10 -15 0
v -11 -16 0
v -12 -16 0
v -12 -15 0
v -11 -15 0
v -12 -16 0
v -13 -16 0
v -13 -15 0
v -12 -15 0
v -13 -16 0
v -14 -16 0
v -14 -15 0
v -13 -15 0

# Texture cooridinates (Count = 28)
vt 0 0.8125
vt 0.0625 0.8125
vt 0.0625 0.875
vt 0 0.875
vt 0 0.9375
vt 0.0625 0.9375
vt 0.0625 1
vt 0 1
vt 0.125 0.9375
vt 0.125 1
vt 0.25 0.8125
vt 0.3125 0.8125
vt 0.3125 0.875
vt 0.25 0.875
vt 0.125 0.875
vt 0.25 0.75
vt 0.3125 0.75
vt 0.1875 0.9375
vt 0.1875 1
vt 0.125 0.8125
vt 0.1875 0.8125
vt 0.1875 0.875
vt 0.25 0.9375
vt 0.3125 0.9375
vt 0.3125 1
vt 0.25 1
vt 0.0625 0.75
vt 0.125 0.75

# Normal
vn 0 0 -1

# Mesh description
g World1_mesh_0080

# Faces
f 1/1/1 2/2/1 3/3/1 4/4/1
f 5/1/1 6/2/1 7/3/1 8/4/1
f 9/1/1 10/2/1 11/3/1 12/4/1
f 13/1/1 14/2/1 15/3/1 16/4/1
f 17/5/1 18/6/1 19/7/1 20/8/1
f 21/6/1 22/9/1 23/10/1 24/7/1
f 25/6/1 26/9/1 27/10/1 28/7/1
f 29/6/1 30/9/1 31/10/1 32/7/1
f 33/6/1 34/9/1 35/10/1 36/7/1
f 37/6/1 38/9/1 39/10/1 40/7/1
f 41/6/1 42/9/1 43/10/1 44/7/1
f 45/6/1 46/9/1 47/10/1 48/7/1
f 49/11/1 50/12/1 51/13/1 52/14/1
f 53/4/1 54/3/1 55/6/1 56/5/1
f 57/3/1 58/15/1 59/9/1 60/6/1
f 61/3/1 62/15/1 63/9/1 64/6/1
f 65/3/1 66/15/1 67/9/1 68/6/1
f 69/3/1 70/15/1 71/9/1 72/6/1
f 73/3/1 74/15/1 75/9/1 76/6/1
f 77/3/1 78/15/1 79/9/1 80/6/1
f 81/3/1 82/15/1 83/9/1 84/6/1
f 85/16/1 86/17/1 87/12/1 88/11/1
f 89/4/1 90/3/1 91/6/1 92/5/1
f 93/4/1 94/3/1 95/6/1 96/5/1
f 97/6/1 98/9/1 99/10/1 100/7/1
f 101/6/1 102/9/1 103/10/1 104/7/1
f 105/6/1 106/9/1 107/10/1 108/7/1
f 109/6/1 110/9/1 111/10/1 112/7/1
f 113/6/1 114/9/1 115/10/1 116/7/1
f 117/11/1 118/12/1 119/13/1 120/14/1
f 121/3/1 122/15/1 123/9/1 124/6/1
f 125/3/1 126/15/1 127/9/1 128/6/1
f 129/3/1 130/15/1 131/9/1 132/6/1
f 133/3/1 134/15/1 135/9/1 136/6/1
f 137/3/1 138/15/1 139/9/1 140/6/1
f 141/16/1 142/17/1 143/12/1 144/11/1
f 145/5/1 146/6/1 147/7/1 148/8/1
f 149/6/1 150/9/1 151/10/1 152/7/1
f 153/6/1 154/9/1 155/10/1 156/7/1
f 157/9/1 158/18/1 159/19/1 160/10/1
f 161/4/1 162/3/1 163/6/1 164/5/1
f 165/3/1 166/15/1 167/9/1 168/6/1
f 169/3/1 170/15/1 171/9/1 172/6/1
f 173/20/1 174/21/1 175/22/1 176/15/1
f 177/2/1 178/20/1 179/15/1 180/3/1
f 181/2/1 182/20/1 183/15/1 184/3/1
f 185/2/1 186/20/1 187/15/1 188/3/1
f 189/2/1 190/20/1 191/15/1 192/3/1
f 193/2/1 194/20/1 195/15/1 196/3/1
f 197/23/1 198/24/1 199/25/1 200/26/1
f 201/4/1 202/3/1 203/6/1 204/5/1
f 205/2/1 206/20/1 207/15/1 208/3/1
f 209/2/1 210/20/1 211/15/1 212/3/1
f 213/20/1 214/21/1 215/22/1 216/15/1
f 217/27/1 218/28/1 219/20/1 220/2/1
f 221/27/1 222/28/1 223/20/1 224/2/1
f 225/27/1 226/28/1 227/20/1 228/2/1
f 229/27/1 230/28/1 231/20/1 232/2/1
f 233/27/1 234/28/1 235/20/1 236/2/1
f 237/14/1 238/13/1 239/24/1 240/23/1
f 241/4/1 242/3/1 243/6/1 244/5/1
f 245/4/1 246/3/1 247/6/1 248/5/1
f 249/4/1 250/3/1 251/6/1 252/5/1
f 253/2/1 254/20/1 255/15/1 256/3/1
f 257/2/1 258/20/1 259/15/1 260/3/1
f 261/2/1 262/20/1 263/15/1 264/3/1
f 265/2/1 266/20/1 267/15/1 268/3/1
f 269/2/1 270/20/1 271/15/1 272/3/1
f 273/2/1 274/20/1 275/15/1 276/3/1
f 277/2/1 278/20/1 279/15/1 280/3/1
f 281/23/1 282/24/1 283/25/1 284/26/1

