# Tiled2Unity generated file. Do not modify by hand.
# Wavefront file for 'World1_mesh_0052.obj'

# Vertices (Count = 80)
v -2 -13 0
v -3 -13 0
v -3 -12 0
v -2 -12 0
v -3 -13 0
v -4 -13 0
v -4 -12 0
v -3 -12 0
v -4 -13 0
v -5 -13 0
v -5 -12 0
v -4 -12 0
v -5 -13 0
v -6 -13 0
v -6 -12 0
v -5 -12 0
v -6 -13 0
v -7 -13 0
v -7 -12 0
v -6 -12 0
v -7 -13 0
v -8 -13 0
v -8 -12 0
v -7 -12 0
v -8 -13 0
v -9 -13 0
v -9 -12 0
v -8 -12 0
v -9 -13 0
v -10 -13 0
v -10 -12 0
v -9 -12 0
v -2 -14 0
v -3 -14 0
v -3 -13 0
v -2 -13 0
v -3 -14 0
v -4 -14 0
v -4 -13 0
v -3 -13 0
v -4 -14 0
v -5 -14 0
v -5 -13 0
v -4 -13 0
v -5 -14 0
v -6 -14 0
v -6 -13 0
v -5 -13 0
v -6 -14 0
v -7 -14 0
v -7 -13 0
v -6 -13 0
v -7 -14 0
v -8 -14 0
v -8 -13 0
v -7 -13 0
v -8 -14 0
v -9 -14 0
v -9 -13 0
v -8 -13 0
v -9 -14 0
v -10 -14 0
v -10 -13 0
v -9 -13 0
v -2 -15 0
v -3 -15 0
v -3 -14 0
v -2 -14 0
v -9 -15 0
v -10 -15 0
v -10 -14 0
v -9 -14 0
v -2 -16 0
v -3 -16 0
v -3 -15 0
v -2 -15 0
v -9 -16 0
v -10 -16 0
v -10 -15 0
v -9 -15 0

# Texture cooridinates (Count = 12)
vt 0 0.9375
vt 0.0625 0.9375
vt 0.0625 1
vt 0 1
vt 0.125 0.9375
vt 0.125 1
vt 0.1875 0.9375
vt 0.1875 1
vt 0 0.875
vt 0.0625 0.875
vt 0.125 0.875
vt 0.1875 0.875

# Normal
vn 0 0 -1

# Mesh description
g World1_mesh_0052

# Faces
f 1/1/1 2/2/1 3/3/1 4/4/1
f 5/2/1 6/5/1 7/6/1 8/3/1
f 9/2/1 10/5/1 11/6/1 12/3/1
f 13/2/1 14/5/1 15/6/1 16/3/1
f 17/2/1 18/5/1 19/6/1 20/3/1
f 21/2/1 22/5/1 23/6/1 24/3/1
f 25/2/1 26/5/1 27/6/1 28/3/1
f 29/5/1 30/7/1 31/8/1 32/6/1
f 33/9/1 34/10/1 35/2/1 36/1/1
f 37/10/1 38/11/1 39/5/1 40/2/1
f 41/10/1 42/11/1 43/5/1 44/2/1
f 45/10/1 46/11/1 47/5/1 48/2/1
f 49/10/1 50/11/1 51/5/1 52/2/1
f 53/10/1 54/11/1 55/5/1 56/2/1
f 57/10/1 58/11/1 59/5/1 60/2/1
f 61/11/1 62/12/1 63/7/1 64/5/1
f 65/9/1 66/10/1 67/2/1 68/1/1
f 69/11/1 70/12/1 71/7/1 72/5/1
f 73/9/1 74/10/1 75/2/1 76/1/1
f 77/11/1 78/12/1 79/7/1 80/5/1

