# Tiled2Unity generated file. Do not modify by hand.
# Wavefront file for 'World1_mesh_0074.obj'

# Vertices (Count = 100)
v -2 -1 0
v -3 -1 0
v -3 0 0
v -2 0 0
v -3 -1 0
v -4 -1 0
v -4 0 0
v -3 0 0
v -5 -1 0
v -6 -1 0
v -6 0 0
v -5 0 0
v -7 -1 0
v -8 -1 0
v -8 0 0
v -7 0 0
v -2 -2 0
v -3 -2 0
v -3 -1 0
v -2 -1 0
v -3 -2 0
v -4 -2 0
v -4 -1 0
v -3 -1 0
v -7 -2 0
v -8 -2 0
v -8 -1 0
v -7 -1 0
v -2 -3 0
v -3 -3 0
v -3 -2 0
v -2 -2 0
v -3 -3 0
v -4 -3 0
v -4 -2 0
v -3 -2 0
v -7 -3 0
v -8 -3 0
v -8 -2 0
v -7 -2 0
v -2 -4 0
v -3 -4 0
v -3 -3 0
v -2 -3 0
v -3 -4 0
v -4 -4 0
v -4 -3 0
v -3 -3 0
v -4 -4 0
v -5 -4 0
v -5 -3 0
v -4 -3 0
v -5 -4 0
v -6 -4 0
v -6 -3 0
v -5 -3 0
v -6 -4 0
v -7 -4 0
v -7 -3 0
v -6 -3 0
v -7 -4 0
v -8 -4 0
v -8 -3 0
v -7 -3 0
v -2 -5 0
v -3 -5 0
v -3 -4 0
v -2 -4 0
v -3 -5 0
v -4 -5 0
v -4 -4 0
v -3 -4 0
v -4 -5 0
v -5 -5 0
v -5 -4 0
v -4 -4 0
v -5 -5 0
v -6 -5 0
v -6 -4 0
v -5 -4 0
v -6 -5 0
v -7 -5 0
v -7 -4 0
v -6 -4 0
v -7 -5 0
v -8 -5 0
v -8 -4 0
v -7 -4 0
v -2 -6 0
v -3 -6 0
v -3 -5 0
v -2 -5 0
v -2 -7 0
v -3 -7 0
v -3 -6 0
v -2 -6 0
v -2 -8 0
v -3 -8 0
v -3 -7 0
v -2 -7 0

# Texture cooridinates (Count = 24)
vt 0.1875 0.8125
vt 0.25 0.8125
vt 0.25 0.875
vt 0.1875 0.875
vt 0.3125 0.8125
vt 0.3125 0.875
vt 0.0625 0.75
vt 0.125 0.75
vt 0.125 0.8125
vt 0.0625 0.8125
vt 0.125 0.875
vt 0.1875 0.9375
vt 0.125 0.9375
vt 0.1875 0.75
vt 0.25 0.75
vt 0.3125 0.75
vt 0.25 0.9375
vt 0.25 1
vt 0.1875 1
vt 0.3125 0.9375
vt 0.3125 1
vt 0.0625 0.875
vt 0 0.75
vt 0 0.8125

# Normal
vn 0 0 -1

# Mesh description
g World1_mesh_0074

# Faces
f 1/1/1 2/2/1 3/3/1 4/4/1
f 5/2/1 6/5/1 7/6/1 8/3/1
f 9/7/1 10/8/1 11/9/1 12/10/1
f 13/11/1 14/4/1 15/12/1 16/13/1
f 17/14/1 18/15/1 19/2/1 20/1/1
f 21/15/1 22/16/1 23/5/1 24/2/1
f 25/11/1 26/4/1 27/12/1 28/13/1
f 29/12/1 30/17/1 31/18/1 32/19/1
f 33/17/1 34/20/1 35/21/1 36/18/1
f 37/11/1 38/4/1 39/12/1 40/13/1
f 41/4/1 42/3/1 43/17/1 44/12/1
f 45/3/1 46/6/1 47/20/1 48/17/1
f 49/10/1 50/9/1 51/11/1 52/22/1
f 53/10/1 54/9/1 55/11/1 56/22/1
f 57/10/1 58/9/1 59/11/1 60/22/1
f 61/11/1 62/4/1 63/12/1 64/13/1
f 65/9/1 66/1/1 67/4/1 68/11/1
f 69/23/1 70/7/1 71/10/1 72/24/1
f 73/7/1 74/8/1 75/9/1 76/10/1
f 77/7/1 78/8/1 79/9/1 80/10/1
f 81/7/1 82/8/1 83/9/1 84/10/1
f 85/8/1 86/14/1 87/1/1 88/9/1
f 89/9/1 90/1/1 91/4/1 92/11/1
f 93/9/1 94/1/1 95/4/1 96/11/1
f 97/8/1 98/14/1 99/1/1 100/9/1

