# Tiled2Unity generated file. Do not modify by hand.
# Wavefront file for 'World1_mesh_0101.obj'

# Vertices (Count = 16)
v -11 -9 0
v -12 -9 0
v -12 -8 0
v -11 -8 0
v -11 -10 0
v -12 -10 0
v -12 -9 0
v -11 -9 0
v -12 -12 0
v -13 -12 0
v -13 -11 0
v -12 -11 0
v -12 -15 0
v -13 -15 0
v -13 -14 0
v -12 -14 0

# Texture cooridinates (Count = 8)
vt 0 0.75
vt 0.0625 0.75
vt 0.0625 0.8125
vt 0 0.8125
vt 0 0.6875
vt 0.0625 0.6875
vt 0.125 0.75
vt 0.125 0.8125

# Normal
vn 0 0 -1

# Mesh description
g World1_mesh_0101

# Faces
f 1/1/1 2/2/1 3/3/1 4/4/1
f 5/5/1 6/6/1 7/2/1 8/1/1
f 9/2/1 10/7/1 11/8/1 12/3/1
f 13/2/1 14/7/1 15/8/1 16/3/1

