# Tiled2Unity generated file. Do not modify by hand.
# Wavefront file for 'World1_mesh_0094.obj'

# Vertices (Count = 12)
v -4 -10 0
v -5 -10 0
v -5 -9 0
v -4 -9 0
v -6 -10 0
v -7 -10 0
v -7 -9 0
v -6 -9 0
v -6 -11 0
v -7 -11 0
v -7 -10 0
v -6 -10 0

# Texture cooridinates (Count = 8)
vt 0.25 0.875
vt 0.3125 0.875
vt 0.3125 0.9375
vt 0.25 0.9375
vt 0.1875 0.875
vt 0.1875 0.9375
vt 0.1875 0.8125
vt 0.25 0.8125

# Normal
vn 0 0 -1

# Mesh description
g World1_mesh_0094

# Faces
f 1/1/1 2/2/1 3/3/1 4/4/1
f 5/5/1 6/1/1 7/4/1 8/6/1
f 9/7/1 10/8/1 11/1/1 12/5/1

