# Tiled2Unity generated file. Do not modify by hand.
# Wavefront file for 'World1_mesh_0063.obj'

# Vertices (Count = 260)
v 0 -1 0
v -1 -1 0
v -1 0 0
v 0 0 0
v -1 -1 0
v -2 -1 0
v -2 0 0
v -1 0 0
v -2 -1 0
v -3 -1 0
v -3 0 0
v -2 0 0
v -3 -1 0
v -4 -1 0
v -4 0 0
v -3 0 0
v -4 -1 0
v -5 -1 0
v -5 0 0
v -4 0 0
v -5 -1 0
v -6 -1 0
v -6 0 0
v -5 0 0
v -6 -1 0
v -7 -1 0
v -7 0 0
v -6 0 0
v -7 -1 0
v -8 -1 0
v -8 0 0
v -7 0 0
v -8 -1 0
v -9 -1 0
v -9 0 0
v -8 0 0
v 0 -2 0
v -1 -2 0
v -1 -1 0
v 0 -1 0
v -1 -2 0
v -2 -2 0
v -2 -1 0
v -1 -1 0
v -2 -2 0
v -3 -2 0
v -3 -1 0
v -2 -1 0
v -3 -2 0
v -4 -2 0
v -4 -1 0
v -3 -1 0
v -4 -2 0
v -5 -2 0
v -5 -1 0
v -4 -1 0
v -5 -2 0
v -6 -2 0
v -6 -1 0
v -5 -1 0
v -6 -2 0
v -7 -2 0
v -7 -1 0
v -6 -1 0
v -7 -2 0
v -8 -2 0
v -8 -1 0
v -7 -1 0
v -8 -2 0
v -9 -2 0
v -9 -1 0
v -8 -1 0
v -13 -2 0
v -14 -2 0
v -14 -1 0
v -13 -1 0
v -14 -2 0
v -15 -2 0
v -15 -1 0
v -14 -1 0
v -15 -2 0
v -16 -2 0
v -16 -1 0
v -15 -1 0
v -8 -3 0
v -9 -3 0
v -9 -2 0
v -8 -2 0
v -13 -3 0
v -14 -3 0
v -14 -2 0
v -13 -2 0
v -14 -3 0
v -15 -3 0
v -15 -2 0
v -14 -2 0
v -15 -3 0
v -16 -3 0
v -16 -2 0
v -15 -2 0
v -8 -4 0
v -9 -4 0
v -9 -3 0
v -8 -3 0
v -13 -4 0
v -14 -4 0
v -14 -3 0
v -13 -3 0
v -14 -4 0
v -15 -4 0
v -15 -3 0
v -14 -3 0
v -15 -4 0
v -16 -4 0
v -16 -3 0
v -15 -3 0
v -8 -5 0
v -9 -5 0
v -9 -4 0
v -8 -4 0
v -8 -6 0
v -9 -6 0
v -9 -5 0
v -8 -5 0
v -9 -6 0
v -10 -6 0
v -10 -5 0
v -9 -5 0
v -10 -6 0
v -11 -6 0
v -11 -5 0
v -10 -5 0
v -11 -6 0
v -12 -6 0
v -12 -5 0
v -11 -5 0
v -12 -6 0
v -13 -6 0
v -13 -5 0
v -12 -5 0
v -13 -6 0
v -14 -6 0
v -14 -5 0
v -13 -5 0
v -8 -7 0
v -9 -7 0
v -9 -6 0
v -8 -6 0
v -9 -7 0
v -10 -7 0
v -10 -6 0
v -9 -6 0
v -10 -7 0
v -11 -7 0
v -11 -6 0
v -10 -6 0
v -11 -7 0
v -12 -7 0
v -12 -6 0
v -11 -6 0
v -12 -7 0
v -13 -7 0
v -13 -6 0
v -12 -6 0
v -13 -7 0
v -14 -7 0
v -14 -6 0
v -13 -6 0
v -13 -8 0
v -14 -8 0
v -14 -7 0
v -13 -7 0
v -13 -9 0
v -14 -9 0
v -14 -8 0
v -13 -8 0
v -13 -10 0
v -14 -10 0
v -14 -9 0
v -13 -9 0
v -13 -11 0
v -14 -11 0
v -14 -10 0
v -13 -10 0
v -13 -12 0
v -14 -12 0
v -14 -11 0
v -13 -11 0
v -13 -13 0
v -14 -13 0
v -14 -12 0
v -13 -12 0
v -6 -14 0
v -7 -14 0
v -7 -13 0
v -6 -13 0
v -7 -14 0
v -8 -14 0
v -8 -13 0
v -7 -13 0
v -8 -14 0
v -9 -14 0
v -9 -13 0
v -8 -13 0
v -9 -14 0
v -10 -14 0
v -10 -13 0
v -9 -13 0
v -10 -14 0
v -11 -14 0
v -11 -13 0
v -10 -13 0
v -11 -14 0
v -12 -14 0
v -12 -13 0
v -11 -13 0
v -12 -14 0
v -13 -14 0
v -13 -13 0
v -12 -13 0
v -13 -14 0
v -14 -14 0
v -14 -13 0
v -13 -13 0
v -6 -15 0
v -7 -15 0
v -7 -14 0
v -6 -14 0
v -7 -15 0
v -8 -15 0
v -8 -14 0
v -7 -14 0
v -8 -15 0
v -9 -15 0
v -9 -14 0
v -8 -14 0
v -9 -15 0
v -10 -15 0
v -10 -14 0
v -9 -14 0
v -10 -15 0
v -11 -15 0
v -11 -14 0
v -10 -14 0
v -11 -15 0
v -12 -15 0
v -12 -14 0
v -11 -14 0
v -12 -15 0
v -13 -15 0
v -13 -14 0
v -12 -14 0
v -13 -15 0
v -14 -15 0
v -14 -14 0
v -13 -14 0
v -6 -16 0
v -7 -16 0
v -7 -15 0
v -6 -15 0

# Texture cooridinates (Count = 25)
vt 0.0625 0.8125
vt 0.125 0.8125
vt 0.125 0.875
vt 0.0625 0.875
vt 0.25 0.9375
vt 0.3125 0.9375
vt 0.3125 1
vt 0.25 1
vt 0.0625 0.75
vt 0.125 0.75
vt 0.25 0.875
vt 0.3125 0.875
vt 0 0.9375
vt 0.0625 0.9375
vt 0.0625 1
vt 0 1
vt 0.125 0.9375
vt 0.125 1
vt 0 0.8125
vt 0 0.875
vt 0 0.75
vt 0.25 0.8125
vt 0.3125 0.8125
vt 0.25 0.75
vt 0.3125 0.75

# Normal
vn 0 0 -1

# Mesh description
g World1_mesh_0063

# Faces
f 1/1/1 2/2/1 3/3/1 4/4/1
f 5/1/1 6/2/1 7/3/1 8/4/1
f 9/1/1 10/2/1 11/3/1 12/4/1
f 13/1/1 14/2/1 15/3/1 16/4/1
f 17/1/1 18/2/1 19/3/1 20/4/1
f 21/1/1 22/2/1 23/3/1 24/4/1
f 25/1/1 26/2/1 27/3/1 28/4/1
f 29/1/1 30/2/1 31/3/1 32/4/1
f 33/5/1 34/6/1 35/7/1 36/8/1
f 37/9/1 38/10/1 39/2/1 40/1/1
f 41/9/1 42/10/1 43/2/1 44/1/1
f 45/9/1 46/10/1 47/2/1 48/1/1
f 49/9/1 50/10/1 51/2/1 52/1/1
f 53/9/1 54/10/1 55/2/1 56/1/1
f 57/9/1 58/10/1 59/2/1 60/1/1
f 61/9/1 62/10/1 63/2/1 64/1/1
f 65/9/1 66/10/1 67/2/1 68/1/1
f 69/11/1 70/12/1 71/6/1 72/5/1
f 73/13/1 74/14/1 75/15/1 76/16/1
f 77/14/1 78/17/1 79/18/1 80/15/1
f 81/14/1 82/17/1 83/18/1 84/15/1
f 85/19/1 86/1/1 87/4/1 88/20/1
f 89/20/1 90/4/1 91/14/1 92/13/1
f 93/4/1 94/3/1 95/17/1 96/14/1
f 97/4/1 98/3/1 99/17/1 100/14/1
f 101/19/1 102/1/1 103/4/1 104/20/1
f 105/20/1 106/4/1 107/14/1 108/13/1
f 109/1/1 110/2/1 111/3/1 112/4/1
f 113/1/1 114/2/1 115/3/1 116/4/1
f 117/19/1 118/1/1 119/4/1 120/20/1
f 121/19/1 122/1/1 123/4/1 124/20/1
f 125/1/1 126/2/1 127/3/1 128/4/1
f 129/1/1 130/2/1 131/3/1 132/4/1
f 133/1/1 134/2/1 135/3/1 136/4/1
f 137/1/1 138/2/1 139/3/1 140/4/1
f 141/5/1 142/6/1 143/7/1 144/8/1
f 145/21/1 146/9/1 147/1/1 148/19/1
f 149/9/1 150/10/1 151/2/1 152/1/1
f 153/9/1 154/10/1 155/2/1 156/1/1
f 157/9/1 158/10/1 159/2/1 160/1/1
f 161/9/1 162/10/1 163/2/1 164/1/1
f 165/11/1 166/12/1 167/6/1 168/5/1
f 169/19/1 170/1/1 171/4/1 172/20/1
f 173/19/1 174/1/1 175/4/1 176/20/1
f 177/19/1 178/1/1 179/4/1 180/20/1
f 181/19/1 182/1/1 183/4/1 184/20/1
f 185/19/1 186/1/1 187/4/1 188/20/1
f 189/19/1 190/1/1 191/4/1 192/20/1
f 193/13/1 194/14/1 195/15/1 196/16/1
f 197/14/1 198/17/1 199/18/1 200/15/1
f 201/14/1 202/17/1 203/18/1 204/15/1
f 205/14/1 206/17/1 207/18/1 208/15/1
f 209/14/1 210/17/1 211/18/1 212/15/1
f 213/14/1 214/17/1 215/18/1 216/15/1
f 217/14/1 218/17/1 219/18/1 220/15/1
f 221/22/1 222/23/1 223/12/1 224/11/1
f 225/19/1 226/1/1 227/4/1 228/20/1
f 229/4/1 230/3/1 231/17/1 232/14/1
f 233/4/1 234/3/1 235/17/1 236/14/1
f 237/4/1 238/3/1 239/17/1 240/14/1
f 241/4/1 242/3/1 243/17/1 244/14/1
f 245/4/1 246/3/1 247/17/1 248/14/1
f 249/4/1 250/3/1 251/17/1 252/14/1
f 253/24/1 254/25/1 255/23/1 256/22/1
f 257/19/1 258/1/1 259/4/1 260/20/1

