# Tiled2Unity generated file. Do not modify by hand.
# Wavefront file for 'World1_mesh_0081.obj'

# Vertices (Count = 268)
v 0 -1 0
v -1 -1 0
v -1 0 0
v 0 0 0
v 0 -2 0
v -1 -2 0
v -1 -1 0
v 0 -1 0
v 0 -3 0
v -1 -3 0
v -1 -2 0
v 0 -2 0
v 0 -4 0
v -1 -4 0
v -1 -3 0
v 0 -3 0
v 0 -5 0
v -1 -5 0
v -1 -4 0
v 0 -4 0
v -1 -5 0
v -2 -5 0
v -2 -4 0
v -1 -4 0
v -2 -5 0
v -3 -5 0
v -3 -4 0
v -2 -4 0
v -3 -5 0
v -4 -5 0
v -4 -4 0
v -3 -4 0
v -4 -5 0
v -5 -5 0
v -5 -4 0
v -4 -4 0
v -5 -5 0
v -6 -5 0
v -6 -4 0
v -5 -4 0
v -6 -5 0
v -7 -5 0
v -7 -4 0
v -6 -4 0
v -7 -5 0
v -8 -5 0
v -8 -4 0
v -7 -4 0
v -8 -5 0
v -9 -5 0
v -9 -4 0
v -8 -4 0
v 0 -6 0
v -1 -6 0
v -1 -5 0
v 0 -5 0
v -1 -6 0
v -2 -6 0
v -2 -5 0
v -1 -5 0
v -2 -6 0
v -3 -6 0
v -3 -5 0
v -2 -5 0
v -3 -6 0
v -4 -6 0
v -4 -5 0
v -3 -5 0
v -4 -6 0
v -5 -6 0
v -5 -5 0
v -4 -5 0
v -5 -6 0
v -6 -6 0
v -6 -5 0
v -5 -5 0
v -6 -6 0
v -7 -6 0
v -7 -5 0
v -6 -5 0
v -7 -6 0
v -8 -6 0
v -8 -5 0
v -7 -5 0
v -8 -6 0
v -9 -6 0
v -9 -5 0
v -8 -5 0
v -8 -7 0
v -9 -7 0
v -9 -6 0
v -8 -6 0
v -8 -8 0
v -9 -8 0
v -9 -7 0
v -8 -7 0
v -8 -9 0
v -9 -9 0
v -9 -8 0
v -8 -8 0
v -9 -9 0
v -10 -9 0
v -10 -8 0
v -9 -8 0
v -10 -9 0
v -11 -9 0
v -11 -8 0
v -10 -8 0
v -11 -9 0
v -12 -9 0
v -12 -8 0
v -11 -8 0
v -12 -9 0
v -13 -9 0
v -13 -8 0
v -12 -8 0
v -2 -10 0
v -3 -10 0
v -3 -9 0
v -2 -9 0
v -3 -10 0
v -4 -10 0
v -4 -9 0
v -3 -9 0
v -4 -10 0
v -5 -10 0
v -5 -9 0
v -4 -9 0
v -5 -10 0
v -6 -10 0
v -6 -9 0
v -5 -9 0
v -8 -10 0
v -9 -10 0
v -9 -9 0
v -8 -9 0
v -9 -10 0
v -10 -10 0
v -10 -9 0
v -9 -9 0
v -10 -10 0
v -11 -10 0
v -11 -9 0
v -10 -9 0
v -11 -10 0
v -12 -10 0
v -12 -9 0
v -11 -9 0
v -12 -10 0
v -13 -10 0
v -13 -9 0
v -12 -9 0
v -2 -11 0
v -3 -11 0
v -3 -10 0
v -2 -10 0
v -3 -11 0
v -4 -11 0
v -4 -10 0
v -3 -10 0
v -4 -11 0
v -5 -11 0
v -5 -10 0
v -4 -10 0
v -5 -11 0
v -6 -11 0
v -6 -10 0
v -5 -10 0
v -2 -12 0
v -3 -12 0
v -3 -11 0
v -2 -11 0
v -3 -12 0
v -4 -12 0
v -4 -11 0
v -3 -11 0
v -4 -12 0
v -5 -12 0
v -5 -11 0
v -4 -11 0
v -5 -12 0
v -6 -12 0
v -6 -11 0
v -5 -11 0
v -8 -12 0
v -9 -12 0
v -9 -11 0
v -8 -11 0
v -9 -12 0
v -10 -12 0
v -10 -11 0
v -9 -11 0
v -10 -12 0
v -11 -12 0
v -11 -11 0
v -10 -11 0
v -11 -12 0
v -12 -12 0
v -12 -11 0
v -11 -11 0
v -12 -12 0
v -13 -12 0
v -13 -11 0
v -12 -11 0
v -8 -13 0
v -9 -13 0
v -9 -12 0
v -8 -12 0
v -9 -13 0
v -10 -13 0
v -10 -12 0
v -9 -12 0
v -10 -13 0
v -11 -13 0
v -11 -12 0
v -10 -12 0
v -11 -13 0
v -12 -13 0
v -12 -12 0
v -11 -12 0
v -12 -13 0
v -13 -13 0
v -13 -12 0
v -12 -12 0
v -8 -14 0
v -9 -14 0
v -9 -13 0
v -8 -13 0
v -8 -15 0
v -9 -15 0
v -9 -14 0
v -8 -14 0
v 0 -16 0
v -1 -16 0
v -1 -15 0
v 0 -15 0
v -1 -16 0
v -2 -16 0
v -2 -15 0
v -1 -15 0
v -2 -16 0
v -3 -16 0
v -3 -15 0
v -2 -15 0
v -3 -16 0
v -4 -16 0
v -4 -15 0
v -3 -15 0
v -4 -16 0
v -5 -16 0
v -5 -15 0
v -4 -15 0
v -5 -16 0
v -6 -16 0
v -6 -15 0
v -5 -15 0
v -6 -16 0
v -7 -16 0
v -7 -15 0
v -6 -15 0
v -7 -16 0
v -8 -16 0
v -8 -15 0
v -7 -15 0
v -8 -16 0
v -9 -16 0
v -9 -15 0
v -8 -15 0

# Texture cooridinates (Count = 23)
vt 0.125 0.8125
vt 0.1875 0.8125
vt 0.1875 0.875
vt 0.125 0.875
vt 0.25 0.8125
vt 0.25 0.875
vt 0.0625 0.9375
vt 0.125 0.9375
vt 0.125 1
vt 0.0625 1
vt 0.1875 0.9375
vt 0.1875 1
vt 0.1875 0.75
vt 0.25 0.75
vt 0.0625 0.875
vt 0 0.9375
vt 0 1
vt 0 0.875
vt 0.0625 0.8125
vt 0.25 0.9375
vt 0.25 1
vt 0.0625 0.75
vt 0.125 0.75

# Normal
vn 0 0 -1

# Mesh description
g World1_mesh_0081

# Faces
f 1/1/1 2/2/1 3/3/1 4/4/1
f 5/1/1 6/2/1 7/3/1 8/4/1
f 9/1/1 10/2/1 11/3/1 12/4/1
f 13/1/1 14/2/1 15/3/1 16/4/1
f 17/2/1 18/5/1 19/6/1 20/3/1
f 21/7/1 22/8/1 23/9/1 24/10/1
f 25/7/1 26/8/1 27/9/1 28/10/1
f 29/7/1 30/8/1 31/9/1 32/10/1
f 33/7/1 34/8/1 35/9/1 36/10/1
f 37/7/1 38/8/1 39/9/1 40/10/1
f 41/7/1 42/8/1 43/9/1 44/10/1
f 45/7/1 46/8/1 47/9/1 48/10/1
f 49/8/1 50/11/1 51/12/1 52/9/1
f 53/13/1 54/14/1 55/5/1 56/2/1
f 57/15/1 58/4/1 59/8/1 60/7/1
f 61/15/1 62/4/1 63/8/1 64/7/1
f 65/15/1 66/4/1 67/8/1 68/7/1
f 69/15/1 70/4/1 71/8/1 72/7/1
f 73/15/1 74/4/1 75/8/1 76/7/1
f 77/15/1 78/4/1 79/8/1 80/7/1
f 81/15/1 82/4/1 83/8/1 84/7/1
f 85/4/1 86/3/1 87/11/1 88/8/1
f 89/4/1 90/3/1 91/11/1 92/8/1
f 93/4/1 94/3/1 95/11/1 96/8/1
f 97/2/1 98/5/1 99/6/1 100/3/1
f 101/7/1 102/8/1 103/9/1 104/10/1
f 105/7/1 106/8/1 107/9/1 108/10/1
f 109/7/1 110/8/1 111/9/1 112/10/1
f 113/7/1 114/8/1 115/9/1 116/10/1
f 117/16/1 118/7/1 119/10/1 120/17/1
f 121/7/1 122/8/1 123/9/1 124/10/1
f 125/7/1 126/8/1 127/9/1 128/10/1
f 129/8/1 130/11/1 131/12/1 132/9/1
f 133/13/1 134/14/1 135/5/1 136/2/1
f 137/15/1 138/4/1 139/8/1 140/7/1
f 141/15/1 142/4/1 143/8/1 144/7/1
f 145/15/1 146/4/1 147/8/1 148/7/1
f 149/15/1 150/4/1 151/8/1 152/7/1
f 153/18/1 154/15/1 155/7/1 156/16/1
f 157/15/1 158/4/1 159/8/1 160/7/1
f 161/15/1 162/4/1 163/8/1 164/7/1
f 165/1/1 166/2/1 167/3/1 168/4/1
f 169/18/1 170/15/1 171/7/1 172/16/1
f 173/19/1 174/1/1 175/4/1 176/15/1
f 177/19/1 178/1/1 179/4/1 180/15/1
f 181/1/1 182/2/1 183/3/1 184/4/1
f 185/11/1 186/20/1 187/21/1 188/12/1
f 189/19/1 190/1/1 191/4/1 192/15/1
f 193/19/1 194/1/1 195/4/1 196/15/1
f 197/19/1 198/1/1 199/4/1 200/15/1
f 201/19/1 202/1/1 203/4/1 204/15/1
f 205/3/1 206/6/1 207/20/1 208/11/1
f 209/22/1 210/23/1 211/1/1 212/19/1
f 213/22/1 214/23/1 215/1/1 216/19/1
f 217/22/1 218/23/1 219/1/1 220/19/1
f 221/22/1 222/23/1 223/1/1 224/19/1
f 225/1/1 226/2/1 227/3/1 228/4/1
f 229/1/1 230/2/1 231/3/1 232/4/1
f 233/11/1 234/20/1 235/21/1 236/12/1
f 237/19/1 238/1/1 239/4/1 240/15/1
f 241/19/1 242/1/1 243/4/1 244/15/1
f 245/19/1 246/1/1 247/4/1 248/15/1
f 249/19/1 250/1/1 251/4/1 252/15/1
f 253/19/1 254/1/1 255/4/1 256/15/1
f 257/19/1 258/1/1 259/4/1 260/15/1
f 261/19/1 262/1/1 263/4/1 264/15/1
f 265/1/1 266/2/1 267/3/1 268/4/1

