# Tiled2Unity generated file. Do not modify by hand.
# Wavefront file for 'World1_mesh_0071.obj'

# Vertices (Count = 84)
v -3 -1 0
v -4 -1 0
v -4 0 0
v -3 0 0
v -3 -2 0
v -4 -2 0
v -4 -1 0
v -3 -1 0
v 0 -3 0
v -1 -3 0
v -1 -2 0
v 0 -2 0
v -1 -3 0
v -2 -3 0
v -2 -2 0
v -1 -2 0
v -2 -3 0
v -3 -3 0
v -3 -2 0
v -2 -2 0
v -3 -3 0
v -4 -3 0
v -4 -2 0
v -3 -2 0
v 0 -4 0
v -1 -4 0
v -1 -3 0
v 0 -3 0
v -1 -4 0
v -2 -4 0
v -2 -3 0
v -1 -3 0
v -2 -4 0
v -3 -4 0
v -3 -3 0
v -2 -3 0
v -3 -4 0
v -4 -4 0
v -4 -3 0
v -3 -3 0
v 0 -15 0
v -1 -15 0
v -1 -14 0
v 0 -14 0
v -1 -15 0
v -2 -15 0
v -2 -14 0
v -1 -14 0
v -2 -15 0
v -3 -15 0
v -3 -14 0
v -2 -14 0
v 0 -16 0
v -1 -16 0
v -1 -15 0
v 0 -15 0
v -1 -16 0
v -2 -16 0
v -2 -15 0
v -1 -15 0
v -2 -16 0
v -3 -16 0
v -3 -15 0
v -2 -15 0
v -3 -16 0
v -4 -16 0
v -4 -15 0
v -3 -15 0
v -4 -16 0
v -5 -16 0
v -5 -15 0
v -4 -15 0
v -5 -16 0
v -6 -16 0
v -6 -15 0
v -5 -15 0
v -6 -16 0
v -7 -16 0
v -7 -15 0
v -6 -15 0
v -7 -16 0
v -8 -16 0
v -8 -15 0
v -7 -15 0

# Texture cooridinates (Count = 21)
vt 0.125 0.875
vt 0.1875 0.875
vt 0.1875 0.9375
vt 0.125 0.9375
vt 0.25 0.9375
vt 0.25 1
vt 0.1875 1
vt 0.0625 0.8125
vt 0.125 0.8125
vt 0.0625 0.875
vt 0.0625 0.75
vt 0.125 0.75
vt 0.1875 0.75
vt 0.1875 0.8125
vt 0.0625 0.9375
vt 0.125 1
vt 0.0625 1
vt 0.25 0.75
vt 0.25 0.8125
vt 0 0.9375
vt 0 1

# Normal
vn 0 0 -1

# Mesh description
g World1_mesh_0071

# Faces
f 1/1/1 2/2/1 3/3/1 4/4/1
f 5/1/1 6/2/1 7/3/1 8/4/1
f 9/3/1 10/5/1 11/6/1 12/7/1
f 13/8/1 14/9/1 15/1/1 16/10/1
f 17/8/1 18/9/1 19/1/1 20/10/1
f 21/1/1 22/2/1 23/3/1 24/4/1
f 25/11/1 26/12/1 27/9/1 28/8/1
f 29/11/1 30/12/1 31/9/1 32/8/1
f 33/11/1 34/12/1 35/9/1 36/8/1
f 37/12/1 38/13/1 39/14/1 40/9/1
f 41/3/1 42/5/1 43/6/1 44/7/1
f 45/15/1 46/4/1 47/16/1 48/17/1
f 49/4/1 50/3/1 51/7/1 52/16/1
f 53/13/1 54/18/1 55/19/1 56/14/1
f 57/11/1 58/12/1 59/9/1 60/8/1
f 61/1/1 62/2/1 63/3/1 64/4/1
f 65/20/1 66/15/1 67/17/1 68/21/1
f 69/15/1 70/4/1 71/16/1 72/17/1
f 73/15/1 74/4/1 75/16/1 76/17/1
f 77/15/1 78/4/1 79/16/1 80/17/1
f 81/4/1 82/3/1 83/7/1 84/16/1

