# Tiled2Unity generated file. Do not modify by hand.
# Wavefront file for 'World1_mesh_0050.obj'

# Vertices (Count = 388)
v -9 -1 0
v -10 -1 0
v -10 0 0
v -9 0 0
v -10 -1 0
v -11 -1 0
v -11 0 0
v -10 0 0
v -11 -1 0
v -12 -1 0
v -12 0 0
v -11 0 0
v -12 -1 0
v -13 -1 0
v -13 0 0
v -12 0 0
v -13 -1 0
v -14 -1 0
v -14 0 0
v -13 0 0
v -14 -1 0
v -15 -1 0
v -15 0 0
v -14 0 0
v -15 -1 0
v -16 -1 0
v -16 0 0
v -15 0 0
v -9 -2 0
v -10 -2 0
v -10 -1 0
v -9 -1 0
v -9 -3 0
v -10 -3 0
v -10 -2 0
v -9 -2 0
v -9 -4 0
v -10 -4 0
v -10 -3 0
v -9 -3 0
v 0 -5 0
v -1 -5 0
v -1 -4 0
v 0 -4 0
v -1 -5 0
v -2 -5 0
v -2 -4 0
v -1 -4 0
v -2 -5 0
v -3 -5 0
v -3 -4 0
v -2 -4 0
v -3 -5 0
v -4 -5 0
v -4 -4 0
v -3 -4 0
v -4 -5 0
v -5 -5 0
v -5 -4 0
v -4 -4 0
v -5 -5 0
v -6 -5 0
v -6 -4 0
v -5 -4 0
v -6 -5 0
v -7 -5 0
v -7 -4 0
v -6 -4 0
v -7 -5 0
v -8 -5 0
v -8 -4 0
v -7 -4 0
v -8 -5 0
v -9 -5 0
v -9 -4 0
v -8 -4 0
v -9 -5 0
v -10 -5 0
v -10 -4 0
v -9 -4 0
v 0 -6 0
v -1 -6 0
v -1 -5 0
v 0 -5 0
v -1 -6 0
v -2 -6 0
v -2 -5 0
v -1 -5 0
v -2 -6 0
v -3 -6 0
v -3 -5 0
v -2 -5 0
v -3 -6 0
v -4 -6 0
v -4 -5 0
v -3 -5 0
v -4 -6 0
v -5 -6 0
v -5 -5 0
v -4 -5 0
v -5 -6 0
v -6 -6 0
v -6 -5 0
v -5 -5 0
v -6 -6 0
v -7 -6 0
v -7 -5 0
v -6 -5 0
v -7 -6 0
v -8 -6 0
v -8 -5 0
v -7 -5 0
v -8 -6 0
v -9 -6 0
v -9 -5 0
v -8 -5 0
v -9 -6 0
v -10 -6 0
v -10 -5 0
v -9 -5 0
v -12 -7 0
v -13 -7 0
v -13 -6 0
v -12 -6 0
v -13 -7 0
v -14 -7 0
v -14 -6 0
v -13 -6 0
v -14 -7 0
v -15 -7 0
v -15 -6 0
v -14 -6 0
v -15 -7 0
v -16 -7 0
v -16 -6 0
v -15 -6 0
v 0 -8 0
v -1 -8 0
v -1 -7 0
v 0 -7 0
v -12 -8 0
v -13 -8 0
v -13 -7 0
v -12 -7 0
v -13 -8 0
v -14 -8 0
v -14 -7 0
v -13 -7 0
v -14 -8 0
v -15 -8 0
v -15 -7 0
v -14 -7 0
v -15 -8 0
v -16 -8 0
v -16 -7 0
v -15 -7 0
v 0 -9 0
v -1 -9 0
v -1 -8 0
v 0 -8 0
v -1 -9 0
v -2 -9 0
v -2 -8 0
v -1 -8 0
v -2 -9 0
v -3 -9 0
v -3 -8 0
v -2 -8 0
v -3 -9 0
v -4 -9 0
v -4 -8 0
v -3 -8 0
v -4 -9 0
v -5 -9 0
v -5 -8 0
v -4 -8 0
v -5 -9 0
v -6 -9 0
v -6 -8 0
v -5 -8 0
v -6 -9 0
v -7 -9 0
v -7 -8 0
v -6 -8 0
v -7 -9 0
v -8 -9 0
v -8 -8 0
v -7 -8 0
v -8 -9 0
v -9 -9 0
v -9 -8 0
v -8 -8 0
v -9 -9 0
v -10 -9 0
v -10 -8 0
v -9 -8 0
v -10 -9 0
v -11 -9 0
v -11 -8 0
v -10 -8 0
v -11 -9 0
v -12 -9 0
v -12 -8 0
v -11 -8 0
v -12 -9 0
v -13 -9 0
v -13 -8 0
v -12 -8 0
v 0 -10 0
v -1 -10 0
v -1 -9 0
v 0 -9 0
v -1 -10 0
v -2 -10 0
v -2 -9 0
v -1 -9 0
v -2 -10 0
v -3 -10 0
v -3 -9 0
v -2 -9 0
v -3 -10 0
v -4 -10 0
v -4 -9 0
v -3 -9 0
v -4 -10 0
v -5 -10 0
v -5 -9 0
v -4 -9 0
v -5 -10 0
v -6 -10 0
v -6 -9 0
v -5 -9 0
v -6 -10 0
v -7 -10 0
v -7 -9 0
v -6 -9 0
v -7 -10 0
v -8 -10 0
v -8 -9 0
v -7 -9 0
v -8 -10 0
v -9 -10 0
v -9 -9 0
v -8 -9 0
v -9 -10 0
v -10 -10 0
v -10 -9 0
v -9 -9 0
v -10 -10 0
v -11 -10 0
v -11 -9 0
v -10 -9 0
v -11 -10 0
v -12 -10 0
v -12 -9 0
v -11 -9 0
v -12 -10 0
v -13 -10 0
v -13 -9 0
v -12 -9 0
v 0 -12 0
v -1 -12 0
v -1 -11 0
v 0 -11 0
v -1 -12 0
v -2 -12 0
v -2 -11 0
v -1 -11 0
v -2 -12 0
v -3 -12 0
v -3 -11 0
v -2 -11 0
v -3 -12 0
v -4 -12 0
v -4 -11 0
v -3 -11 0
v -4 -12 0
v -5 -12 0
v -5 -11 0
v -4 -11 0
v -5 -12 0
v -6 -12 0
v -6 -11 0
v -5 -11 0
v -6 -12 0
v -7 -12 0
v -7 -11 0
v -6 -11 0
v -7 -12 0
v -8 -12 0
v -8 -11 0
v -7 -11 0
v -8 -12 0
v -9 -12 0
v -9 -11 0
v -8 -11 0
v -9 -12 0
v -10 -12 0
v -10 -11 0
v -9 -11 0
v -10 -12 0
v -11 -12 0
v -11 -11 0
v -10 -11 0
v -11 -12 0
v -12 -12 0
v -12 -11 0
v -11 -11 0
v -12 -12 0
v -13 -12 0
v -13 -11 0
v -12 -11 0
v 0 -13 0
v -1 -13 0
v -1 -12 0
v 0 -12 0
v -1 -13 0
v -2 -13 0
v -2 -12 0
v -1 -12 0
v -2 -13 0
v -3 -13 0
v -3 -12 0
v -2 -12 0
v -3 -13 0
v -4 -13 0
v -4 -12 0
v -3 -12 0
v -4 -13 0
v -5 -13 0
v -5 -12 0
v -4 -12 0
v -5 -13 0
v -6 -13 0
v -6 -12 0
v -5 -12 0
v -6 -13 0
v -7 -13 0
v -7 -12 0
v -6 -12 0
v -7 -13 0
v -8 -13 0
v -8 -12 0
v -7 -12 0
v -8 -13 0
v -9 -13 0
v -9 -12 0
v -8 -12 0
v -9 -13 0
v -10 -13 0
v -10 -12 0
v -9 -12 0
v -10 -13 0
v -11 -13 0
v -11 -12 0
v -10 -12 0
v -11 -13 0
v -12 -13 0
v -12 -12 0
v -11 -12 0
v -12 -13 0
v -13 -13 0
v -13 -12 0
v -12 -12 0
v 0 -14 0
v -1 -14 0
v -1 -13 0
v 0 -13 0
v -12 -14 0
v -13 -14 0
v -13 -13 0
v -12 -13 0
v -13 -14 0
v -14 -14 0
v -14 -13 0
v -13 -13 0
v -12 -15 0
v -13 -15 0
v -13 -14 0
v -12 -14 0
v -13 -15 0
v -14 -15 0
v -14 -14 0
v -13 -14 0
v -13 -16 0
v -14 -16 0
v -14 -15 0
v -13 -15 0

# Texture cooridinates (Count = 30)
vt 0.1875 0.875
vt 0.25 0.875
vt 0.25 0.9375
vt 0.1875 0.9375
vt 0.0625 0.75
vt 0.125 0.75
vt 0.125 0.8125
vt 0.0625 0.8125
vt 0.1875 0.8125
vt 0.125 0.875
vt 0.0625 0.875
vt 0.1875 0.75
vt 0 0.9375
vt 0.0625 0.9375
vt 0.0625 1
vt 0 1
vt 0.125 0.9375
vt 0.125 1
vt 0.1875 1
vt 0 0.875
vt 0.25 0.8125
vt 0.3125 0.8125
vt 0.3125 0.875
vt 0.25 0.75
vt 0.3125 0.75
vt 0.25 1
vt 0.3125 0.9375
vt 0.3125 1
vt 0 0.8125
vt 0 0.75

# Normal
vn 0 0 -1

# Mesh description
g World1_mesh_0050

# Faces
f 1/1/1 2/2/1 3/3/1 4/4/1
f 5/5/1 6/6/1 7/7/1 8/8/1
f 9/5/1 10/6/1 11/7/1 12/8/1
f 13/5/1 14/6/1 15/7/1 16/8/1
f 17/5/1 18/6/1 19/7/1 20/8/1
f 21/5/1 22/6/1 23/7/1 24/8/1
f 25/5/1 26/6/1 27/7/1 28/8/1
f 29/7/1 30/9/1 31/1/1 32/10/1
f 33/7/1 34/9/1 35/1/1 36/10/1
f 37/7/1 38/9/1 39/1/1 40/10/1
f 41/8/1 42/7/1 43/10/1 44/11/1
f 45/8/1 46/7/1 47/10/1 48/11/1
f 49/8/1 50/7/1 51/10/1 52/11/1
f 53/8/1 54/7/1 55/10/1 56/11/1
f 57/8/1 58/7/1 59/10/1 60/11/1
f 61/8/1 62/7/1 63/10/1 64/11/1
f 65/8/1 66/7/1 67/10/1 68/11/1
f 69/8/1 70/7/1 71/10/1 72/11/1
f 73/8/1 74/7/1 75/10/1 76/11/1
f 77/7/1 78/9/1 79/1/1 80/10/1
f 81/5/1 82/6/1 83/7/1 84/8/1
f 85/5/1 86/6/1 87/7/1 88/8/1
f 89/5/1 90/6/1 91/7/1 92/8/1
f 93/5/1 94/6/1 95/7/1 96/8/1
f 97/5/1 98/6/1 99/7/1 100/8/1
f 101/5/1 102/6/1 103/7/1 104/8/1
f 105/5/1 106/6/1 107/7/1 108/8/1
f 109/5/1 110/6/1 111/7/1 112/8/1
f 113/5/1 114/6/1 115/7/1 116/8/1
f 117/6/1 118/12/1 119/9/1 120/7/1
f 121/13/1 122/14/1 123/15/1 124/16/1
f 125/14/1 126/17/1 127/18/1 128/15/1
f 129/14/1 130/17/1 131/18/1 132/15/1
f 133/14/1 134/17/1 135/18/1 136/15/1
f 137/17/1 138/4/1 139/19/1 140/18/1
f 141/20/1 142/11/1 143/14/1 144/13/1
f 145/11/1 146/10/1 147/17/1 148/14/1
f 149/11/1 150/10/1 151/17/1 152/14/1
f 153/11/1 154/10/1 155/17/1 156/14/1
f 157/9/1 158/21/1 159/2/1 160/1/1
f 161/14/1 162/17/1 163/18/1 164/15/1
f 165/14/1 166/17/1 167/18/1 168/15/1
f 169/14/1 170/17/1 171/18/1 172/15/1
f 173/14/1 174/17/1 175/18/1 176/15/1
f 177/14/1 178/17/1 179/18/1 180/15/1
f 181/14/1 182/17/1 183/18/1 184/15/1
f 185/14/1 186/17/1 187/18/1 188/15/1
f 189/14/1 190/17/1 191/18/1 192/15/1
f 193/14/1 194/17/1 195/18/1 196/15/1
f 197/14/1 198/17/1 199/18/1 200/15/1
f 201/14/1 202/17/1 203/18/1 204/15/1
f 205/21/1 206/22/1 207/23/1 208/2/1
f 209/12/1 210/24/1 211/21/1 212/9/1
f 213/11/1 214/10/1 215/17/1 216/14/1
f 217/11/1 218/10/1 219/17/1 220/14/1
f 221/11/1 222/10/1 223/17/1 224/14/1
f 225/11/1 226/10/1 227/17/1 228/14/1
f 229/11/1 230/10/1 231/17/1 232/14/1
f 233/11/1 234/10/1 235/17/1 236/14/1
f 237/11/1 238/10/1 239/17/1 240/14/1
f 241/11/1 242/10/1 243/17/1 244/14/1
f 245/11/1 246/10/1 247/17/1 248/14/1
f 249/11/1 250/10/1 251/17/1 252/14/1
f 253/11/1 254/10/1 255/17/1 256/14/1
f 257/24/1 258/25/1 259/22/1 260/21/1
f 261/4/1 262/3/1 263/26/1 264/19/1
f 265/8/1 266/7/1 267/10/1 268/11/1
f 269/8/1 270/7/1 271/10/1 272/11/1
f 273/8/1 274/7/1 275/10/1 276/11/1
f 277/8/1 278/7/1 279/10/1 280/11/1
f 281/8/1 282/7/1 283/10/1 284/11/1
f 285/8/1 286/7/1 287/10/1 288/11/1
f 289/8/1 290/7/1 291/10/1 292/11/1
f 293/8/1 294/7/1 295/10/1 296/11/1
f 297/8/1 298/7/1 299/10/1 300/11/1
f 301/8/1 302/7/1 303/10/1 304/11/1
f 305/8/1 306/7/1 307/10/1 308/11/1
f 309/3/1 310/27/1 311/28/1 312/26/1
f 313/1/1 314/2/1 315/3/1 316/4/1
f 317/5/1 318/6/1 319/7/1 320/8/1
f 321/5/1 322/6/1 323/7/1 324/8/1
f 325/5/1 326/6/1 327/7/1 328/8/1
f 329/5/1 330/6/1 331/7/1 332/8/1
f 333/5/1 334/6/1 335/7/1 336/8/1
f 337/5/1 338/6/1 339/7/1 340/8/1
f 341/5/1 342/6/1 343/7/1 344/8/1
f 345/5/1 346/6/1 347/7/1 348/8/1
f 349/5/1 350/6/1 351/7/1 352/8/1
f 353/5/1 354/6/1 355/7/1 356/8/1
f 357/5/1 358/6/1 359/7/1 360/8/1
f 361/2/1 362/23/1 363/27/1 364/3/1
f 365/6/1 366/12/1 367/9/1 368/7/1
f 369/29/1 370/8/1 371/11/1 372/20/1
f 373/3/1 374/27/1 375/28/1 376/26/1
f 377/30/1 378/5/1 379/8/1 380/29/1
f 381/2/1 382/23/1 383/27/1 384/3/1
f 385/20/1 386/11/1 387/14/1 388/13/1

