# Tiled2Unity generated file. Do not modify by hand.
# Wavefront file for 'World1_mesh_0005.obj'

# Vertices (Count = 460)
v -12 -3 0
v -13 -3 0
v -13 -2 0
v -12 -2 0
v -13 -3 0
v -14 -3 0
v -14 -2 0
v -13 -2 0
v -14 -3 0
v -15 -3 0
v -15 -2 0
v -14 -2 0
v -15 -3 0
v -16 -3 0
v -16 -2 0
v -15 -2 0
v -12 -4 0
v -13 -4 0
v -13 -3 0
v -12 -3 0
v -13 -4 0
v -14 -4 0
v -14 -3 0
v -13 -3 0
v -14 -4 0
v -15 -4 0
v -15 -3 0
v -14 -3 0
v -15 -4 0
v -16 -4 0
v -16 -3 0
v -15 -3 0
v -12 -5 0
v -13 -5 0
v -13 -4 0
v -12 -4 0
v -13 -5 0
v -14 -5 0
v -14 -4 0
v -13 -4 0
v -14 -5 0
v -15 -5 0
v -15 -4 0
v -14 -4 0
v -15 -5 0
v -16 -5 0
v -16 -4 0
v -15 -4 0
v -12 -6 0
v -13 -6 0
v -13 -5 0
v -12 -5 0
v -13 -6 0
v -14 -6 0
v -14 -5 0
v -13 -5 0
v -14 -6 0
v -15 -6 0
v -15 -5 0
v -14 -5 0
v -15 -6 0
v -16 -6 0
v -16 -5 0
v -15 -5 0
v -12 -7 0
v -13 -7 0
v -13 -6 0
v -12 -6 0
v -13 -7 0
v -14 -7 0
v -14 -6 0
v -13 -6 0
v -14 -7 0
v -15 -7 0
v -15 -6 0
v -14 -6 0
v -15 -7 0
v -16 -7 0
v -16 -6 0
v -15 -6 0
v -13 -8 0
v -14 -8 0
v -14 -7 0
v -13 -7 0
v -14 -8 0
v -15 -8 0
v -15 -7 0
v -14 -7 0
v -13 -9 0
v -14 -9 0
v -14 -8 0
v -13 -8 0
v -14 -9 0
v -15 -9 0
v -15 -8 0
v -14 -8 0
v -3 -10 0
v -4 -10 0
v -4 -9 0
v -3 -9 0
v -4 -10 0
v -5 -10 0
v -5 -9 0
v -4 -9 0
v -5 -10 0
v -6 -10 0
v -6 -9 0
v -5 -9 0
v -6 -10 0
v -7 -10 0
v -7 -9 0
v -6 -9 0
v -7 -10 0
v -8 -10 0
v -8 -9 0
v -7 -9 0
v -8 -10 0
v -9 -10 0
v -9 -9 0
v -8 -9 0
v -9 -10 0
v -10 -10 0
v -10 -9 0
v -9 -9 0
v -10 -10 0
v -11 -10 0
v -11 -9 0
v -10 -9 0
v -11 -10 0
v -12 -10 0
v -12 -9 0
v -11 -9 0
v -12 -10 0
v -13 -10 0
v -13 -9 0
v -12 -9 0
v -13 -10 0
v -14 -10 0
v -14 -9 0
v -13 -9 0
v -14 -10 0
v -15 -10 0
v -15 -9 0
v -14 -9 0
v -15 -10 0
v -16 -10 0
v -16 -9 0
v -15 -9 0
v -3 -11 0
v -4 -11 0
v -4 -10 0
v -3 -10 0
v -4 -11 0
v -5 -11 0
v -5 -10 0
v -4 -10 0
v -5 -11 0
v -6 -11 0
v -6 -10 0
v -5 -10 0
v -6 -11 0
v -7 -11 0
v -7 -10 0
v -6 -10 0
v -7 -11 0
v -8 -11 0
v -8 -10 0
v -7 -10 0
v -8 -11 0
v -9 -11 0
v -9 -10 0
v -8 -10 0
v -9 -11 0
v -10 -11 0
v -10 -10 0
v -9 -10 0
v -10 -11 0
v -11 -11 0
v -11 -10 0
v -10 -10 0
v -11 -11 0
v -12 -11 0
v -12 -10 0
v -11 -10 0
v -12 -11 0
v -13 -11 0
v -13 -10 0
v -12 -10 0
v -13 -11 0
v -14 -11 0
v -14 -10 0
v -13 -10 0
v -14 -11 0
v -15 -11 0
v -15 -10 0
v -14 -10 0
v -15 -11 0
v -16 -11 0
v -16 -10 0
v -15 -10 0
v -3 -12 0
v -4 -12 0
v -4 -11 0
v -3 -11 0
v -4 -12 0
v -5 -12 0
v -5 -11 0
v -4 -11 0
v -5 -12 0
v -6 -12 0
v -6 -11 0
v -5 -11 0
v -6 -12 0
v -7 -12 0
v -7 -11 0
v -6 -11 0
v -7 -12 0
v -8 -12 0
v -8 -11 0
v -7 -11 0
v -8 -12 0
v -9 -12 0
v -9 -11 0
v -8 -11 0
v -9 -12 0
v -10 -12 0
v -10 -11 0
v -9 -11 0
v -10 -12 0
v -11 -12 0
v -11 -11 0
v -10 -11 0
v -11 -12 0
v -12 -12 0
v -12 -11 0
v -11 -11 0
v -12 -12 0
v -13 -12 0
v -13 -11 0
v -12 -11 0
v -13 -12 0
v -14 -12 0
v -14 -11 0
v -13 -11 0
v -14 -12 0
v -15 -12 0
v -15 -11 0
v -14 -11 0
v -15 -12 0
v -16 -12 0
v -16 -11 0
v -15 -11 0
v -3 -13 0
v -4 -13 0
v -4 -12 0
v -3 -12 0
v -4 -13 0
v -5 -13 0
v -5 -12 0
v -4 -12 0
v -5 -13 0
v -6 -13 0
v -6 -12 0
v -5 -12 0
v -6 -13 0
v -7 -13 0
v -7 -12 0
v -6 -12 0
v -7 -13 0
v -8 -13 0
v -8 -12 0
v -7 -12 0
v -8 -13 0
v -9 -13 0
v -9 -12 0
v -8 -12 0
v -9 -13 0
v -10 -13 0
v -10 -12 0
v -9 -12 0
v -10 -13 0
v -11 -13 0
v -11 -12 0
v -10 -12 0
v -11 -13 0
v -12 -13 0
v -12 -12 0
v -11 -12 0
v -12 -13 0
v -13 -13 0
v -13 -12 0
v -12 -12 0
v -13 -13 0
v -14 -13 0
v -14 -12 0
v -13 -12 0
v -14 -13 0
v -15 -13 0
v -15 -12 0
v -14 -12 0
v -15 -13 0
v -16 -13 0
v -16 -12 0
v -15 -12 0
v -3 -14 0
v -4 -14 0
v -4 -13 0
v -3 -13 0
v -4 -14 0
v -5 -14 0
v -5 -13 0
v -4 -13 0
v -5 -14 0
v -6 -14 0
v -6 -13 0
v -5 -13 0
v -6 -14 0
v -7 -14 0
v -7 -13 0
v -6 -13 0
v -7 -14 0
v -8 -14 0
v -8 -13 0
v -7 -13 0
v -8 -14 0
v -9 -14 0
v -9 -13 0
v -8 -13 0
v -9 -14 0
v -10 -14 0
v -10 -13 0
v -9 -13 0
v -10 -14 0
v -11 -14 0
v -11 -13 0
v -10 -13 0
v -11 -14 0
v -12 -14 0
v -12 -13 0
v -11 -13 0
v -12 -14 0
v -13 -14 0
v -13 -13 0
v -12 -13 0
v -13 -14 0
v -14 -14 0
v -14 -13 0
v -13 -13 0
v -14 -14 0
v -15 -14 0
v -15 -13 0
v -14 -13 0
v -15 -14 0
v -16 -14 0
v -16 -13 0
v -15 -13 0
v -3 -15 0
v -4 -15 0
v -4 -14 0
v -3 -14 0
v -4 -15 0
v -5 -15 0
v -5 -14 0
v -4 -14 0
v -5 -15 0
v -6 -15 0
v -6 -14 0
v -5 -14 0
v -6 -15 0
v -7 -15 0
v -7 -14 0
v -6 -14 0
v -7 -15 0
v -8 -15 0
v -8 -14 0
v -7 -14 0
v -8 -15 0
v -9 -15 0
v -9 -14 0
v -8 -14 0
v -9 -15 0
v -10 -15 0
v -10 -14 0
v -9 -14 0
v -10 -15 0
v -11 -15 0
v -11 -14 0
v -10 -14 0
v -11 -15 0
v -12 -15 0
v -12 -14 0
v -11 -14 0
v -12 -15 0
v -13 -15 0
v -13 -14 0
v -12 -14 0
v -13 -15 0
v -14 -15 0
v -14 -14 0
v -13 -14 0
v -14 -15 0
v -15 -15 0
v -15 -14 0
v -14 -14 0
v -15 -15 0
v -16 -15 0
v -16 -14 0
v -15 -14 0
v -3 -16 0
v -4 -16 0
v -4 -15 0
v -3 -15 0
v -4 -16 0
v -5 -16 0
v -5 -15 0
v -4 -15 0
v -5 -16 0
v -6 -16 0
v -6 -15 0
v -5 -15 0
v -6 -16 0
v -7 -16 0
v -7 -15 0
v -6 -15 0
v -7 -16 0
v -8 -16 0
v -8 -15 0
v -7 -15 0
v -8 -16 0
v -9 -16 0
v -9 -15 0
v -8 -15 0
v -9 -16 0
v -10 -16 0
v -10 -15 0
v -9 -15 0
v -10 -16 0
v -11 -16 0
v -11 -15 0
v -10 -15 0
v -11 -16 0
v -12 -16 0
v -12 -15 0
v -11 -15 0
v -12 -16 0
v -13 -16 0
v -13 -15 0
v -12 -15 0
v -13 -16 0
v -14 -16 0
v -14 -15 0
v -13 -15 0
v -14 -16 0
v -15 -16 0
v -15 -15 0
v -14 -15 0
v -15 -16 0
v -16 -16 0
v -16 -15 0
v -15 -15 0

# Texture cooridinates (Count = 42)
vt 0.125 0.8125
vt 0.1875 0.8125
vt 0.1875 0.875
vt 0.125 0.875
vt 0.0625 0.8125
vt 0.0625 0.875
vt 0 0.8125
vt 0 0.875
vt 0.125 0.75
vt 0.1875 0.75
vt 0.3125 0.9375
vt 0.375 0.9375
vt 0.375 1
vt 0.3125 1
vt 0.4375 0.9375
vt 0.4375 1
vt 0.3125 0.875
vt 0.375 0.875
vt 0.4375 0.875
vt 0.3125 0.8125
vt 0.375 0.8125
vt 0.4375 0.8125
vt 0 0.5625
vt 0.0625 0.5625
vt 0.0625 0.625
vt 0 0.625
vt 0.125 0.5625
vt 0.125 0.625
vt 0.1875 0.5625
vt 0.1875 0.625
vt 0.25 0.5625
vt 0.25 0.625
vt 0 0.5
vt 0.0625 0.5
vt 0.125 0.5
vt 0.1875 0.5
vt 0.25 0.5
vt 0 0.4375
vt 0.0625 0.4375
vt 0.125 0.4375
vt 0.1875 0.4375
vt 0.25 0.4375

# Normal
vn 0 0 -1

# Mesh description
g World1_mesh_0005

# Faces
f 1/1/1 2/2/1 3/3/1 4/4/1
f 5/5/1 6/1/1 7/4/1 8/6/1
f 9/7/1 10/5/1 11/6/1 12/8/1
f 13/1/1 14/2/1 15/3/1 16/4/1
f 17/9/1 18/10/1 19/2/1 20/1/1
f 21/9/1 22/10/1 23/2/1 24/1/1
f 25/9/1 26/10/1 27/2/1 28/1/1
f 29/9/1 30/10/1 31/2/1 32/1/1
f 33/9/1 34/10/1 35/2/1 36/1/1
f 37/9/1 38/10/1 39/2/1 40/1/1
f 41/9/1 42/10/1 43/2/1 44/1/1
f 45/9/1 46/10/1 47/2/1 48/1/1
f 49/9/1 50/10/1 51/2/1 52/1/1
f 53/9/1 54/10/1 55/2/1 56/1/1
f 57/9/1 58/10/1 59/2/1 60/1/1
f 61/9/1 62/10/1 63/2/1 64/1/1
f 65/9/1 66/10/1 67/2/1 68/1/1
f 69/11/1 70/12/1 71/13/1 72/14/1
f 73/12/1 74/15/1 75/16/1 76/13/1
f 77/9/1 78/10/1 79/2/1 80/1/1
f 81/17/1 82/18/1 83/12/1 84/11/1
f 85/18/1 86/19/1 87/15/1 88/12/1
f 89/20/1 90/21/1 91/18/1 92/17/1
f 93/21/1 94/22/1 95/19/1 96/18/1
f 97/7/1 98/5/1 99/6/1 100/8/1
f 101/5/1 102/1/1 103/4/1 104/6/1
f 105/1/1 106/2/1 107/3/1 108/4/1
f 109/1/1 110/2/1 111/3/1 112/4/1
f 113/7/1 114/5/1 115/6/1 116/8/1
f 117/1/1 118/2/1 119/3/1 120/4/1
f 121/1/1 122/2/1 123/3/1 124/4/1
f 125/1/1 126/2/1 127/3/1 128/4/1
f 129/5/1 130/1/1 131/4/1 132/6/1
f 133/5/1 134/1/1 135/4/1 136/6/1
f 137/9/1 138/10/1 139/2/1 140/1/1
f 141/9/1 142/10/1 143/2/1 144/1/1
f 145/1/1 146/2/1 147/3/1 148/4/1
f 149/9/1 150/10/1 151/2/1 152/1/1
f 153/23/1 154/24/1 155/25/1 156/26/1
f 157/24/1 158/27/1 159/28/1 160/25/1
f 161/27/1 162/29/1 163/30/1 164/28/1
f 165/29/1 166/31/1 167/32/1 168/30/1
f 169/9/1 170/10/1 171/2/1 172/1/1
f 173/9/1 174/10/1 175/2/1 176/1/1
f 177/9/1 178/10/1 179/2/1 180/1/1
f 181/9/1 182/10/1 183/2/1 184/1/1
f 185/9/1 186/10/1 187/2/1 188/1/1
f 189/9/1 190/10/1 191/2/1 192/1/1
f 193/9/1 194/10/1 195/2/1 196/1/1
f 197/9/1 198/10/1 199/2/1 200/1/1
f 201/9/1 202/10/1 203/2/1 204/1/1
f 205/33/1 206/34/1 207/24/1 208/23/1
f 209/34/1 210/35/1 211/27/1 212/24/1
f 213/35/1 214/36/1 215/29/1 216/27/1
f 217/36/1 218/37/1 219/31/1 220/29/1
f 221/9/1 222/10/1 223/2/1 224/1/1
f 225/9/1 226/10/1 227/2/1 228/1/1
f 229/9/1 230/10/1 231/2/1 232/1/1
f 233/9/1 234/10/1 235/2/1 236/1/1
f 237/9/1 238/10/1 239/2/1 240/1/1
f 241/9/1 242/10/1 243/2/1 244/1/1
f 245/9/1 246/10/1 247/2/1 248/1/1
f 249/9/1 250/10/1 251/2/1 252/1/1
f 253/9/1 254/10/1 255/2/1 256/1/1
f 257/38/1 258/39/1 259/34/1 260/33/1
f 261/39/1 262/40/1 263/35/1 264/34/1
f 265/40/1 266/41/1 267/36/1 268/35/1
f 269/41/1 270/42/1 271/37/1 272/36/1
f 273/9/1 274/10/1 275/2/1 276/1/1
f 277/9/1 278/10/1 279/2/1 280/1/1
f 281/9/1 282/10/1 283/2/1 284/1/1
f 285/9/1 286/10/1 287/2/1 288/1/1
f 289/9/1 290/10/1 291/2/1 292/1/1
f 293/9/1 294/10/1 295/2/1 296/1/1
f 297/9/1 298/10/1 299/2/1 300/1/1
f 301/9/1 302/10/1 303/2/1 304/1/1
f 305/9/1 306/10/1 307/2/1 308/1/1
f 309/9/1 310/10/1 311/2/1 312/1/1
f 313/9/1 314/10/1 315/2/1 316/1/1
f 317/9/1 318/10/1 319/2/1 320/1/1
f 321/9/1 322/10/1 323/2/1 324/1/1
f 325/9/1 326/10/1 327/2/1 328/1/1
f 329/9/1 330/10/1 331/2/1 332/1/1
f 333/9/1 334/10/1 335/2/1 336/1/1
f 337/9/1 338/10/1 339/2/1 340/1/1
f 341/9/1 342/10/1 343/2/1 344/1/1
f 345/9/1 346/10/1 347/2/1 348/1/1
f 349/9/1 350/10/1 351/2/1 352/1/1
f 353/9/1 354/10/1 355/2/1 356/1/1
f 357/9/1 358/10/1 359/2/1 360/1/1
f 361/9/1 362/10/1 363/2/1 364/1/1
f 365/9/1 366/10/1 367/2/1 368/1/1
f 369/9/1 370/10/1 371/2/1 372/1/1
f 373/9/1 374/10/1 375/2/1 376/1/1
f 377/9/1 378/10/1 379/2/1 380/1/1
f 381/9/1 382/10/1 383/2/1 384/1/1
f 385/9/1 386/10/1 387/2/1 388/1/1
f 389/9/1 390/10/1 391/2/1 392/1/1
f 393/23/1 394/24/1 395/25/1 396/26/1
f 397/24/1 398/27/1 399/28/1 400/25/1
f 401/27/1 402/29/1 403/30/1 404/28/1
f 405/29/1 406/31/1 407/32/1 408/30/1
f 409/9/1 410/10/1 411/2/1 412/1/1
f 413/9/1 414/10/1 415/2/1 416/1/1
f 417/9/1 418/10/1 419/2/1 420/1/1
f 421/9/1 422/10/1 423/2/1 424/1/1
f 425/9/1 426/10/1 427/2/1 428/1/1
f 429/9/1 430/10/1 431/2/1 432/1/1
f 433/9/1 434/10/1 435/2/1 436/1/1
f 437/9/1 438/10/1 439/2/1 440/1/1
f 441/9/1 442/10/1 443/2/1 444/1/1
f 445/33/1 446/34/1 447/24/1 448/23/1
f 449/34/1 450/35/1 451/27/1 452/24/1
f 453/35/1 454/36/1 455/29/1 456/27/1
f 457/36/1 458/37/1 459/31/1 460/29/1

