# Tiled2Unity generated file. Do not modify by hand.
# Wavefront file for 'World1_mesh_0096.obj'

# Vertices (Count = 24)
v -5 -13 0
v -6 -13 0
v -6 -12 0
v -5 -12 0
v -6 -13 0
v -7 -13 0
v -7 -12 0
v -6 -12 0
v -5 -14 0
v -6 -14 0
v -6 -13 0
v -5 -13 0
v -6 -14 0
v -7 -14 0
v -7 -13 0
v -6 -13 0
v -7 -14 0
v -8 -14 0
v -8 -13 0
v -7 -13 0
v -8 -14 0
v -9 -14 0
v -9 -13 0
v -8 -13 0

# Texture cooridinates (Count = 15)
vt 0.625 0.6875
vt 0.6875 0.6875
vt 0.6875 0.75
vt 0.625 0.75
vt 0.75 0.6875
vt 0.75 0.75
vt 0.625 0.625
vt 0.6875 0.625
vt 0.75 0.625
vt 0.25 0.75
vt 0.3125 0.75
vt 0.3125 0.8125
vt 0.25 0.8125
vt 0.3125 0.875
vt 0.25 0.875

# Normal
vn 0 0 -1

# Mesh description
g World1_mesh_0096

# Faces
f 1/1/1 2/2/1 3/3/1 4/4/1
f 5/2/1 6/5/1 7/6/1 8/3/1
f 9/7/1 10/8/1 11/2/1 12/1/1
f 13/8/1 14/9/1 15/5/1 16/2/1
f 17/10/1 18/11/1 19/12/1 20/13/1
f 21/13/1 22/12/1 23/14/1 24/15/1

