# Tiled2Unity generated file. Do not modify by hand.
# Wavefront file for 'World1_mesh_0113.obj'

# Vertices (Count = 12)
v -8 -1 0
v -9 -1 0
v -9 0 0
v -8 0 0
v -12 -1 0
v -13 -1 0
v -13 0 0
v -12 0 0
v -8 -2 0
v -9 -2 0
v -9 -1 0
v -8 -1 0

# Texture cooridinates (Count = 10)
vt 0.125 0.6875
vt 0.1875 0.6875
vt 0.1875 0.75
vt 0.125 0.75
vt 0.375 0.625
vt 0.4375 0.625
vt 0.4375 0.6875
vt 0.375 0.6875
vt 0.125 0.625
vt 0.1875 0.625

# Normal
vn 0 0 -1

# Mesh description
g World1_mesh_0113

# Faces
f 1/1/1 2/2/1 3/3/1 4/4/1
f 5/5/1 6/6/1 7/7/1 8/8/1
f 9/9/1 10/10/1 11/2/1 12/1/1

