# Tiled2Unity generated file. Do not modify by hand.
# Wavefront file for 'BackGround_mesh_0007.obj'

# Vertices (Count = 136)
v -4 -12 0
v -5 -12 0
v -5 -11 0
v -4 -11 0
v -7 -12 0
v -8 -12 0
v -8 -11 0
v -7 -11 0
v -9 -12 0
v -10 -12 0
v -10 -11 0
v -9 -11 0
v -10 -12 0
v -11 -12 0
v -11 -11 0
v -10 -11 0
v -7 -13 0
v -8 -13 0
v -8 -12 0
v -7 -12 0
v -19 -13 0
v -20 -13 0
v -20 -12 0
v -19 -12 0
v -19 -14 0
v -20 -14 0
v -20 -13 0
v -19 -13 0
v -12 -15 0
v -13 -15 0
v -13 -14 0
v -12 -14 0
v -19 -15 0
v -20 -15 0
v -20 -14 0
v -19 -14 0
v -12 -16 0
v -13 -16 0
v -13 -15 0
v -12 -15 0
v -12 -18 0
v -13 -18 0
v -13 -17 0
v -12 -17 0
v -19 -18 0
v -20 -18 0
v -20 -17 0
v -19 -17 0
v -19 -19 0
v -20 -19 0
v -20 -18 0
v -19 -18 0
v -9 -20 0
v -10 -20 0
v -10 -19 0
v -9 -19 0
v -19 -20 0
v -20 -20 0
v -20 -19 0
v -19 -19 0
v -21 -21 0
v -22 -21 0
v -22 -20 0
v -21 -20 0
v -23 -21 0
v -24 -21 0
v -24 -20 0
v -23 -20 0
v -6 -22 0
v -7 -22 0
v -7 -21 0
v -6 -21 0
v -7 -22 0
v -8 -22 0
v -8 -21 0
v -7 -21 0
v -21 -22 0
v -22 -22 0
v -22 -21 0
v -21 -21 0
v -22 -22 0
v -23 -22 0
v -23 -21 0
v -22 -21 0
v -23 -22 0
v -24 -22 0
v -24 -21 0
v -23 -21 0
v -6 -23 0
v -7 -23 0
v -7 -22 0
v -6 -22 0
v -7 -23 0
v -8 -23 0
v -8 -22 0
v -7 -22 0
v -21 -23 0
v -22 -23 0
v -22 -22 0
v -21 -22 0
v -22 -23 0
v -23 -23 0
v -23 -22 0
v -22 -22 0
v -23 -23 0
v -24 -23 0
v -24 -22 0
v -23 -22 0
v -6 -24 0
v -7 -24 0
v -7 -23 0
v -6 -23 0
v -7 -24 0
v -8 -24 0
v -8 -23 0
v -7 -23 0
v -5 -27 0
v -6 -27 0
v -6 -26 0
v -5 -26 0
v -8 -27 0
v -9 -27 0
v -9 -26 0
v -8 -26 0
v -8 -28 0
v -9 -28 0
v -9 -27 0
v -8 -27 0
v -23 -30 0
v -24 -30 0
v -24 -29 0
v -23 -29 0
v -7 -34 0
v -8 -34 0
v -8 -33 0
v -7 -33 0

# Texture cooridinates (Count = 49)
vt 0.1875 0.9375
vt 0.25 0.9375
vt 0.25 1
vt 0.1875 1
vt 0.1875 0.6875
vt 0.25 0.6875
vt 0.25 0.75
vt 0.1875 0.75
vt 0.3125 0.9375
vt 0.3125 1
vt 0.4375 0.875
vt 0.5 0.875
vt 0.5 0.9375
vt 0.4375 0.9375
vt 0.1875 0.625
vt 0.25 0.625
vt 0.125 0.75
vt 0.1875 0.8125
vt 0.125 0.8125
vt 0.1875 0.875
vt 0.25 0.875
vt 0.25 0.8125
vt 0.75 0.6875
vt 0.8125 0.6875
vt 0.8125 0.75
vt 0.75 0.75
vt 0.9375 0.6875
vt 1 0.6875
vt 1 0.75
vt 0.9375 0.75
vt 0.375 0.9375
vt 0.375 1
vt 0.4375 1
vt 0.3125 0.875
vt 0.375 0.875
vt 0.3125 0.8125
vt 0.375 0.8125
vt 0.4375 0.8125
vt 0.5 1
vt 0.3125 0.5625
vt 0.375 0.5625
vt 0.375 0.625
vt 0.3125 0.625
vt 0.3125 0.5
vt 0.375 0.5
vt 0.6875 0.125
vt 0.75 0.125
vt 0.75 0.1875
vt 0.6875 0.1875

# Normal
vn 0 0 -1

# Mesh description
g BackGround_mesh_0007

# Faces
f 1/1/1 2/2/1 3/3/1 4/4/1
f 5/5/1 6/6/1 7/7/1 8/8/1
f 9/2/1 10/9/1 11/10/1 12/3/1
f 13/11/1 14/12/1 15/13/1 16/14/1
f 17/15/1 18/16/1 19/6/1 20/5/1
f 21/17/1 22/8/1 23/18/1 24/19/1
f 25/17/1 26/8/1 27/18/1 28/19/1
f 29/20/1 30/21/1 31/2/1 32/1/1
f 33/17/1 34/8/1 35/18/1 36/19/1
f 37/18/1 38/22/1 39/21/1 40/20/1
f 41/23/1 42/24/1 43/25/1 44/26/1
f 45/17/1 46/8/1 47/18/1 48/19/1
f 49/17/1 50/8/1 51/18/1 52/19/1
f 53/27/1 54/28/1 55/29/1 56/30/1
f 57/17/1 58/8/1 59/18/1 60/19/1
f 61/9/1 62/31/1 63/32/1 64/10/1
f 65/31/1 66/14/1 67/33/1 68/32/1
f 69/9/1 70/31/1 71/32/1 72/10/1
f 73/31/1 74/14/1 75/33/1 76/32/1
f 77/34/1 78/35/1 79/31/1 80/9/1
f 81/34/1 82/35/1 83/31/1 84/9/1
f 85/35/1 86/11/1 87/14/1 88/31/1
f 89/34/1 90/35/1 91/31/1 92/9/1
f 93/35/1 94/11/1 95/14/1 96/31/1
f 97/36/1 98/37/1 99/35/1 100/34/1
f 101/36/1 102/37/1 103/35/1 104/34/1
f 105/37/1 106/38/1 107/11/1 108/35/1
f 109/36/1 110/37/1 111/35/1 112/34/1
f 113/37/1 114/38/1 115/11/1 116/35/1
f 117/14/1 118/13/1 119/39/1 120/33/1
f 121/40/1 122/41/1 123/42/1 124/43/1
f 125/44/1 126/45/1 127/41/1 128/40/1
f 129/46/1 130/47/1 131/48/1 132/49/1
f 133/14/1 134/13/1 135/39/1 136/33/1

